<svg width="200" height="140" viewBox="0 0 200 140" fill="none" xmlns="http://www.w3.org/2000/svg">
<rect x="0.5" y="0.5" width="199" height="139" rx="11.5" fill="#1E2029"/>
<rect x="0.5" y="0.5" width="199" height="139" rx="11.5" stroke="#303341"/>
<g clip-path="url(#clip0_4060_86564)">
<rect x="20" y="41.0001" width="160" height="57.8" rx="10.8" fill="#303341"/>
<path d="M38 69.8001C38 61.8472 44.4471 55.4001 52.4 55.4001V55.4001C60.3529 55.4001 66.8 61.8472 66.8 69.8001V69.8001C66.8 77.753 60.3529 84.2001 52.4 84.2001V84.2001C44.4471 84.2001 38 77.753 38 69.8001V69.8001Z" fill="#C91A03"/>
<path d="M53.4018 64.1804C53.4074 64.1378 53.4102 64.0945 53.4102 64.0504C53.4102 63.4979 52.958 63.0501 52.4001 63.0501C51.8422 63.0501 51.3899 63.4979 51.3899 64.0504C51.3899 64.0945 51.3928 64.1378 51.3983 64.1804C49.7207 64.6246 48.4837 66.1582 48.4837 67.9818L48.4833 71.3624L46.6215 72.8192C46.5781 72.8532 46.5527 72.9052 46.5525 72.9603L46.5508 73.3811C46.5504 73.4808 46.6311 73.5618 46.7308 73.5618H58.0693C58.169 73.5618 58.2497 73.4808 58.2493 73.3811L58.2477 72.9603C58.2474 72.9052 58.222 72.8532 58.1786 72.8192L56.3168 71.3624L56.3164 71.3636L56.3164 67.9818C56.3164 66.1582 55.0795 64.6246 53.4018 64.1804Z" fill="white"/>
<path d="M54.2133 74.646C54.2133 75.6976 53.4044 76.5501 52.4067 76.5501C51.4089 76.5501 50.6001 75.6976 50.6001 74.646H54.2133Z" fill="white"/>
<path d="M84.2141 57.891H85.2445V63.5249C85.2445 65.2699 83.9399 66.5496 81.9373 66.5496C79.9346 66.5496 78.63 65.2699 78.63 63.5249V57.891H79.6604V63.4418C79.6604 64.6883 80.5163 65.5857 81.9373 65.5857C83.3582 65.5857 84.2141 64.6883 84.2141 63.4418V57.891ZM88.2083 62.561V66.4001H87.2277V60.0182H88.175V61.0154H88.2581C88.5573 60.3672 89.1556 59.9351 90.1195 59.9351C91.4116 59.9351 92.28 60.7162 92.28 62.3449V66.4001H91.2995V62.4114C91.2995 61.4101 90.7469 60.816 89.837 60.816C88.898 60.816 88.2083 61.4475 88.2083 62.561ZM96.0082 66.5496C94.795 66.5496 93.8311 65.835 93.8311 64.5885C93.8311 63.126 95.1233 62.8643 96.3074 62.7106C97.4707 62.561 97.9527 62.6025 97.9527 62.1289V62.0956C97.9527 61.2771 97.5081 60.7993 96.6065 60.7993C95.6717 60.7993 95.1607 61.2979 94.9446 61.7633L94.0139 61.4309C94.5125 60.2675 95.6094 59.9351 96.5733 59.9351C97.3876 59.9351 98.9332 60.1678 98.9332 62.1954V66.4001H97.9527V65.5358H97.9028C97.7034 65.9513 97.1217 66.5496 96.0082 66.5496ZM96.1578 65.6688C97.3212 65.6688 97.9527 64.8877 97.9527 64.09V63.1925C97.7865 63.392 96.673 63.5083 96.2575 63.5581C95.493 63.6579 94.8117 63.8905 94.8117 64.6384C94.8117 65.3198 95.3767 65.6688 96.1578 65.6688ZM100.914 66.4001V57.891H101.895V61.032H101.978C102.194 60.6996 102.576 59.9351 103.823 59.9351C105.435 59.9351 106.548 61.2148 106.548 63.2258C106.548 65.2533 105.435 66.533 103.839 66.533C102.61 66.533 102.194 65.7685 101.978 65.4195H101.862V66.4001H100.914ZM101.878 63.2091C101.878 64.655 102.526 65.6522 103.706 65.6522C104.936 65.6522 105.568 64.5719 105.568 63.2091C105.568 61.863 104.953 60.816 103.706 60.816C102.51 60.816 101.878 61.7799 101.878 63.2091ZM108.107 57.891H109.087V64.7381C109.087 65.3572 109.187 65.5816 109.619 65.5691C109.852 65.5608 109.939 65.5317 110.035 65.5026L110.234 66.3502C110.064 66.4001 109.785 66.4499 109.503 66.4499C108.572 66.4499 108.107 65.9139 108.107 65.004V57.891ZM113.869 66.533C112.024 66.533 110.894 65.2201 110.894 63.259C110.894 61.2979 112.041 59.9351 113.769 59.9351C115.099 59.9351 116.511 60.7495 116.511 63.126V63.5415H111.879C111.924 64.9085 112.718 65.6522 113.869 65.6522C114.637 65.6522 115.215 65.3198 115.464 64.655L116.412 64.9209C116.112 65.8849 115.165 66.533 113.869 66.533ZM111.879 62.6939H115.514C115.514 61.6137 114.833 60.816 113.769 60.816C112.647 60.816 111.945 61.7009 111.879 62.6939ZM81.2725 75.0182V75.8492H79.9097V79.5719C79.9097 80.4029 80.3252 80.5358 80.7573 80.5358C80.9733 80.5358 81.1063 80.5026 81.1894 80.486L81.3888 81.3668C81.2559 81.4167 81.0232 81.4831 80.6576 81.4831C79.8266 81.4831 78.9292 80.9513 78.9292 79.8378V75.8492H77.9652V75.0182H78.9292V73.4893H79.9097V75.0182H81.2725ZM85.33 81.533C83.6016 81.533 82.4382 80.2201 82.4382 78.2424C82.4382 76.2481 83.6016 74.9351 85.33 74.9351C87.0584 74.9351 88.2218 76.2481 88.2218 78.2424C88.2218 80.2201 87.0584 81.533 85.33 81.533ZM85.33 80.6522C86.6429 80.6522 87.2412 79.5221 87.2412 78.2424C87.2412 76.9627 86.6429 75.816 85.33 75.816C84.0171 75.816 83.4188 76.9627 83.4188 78.2424C83.4188 79.5221 84.0171 80.6522 85.33 80.6522ZM95.7188 81.533C93.9239 81.533 92.827 80.1536 92.827 78.2424C92.827 76.2979 93.9738 74.9351 95.7022 74.9351C97.0483 74.9351 98.0621 75.7329 98.2283 76.9295H97.2478C97.0982 76.3478 96.583 75.816 95.7188 75.816C94.572 75.816 93.8076 76.7633 93.8076 78.2091C93.8076 79.6883 94.5554 80.6522 95.7188 80.6522C96.4833 80.6522 97.0649 80.2367 97.2478 79.5387H98.2283C98.0621 80.6688 97.1314 81.533 95.7188 81.533ZM102.313 81.533C100.584 81.533 99.4211 80.2201 99.4211 78.2424C99.4211 76.2481 100.584 74.9351 102.313 74.9351C104.041 74.9351 105.205 76.2481 105.205 78.2424C105.205 80.2201 104.041 81.533 102.313 81.533ZM102.313 80.6522C103.626 80.6522 104.224 79.5221 104.224 78.2424C104.224 76.9627 103.626 75.816 102.313 75.816C101 75.816 100.402 76.9627 100.402 78.2424C100.402 79.5221 101 80.6522 102.313 80.6522ZM107.74 77.561V81.4001H106.76V75.0182H107.707V76.0154H107.79C108.089 75.3672 108.688 74.9351 109.652 74.9351C110.944 74.9351 111.812 75.7162 111.812 77.3449V81.4001H110.832V77.4114C110.832 76.4101 110.279 75.816 109.369 75.816C108.43 75.816 107.74 76.4475 107.74 77.561ZM114.643 77.561V81.4001H113.662V75.0182H114.61V76.0154H114.693C114.992 75.3672 115.59 74.9351 116.554 74.9351C117.846 74.9351 118.715 75.7162 118.715 77.3449V81.4001H117.734V77.4114C117.734 76.4101 117.182 75.816 116.272 75.816C115.333 75.816 114.643 76.4475 114.643 77.561ZM123.241 81.533C121.396 81.533 120.266 80.2201 120.266 78.259C120.266 76.2979 121.413 74.9351 123.141 74.9351C124.47 74.9351 125.883 75.7495 125.883 78.126V78.5415H121.25C121.296 79.9085 122.09 80.6522 123.241 80.6522C124.009 80.6522 124.587 80.3198 124.836 79.655L125.783 79.9209C125.484 80.8849 124.537 81.533 123.241 81.533ZM121.25 77.6939H124.886C124.886 76.6137 124.205 75.816 123.141 75.816C122.019 75.816 121.317 76.7009 121.25 77.6939ZM130.026 81.533C128.231 81.533 127.134 80.1536 127.134 78.2424C127.134 76.2979 128.281 74.9351 130.009 74.9351C131.355 74.9351 132.369 75.7329 132.535 76.9295H131.555C131.405 76.3478 130.89 75.816 130.026 75.816C128.879 75.816 128.115 76.7633 128.115 78.2091C128.115 79.6883 128.862 80.6522 130.026 80.6522C130.79 80.6522 131.372 80.2367 131.555 79.5387H132.535C132.369 80.6688 131.438 81.533 130.026 81.533ZM136.803 75.0182V75.8492H135.44V79.5719C135.44 80.4029 135.855 80.5358 136.287 80.5358C136.504 80.5358 136.636 80.5026 136.72 80.486L136.919 81.3668C136.786 81.4167 136.553 81.4831 136.188 81.4831C135.357 81.4831 134.459 80.9513 134.459 79.8378V75.8492H133.495V75.0182H134.459V73.4893H135.44V75.0182H136.803Z" fill="#D3D5DE"/>
<path fill-rule="evenodd" clip-rule="evenodd" d="M160.727 59.0001L158.182 56.4545L159.454 55.1817L162 57.7273L164.546 55.1817L165.818 56.4545L163.273 59.0001L165.818 61.5456L164.546 62.8184L162 60.2728L159.454 62.8184L158.182 61.5456L160.727 59.0001Z" fill="#626784"/>
</g>
<defs>
<clipPath id="clip0_4060_86564">
<rect x="20" y="41.0001" width="160" height="57.8" rx="10.8" fill="white"/>
</clipPath>
</defs>
</svg>
