<svg width="200" height="140" viewBox="0 0 200 140" fill="none" xmlns="http://www.w3.org/2000/svg">
<rect x="0.5" y="0.5" width="199" height="139" rx="11.5" fill="#F6F7F9"/>
<rect x="0.5" y="0.5" width="199" height="139" rx="11.5" stroke="#E8E9EE"/>
<rect x="20" y="18" width="160" height="32" rx="8" fill="white"/>
<rect x="20" y="18" width="160" height="32" rx="8" stroke="#3385FF" stroke-width="2"/>
<path d="M36.081 31.9091V32.8324H34.5668V36.9688C34.5668 37.892 35.0284 38.0398 35.5085 38.0398C35.7486 38.0398 35.8963 38.0028 35.9886 37.9844L36.2102 38.9631C36.0625 39.0185 35.804 39.0923 35.3977 39.0923C34.4744 39.0923 33.4773 38.5014 33.4773 37.2642V32.8324H32.4062V31.9091H33.4773V30.2102H34.5668V31.9091H36.081ZM40.6817 39.1477C38.6319 39.1477 37.3763 37.6889 37.3763 35.5099C37.3763 33.331 38.6504 31.8168 40.5709 31.8168C42.0481 31.8168 43.6177 32.7216 43.6177 35.3622V35.8239H38.4704C38.5211 37.3427 39.4029 38.169 40.6817 38.169C41.5357 38.169 42.1774 37.7997 42.4544 37.0611L43.5069 37.3565C43.1746 38.4276 42.122 39.1477 40.6817 39.1477ZM38.4704 34.8821H42.5098C42.5098 33.6818 41.7527 32.7955 40.5709 32.7955C39.3244 32.7955 38.5442 33.7788 38.4704 34.8821ZM50.3628 33.4972L49.3841 33.7741C49.1948 33.2848 48.8024 32.7585 47.8514 32.7585C46.9835 32.7585 46.3372 33.2017 46.3372 33.8111C46.3372 34.3558 46.7158 34.6374 47.556 34.8452L48.6085 35.1037C49.8734 35.413 50.492 36.0362 50.492 37.0241C50.492 38.2475 49.3702 39.1477 47.7222 39.1477C46.2726 39.1477 45.28 38.506 45.0261 37.3011L46.0602 37.0426C46.2541 37.8043 46.8127 38.1875 47.7037 38.1875C48.7193 38.1875 49.3656 37.6889 49.3656 37.0795C49.3656 36.5902 49.0286 36.2486 48.3131 36.0824L47.1312 35.8054C45.8294 35.5007 45.2477 34.8452 45.2477 33.8665C45.2477 32.6662 46.3557 31.8168 47.8514 31.8168C49.2548 31.8168 50.0212 32.4908 50.3628 33.4972ZM55.2808 31.9091V32.8324H53.7666V36.9688C53.7666 37.892 54.2283 38.0398 54.7084 38.0398C54.9485 38.0398 55.0962 38.0028 55.1885 37.9844L55.4101 38.9631C55.2624 39.0185 55.0039 39.0923 54.5976 39.0923C53.6743 39.0923 52.6772 38.5014 52.6772 37.2642V32.8324H51.6061V31.9091H52.6772V30.2102H53.7666V31.9091H55.2808Z" fill="#21222C"/>
<rect width="1" height="16" transform="translate(55 26)" fill="#21222C"/>
<g filter="url(#filter0_d_4060_86154)">
<path d="M20 51H180V115C180 119.418 176.418 123 172 123H28C23.5817 123 20 119.418 20 115V51Z" fill="white"/>
<path d="M35.6747 76.1477C33.902 76.1477 32.6648 74.7259 32.6648 72.473C32.6648 70.2386 33.902 68.8168 35.6932 68.8168C37.0781 68.8168 37.5028 69.6662 37.7429 70.0355H37.8352V66.5455H38.9247V76H37.8722V74.9105H37.7429C37.5028 75.2983 37.0412 76.1477 35.6747 76.1477ZM35.8224 75.169C37.1335 75.169 37.8537 74.0611 37.8537 72.4545C37.8537 70.8665 37.152 69.7955 35.8224 69.7955C34.4375 69.7955 33.7543 70.9588 33.7543 72.4545C33.7543 73.9688 34.456 75.169 35.8224 75.169ZM41.2841 76V66.5455H42.3736V70.0355H42.4659C42.706 69.6662 43.1307 68.8168 44.5156 68.8168C46.3068 68.8168 47.544 70.2386 47.544 72.473C47.544 74.7259 46.3068 76.1477 44.5341 76.1477C43.1676 76.1477 42.706 75.2983 42.4659 74.9105H42.3367V76H41.2841ZM42.3551 72.4545C42.3551 74.0611 43.0753 75.169 44.3864 75.169C45.7529 75.169 46.4546 73.9688 46.4546 72.4545C46.4546 70.9588 45.7713 69.7955 44.3864 69.7955C43.0568 69.7955 42.3551 70.8665 42.3551 72.4545ZM54.1691 76V77.0156H48.26V76H54.1691ZM58.4593 68.9091V70.017H57.0051V73.918C57.0051 74.7166 57.4067 74.8643 57.8545 74.8643C58.0761 74.8643 58.2469 74.8228 58.3393 74.8043L58.5886 75.9446C58.427 76.0046 58.1315 76.0877 57.693 76.0923C56.6035 76.1154 55.6202 75.4922 55.6248 74.2042V70.017H54.5861V68.9091H55.6248V67.2102H57.0051V68.9091H58.4593ZM63.0311 76.1431C60.9399 76.1431 59.6565 74.7028 59.6565 72.5007C59.6565 70.3217 60.9583 68.8168 62.9342 68.8168C64.5407 68.8168 66.0734 69.8185 66.0734 72.3807V72.87H61.0322C61.0691 74.2365 61.8632 75.0028 63.045 75.0028C63.8298 75.0028 64.4299 74.6612 64.6792 73.9918L65.9857 74.2273C65.6718 75.3814 64.5776 76.1431 63.0311 76.1431ZM61.0368 71.8359H64.7208C64.7161 70.7511 64.0144 69.957 62.9434 69.957C61.8216 69.957 61.0922 70.8295 61.0368 71.8359ZM72.9835 70.6403L71.7324 70.8619C71.5708 70.3864 71.1738 69.9109 70.3151 69.9109C69.5303 69.9109 68.9394 70.2987 68.9441 70.8434C68.9394 71.3235 69.2764 71.5866 70.0566 71.7713L71.183 72.0298C72.4849 72.3299 73.122 72.9485 73.122 73.9503C73.122 75.2337 71.9355 76.1431 70.2228 76.1431C68.6301 76.1431 67.5868 75.4368 67.356 74.1811L68.6901 73.978C68.8563 74.6751 69.3872 75.0305 70.2136 75.0305C71.1184 75.0305 71.7047 74.6012 71.7047 74.0518C71.7047 73.6087 71.3862 73.304 70.7029 73.1516L69.5026 72.8885C68.1731 72.593 67.5637 71.9237 67.5637 70.9173C67.5637 69.6616 68.6994 68.8168 70.3013 68.8168C71.834 68.8168 72.6972 69.5369 72.9835 70.6403ZM78.0146 68.9091V70.017H76.5605V73.918C76.5605 74.7166 76.9621 74.8643 77.4099 74.8643C77.6315 74.8643 77.8023 74.8228 77.8946 74.8043L78.1439 75.9446C77.9823 76.0046 77.6869 76.0877 77.2483 76.0923C76.1588 76.1154 75.1755 75.4922 75.1801 74.2042V70.017H74.1414V68.9091H75.1801V67.2102H76.5605V68.9091H78.0146Z" fill="#21222C"/>
<path d="M32.5724 99.7734V98.5455H39.8896V99.7734H36.9396V108H35.5178V99.7734H32.5724ZM43.4885 108.143C41.3972 108.143 40.1138 106.703 40.1138 104.501C40.1138 102.322 41.4157 100.817 43.3915 100.817C44.9981 100.817 46.5307 101.819 46.5307 104.381V104.87H41.4895C41.5265 106.237 42.3205 107.003 43.5023 107.003C44.2871 107.003 44.8873 106.661 45.1366 105.992L46.443 106.227C46.1291 107.381 45.035 108.143 43.4885 108.143ZM41.4942 103.836H45.1781C45.1735 102.751 44.4718 101.957 43.4008 101.957C42.279 101.957 41.5496 102.83 41.4942 103.836ZM53.4408 102.64L52.1897 102.862C52.0282 102.386 51.6312 101.911 50.7725 101.911C49.9877 101.911 49.3968 102.299 49.4014 102.843C49.3968 103.324 49.7338 103.587 50.514 103.771L51.6404 104.03C52.9422 104.33 53.5793 104.949 53.5793 105.95C53.5793 107.234 52.3929 108.143 50.6802 108.143C49.0875 108.143 48.0442 107.437 47.8133 106.181L49.1475 105.978C49.3137 106.675 49.8446 107.031 50.6709 107.031C51.5758 107.031 52.162 106.601 52.162 106.052C52.162 105.609 51.8435 105.304 51.1603 105.152L49.96 104.888C48.6304 104.593 48.0211 103.924 48.0211 102.917C48.0211 101.662 49.1567 100.817 50.7586 100.817C52.2913 100.817 53.1546 101.537 53.4408 102.64ZM58.472 100.909V102.017H57.0178V105.918C57.0178 106.717 57.4194 106.864 57.8672 106.864C58.0888 106.864 58.2596 106.823 58.352 106.804L58.6012 107.945C58.4397 108.005 58.1442 108.088 57.7057 108.092C56.6162 108.115 55.6329 107.492 55.6375 106.204V102.017H54.5988V100.909H55.6375V99.2102H57.0178V100.909H58.472ZM65.2451 108L63.0846 100.909H64.2295L65.7621 106.338H65.836L67.3502 100.909H68.5136L70.0093 106.32H70.0832L71.6158 100.909H72.7607L70.6002 108H69.5292L67.9781 102.553H67.8673L66.3161 108H65.2451ZM76.9979 108.148C74.9481 108.148 73.6925 106.689 73.6925 104.51C73.6925 102.331 74.9666 100.817 76.8871 100.817C78.3643 100.817 79.9339 101.722 79.9339 104.362V104.824H74.7866C74.8374 106.343 75.7191 107.169 76.9979 107.169C77.8519 107.169 78.4936 106.8 78.7706 106.061L79.8231 106.357C79.4908 107.428 78.4382 108.148 76.9979 108.148ZM74.7866 103.882H78.826C78.826 102.682 78.0689 101.795 76.8871 101.795C75.6406 101.795 74.8604 102.779 74.7866 103.882ZM81.804 108V98.5455H82.8935V102.036H82.9858C83.2259 101.666 83.6506 100.817 85.0355 100.817C86.8267 100.817 88.0639 102.239 88.0639 104.473C88.0639 106.726 86.8267 108.148 85.054 108.148C83.6875 108.148 83.2259 107.298 82.9858 106.911H82.8565V108H81.804ZM82.875 104.455C82.875 106.061 83.5952 107.169 84.9063 107.169C86.2727 107.169 86.9744 105.969 86.9744 104.455C86.9744 102.959 86.2912 101.795 84.9063 101.795C83.5767 101.795 82.875 102.866 82.875 104.455ZM95.6034 108.166C94.2554 108.166 93.1843 107.372 93.1843 105.987C93.1843 104.362 94.6201 104.071 95.9358 103.901C97.2284 103.734 97.7639 103.781 97.7639 103.254V103.217C97.7639 102.308 97.2699 101.777 96.2681 101.777C95.2294 101.777 94.6616 102.331 94.4216 102.848L93.3875 102.479C93.9414 101.186 95.1602 100.817 96.2312 100.817C97.136 100.817 98.8534 101.075 98.8534 103.328V108H97.7639V107.04H97.7085C97.4869 107.501 96.8406 108.166 95.6034 108.166ZM95.7696 107.188C97.0622 107.188 97.7639 106.32 97.7639 105.433V104.436C97.5792 104.658 96.342 104.787 95.8804 104.842C95.0309 104.953 94.2738 105.212 94.2738 106.043C94.2738 106.8 94.9017 107.188 95.7696 107.188ZM100.907 110.659V100.909H101.959V102.036H102.089C102.329 101.666 102.754 100.817 104.138 100.817C105.93 100.817 107.167 102.239 107.167 104.473C107.167 106.726 105.93 108.148 104.157 108.148C102.79 108.148 102.329 107.298 102.089 106.911H101.996V110.659H100.907ZM101.978 104.455C101.978 106.061 102.698 107.169 104.009 107.169C105.376 107.169 106.077 105.969 106.077 104.455C106.077 102.959 105.394 101.795 104.009 101.795C102.68 101.795 101.978 102.866 101.978 104.455ZM108.894 110.659V100.909H109.946V102.036H110.076C110.316 101.666 110.74 100.817 112.125 100.817C113.917 100.817 115.154 102.239 115.154 104.473C115.154 106.726 113.917 108.148 112.144 108.148C110.777 108.148 110.316 107.298 110.076 106.911H109.983V110.659H108.894ZM109.965 104.455C109.965 106.061 110.685 107.169 111.996 107.169C113.363 107.169 114.064 105.969 114.064 104.455C114.064 102.959 113.381 101.795 111.996 101.795C110.667 101.795 109.965 102.866 109.965 104.455Z" fill="#21222C"/>
</g>
<defs>
<filter id="filter0_d_4060_86154" x="12" y="46" width="176" height="88" filterUnits="userSpaceOnUse" color-interpolation-filters="sRGB">
<feFlood flood-opacity="0" result="BackgroundImageFix"/>
<feColorMatrix in="SourceAlpha" type="matrix" values="0 0 0 0 0 0 0 0 0 0 0 0 0 0 0 0 0 0 127 0" result="hardAlpha"/>
<feOffset dy="3"/>
<feGaussianBlur stdDeviation="4"/>
<feColorMatrix type="matrix" values="0 0 0 0 0.152941 0 0 0 0 0.2 0 0 0 0 0.243137 0 0 0 0.2 0"/>
<feBlend mode="normal" in2="BackgroundImageFix" result="effect1_dropShadow_4060_86154"/>
<feBlend mode="normal" in="SourceGraphic" in2="effect1_dropShadow_4060_86154" result="shape"/>
</filter>
</defs>
</svg>
