<svg width="200" height="140" viewBox="0 0 200 140" fill="none" xmlns="http://www.w3.org/2000/svg">
<rect x="0.5" y="0.5" width="199" height="139" rx="11.5" fill="#F6F7F9"/>
<rect x="0.5" y="0.5" width="199" height="139" rx="11.5" stroke="#E8E9EE"/>
<rect x="23.45" y="56.4499" width="153.7" height="27.9" rx="6.75" fill="#E8E9EE"/>
<rect x="23.45" y="56.4499" width="153.7" height="27.9" rx="6.75" stroke="#E8E9EE" stroke-width="0.9"/>
<path d="M26.5996 63.1999C26.5996 61.2116 28.2114 59.5999 30.1996 59.5999H61.3996C63.3878 59.5999 64.9996 61.2116 64.9996 63.1999V77.5998C64.9996 79.5881 63.3878 81.1999 61.3996 81.1999H30.1996C28.2114 81.1999 26.5996 79.5881 26.5996 77.5999V63.1999Z" fill="white"/>
<path d="M35.119 73.8999V65.3908H36.4028V72.7947H40.2585V73.8999H35.119ZM44.37 74.0287C42.571 74.0287 41.3952 72.7116 41.3952 70.7381C41.3952 68.7521 42.571 67.435 44.37 67.435C46.1691 67.435 47.3449 68.7521 47.3449 70.7381C47.3449 72.7116 46.1691 74.0287 44.37 74.0287ZM44.3742 72.9858C45.5417 72.9858 46.0901 71.9596 46.0901 70.7339C46.0901 69.5124 45.5417 68.4737 44.3742 68.4737C43.1984 68.4737 42.6499 69.5124 42.6499 70.7339C42.6499 71.9596 43.1984 72.9858 44.3742 72.9858ZM49.9794 73.8999L48.1014 67.5181H49.3852L50.6358 72.2047H50.6982L51.9529 67.5181H53.2368L54.4832 72.184H54.5455L55.7878 67.5181H57.0717L55.1978 73.8999H53.9306L52.6343 69.2922H52.5388L51.2424 73.8999H49.9794Z" fill="#21222C"/>
<path d="M68.5996 63.1999C68.5996 61.2116 70.2114 59.5999 72.1996 59.5999H125.4C127.388 59.5999 129 61.2116 129 63.1999V77.5998C129 79.5881 127.388 81.1999 125.4 81.1999H72.1996C70.2114 81.1999 68.5996 79.5881 68.5996 77.5999V63.1999Z" fill="#E8E9EE"/>
<path d="M77.1367 65.3908H78.6948L81.4037 72.0053H81.5035L84.2124 65.3908H85.7705V73.8999H84.5489V67.7424H84.47L81.9605 73.8874H80.9467L78.4372 67.7383H78.3583V73.8999H77.1367V65.3908ZM90.3463 74.0287C88.4642 74.0287 87.3091 72.7324 87.3091 70.7505C87.3091 68.7895 88.4808 67.435 90.2591 67.435C91.7049 67.435 93.0843 68.3366 93.0843 70.6425V71.0829H88.5473C88.5805 72.3128 89.2951 73.0025 90.3588 73.0025C91.0651 73.0025 91.6052 72.695 91.8296 72.0926L93.0054 72.3044C92.7229 73.3432 91.7382 74.0287 90.3463 74.0287ZM88.5514 70.1522H91.867C91.8628 69.1759 91.2313 68.4612 90.2674 68.4612C89.2577 68.4612 88.6013 69.2465 88.5514 70.1522ZM96.9102 74.0245C95.3605 74.0245 94.2428 72.7864 94.2428 70.7215C94.2428 68.6524 95.3771 67.435 96.9185 67.435C98.1068 67.435 98.5306 68.1579 98.755 68.5526H98.8298V65.3908H100.072V73.8999H98.8588V72.9069H98.755C98.5306 73.3141 98.0736 74.0245 96.9102 74.0245ZM97.1844 72.9651C98.2564 72.9651 98.8505 72.051 98.8505 70.709C98.8505 69.3753 98.2689 68.4903 97.1844 68.4903C96.0626 68.4903 95.4976 69.4418 95.4976 70.709C95.4976 71.9887 96.0751 72.9651 97.1844 72.9651ZM101.904 73.8999V67.5181H103.146V73.8999H101.904ZM102.531 66.5334C102.099 66.5334 101.746 66.201 101.746 65.7938C101.746 65.3867 102.099 65.0501 102.531 65.0501C102.959 65.0501 103.316 65.3867 103.316 65.7938C103.316 66.201 102.959 66.5334 102.531 66.5334ZM108.918 71.2533V67.5181H110.165V73.8999H108.943V72.7947H108.877C108.582 73.4761 107.93 73.983 106.97 73.983C105.744 73.983 104.876 73.1603 104.876 71.5774V67.5181H106.118V71.4278C106.118 72.2961 106.65 72.8529 107.418 72.8529C108.116 72.8529 108.923 72.3377 108.918 71.2533ZM111.893 73.8999V67.5181H113.085V68.5568H113.164C113.43 67.8546 114.057 67.435 114.901 67.435C115.752 67.435 116.338 67.8588 116.617 68.5568H116.683C116.99 67.8754 117.68 67.435 118.598 67.435C119.753 67.435 120.568 68.1621 120.568 69.6204V73.8999H119.325V69.7368C119.325 68.8726 118.785 68.5069 118.129 68.5069C117.319 68.5069 116.849 69.0637 116.849 69.8323V73.8999H115.611V69.6578C115.611 68.964 115.133 68.5069 114.444 68.5069C113.737 68.5069 113.135 69.1052 113.135 69.9653V73.8999H111.893Z" fill="#21222C"/>
<path d="M132.6 63.1999C132.6 61.2116 134.211 59.5999 136.2 59.5999H170.4C172.388 59.5999 174 61.2116 174 63.1999V77.5998C174 79.5881 172.388 81.1999 170.4 81.1999H136.2C134.211 81.1999 132.6 79.5881 132.6 77.5999V63.1999Z" fill="#E8E9EE"/>
<path d="M141.219 73.8999V65.3908H142.502V69.0886H146.745V65.3908H148.033V73.8999H146.745V70.1896H142.502V73.8999H141.219ZM149.861 73.8999V67.5181H151.103V73.8999H149.861ZM150.488 66.5334C150.056 66.5334 149.703 66.201 149.703 65.7938C149.703 65.3867 150.056 65.0501 150.488 65.0501C150.916 65.0501 151.274 65.3867 151.274 65.7938C151.274 66.201 150.916 66.5334 150.488 66.5334ZM155.509 76.426C153.984 76.426 153.132 75.7613 152.796 74.9802L153.863 74.5397C154.084 74.9054 154.487 75.4247 155.521 75.4247C156.464 75.4247 157.15 74.9926 157.15 73.9913V72.7366H157.071C156.847 73.1437 156.394 73.8043 155.222 73.8043C153.714 73.8043 152.555 72.7199 152.555 70.6841C152.555 68.6524 153.689 67.435 155.23 67.435C156.419 67.435 156.859 68.1579 157.079 68.5526H157.171V67.5181H158.388V74.0412C158.388 75.6823 157.133 76.426 155.509 76.426ZM155.496 72.7739C156.568 72.7739 157.162 71.9845 157.162 70.6674C157.162 69.3753 156.581 68.4903 155.496 68.4903C154.375 68.4903 153.809 69.4418 153.809 70.6674C153.809 71.9222 154.387 72.7739 155.496 72.7739ZM161.355 70.1107V73.8999H160.113V65.3908H161.338V68.5568H161.417C161.716 67.8671 162.315 67.435 163.308 67.435C164.621 67.435 165.493 68.2493 165.493 69.8406V73.8999H164.251V69.9902C164.251 69.0554 163.74 68.5111 162.884 68.5111C161.999 68.5111 161.355 69.0928 161.355 70.1107Z" fill="#21222C"/>
</svg>
