<svg width="200" height="140" viewBox="0 0 200 140" fill="none" xmlns="http://www.w3.org/2000/svg">
<rect x="0.5" y="0.5" width="199" height="139" rx="11.5" fill="#1E2029"/>
<rect x="0.5" y="0.5" width="199" height="139" rx="11.5" stroke="#303341"/>
<g clip-path="url(#clip0_4060_86578)">
<path d="M43 77H59C62.866 77 66 80.134 66 84V100C66 103.866 62.866 107 59 107H43C39.134 107 36 103.866 36 100V84C36 80.134 39.134 77 43 77Z" stroke="#363949" stroke-width="2"/>
<path d="M49.8571 98.6939V99.8C49.8571 99.9105 49.9467 100 50.0571 100H51.9429C52.0533 100 52.1429 99.9105 52.1429 99.8V98.6939C52.1429 98.0574 52.6083 97.5219 53.1958 97.2772C53.7833 97.0324 54.4747 97.0909 54.9247 97.5409L55.7647 98.381C55.8428 98.4591 55.9695 98.4591 56.0476 98.381L57.381 97.0476C57.4591 96.9695 57.4591 96.8428 57.381 96.7647L56.5409 95.9247C56.0909 95.4747 56.0324 94.7833 56.2772 94.1958C56.5219 93.6083 57.0574 93.1429 57.6939 93.1429H58.8C58.9105 93.1429 59 93.0533 59 92.9429V91.0571C59 90.9467 58.9105 90.8571 58.8 90.8571H57.6938C57.0574 90.8571 56.5219 90.3917 56.2772 89.8042C56.0325 89.2167 56.0909 88.5253 56.5409 88.0754L57.381 87.2353C57.4591 87.1572 57.4591 87.0305 57.381 86.9524L56.0476 85.619C55.9695 85.5409 55.8429 85.5409 55.7648 85.619L54.9247 86.4591C54.4747 86.9091 53.7833 86.9676 53.1958 86.7228C52.6083 86.4781 52.1429 85.9426 52.1429 85.3061V84.2C52.1429 84.0895 52.0533 84 51.9429 84H50.0571C49.9467 84 49.8571 84.0895 49.8571 84.2V85.3061C49.8571 85.9426 49.3917 86.4781 48.8042 86.7228C48.2167 86.9676 47.5253 86.9091 47.0753 86.4591L46.2352 85.619C46.1571 85.5409 46.0305 85.5409 45.9524 85.619L44.619 86.9524C44.5409 87.0305 44.5409 87.1572 44.619 87.2353L45.4591 88.0754C45.9091 88.5253 45.9676 89.2167 45.7228 89.8042C45.4781 90.3917 44.9426 90.8571 44.3062 90.8571H43.2C43.0895 90.8571 43 90.9467 43 91.0571V92.9429C43 93.0533 43.0895 93.1429 43.2 93.1429H44.3061C44.9426 93.1429 45.4781 93.6083 45.7228 94.1958C45.9676 94.7833 45.9091 95.4747 45.4591 95.9247L44.619 96.7647C44.5409 96.8428 44.5409 96.9695 44.619 97.0476L45.9524 98.381C46.0305 98.4591 46.1572 98.4591 46.2353 98.381L47.0753 97.5409C47.5253 97.0909 48.2167 97.0324 48.8042 97.2772C49.3917 97.5219 49.8571 98.0574 49.8571 98.6939ZM51 94.8571C49.422 94.8571 48.1429 93.578 48.1429 92C48.1429 90.422 49.422 89.1429 51 89.1429C52.578 89.1429 53.8571 90.422 53.8571 92C53.8571 93.578 52.578 94.8571 51 94.8571Z" fill="#D3D5DE"/>
<path d="M35 40C35 35.5817 38.5817 32 43 32H156C160.418 32 164 35.5817 164 40V56C164 60.4183 160.418 64 156 64H43C38.5817 64 35 60.4183 35 56V40Z" fill="#E2E3E9"/>
<path d="M81.3711 48.8L86.3 48.8C86.4104 48.8 86.5 48.7104 86.5 48.6V47.4C86.5 47.2895 86.4104 47.2 86.3 47.2L81.3711 47.2L81.3711 42.2C81.3711 42.0895 81.2815 42 81.1711 42H79.9711C79.8606 42 79.7711 42.0895 79.7711 42.2V47.2L74.7 47.2C74.5895 47.2 74.5 47.2896 74.5 47.4V48.6C74.5 48.7105 74.5895 48.8 74.7 48.8L79.7711 48.8L79.7711 53.8C79.7711 53.9104 79.8606 54 79.9711 54H81.1711C81.2815 54 81.3711 53.9104 81.3711 53.8L81.3711 48.8Z" fill="#21222C"/>
<path d="M98.6405 53H97.1263L100.529 43.5455H102.177L105.579 53H104.065L103.202 50.4979H99.5084L98.6405 53ZM99.9239 49.2976H102.786L101.392 45.2628H101.318L99.9239 49.2976ZM109.439 53.1385C107.717 53.1385 106.475 51.7628 106.475 49.4684C106.475 47.1694 107.735 45.8168 109.448 45.8168C110.768 45.8168 111.239 46.62 111.489 47.0586H111.572V43.5455H112.952V53H111.604V51.8967H111.489C111.239 52.3491 110.731 53.1385 109.439 53.1385ZM109.744 51.9613C110.935 51.9613 111.595 50.9457 111.595 49.4545C111.595 47.9727 110.948 46.9893 109.744 46.9893C108.497 46.9893 107.869 48.0465 107.869 49.4545C107.869 50.8764 108.511 51.9613 109.744 51.9613ZM117.642 53.1385C115.92 53.1385 114.678 51.7628 114.678 49.4684C114.678 47.1694 115.938 45.8168 117.651 45.8168C118.971 45.8168 119.442 46.62 119.691 47.0586H119.774V43.5455H121.155V53H119.807V51.8967H119.691C119.442 52.3491 118.934 53.1385 117.642 53.1385ZM117.946 51.9613C119.137 51.9613 119.797 50.9457 119.797 49.4545C119.797 47.9727 119.151 46.9893 117.946 46.9893C116.7 46.9893 116.072 48.0465 116.072 49.4545C116.072 50.8764 116.714 51.9613 117.946 51.9613Z" fill="#21222C"/>
<path d="M79 84C79 79.5817 82.5817 76 87 76H156C160.418 76 164 79.5817 164 84V100C164 104.418 160.418 108 156 108H87C82.5817 108 79 104.418 79 100V84Z" fill="#303341"/>
<path d="M96.5086 87.5455H98.2398L101.25 94.8949H101.361L104.37 87.5455H106.102V97H104.744V90.1584H104.657L101.868 96.9862H100.742L97.9535 90.1538H97.8658V97H96.5086V87.5455ZM111.117 97.1431C109.118 97.1431 107.811 95.6797 107.811 93.4869C107.811 91.2802 109.118 89.8168 111.117 89.8168C113.116 89.8168 114.422 91.2802 114.422 93.4869C114.422 95.6797 113.116 97.1431 111.117 97.1431ZM111.121 95.9844C112.418 95.9844 113.028 94.8441 113.028 93.4822C113.028 92.125 112.418 90.9709 111.121 90.9709C109.815 90.9709 109.205 92.125 109.205 93.4822C109.205 94.8441 109.815 95.9844 111.121 95.9844ZM116.028 97V89.9091H117.362V91.0355H117.436C117.694 90.2738 118.405 89.8029 119.236 89.8029C119.412 89.8029 119.684 89.8168 119.823 89.8352V91.1555C119.712 91.1232 119.389 91.0724 119.102 91.0724C118.124 91.0724 117.408 91.7418 117.408 92.6697V97H116.028ZM123.884 97.1431C121.793 97.1431 120.51 95.7028 120.51 93.5007C120.51 91.3217 121.811 89.8168 123.787 89.8168C125.394 89.8168 126.927 90.8185 126.927 93.3807V93.87H121.885C121.922 95.2365 122.716 96.0028 123.898 96.0028C124.683 96.0028 125.283 95.6612 125.532 94.9918L126.839 95.2273C126.525 96.3814 125.431 97.1431 123.884 97.1431ZM121.89 92.8359H125.574C125.569 91.7511 124.868 90.957 123.797 90.957C122.675 90.957 121.945 91.8295 121.89 92.8359Z" fill="#D3D5DE"/>
<path fill-rule="evenodd" clip-rule="evenodd" d="M141 90.5L140 91.5L144 95.5L148 91.5L147 90.5L144 93.5L141 90.5Z" fill="#D3D5DE"/>
</g>
<defs>
<clipPath id="clip0_4060_86578">
<rect width="129" height="76" fill="white" transform="translate(35 32)"/>
</clipPath>
</defs>
</svg>
