<svg width="200" height="140" viewBox="0 0 200 140" fill="none" xmlns="http://www.w3.org/2000/svg">
<rect x="0.5" y="0.5" width="199" height="139" rx="11.5" fill="#F6F7F9"/>
<rect x="0.5" y="0.5" width="199" height="139" rx="11.5" stroke="#E8E9EE"/>
<g clip-path="url(#clip0_4060_86173)">
<mask id="path-4-inside-1_4060_86173" fill="white">
<path d="M20 20H180V118.25H20V20Z"/>
</mask>
<path d="M20 20H180V118.25H20V20Z" fill="white"/>
<path d="M28 118.25V20H12V118.25H28Z" fill="#D3D5DE" mask="url(#path-4-inside-1_4060_86173)"/>
<path d="M56.0031 55.1571C53.0487 55.1571 50.6915 52.8313 50.6915 49.4998C50.6915 46.1682 53.0487 43.8424 56.0031 43.8424C58.8161 43.8424 60.529 45.8853 60.969 47.8811H58.8947C58.5646 46.8125 57.5589 45.8068 56.0031 45.8068C54.1959 45.8068 52.7344 47.2683 52.7344 49.4998C52.7344 51.7313 54.1959 53.1928 56.0031 53.1928C57.5903 53.1928 58.5804 52.1713 58.8947 51.0398H60.969C60.5447 53.0828 58.8632 55.1571 56.0031 55.1571ZM65.7694 55.1571C63.6951 55.1571 62.0607 53.4914 62.0607 51.0241C62.0607 48.5569 63.6951 46.8911 65.7694 46.8911C66.9009 46.8911 67.7024 47.394 68.1267 47.944H68.2053L68.3624 47.0482H70.0282V55H68.3624L68.2053 54.0885H68.1267C67.7024 54.67 66.9009 55.1571 65.7694 55.1571ZM66.0523 53.3814C67.1838 53.3814 68.0953 52.4699 68.0953 51.0241C68.0953 49.5783 67.1838 48.6669 66.0523 48.6669C64.9208 48.6669 63.9937 49.5783 63.9937 51.0241C63.9937 52.4699 64.9208 53.3814 66.0523 53.3814ZM73.9632 55H72.046V47.0482H73.696L73.8532 47.724H73.9318C74.1832 47.3625 74.6232 47.0482 75.3775 47.0482H76.839V48.8555H75.5033C74.4975 48.8555 73.9632 49.3898 73.9632 50.427V55ZM81.1307 55.1571C79.0877 55.1571 77.4534 53.4914 77.4534 51.0241C77.4534 48.5569 79.0877 46.8911 81.1307 46.8911C82.215 46.8911 83.0008 47.3625 83.4093 47.8811H83.4879V43.9995H85.4209V55H83.7551L83.5979 54.0885H83.5193C83.0479 54.7014 82.2622 55.1571 81.1307 55.1571ZM81.445 53.3814C82.5765 53.3814 83.4879 52.4699 83.4879 51.0241C83.4879 49.5783 82.5765 48.6669 81.445 48.6669C80.3135 48.6669 79.3863 49.5783 79.3863 51.0241C79.3863 52.4699 80.3135 53.3814 81.445 53.3814ZM93.5166 55H91.5994V43.9995H93.5166V47.8026H93.5952C93.8938 47.4097 94.6952 46.8911 95.7796 46.8911C97.6025 46.8911 98.9226 48.2111 98.9226 50.2227V55H97.0053V50.4741C97.0053 49.4526 96.2825 48.714 95.2924 48.714C94.2709 48.714 93.5166 49.4841 93.5166 50.4741V55ZM104.497 55.1571C102.202 55.1571 100.458 53.4128 100.458 51.0241C100.458 48.6197 102.202 46.8911 104.497 46.8911C106.713 46.8911 108.41 48.5726 108.41 50.8513C108.41 51.2284 108.363 51.5427 108.331 51.6527H102.375C102.517 52.7528 103.397 53.5385 104.497 53.5385C105.361 53.5385 105.974 53.0985 106.225 52.6742H108.19C107.813 53.8057 106.634 55.1571 104.497 55.1571ZM102.375 50.3484H106.492C106.382 49.2955 105.597 48.4783 104.497 48.4783C103.318 48.4783 102.532 49.2955 102.375 50.3484ZM113.267 55.1571C111.193 55.1571 109.559 53.4914 109.559 51.0241C109.559 48.5569 111.193 46.8911 113.267 46.8911C114.399 46.8911 115.2 47.394 115.624 47.944H115.703L115.86 47.0482H117.526V55H115.86L115.703 54.0885H115.624C115.2 54.67 114.399 55.1571 113.267 55.1571ZM113.55 53.3814C114.682 53.3814 115.593 52.4699 115.593 51.0241C115.593 49.5783 114.682 48.6669 113.55 48.6669C112.419 48.6669 111.491 49.5783 111.491 51.0241C111.491 52.4699 112.419 53.3814 113.55 53.3814ZM122.797 55.1571C120.754 55.1571 119.119 53.4914 119.119 51.0241C119.119 48.5569 120.754 46.8911 122.797 46.8911C123.881 46.8911 124.667 47.3625 125.075 47.8811H125.154V43.9995H127.087V55H125.421L125.264 54.0885H125.185C124.714 54.7014 123.928 55.1571 122.797 55.1571ZM123.111 53.3814C124.243 53.3814 125.154 52.4699 125.154 51.0241C125.154 49.5783 124.243 48.6669 123.111 48.6669C121.98 48.6669 121.052 49.5783 121.052 51.0241C121.052 52.4699 121.98 53.3814 123.111 53.3814ZM132.796 55.1571C130.501 55.1571 128.757 53.4128 128.757 51.0241C128.757 48.6197 130.501 46.8911 132.796 46.8911C135.012 46.8911 136.709 48.5726 136.709 50.8513C136.709 51.2284 136.662 51.5427 136.63 51.6527H130.674C130.816 52.7528 131.696 53.5385 132.796 53.5385C133.66 53.5385 134.273 53.0985 134.525 52.6742H136.489C136.112 53.8057 134.933 55.1571 132.796 55.1571ZM130.674 50.3484H134.792C134.682 49.2955 133.896 48.4783 132.796 48.4783C131.617 48.4783 130.831 49.2955 130.674 50.3484ZM140.199 55H138.282V47.0482H139.932L140.089 47.724H140.168C140.419 47.3625 140.859 47.0482 141.614 47.0482H143.075V48.8555H141.739C140.734 48.8555 140.199 49.3898 140.199 50.427V55Z" fill="#21222C"/>
<path d="M58.0912 76.7413H57.0329C56.7768 75.5294 55.7355 74.8807 54.5748 74.8807C52.9873 74.8807 51.7411 76.1098 51.7411 78.3801C51.7411 80.6504 52.9873 81.8794 54.5748 81.8794C55.7355 81.8794 56.7768 81.2308 57.0329 80.0188H58.0912C57.7669 81.8111 56.333 82.8695 54.5748 82.8695C52.3386 82.8695 50.7169 81.1454 50.7169 78.3801C50.7169 75.6147 52.3386 73.8907 54.5748 73.8907C56.333 73.8907 57.7669 74.949 58.0912 76.7413ZM61.6538 82.9036C60.4077 82.9036 59.4177 82.1696 59.4177 80.8894C59.4177 79.3872 60.7449 79.1183 61.9611 78.9605C63.156 78.8068 63.651 78.8495 63.651 78.363V78.3289C63.651 77.4882 63.1944 76.9974 62.2684 76.9974C61.3082 76.9974 60.7833 77.5095 60.5614 77.9875L59.6054 77.6461C60.1175 76.4512 61.2442 76.1098 62.2342 76.1098C63.0707 76.1098 64.6582 76.3487 64.6582 78.4313V82.75H63.651V81.8624H63.5998C63.395 82.2891 62.7975 82.9036 61.6538 82.9036ZM61.8075 81.9989C63.0024 81.9989 63.651 81.1966 63.651 80.3773V79.4555C63.4803 79.6603 62.3366 79.7798 61.9099 79.831C61.1247 79.9334 60.4248 80.1724 60.4248 80.9406C60.4248 81.6404 61.0052 81.9989 61.8075 81.9989ZM66.5565 82.75V76.1951H67.5295V77.1852H67.5978C67.8367 76.5365 68.5195 76.0927 69.3048 76.0927C69.4541 76.0927 69.7187 76.1012 69.8339 76.1098V77.134C69.7657 77.1169 69.4883 77.0657 69.2194 77.0657C68.2635 77.0657 67.5636 77.7143 67.5636 78.602V82.75H66.5565ZM73.3635 82.8866C71.7248 82.8866 70.5811 81.5722 70.5811 79.4896C70.5811 77.4241 71.7248 76.1098 73.3806 76.1098C74.6608 76.1098 75.0534 76.895 75.2753 77.2364H75.3607V74.0101H76.3678V82.75H75.3948V81.7429H75.2753C75.0534 82.1013 74.6267 82.8866 73.3635 82.8866ZM73.5001 81.9818C74.712 81.9818 75.3778 80.9576 75.3778 79.4726C75.3778 78.0045 74.7291 77.0145 73.5001 77.0145C72.2198 77.0145 71.5882 78.0899 71.5882 79.4726C71.5882 80.8723 72.2369 81.9818 73.5001 81.9818ZM84.5152 82.8866C82.6716 82.8866 81.545 81.4697 81.545 79.5067C81.545 77.5095 82.7228 76.1098 84.4981 76.1098C85.8808 76.1098 86.9221 76.9291 87.0928 78.1582H86.0856C85.932 77.5607 85.4028 77.0145 84.5152 77.0145C83.3374 77.0145 82.5521 77.9875 82.5521 79.4726C82.5521 80.9918 83.3203 81.9818 84.5152 81.9818C85.3004 81.9818 85.8979 81.5551 86.0856 80.8382H87.0928C86.9221 81.9989 85.9661 82.8866 84.5152 82.8866ZM91.2881 82.8866C89.5128 82.8866 88.3179 81.538 88.3179 79.5067C88.3179 77.4583 89.5128 76.1098 91.2881 76.1098C93.0633 76.1098 94.2583 77.4583 94.2583 79.5067C94.2583 81.538 93.0633 82.8866 91.2881 82.8866ZM91.2881 81.9818C92.6366 81.9818 93.2511 80.8211 93.2511 79.5067C93.2511 78.1923 92.6366 77.0145 91.2881 77.0145C89.9395 77.0145 89.325 78.1923 89.325 79.5067C89.325 80.8211 89.9395 81.9818 91.2881 81.9818ZM96.8628 78.8068V82.75H95.8557V76.1951H96.8287V77.2193H96.914C97.2213 76.5536 97.8358 76.1098 98.8259 76.1098C100.153 76.1098 101.045 76.912 101.045 78.5849V82.75H100.038V78.6532C100.038 77.6247 99.4703 77.0145 98.5357 77.0145C97.5712 77.0145 96.8628 77.6631 96.8628 78.8068ZM105.796 76.1951V77.0486H104.396V80.8723C104.396 81.7258 104.823 81.8624 105.267 81.8624C105.489 81.8624 105.625 81.8282 105.711 81.8111L105.916 82.7159C105.779 82.7671 105.54 82.8354 105.165 82.8354C104.311 82.8354 103.389 82.2891 103.389 81.1454V77.0486H102.399V76.1951H103.389V74.6247H104.396V76.1951H105.796ZM110.049 82.8866C108.154 82.8866 106.994 81.538 106.994 79.5238C106.994 77.5095 108.171 76.1098 109.947 76.1098C111.312 76.1098 112.763 76.9462 112.763 79.3872V79.814H108.005C108.052 81.218 108.867 81.9818 110.049 81.9818C110.839 81.9818 111.432 81.6404 111.688 80.9576L112.661 81.2308C112.354 82.2208 111.381 82.8866 110.049 82.8866ZM108.005 78.9434H111.739C111.739 77.8338 111.039 77.0145 109.947 77.0145C108.794 77.0145 108.073 77.9234 108.005 78.9434ZM115.362 78.8068V82.75H114.355V76.1951H115.328V77.2193H115.414C115.721 76.5536 116.335 76.1098 117.326 76.1098C118.653 76.1098 119.545 76.912 119.545 78.5849V82.75H118.537V78.6532C118.537 77.6247 117.97 77.0145 117.035 77.0145C116.071 77.0145 115.362 77.6631 115.362 78.8068ZM124.296 76.1951V77.0486H122.896V80.8723C122.896 81.7258 123.323 81.8624 123.767 81.8624C123.988 81.8624 124.125 81.8282 124.21 81.8111L124.415 82.7159C124.279 82.7671 124.04 82.8354 123.664 82.8354C122.811 82.8354 121.889 82.2891 121.889 81.1454V77.0486H120.899V76.1951H121.889V74.6247H122.896V76.1951H124.296Z" fill="#21222C"/>
</g>
<rect x="20.625" y="20.625" width="158.75" height="98.75" rx="9.375" stroke="#D3D5DE" stroke-width="1.25"/>
<defs>
<clipPath id="clip0_4060_86173">
<rect x="20" y="20" width="160" height="100" rx="10" fill="white"/>
</clipPath>
</defs>
</svg>
