<svg width="200" height="140" viewBox="0 0 200 140" fill="none" xmlns="http://www.w3.org/2000/svg">
<g clip-path="url(#clip0_4060_86836)">
<rect width="200" height="140" rx="12" fill="#1E2029"/>
<g clip-path="url(#clip1_4060_86836)">
<rect x="0.319489" y="0.319489" width="24.9201" height="24.9201" stroke="#36394A" stroke-width="0.638978"/>
<rect x="25.2394" y="0.319489" width="24.9201" height="24.9201" stroke="#36394A" stroke-width="0.638978"/>
<rect x="50.1593" y="0.319489" width="24.9201" height="24.9201" stroke="#36394A" stroke-width="0.638978"/>
<rect x="75.0802" y="0.319489" width="24.9201" height="24.9201" stroke="#36394A" stroke-width="0.638978"/>
<rect x="100" y="0.319489" width="24.9201" height="24.9201" stroke="#36394A" stroke-width="0.638978"/>
<rect x="124.92" y="0.319489" width="24.9201" height="24.9201" stroke="#36394A" stroke-width="0.638978"/>
<rect x="149.84" y="0.319489" width="24.9201" height="24.9201" stroke="#36394A" stroke-width="0.638978"/>
<rect x="174.76" y="0.319489" width="24.9201" height="24.9201" stroke="#36394A" stroke-width="0.638978"/>
<rect x="0.319489" y="25.2396" width="24.9201" height="24.9201" stroke="#36394A" stroke-width="0.638978"/>
<rect x="25.2394" y="25.2396" width="24.9201" height="24.9201" stroke="#36394A" stroke-width="0.638978"/>
<rect x="50.1593" y="25.2396" width="24.9201" height="24.9201" stroke="#36394A" stroke-width="0.638978"/>
<rect x="75.0802" y="25.2396" width="24.9201" height="24.9201" stroke="#36394A" stroke-width="0.638978"/>
<rect x="100" y="25.2396" width="24.9201" height="24.9201" stroke="#36394A" stroke-width="0.638978"/>
<rect x="124.92" y="25.2396" width="24.9201" height="24.9201" stroke="#36394A" stroke-width="0.638978"/>
<rect x="149.84" y="25.2396" width="24.9201" height="24.9201" stroke="#36394A" stroke-width="0.638978"/>
<rect x="174.76" y="25.2396" width="24.9201" height="24.9201" stroke="#36394A" stroke-width="0.638978"/>
<rect x="0.319489" y="50.1598" width="24.9201" height="24.9201" stroke="#36394A" stroke-width="0.638978"/>
<rect x="25.2394" y="50.1598" width="24.9201" height="24.9201" stroke="#36394A" stroke-width="0.638978"/>
<rect x="50.1593" y="50.1598" width="24.9201" height="24.9201" stroke="#36394A" stroke-width="0.638978"/>
<rect x="75.0802" y="50.1598" width="24.9201" height="24.9201" stroke="#36394A" stroke-width="0.638978"/>
<rect x="100" y="50.1598" width="24.9201" height="24.9201" stroke="#36394A" stroke-width="0.638978"/>
<rect x="124.92" y="50.1598" width="24.9201" height="24.9201" stroke="#36394A" stroke-width="0.638978"/>
<rect x="149.84" y="50.1598" width="24.9201" height="24.9201" stroke="#36394A" stroke-width="0.638978"/>
<rect x="174.76" y="50.1598" width="24.9201" height="24.9201" stroke="#36394A" stroke-width="0.638978"/>
<rect x="0.319489" y="75.0799" width="24.9201" height="24.9201" stroke="#36394A" stroke-width="0.638978"/>
<rect x="25.2394" y="75.0799" width="24.9201" height="24.9201" stroke="#36394A" stroke-width="0.638978"/>
<rect x="50.1593" y="75.0799" width="24.9201" height="24.9201" stroke="#36394A" stroke-width="0.638978"/>
<rect x="75.0802" y="75.0799" width="24.9201" height="24.9201" stroke="#36394A" stroke-width="0.638978"/>
<rect x="100" y="75.0799" width="24.9201" height="24.9201" stroke="#36394A" stroke-width="0.638978"/>
<rect x="124.92" y="75.0799" width="24.9201" height="24.9201" stroke="#36394A" stroke-width="0.638978"/>
<rect x="149.84" y="75.0799" width="24.9201" height="24.9201" stroke="#36394A" stroke-width="0.638978"/>
<rect x="174.76" y="75.0799" width="24.9201" height="24.9201" stroke="#36394A" stroke-width="0.638978"/>
<rect x="0.319489" y="100" width="24.9201" height="24.9201" stroke="#36394A" stroke-width="0.638978"/>
<rect x="25.2394" y="100" width="24.9201" height="24.9201" stroke="#36394A" stroke-width="0.638978"/>
<rect x="50.1593" y="100" width="24.9201" height="24.9201" stroke="#36394A" stroke-width="0.638978"/>
<rect x="75.0802" y="100" width="24.9201" height="24.9201" stroke="#36394A" stroke-width="0.638978"/>
<rect x="100" y="100" width="24.9201" height="24.9201" stroke="#36394A" stroke-width="0.638978"/>
<rect x="124.92" y="100" width="24.9201" height="24.9201" stroke="#36394A" stroke-width="0.638978"/>
<rect x="149.84" y="100" width="24.9201" height="24.9201" stroke="#36394A" stroke-width="0.638978"/>
<rect x="174.76" y="100" width="24.9201" height="24.9201" stroke="#36394A" stroke-width="0.638978"/>
<rect x="0.319489" y="124.92" width="24.9201" height="24.9201" stroke="#36394A" stroke-width="0.638978"/>
<rect x="25.2394" y="124.92" width="24.9201" height="24.9201" stroke="#36394A" stroke-width="0.638978"/>
<rect x="50.1593" y="124.92" width="24.9201" height="24.9201" stroke="#36394A" stroke-width="0.638978"/>
<rect x="75.0802" y="124.92" width="24.9201" height="24.9201" stroke="#36394A" stroke-width="0.638978"/>
<rect x="100" y="124.92" width="24.9201" height="24.9201" stroke="#36394A" stroke-width="0.638978"/>
<rect x="124.92" y="124.92" width="24.9201" height="24.9201" stroke="#36394A" stroke-width="0.638978"/>
<rect x="149.84" y="124.92" width="24.9201" height="24.9201" stroke="#36394A" stroke-width="0.638978"/>
<rect x="174.76" y="124.92" width="24.9201" height="24.9201" stroke="#36394A" stroke-width="0.638978"/>
<mask id="mask0_4060_86836" style="mask-type:alpha" maskUnits="userSpaceOnUse" x="0" y="0" width="200" height="140">
<rect x="200" y="140" width="200" height="140" transform="rotate(-180 200 140)" fill="url(#paint0_radial_4060_86836)"/>
</mask>
<g mask="url(#mask0_4060_86836)">
<rect width="200" height="140" fill="#1E2029"/>
</g>
</g>
<path d="M84.7 56.5001C83.2088 56.5001 82 57.709 82 59.2001V80.8002C82 82.2913 83.2088 83.5002 84.7 83.5002H85.8594L92.182 65.5754C92.2455 65.3955 92.4155 65.2751 92.6064 65.2751H117.607L117.846 64.5916C118.46 62.8362 117.158 61.0001 115.298 61.0001H98.8649L94.4994 56.632C94.415 56.5476 94.3005 56.5001 94.1811 56.5001H84.7Z" fill="#626784"/>
<path d="M116.454 68.5737C116.556 68.2811 116.339 67.9751 116.029 67.9751H94.517C94.3262 67.9751 94.1561 68.0955 94.0927 68.2754L88.7224 83.5002L109.316 83.5002C110.464 83.5002 111.486 82.7748 111.865 81.6916L116.454 68.5737Z" fill="#626784"/>
</g>
<rect x="0.5" y="0.5" width="199" height="139" rx="11.5" stroke="#303341"/>
<defs>
<radialGradient id="paint0_radial_4060_86836" cx="0" cy="0" r="1" gradientUnits="userSpaceOnUse" gradientTransform="translate(300 204.5) rotate(90) scale(109.5 122.053)">
<stop stop-color="white" stop-opacity="0"/>
<stop offset="1" stop-color="white"/>
</radialGradient>
<clipPath id="clip0_4060_86836">
<rect width="200" height="140" rx="12" fill="white"/>
</clipPath>
<clipPath id="clip1_4060_86836">
<rect width="200" height="150.16" fill="white"/>
</clipPath>
</defs>
</svg>
