<svg width="200" height="140" viewBox="0 0 200 140" fill="none" xmlns="http://www.w3.org/2000/svg">
<rect x="0.5" y="0.5" width="199" height="139" rx="11.5" fill="#1E2029"/>
<rect x="0.5" y="0.5" width="199" height="139" rx="11.5" stroke="#303341"/>
<g clip-path="url(#clip0_4060_86590)">
<path d="M56 42C56 39.7909 57.7909 38 60 38H68C70.2091 38 72 39.7909 72 42V50C72 52.2091 70.2091 54 68 54H60C57.7909 54 56 52.2091 56 50V42Z" fill="#0066FF"/>
<path d="M59 46.5L60.5 45L63 47.5L68 42.5L69.5 44L63 50.5L59 46.5Z" fill="white"/>
<path d="M82.8622 51L80.277 41.5455H81.4403L83.4162 49.2457H83.5085L85.5213 41.5455H86.8139L88.8267 49.2457H88.919L90.8949 41.5455H92.0582L89.473 51H88.2912L86.2045 43.4659H86.1307L84.044 51H82.8622ZM94.4915 46.7344V51H93.402V41.5455H94.4915V45.017H94.5838C94.9162 44.283 95.5533 43.8168 96.6705 43.8168C98.12 43.8168 99.0895 44.6708 99.0895 46.4943V51H98V46.5682C98 45.4418 97.3814 44.7955 96.3565 44.7955C95.2809 44.7955 94.4915 45.4972 94.4915 46.7344ZM101.148 51V43.9091H102.237V51H101.148ZM101.702 42.7273C101.277 42.7273 100.926 42.3949 100.926 41.9886C100.926 41.5824 101.277 41.25 101.702 41.25C102.126 41.25 102.477 41.5824 102.477 41.9886C102.477 42.3949 102.126 42.7273 101.702 42.7273ZM107.381 43.9091V44.8324H105.867V48.9688C105.867 49.892 106.329 50.0398 106.809 50.0398C107.049 50.0398 107.197 50.0028 107.289 49.9844L107.511 50.9631C107.363 51.0185 107.104 51.0923 106.698 51.0923C105.775 51.0923 104.778 50.5014 104.778 49.2642V44.8324H103.707V43.9091H104.778V42.2102H105.867V43.9091H107.381ZM111.982 51.1477C109.932 51.1477 108.677 49.6889 108.677 47.5099C108.677 45.331 109.951 43.8168 111.871 43.8168C113.349 43.8168 114.918 44.7216 114.918 47.3622V47.8239H109.771C109.822 49.3427 110.703 50.169 111.982 50.169C112.836 50.169 113.478 49.7997 113.755 49.0611L114.807 49.3565C114.475 50.4276 113.422 51.1477 111.982 51.1477ZM109.771 46.8821H113.81C113.81 45.6818 113.053 44.7955 111.871 44.7955C110.625 44.7955 109.845 45.7788 109.771 46.8821ZM120.509 51V41.5455H121.599V45.0355H121.691C121.931 44.6662 122.356 43.8168 123.741 43.8168C125.532 43.8168 126.769 45.2386 126.769 47.473C126.769 49.7259 125.532 51.1477 123.759 51.1477C122.393 51.1477 121.931 50.2983 121.691 49.9105H121.562V51H120.509ZM121.581 47.4545C121.581 49.0611 122.301 50.169 123.612 50.169C124.978 50.169 125.68 48.9688 125.68 47.4545C125.68 45.9588 124.997 44.7955 123.612 44.7955C122.282 44.7955 121.581 45.8665 121.581 47.4545ZM131.382 51.1477C129.461 51.1477 128.169 49.6889 128.169 47.4915C128.169 45.2756 129.461 43.8168 131.382 43.8168C133.302 43.8168 134.595 45.2756 134.595 47.4915C134.595 49.6889 133.302 51.1477 131.382 51.1477ZM131.382 50.169C132.84 50.169 133.505 48.9134 133.505 47.4915C133.505 46.0696 132.84 44.7955 131.382 44.7955C129.923 44.7955 129.258 46.0696 129.258 47.4915C129.258 48.9134 129.923 50.169 131.382 50.169ZM136.843 43.9091L138.542 46.8082L140.241 43.9091H141.497L139.207 47.4545L141.497 51H140.241L138.542 48.2486L136.843 51H135.588L137.84 47.4545L135.588 43.9091H136.843Z" fill="#D3D5DE"/>
</g>
<g clip-path="url(#clip1_4060_86590)">
<path d="M56 66C56 63.7909 57.7909 62 60 62H68C70.2091 62 72 63.7909 72 66V74C72 76.2091 70.2091 78 68 78H60C57.7909 78 56 76.2091 56 74V66Z" fill="#0066FF"/>
<path d="M59 70.5L60.5 69L63 71.5L68 66.5L69.5 68L63 74.5L59 70.5Z" fill="white"/>
<path d="M81.1449 75V65.5455H84.4503C86.4261 65.5455 87.3494 66.6719 87.3494 68.0568C87.3494 69.2756 86.6293 69.8111 85.8168 70.0327V70.125C86.6847 70.1804 87.7188 70.9929 87.7188 72.4886C87.7188 73.9105 86.7955 75 84.5611 75H81.1449ZM82.2898 73.9844H84.5611C86.0568 73.9844 86.6293 73.3196 86.6293 72.4886C86.6293 71.5284 85.8537 70.6974 84.6165 70.6974H82.2898V73.9844ZM82.2898 69.7003H84.4134C85.4474 69.7003 86.2599 69.054 86.2599 68.0568C86.2599 67.2259 85.706 66.5611 84.4503 66.5611H82.2898V69.7003ZM89.5172 65.5455H90.6067V73.1534C90.6067 73.8413 90.7175 74.0906 91.1976 74.0767C91.4562 74.0675 91.5531 74.0352 91.6593 74.0028L91.8809 74.9446C91.6916 75 91.3823 75.0554 91.0684 75.0554C90.0343 75.0554 89.5172 74.4599 89.5172 73.4489V65.5455ZM95.0331 75.1662C93.6851 75.1662 92.6141 74.3722 92.6141 72.9872C92.6141 71.3622 94.0498 71.0714 95.3655 70.9006C96.6581 70.7344 97.1937 70.7805 97.1937 70.2543V70.2173C97.1937 69.3079 96.6997 68.777 95.6979 68.777C94.6592 68.777 94.0914 69.331 93.8513 69.848L92.8172 69.4787C93.3712 68.1861 94.59 67.8168 95.661 67.8168C96.5658 67.8168 98.2831 68.0753 98.2831 70.3281V75H97.1937V74.0398H97.1383C96.9167 74.5014 96.2704 75.1662 95.0331 75.1662ZM95.1993 74.1875C96.492 74.1875 97.1937 73.3196 97.1937 72.4332V71.4361C97.009 71.6577 95.7718 71.7869 95.3101 71.8423C94.4607 71.9531 93.7036 72.2116 93.7036 73.0426C93.7036 73.7997 94.3314 74.1875 95.1993 74.1875ZM103.217 75.1477C101.223 75.1477 100.004 73.6151 100.004 71.4915C100.004 69.331 101.278 67.8168 103.199 67.8168C104.695 67.8168 105.821 68.7031 106.006 70.0327H104.916C104.75 69.3864 104.178 68.7955 103.217 68.7955C101.943 68.7955 101.094 69.848 101.094 71.4545C101.094 73.098 101.925 74.169 103.217 74.169C104.067 74.169 104.713 73.7074 104.916 72.9318H106.006C105.821 74.1875 104.787 75.1477 103.217 75.1477ZM107.663 75V65.5455H108.753V71.0668H108.882L111.984 67.9091H113.332L110.336 70.9375L113.554 75H112.169L109.515 71.6392L108.753 72.3455V75H107.663ZM118.669 75V65.5455H119.758V69.0355H119.85C120.091 68.6662 120.515 67.8168 121.9 67.8168C123.691 67.8168 124.929 69.2386 124.929 71.473C124.929 73.7259 123.691 75.1477 121.919 75.1477C120.552 75.1477 120.091 74.2983 119.85 73.9105H119.721V75H118.669ZM119.74 71.4545C119.74 73.0611 120.46 74.169 121.771 74.169C123.137 74.169 123.839 72.9688 123.839 71.4545C123.839 69.9588 123.156 68.7955 121.771 68.7955C120.441 68.7955 119.74 69.8665 119.74 71.4545ZM129.541 75.1477C127.62 75.1477 126.328 73.6889 126.328 71.4915C126.328 69.2756 127.62 67.8168 129.541 67.8168C131.461 67.8168 132.754 69.2756 132.754 71.4915C132.754 73.6889 131.461 75.1477 129.541 75.1477ZM129.541 74.169C131 74.169 131.664 72.9134 131.664 71.4915C131.664 70.0696 131 68.7955 129.541 68.7955C128.082 68.7955 127.417 70.0696 127.417 71.4915C127.417 72.9134 128.082 74.169 129.541 74.169ZM135.003 67.9091L136.701 70.8082L138.4 67.9091H139.656L137.366 71.4545L139.656 75H138.4L136.701 72.2486L135.003 75H133.747L136 71.4545L133.747 67.9091H135.003Z" fill="#D3D5DE"/>
</g>
<g clip-path="url(#clip2_4060_86590)">
<path d="M60 86.5H68C69.933 86.5 71.5 88.067 71.5 90V98C71.5 99.933 69.933 101.5 68 101.5H60C58.067 101.5 56.5 99.933 56.5 98V90C56.5 88.067 58.067 86.5 60 86.5Z" fill="#1A1B23"/>
<path d="M60 86.5H68C69.933 86.5 71.5 88.067 71.5 90V98C71.5 99.933 69.933 101.5 68 101.5H60C58.067 101.5 56.5 99.933 56.5 98V90C56.5 88.067 58.067 86.5 60 86.5Z" stroke="#363949"/>
<path d="M89.1222 94.2727C89.1222 97.2642 87.3679 99.1293 84.9489 99.1293C82.5298 99.1293 80.7756 97.2642 80.7756 94.2727C80.7756 91.2812 82.5298 89.4162 84.9489 89.4162C87.3679 89.4162 89.1222 91.2812 89.1222 94.2727ZM88.0142 94.2727C88.0142 91.8168 86.6662 90.4872 84.9489 90.4872C83.2315 90.4872 81.8835 91.8168 81.8835 94.2727C81.8835 96.7287 83.2315 98.0582 84.9489 98.0582C86.6662 98.0582 88.0142 96.7287 88.0142 94.2727ZM94.0483 91.9091V92.8324H92.5341V96.9688C92.5341 97.892 92.9958 98.0398 93.4759 98.0398C93.7159 98.0398 93.8637 98.0028 93.956 97.9844L94.1776 98.9631C94.0298 99.0185 93.7713 99.0923 93.3651 99.0923C92.4418 99.0923 91.4446 98.5014 91.4446 97.2642V92.8324H90.3736V91.9091H91.4446V90.2102H92.5341V91.9091H94.0483ZM96.994 94.7344V99H95.9045V89.5455H96.994V93.017H97.0863C97.4187 92.283 98.0558 91.8168 99.173 91.8168C100.623 91.8168 101.592 92.6708 101.592 94.4943V99H100.503V94.5682C100.503 93.4418 99.8839 92.7955 98.859 92.7955C97.7834 92.7955 96.994 93.4972 96.994 94.7344ZM106.623 99.1477C104.573 99.1477 103.318 97.6889 103.318 95.5099C103.318 93.331 104.592 91.8168 106.512 91.8168C107.99 91.8168 109.559 92.7216 109.559 95.3622V95.8239H104.412C104.463 97.3427 105.344 98.169 106.623 98.169C107.477 98.169 108.119 97.7997 108.396 97.0611L109.448 97.3565C109.116 98.4276 108.064 99.1477 106.623 99.1477ZM104.412 94.8821H108.451C108.451 93.6818 107.694 92.7955 106.512 92.7955C105.266 92.7955 104.486 93.7788 104.412 94.8821ZM111.282 99V91.9091H112.334V92.9801H112.408C112.667 92.2784 113.405 91.7983 114.255 91.7983C114.416 91.7983 114.702 91.8075 114.827 91.8168V92.9247C114.753 92.9062 114.453 92.8509 114.162 92.8509C113.128 92.8509 112.371 93.5526 112.371 94.5128V99H111.282Z" fill="#D3D5DE"/>
</g>
<defs>
<clipPath id="clip0_4060_86590">
<rect width="87" height="16" fill="white" transform="translate(56 38)"/>
</clipPath>
<clipPath id="clip1_4060_86590">
<rect width="85" height="16" fill="white" transform="translate(56 62)"/>
</clipPath>
<clipPath id="clip2_4060_86590">
<rect width="60" height="16" fill="white" transform="translate(56 86)"/>
</clipPath>
</defs>
</svg>
