<svg width="200" height="140" viewBox="0 0 200 140" fill="none" xmlns="http://www.w3.org/2000/svg">
<g clip-path="url(#clip0_4060_86592)">
<rect width="200" height="140" rx="12" fill="#1E2029"/>
<path d="M32 20.3704H168C174.423 20.3704 179.63 25.5771 179.63 32V384.296C179.63 390.719 174.423 395.926 168 395.926H32C25.5771 395.926 20.3704 390.719 20.3704 384.296V32C20.3704 25.5771 25.5771 20.3704 32 20.3704Z" fill="#21222C"/>
<path d="M32 20.3704H168C174.423 20.3704 179.63 25.5771 179.63 32V384.296C179.63 390.719 174.423 395.926 168 395.926H32C25.5771 395.926 20.3704 390.719 20.3704 384.296V32C20.3704 25.5771 25.5771 20.3704 32 20.3704Z" stroke="#363949" stroke-width="0.740741"/>
<g clip-path="url(#clip1_4060_86592)">
<path d="M37.7804 41.4667C37.1384 41.4667 36.6248 41.2869 36.2396 40.9274C35.8545 40.5679 35.6619 40.0736 35.6619 39.4444V38C35.6619 37.3709 35.8545 36.8765 36.2396 36.517C36.6248 36.1575 37.1384 35.9778 37.7804 35.9778C38.3903 35.9778 38.8814 36.1415 39.2537 36.4689C39.6325 36.7963 39.8315 37.2425 39.8507 37.8074H38.9841C38.9648 37.4672 38.8493 37.2072 38.6374 37.0274C38.4256 36.8412 38.1399 36.7481 37.7804 36.7481C37.4016 36.7481 37.0967 36.8573 36.8656 37.0756C36.6409 37.2874 36.5285 37.5923 36.5285 37.9904V39.4444C36.5285 39.8425 36.6409 40.1506 36.8656 40.3689C37.0967 40.5872 37.4016 40.6963 37.7804 40.6963C38.1399 40.6963 38.4256 40.6032 38.6374 40.417C38.8493 40.2309 38.9648 39.9709 38.9841 39.637H39.8507C39.8315 40.202 39.6325 40.6481 39.2537 40.9756C38.8814 41.303 38.3903 41.4667 37.7804 41.4667ZM44.2477 41.3704C43.7791 41.3704 43.4035 41.2356 43.1211 40.9659C42.845 40.6899 42.707 40.3272 42.707 39.8778V35.1304H40.8774V34.3407H43.5737V39.8778C43.5737 40.096 43.6346 40.2694 43.7566 40.3978C43.8786 40.5198 44.0423 40.5807 44.2477 40.5807H45.8848V41.3704H44.2477ZM48.7892 41.4667C48.2435 41.4667 47.8101 41.3158 47.4892 41.0141C47.1682 40.7059 47.0077 40.3047 47.0077 39.8104C47.0077 39.483 47.0815 39.1973 47.2292 38.9533C47.3768 38.7094 47.5822 38.52 47.8454 38.3852C48.1087 38.2439 48.4104 38.1733 48.7506 38.1733H50.3877V37.7593C50.3877 37.0723 50.0121 36.7289 49.261 36.7289C48.9272 36.7289 48.6575 36.7899 48.4521 36.9119C48.2467 37.0338 48.1375 37.2039 48.1247 37.4222H47.258C47.2901 37.0049 47.4827 36.6615 47.8358 36.3919C48.1953 36.1158 48.6704 35.9778 49.261 35.9778C49.903 35.9778 50.3941 36.1319 50.7343 36.44C51.081 36.7481 51.2543 37.1783 51.2543 37.7304V41.3704H50.3973V40.4074H50.378C50.3267 40.7348 50.163 40.9948 49.8869 41.1874C49.6109 41.3736 49.245 41.4667 48.7892 41.4667ZM49.001 40.7348C49.4247 40.7348 49.7617 40.6321 50.0121 40.4267C50.2625 40.2212 50.3877 39.942 50.3877 39.5889V38.8474H48.8469C48.5645 38.8474 48.3333 38.9341 48.1536 39.1074C47.9803 39.2743 47.8936 39.499 47.8936 39.7815C47.8936 40.0768 47.9899 40.3111 48.1825 40.4844C48.3815 40.6514 48.6543 40.7348 49.001 40.7348ZM54.8135 41.4474C54.2229 41.4474 53.7639 41.3158 53.4365 41.0526C53.1155 40.783 52.955 40.4042 52.955 39.9163H53.8217C53.8217 40.1602 53.9084 40.3528 54.0817 40.4941C54.255 40.6289 54.499 40.6963 54.8135 40.6963H55.2372C55.5582 40.6963 55.8054 40.6257 55.9787 40.4844C56.1585 40.3432 56.2484 40.1442 56.2484 39.8874C56.2484 39.4316 56.0397 39.1748 55.6224 39.117L54.1587 38.9052C53.7992 38.8538 53.52 38.7062 53.3209 38.4622C53.1219 38.2119 53.0224 37.8844 53.0224 37.48C53.0224 37.0178 53.1797 36.6551 53.4943 36.3919C53.8153 36.1286 54.255 35.997 54.8135 35.997H55.2372C55.7508 35.997 56.1681 36.1254 56.4891 36.3822C56.8165 36.6326 56.993 36.9632 57.0187 37.3741H56.1424C56.1296 37.1879 56.0397 37.0338 55.8728 36.9119C55.7123 36.7899 55.5005 36.7289 55.2372 36.7289H54.8135C54.5182 36.7289 54.2871 36.7963 54.1202 36.9311C53.9533 37.0659 53.8698 37.2489 53.8698 37.48C53.8698 37.8523 54.04 38.0642 54.3802 38.1156L55.7476 38.3081C56.6464 38.4365 57.0958 38.963 57.0958 39.8874C57.0958 40.3817 56.9321 40.7669 56.6046 41.043C56.2837 41.3126 55.8279 41.4474 55.2372 41.4474H54.8135ZM60.5876 41.4474C59.9969 41.4474 59.5379 41.3158 59.2105 41.0526C58.8895 40.783 58.729 40.4042 58.729 39.9163H59.5957C59.5957 40.1602 59.6824 40.3528 59.8557 40.4941C60.029 40.6289 60.273 40.6963 60.5876 40.6963H61.0113C61.3322 40.6963 61.5794 40.6257 61.7527 40.4844C61.9325 40.3432 62.0224 40.1442 62.0224 39.8874C62.0224 39.4316 61.8137 39.1748 61.3964 39.117L59.9327 38.9052C59.5732 38.8538 59.294 38.7062 59.095 38.4622C58.8959 38.2119 58.7964 37.8844 58.7964 37.48C58.7964 37.0178 58.9537 36.6551 59.2683 36.3919C59.5893 36.1286 60.029 35.997 60.5876 35.997H61.0113C61.5248 35.997 61.9421 36.1254 62.2631 36.3822C62.5905 36.6326 62.7671 36.9632 62.7927 37.3741H61.9164C61.9036 37.1879 61.8137 37.0338 61.6468 36.9119C61.4863 36.7899 61.2745 36.7289 61.0113 36.7289H60.5876C60.2922 36.7289 60.0611 36.7963 59.8942 36.9311C59.7273 37.0659 59.6439 37.2489 59.6439 37.48C59.6439 37.8523 59.814 38.0642 60.1542 38.1156L61.5216 38.3081C62.4204 38.4365 62.8698 38.963 62.8698 39.8874C62.8698 40.3817 62.7061 40.7669 62.3787 41.043C62.0577 41.3126 61.6019 41.4474 61.0113 41.4474H60.5876ZM120.08 42.4296C119.515 42.4296 119.066 42.2884 118.732 42.0059C118.398 41.7299 118.254 41.3383 118.299 40.8311L118.443 39.2519C118.475 38.9116 118.427 38.6677 118.299 38.52C118.17 38.3659 117.898 38.2889 117.48 38.2889H116.373V37.5185H117.48C117.898 37.5185 118.17 37.4447 118.299 37.297C118.427 37.143 118.475 36.8958 118.443 36.5556L118.299 34.9763C118.254 34.4691 118.398 34.0775 118.732 33.8015C119.066 33.519 119.515 33.3778 120.08 33.3778H120.514V34.1481H120.08C119.779 34.1481 119.544 34.2188 119.377 34.36C119.21 34.4948 119.14 34.7002 119.165 34.9763L119.31 36.5556C119.342 36.9343 119.252 37.2393 119.04 37.4704C118.828 37.6951 118.482 37.8299 118 37.8748C118.482 37.9198 118.828 38.0674 119.04 38.3178C119.252 38.5681 119.342 38.8795 119.31 39.2519L119.165 40.8311C119.14 41.1072 119.21 41.3126 119.377 41.4474C119.544 41.5886 119.779 41.6593 120.08 41.6593H120.514V42.4296H120.08ZM91.451 57.5259C90.5329 57.3205 89.8204 56.8904 89.3132 56.2356C88.8124 55.5807 88.5621 54.759 88.5621 53.7704V52.037C88.5621 51.0484 88.8124 50.2267 89.3132 49.5719C89.8204 48.917 90.5329 48.4869 91.451 48.2815V49.1193C91.0401 49.2156 90.6806 49.3985 90.3724 49.6681C90.0707 49.9378 89.8364 50.2748 89.6695 50.6793C89.509 51.0773 89.4287 51.5299 89.4287 52.037V53.7704C89.4287 54.2711 89.509 54.7237 89.6695 55.1281C89.8364 55.5326 90.0707 55.8696 90.3724 56.1393C90.6806 56.4089 91.0401 56.5919 91.451 56.6881V57.5259ZM157.176 57.5259V56.6881C157.593 56.5919 157.953 56.4089 158.255 56.1393C158.556 55.8696 158.788 55.5326 158.948 55.1281C159.115 54.7237 159.198 54.2711 159.198 53.7704V52.037C159.198 51.5299 159.115 51.0773 158.948 50.6793C158.788 50.2748 158.556 49.9378 158.255 49.6681C157.953 49.3985 157.593 49.2156 157.176 49.1193V48.2815C158.094 48.4869 158.804 48.917 159.304 49.5719C159.812 50.2267 160.065 51.0484 160.065 52.037V53.7704C160.065 54.759 159.812 55.5807 159.304 56.2356C158.804 56.8904 158.094 57.3205 157.176 57.5259ZM47.9129 73.1037V72.3141H49.4054C49.7072 72.3141 49.9447 72.2274 50.118 72.0541C50.2914 71.8872 50.378 71.6593 50.378 71.3704V70.8889L50.3973 70.0222H50.3684C50.3171 70.3368 50.1662 70.5807 49.9158 70.7541C49.6654 70.921 49.3509 71.0044 48.9721 71.0044C48.4264 71.0044 47.9963 70.8311 47.6817 70.4844C47.3672 70.1378 47.2099 69.6627 47.2099 69.0593V67.9422C47.2099 67.3388 47.3672 66.8605 47.6817 66.5074C47.9963 66.1543 48.4264 65.9778 48.9721 65.9778C49.3509 65.9778 49.6654 66.0677 49.9158 66.2474C50.1662 66.4272 50.3171 66.6743 50.3684 66.9889H50.3877V66.0741H51.2447V71.3704C51.2447 71.9032 51.0778 72.3237 50.744 72.6319C50.4166 72.9464 49.9672 73.1037 49.3958 73.1037H47.9129ZM49.2321 70.2822C49.5916 70.2822 49.8741 70.1699 50.0795 69.9452C50.285 69.7205 50.3877 69.4091 50.3877 69.0111V68C50.3877 67.602 50.285 67.2906 50.0795 67.0659C49.8741 66.8412 49.5916 66.7289 49.2321 66.7289C48.8662 66.7289 48.5805 66.8348 48.3751 67.0467C48.1761 67.2585 48.0766 67.5442 48.0766 67.9037V69.1074C48.0766 69.4669 48.1761 69.7526 48.3751 69.9644C48.5805 70.1763 48.8662 70.2822 49.2321 70.2822ZM53.215 71.3704V66.0741H54.0817V67.0852H54.1009C54.1459 66.7449 54.2903 66.4753 54.5343 66.2763C54.7782 66.0773 55.1056 65.9778 55.5165 65.9778C56.0686 65.9778 56.4923 66.1447 56.7876 66.4785C57.0893 66.8059 57.2402 67.2746 57.2402 67.8844V68.337H56.3735V67.8844C56.3735 67.1141 55.998 66.7289 55.2469 66.7289C54.8681 66.7289 54.5792 66.838 54.3802 67.0563C54.1812 67.2746 54.0817 67.5891 54.0817 68V71.3704H53.215ZM60.7994 71.4667C60.1767 71.4667 59.6727 71.2805 59.2876 70.9081C58.9088 70.5294 58.7194 70.0094 58.7194 69.3481V68.0963C58.7194 67.4351 58.9088 66.9183 59.2876 66.5459C59.6727 66.1672 60.1767 65.9778 60.7994 65.9778C61.2167 65.9778 61.5794 66.0612 61.8876 66.2281C62.2021 66.3951 62.4461 66.6294 62.6194 66.9311C62.7927 67.2328 62.8794 67.5891 62.8794 68V68.9437H59.5668V69.4444C59.5668 69.836 59.6792 70.1474 59.9039 70.3785C60.1285 70.6032 60.4271 70.7156 60.7994 70.7156C61.1204 70.7156 61.3836 70.6546 61.589 70.5326C61.8009 70.4042 61.9293 70.2341 61.9742 70.0222H62.8409C62.7831 70.4652 62.568 70.8183 62.1957 71.0815C61.8234 71.3383 61.3579 71.4667 60.7994 71.4667ZM59.5668 68.2696H62.032V68C62.032 67.5827 61.9229 67.2617 61.7046 67.037C61.4927 66.8059 61.191 66.6904 60.7994 66.6904C60.4078 66.6904 60.1029 66.8059 59.8846 67.037C59.6727 67.2617 59.5668 67.5827 59.5668 68V68.2696ZM66.5734 71.4667C65.9507 71.4667 65.4468 71.2805 65.0616 70.9081C64.6828 70.5294 64.4934 70.0094 64.4934 69.3481V68.0963C64.4934 67.4351 64.6828 66.9183 65.0616 66.5459C65.4468 66.1672 65.9507 65.9778 66.5734 65.9778C66.9907 65.9778 67.3534 66.0612 67.6616 66.2281C67.9761 66.3951 68.2201 66.6294 68.3934 66.9311C68.5668 67.2328 68.6534 67.5891 68.6534 68V68.9437H65.3408V69.4444C65.3408 69.836 65.4532 70.1474 65.6779 70.3785C65.9026 70.6032 66.2011 70.7156 66.5734 70.7156C66.8944 70.7156 67.1576 70.6546 67.3631 70.5326C67.5749 70.4042 67.7033 70.2341 67.7482 70.0222H68.6149C68.5571 70.4652 68.3421 70.8183 67.9697 71.0815C67.5974 71.3383 67.1319 71.4667 66.5734 71.4667ZM65.3408 68.2696H67.806V68C67.806 67.5827 67.6969 67.2617 67.4786 67.037C67.2668 66.8059 66.965 66.6904 66.5734 66.6904C66.1818 66.6904 65.8769 66.8059 65.6586 67.037C65.4468 67.2617 65.3408 67.5827 65.3408 68V68.2696ZM72.8771 71.3704C72.4405 71.3704 72.0906 71.2452 71.8274 70.9948C71.5642 70.738 71.4326 70.3978 71.4326 69.9741V66.8637H69.9111V66.0741H71.4326V64.5815H72.2993V66.0741H74.466V66.8637H72.2993V69.9741C72.2993 70.1538 72.3506 70.3015 72.4534 70.417C72.5625 70.5262 72.7037 70.5807 72.8771 70.5807H74.4178V71.3704H72.8771ZM76.0511 71.3704V70.5807H77.9289V66.8637H76.2437V66.0741H78.7955V70.5807H80.577V71.3704H76.0511ZM78.2659 65.1207C78.054 65.1207 77.8871 65.0662 77.7652 64.957C77.6432 64.8479 77.5822 64.7002 77.5822 64.5141C77.5822 64.3215 77.6432 64.1706 77.7652 64.0615C77.8871 63.9459 78.054 63.8881 78.2659 63.8881C78.4777 63.8881 78.6447 63.9459 78.7666 64.0615C78.8886 64.1706 78.9496 64.3215 78.9496 64.5141C78.9496 64.7002 78.8886 64.8479 78.7666 64.957C78.6447 65.0662 78.4777 65.1207 78.2659 65.1207ZM81.8925 71.3704V66.0741H82.7592V67.0852H82.7688C82.8137 66.7321 82.9582 66.4593 83.2021 66.2667C83.4461 66.0741 83.7703 65.9778 84.1747 65.9778C84.7076 65.9778 85.1313 66.1415 85.4458 66.4689C85.7604 66.7963 85.9177 67.2425 85.9177 67.8074V71.3704H85.051V67.9615C85.051 67.557 84.9483 67.2489 84.7429 67.037C84.5439 66.8188 84.271 66.7096 83.9244 66.7096C83.5649 66.7096 83.2792 66.822 83.0673 67.0467C82.8619 67.2714 82.7592 67.5891 82.7592 68V71.3704H81.8925ZM88.331 73.1037V72.3141H89.8236C90.1253 72.3141 90.3628 72.2274 90.5362 72.0541C90.7095 71.8872 90.7962 71.6593 90.7962 71.3704V70.8889L90.8154 70.0222H90.7865C90.7352 70.3368 90.5843 70.5807 90.3339 70.7541C90.0836 70.921 89.769 71.0044 89.3902 71.0044C88.8445 71.0044 88.4144 70.8311 88.0999 70.4844C87.7853 70.1378 87.628 69.6627 87.628 69.0593V67.9422C87.628 67.3388 87.7853 66.8605 88.0999 66.5074C88.4144 66.1543 88.8445 65.9778 89.3902 65.9778C89.769 65.9778 90.0836 66.0677 90.3339 66.2474C90.5843 66.4272 90.7352 66.6743 90.7865 66.9889H90.8058V66.0741H91.6628V71.3704C91.6628 71.9032 91.4959 72.3237 91.1621 72.6319C90.8347 72.9464 90.3853 73.1037 89.8139 73.1037H88.331ZM89.6502 70.2822C90.0097 70.2822 90.2922 70.1699 90.4976 69.9452C90.7031 69.7205 90.8058 69.4091 90.8058 69.0111V68C90.8058 67.602 90.7031 67.2906 90.4976 67.0659C90.2922 66.8412 90.0097 66.7289 89.6502 66.7289C89.2843 66.7289 88.9986 66.8348 88.7932 67.0467C88.5942 67.2585 88.4947 67.5442 88.4947 67.9037V69.1074C88.4947 69.4669 88.5942 69.7526 88.7932 69.9644C88.9986 70.1763 89.2843 70.2822 89.6502 70.2822ZM95.4435 66.6519C95.206 66.6519 95.0134 66.5877 94.8657 66.4593C94.7181 66.3244 94.6442 66.1479 94.6442 65.9296C94.6442 65.7114 94.7181 65.538 94.8657 65.4096C95.0134 65.2748 95.206 65.2074 95.4435 65.2074C95.6875 65.2074 95.88 65.2748 96.0213 65.4096C96.1689 65.538 96.2428 65.7114 96.2428 65.9296C96.2428 66.1479 96.1689 66.3244 96.0213 66.4593C95.88 66.5877 95.6875 66.6519 95.4435 66.6519ZM95.4435 70.6963C95.206 70.6963 95.0134 70.6321 94.8657 70.5037C94.7181 70.3689 94.6442 70.1923 94.6442 69.9741C94.6442 69.7558 94.7181 69.5825 94.8657 69.4541C95.0134 69.3193 95.206 69.2519 95.4435 69.2519C95.6875 69.2519 95.88 69.3193 96.0213 69.4541C96.1689 69.5825 96.2428 69.7558 96.2428 69.9741C96.2428 70.1923 96.1689 70.3689 96.0213 70.5037C95.88 70.6321 95.6875 70.6963 95.4435 70.6963ZM106.78 71.4474C106.189 71.4474 105.73 71.3158 105.403 71.0526C105.082 70.783 104.921 70.4042 104.921 69.9163H105.788C105.788 70.1602 105.874 70.3528 106.048 70.4941C106.221 70.6289 106.465 70.6963 106.78 70.6963H107.203C107.524 70.6963 107.772 70.6257 107.945 70.4844C108.125 70.3432 108.214 70.1442 108.214 69.8874C108.214 69.4316 108.006 69.1748 107.589 69.117L106.125 68.9052C105.765 68.8538 105.486 68.7062 105.287 68.4622C105.088 68.2119 104.989 67.8844 104.989 67.48C104.989 67.0178 105.146 66.6551 105.46 66.3919C105.781 66.1286 106.221 65.997 106.78 65.997H107.203C107.717 65.997 108.134 66.1254 108.455 66.3822C108.783 66.6326 108.959 66.9632 108.985 67.3741H108.109C108.096 67.1879 108.006 67.0338 107.839 66.9119C107.678 66.7899 107.467 66.7289 107.203 66.7289H106.78C106.484 66.7289 106.253 66.7963 106.086 66.9311C105.919 67.0659 105.836 67.2489 105.836 67.48C105.836 67.8523 106.006 68.0642 106.346 68.1156L107.714 68.3081C108.613 68.4365 109.062 68.963 109.062 69.8874C109.062 70.3817 108.898 70.7669 108.571 71.043C108.25 71.3126 107.794 71.4474 107.203 71.4474H106.78ZM113.295 71.3704C112.859 71.3704 112.509 71.2452 112.246 70.9948C111.982 70.738 111.851 70.3978 111.851 69.9741V66.8637H110.329V66.0741H111.851V64.5815H112.717V66.0741H114.884V66.8637H112.717V69.9741C112.717 70.1538 112.769 70.3015 112.871 70.417C112.981 70.5262 113.122 70.5807 113.295 70.5807H114.836V71.3704H113.295ZM116.729 71.3704V66.0741H117.596V67.0852H117.615C117.66 66.7449 117.805 66.4753 118.048 66.2763C118.292 66.0773 118.62 65.9778 119.031 65.9778C119.583 65.9778 120.006 66.1447 120.302 66.4785C120.604 66.8059 120.754 67.2746 120.754 67.8844V68.337H119.888V67.8844C119.888 67.1141 119.512 66.7289 118.761 66.7289C118.382 66.7289 118.093 66.838 117.894 67.0563C117.695 67.2746 117.596 67.5891 117.596 68V71.3704H116.729ZM122.243 71.3704V70.5807H124.121V66.8637H122.436V66.0741H124.988V70.5807H126.769V71.3704H122.243ZM124.458 65.1207C124.246 65.1207 124.079 65.0662 123.957 64.957C123.835 64.8479 123.774 64.7002 123.774 64.5141C123.774 64.3215 123.835 64.1706 123.957 64.0615C124.079 63.9459 124.246 63.8881 124.458 63.8881C124.67 63.8881 124.837 63.9459 124.959 64.0615C125.081 64.1706 125.142 64.3215 125.142 64.5141C125.142 64.7002 125.081 64.8479 124.959 64.957C124.837 65.0662 124.67 65.1207 124.458 65.1207ZM128.085 71.3704V66.0741H128.951V67.0852H128.961C129.006 66.7321 129.15 66.4593 129.394 66.2667C129.638 66.0741 129.962 65.9778 130.367 65.9778C130.9 65.9778 131.323 66.1415 131.638 66.4689C131.953 66.7963 132.11 67.2425 132.11 67.8074V71.3704H131.243V67.9615C131.243 67.557 131.14 67.2489 130.935 67.037C130.736 66.8188 130.463 66.7096 130.116 66.7096C129.757 66.7096 129.471 66.822 129.259 67.0467C129.054 67.2714 128.951 67.5891 128.951 68V71.3704H128.085ZM134.523 73.1037V72.3141H136.016C136.317 72.3141 136.555 72.2274 136.728 72.0541C136.902 71.8872 136.988 71.6593 136.988 71.3704V70.8889L137.008 70.0222H136.979C136.927 70.3368 136.776 70.5807 136.526 70.7541C136.276 70.921 135.961 71.0044 135.582 71.0044C135.037 71.0044 134.607 70.8311 134.292 70.4844C133.977 70.1378 133.82 69.6627 133.82 69.0593V67.9422C133.82 67.3388 133.977 66.8605 134.292 66.5074C134.607 66.1543 135.037 65.9778 135.582 65.9778C135.961 65.9778 136.276 66.0677 136.526 66.2474C136.776 66.4272 136.927 66.6743 136.979 66.9889H136.998V66.0741H137.855V71.3704C137.855 71.9032 137.688 72.3237 137.354 72.6319C137.027 72.9464 136.577 73.1037 136.006 73.1037H134.523ZM135.842 70.2822C136.202 70.2822 136.484 70.1699 136.69 69.9452C136.895 69.7205 136.998 69.4091 136.998 69.0111V68C136.998 67.602 136.895 67.2906 136.69 67.0659C136.484 66.8412 136.202 66.7289 135.842 66.7289C135.476 66.7289 135.191 66.8348 134.985 67.0467C134.786 67.2585 134.687 67.5442 134.687 67.9037V69.1074C134.687 69.4669 134.786 69.7526 134.985 69.9644C135.191 70.1763 135.476 70.2822 135.842 70.2822ZM141.539 67.4222C141.327 67.4222 141.154 67.3548 141.019 67.22C140.885 67.0852 140.817 66.9119 140.817 66.7C140.817 66.4946 140.885 66.3244 141.019 66.1896C141.161 66.0484 141.334 65.9778 141.539 65.9778H141.732C141.937 65.9778 142.107 66.0484 142.242 66.1896C142.384 66.3244 142.454 66.4946 142.454 66.7C142.454 66.9119 142.387 67.0852 142.252 67.22C142.117 67.3548 141.944 67.4222 141.732 67.4222H141.539ZM140.721 72.9111L141.25 69.9644H142.29L141.616 72.9111H140.721ZM114.547 101.526C113.629 101.32 112.916 100.89 112.409 100.236C111.909 99.5807 111.658 98.759 111.658 97.7704V96.037C111.658 95.0484 111.909 94.2267 112.409 93.5719C112.916 92.917 113.629 92.4869 114.547 92.2815V93.1193C114.136 93.2156 113.777 93.3985 113.469 93.6681C113.167 93.9378 112.932 94.2748 112.766 94.6793C112.605 95.0773 112.525 95.5299 112.525 96.037V97.7704C112.525 98.2711 112.605 98.7237 112.766 99.1281C112.932 99.5326 113.167 99.8696 113.469 100.139C113.777 100.409 114.136 100.592 114.547 100.688V101.526ZM116.228 100.37V95.0741H116.98V95.777H116.999C117.031 95.5395 117.124 95.3469 117.278 95.1993C117.439 95.0516 117.641 94.9778 117.885 94.9778C118.116 94.9778 118.312 95.0452 118.472 95.18C118.633 95.3148 118.748 95.4978 118.819 95.7289H118.828C118.873 95.4978 118.973 95.3148 119.127 95.18C119.287 95.0452 119.49 94.9778 119.734 94.9778C120.074 94.9778 120.344 95.1062 120.543 95.363C120.748 95.6133 120.851 95.9407 120.851 96.3452V100.37H120.042V96.3356C120.042 96.1237 119.99 95.9568 119.888 95.8348C119.785 95.7064 119.644 95.6422 119.464 95.6422C119.291 95.6422 119.153 95.7032 119.05 95.8252C118.947 95.9472 118.896 96.1141 118.896 96.3259V100.37H118.183V96.3356C118.183 96.1237 118.132 95.9568 118.029 95.8348C117.926 95.7064 117.788 95.6422 117.615 95.6422C117.435 95.6422 117.294 95.7032 117.191 95.8252C117.089 95.9472 117.037 96.1141 117.037 96.3259V100.37H116.228ZM124.314 100.467C123.691 100.467 123.187 100.28 122.802 99.9081C122.423 99.5294 122.234 99.0094 122.234 98.3481V97.0963C122.234 96.4351 122.423 95.9183 122.802 95.5459C123.187 95.1672 123.691 94.9778 124.314 94.9778C124.731 94.9778 125.094 95.0612 125.402 95.2281C125.716 95.3951 125.96 95.6294 126.134 95.9311C126.307 96.2328 126.394 96.5891 126.394 97V97.9437H123.081V98.4444C123.081 98.836 123.193 99.1474 123.418 99.3785C123.643 99.6032 123.941 99.7156 124.314 99.7156C124.635 99.7156 124.898 99.6546 125.103 99.5326C125.315 99.4042 125.443 99.2341 125.488 99.0222H126.355C126.297 99.4652 126.082 99.8183 125.71 100.081C125.338 100.338 124.872 100.467 124.314 100.467ZM123.081 97.2696H125.546V97C125.546 96.5827 125.437 96.2617 125.219 96.037C125.007 95.8059 124.705 95.6904 124.314 95.6904C123.922 95.6904 123.617 95.8059 123.399 96.037C123.187 96.2617 123.081 96.5827 123.081 97V97.2696ZM129.876 100.447C129.285 100.447 128.826 100.316 128.499 100.053C128.178 99.783 128.017 99.4042 128.017 98.9163H128.884C128.884 99.1602 128.971 99.3528 129.144 99.4941C129.317 99.6289 129.561 99.6963 129.876 99.6963H130.299C130.62 99.6963 130.868 99.6257 131.041 99.4844C131.221 99.3432 131.311 99.1442 131.311 98.8874C131.311 98.4316 131.102 98.1748 130.685 98.117L129.221 97.9052C128.861 97.8538 128.582 97.7062 128.383 97.4622C128.184 97.2119 128.085 96.8844 128.085 96.48C128.085 96.0178 128.242 95.6551 128.556 95.3919C128.877 95.1286 129.317 94.997 129.876 94.997H130.299C130.813 94.997 131.23 95.1254 131.551 95.3822C131.879 95.6326 132.055 95.9632 132.081 96.3741H131.205C131.192 96.1879 131.102 96.0338 130.935 95.9119C130.775 95.7899 130.563 95.7289 130.299 95.7289H129.876C129.58 95.7289 129.349 95.7963 129.182 95.9311C129.015 96.0659 128.932 96.2489 128.932 96.48C128.932 96.8523 129.102 97.0642 129.442 97.1156L130.81 97.3081C131.709 97.4365 132.158 97.963 132.158 98.8874C132.158 99.3817 131.994 99.7669 131.667 100.043C131.346 100.313 130.89 100.447 130.299 100.447H129.876ZM135.65 100.447C135.059 100.447 134.6 100.316 134.273 100.053C133.952 99.783 133.791 99.4042 133.791 98.9163H134.658C134.658 99.1602 134.745 99.3528 134.918 99.4941C135.091 99.6289 135.335 99.6963 135.65 99.6963H136.073C136.394 99.6963 136.642 99.6257 136.815 99.4844C136.995 99.3432 137.085 99.1442 137.085 98.8874C137.085 98.4316 136.876 98.1748 136.459 98.117L134.995 97.9052C134.635 97.8538 134.356 97.7062 134.157 97.4622C133.958 97.2119 133.859 96.8844 133.859 96.48C133.859 96.0178 134.016 95.6551 134.331 95.3919C134.651 95.1286 135.091 94.997 135.65 94.997H136.073C136.587 94.997 137.004 95.1254 137.325 95.3822C137.653 95.6326 137.829 95.9632 137.855 96.3741H136.979C136.966 96.1879 136.876 96.0338 136.709 95.9119C136.549 95.7899 136.337 95.7289 136.073 95.7289H135.65C135.354 95.7289 135.123 95.7963 134.956 95.9311C134.79 96.0659 134.706 96.2489 134.706 96.48C134.706 96.8523 134.876 97.0642 135.216 97.1156L136.584 97.3081C137.483 97.4365 137.932 97.963 137.932 98.8874C137.932 99.3817 137.768 99.7669 137.441 100.043C137.12 100.313 136.664 100.447 136.073 100.447H135.65ZM141.173 100.467C140.628 100.467 140.194 100.316 139.873 100.014C139.552 99.7059 139.392 99.3047 139.392 98.8104C139.392 98.483 139.466 98.1973 139.613 97.9533C139.761 97.7094 139.966 97.52 140.23 97.3852C140.493 97.2439 140.795 97.1733 141.135 97.1733H142.772V96.7593C142.772 96.0723 142.396 95.7289 141.645 95.7289C141.311 95.7289 141.042 95.7899 140.836 95.9119C140.631 96.0338 140.522 96.2039 140.509 96.4222H139.642C139.674 96.0049 139.867 95.6615 140.22 95.3919C140.58 95.1158 141.055 94.9778 141.645 94.9778C142.287 94.9778 142.778 95.1319 143.119 95.44C143.465 95.7481 143.639 96.1783 143.639 96.7304V100.37H142.782V99.4074H142.762C142.711 99.7348 142.547 99.9948 142.271 100.187C141.995 100.374 141.629 100.467 141.173 100.467ZM141.385 99.7348C141.809 99.7348 142.146 99.6321 142.396 99.4267C142.647 99.2212 142.772 98.942 142.772 98.5889V97.8474H141.231C140.949 97.8474 140.718 97.9341 140.538 98.1074C140.365 98.2743 140.278 98.499 140.278 98.7815C140.278 99.0768 140.374 99.3111 140.567 99.4844C140.766 99.6514 141.039 99.7348 141.385 99.7348ZM146.071 102.104V101.314H147.564C147.865 101.314 148.103 101.227 148.276 101.054C148.45 100.887 148.536 100.659 148.536 100.37V99.8889L148.556 99.0222H148.527C148.475 99.3368 148.324 99.5807 148.074 99.7541C147.824 99.921 147.509 100.004 147.13 100.004C146.585 100.004 146.155 99.8311 145.84 99.4844C145.525 99.1378 145.368 98.6627 145.368 98.0593V96.9422C145.368 96.3388 145.525 95.8605 145.84 95.5074C146.155 95.1543 146.585 94.9778 147.13 94.9778C147.509 94.9778 147.824 95.0677 148.074 95.2474C148.324 95.4272 148.475 95.6743 148.527 95.9889H148.546V95.0741H149.403V100.37C149.403 100.903 149.236 101.324 148.902 101.632C148.575 101.946 148.125 102.104 147.554 102.104H146.071ZM147.39 99.2822C147.75 99.2822 148.032 99.1699 148.238 98.9452C148.443 98.7205 148.546 98.4091 148.546 98.0111V97C148.546 96.602 148.443 96.2906 148.238 96.0659C148.032 95.8412 147.75 95.7289 147.39 95.7289C147.024 95.7289 146.739 95.8348 146.533 96.0467C146.334 96.2585 146.235 96.5442 146.235 96.9037V98.1074C146.235 98.4669 146.334 98.7526 146.533 98.9644C146.739 99.1763 147.024 99.2822 147.39 99.2822ZM153.184 100.467C152.561 100.467 152.057 100.28 151.672 99.9081C151.293 99.5294 151.104 99.0094 151.104 98.3481V97.0963C151.104 96.4351 151.293 95.9183 151.672 95.5459C152.057 95.1672 152.561 94.9778 153.184 94.9778C153.601 94.9778 153.964 95.0612 154.272 95.2281C154.586 95.3951 154.83 95.6294 155.004 95.9311C155.177 96.2328 155.264 96.5891 155.264 97V97.9437H151.951V98.4444C151.951 98.836 152.063 99.1474 152.288 99.3785C152.513 99.6032 152.811 99.7156 153.184 99.7156C153.505 99.7156 153.768 99.6546 153.973 99.5326C154.185 99.4042 154.314 99.2341 154.358 99.0222H155.225C155.167 99.4652 154.952 99.8183 154.58 100.081C154.208 100.338 153.742 100.467 153.184 100.467ZM151.951 97.2696H154.416V97C154.416 96.5827 154.307 96.2617 154.089 96.037C153.877 95.8059 153.575 95.6904 153.184 95.6904C152.792 95.6904 152.487 95.8059 152.269 96.037C152.057 96.2617 151.951 96.5827 151.951 97V97.2696ZM158.958 95.6519C158.72 95.6519 158.528 95.5877 158.38 95.4593C158.232 95.3244 158.158 95.1479 158.158 94.9296C158.158 94.7114 158.232 94.538 158.38 94.4096C158.528 94.2748 158.72 94.2074 158.958 94.2074C159.202 94.2074 159.394 94.2748 159.535 94.4096C159.683 94.538 159.757 94.7114 159.757 94.9296C159.757 95.1479 159.683 95.3244 159.535 95.4593C159.394 95.5877 159.202 95.6519 158.958 95.6519ZM158.958 99.6963C158.72 99.6963 158.528 99.6321 158.38 99.5037C158.232 99.3689 158.158 99.1923 158.158 98.9741C158.158 98.7558 158.232 98.5825 158.38 98.4541C158.528 98.3193 158.72 98.2519 158.958 98.2519C159.202 98.2519 159.394 98.3193 159.535 98.4541C159.683 98.5825 159.757 98.7558 159.757 98.9741C159.757 99.1923 159.683 99.3689 159.535 99.5037C159.394 99.6321 159.202 99.6963 158.958 99.6963ZM37.4915 115.447C36.9009 115.447 36.4419 115.316 36.1145 115.053C35.7935 114.783 35.633 114.404 35.633 113.916H36.4996C36.4996 114.16 36.5863 114.353 36.7596 114.494C36.933 114.629 37.1769 114.696 37.4915 114.696H37.9152C38.2362 114.696 38.4833 114.626 38.6567 114.484C38.8364 114.343 38.9263 114.144 38.9263 113.887C38.9263 113.432 38.7177 113.175 38.3004 113.117L36.8367 112.905C36.4772 112.854 36.1979 112.706 35.9989 112.462C35.7999 112.212 35.7004 111.884 35.7004 111.48C35.7004 111.018 35.8577 110.655 36.1722 110.392C36.4932 110.129 36.933 109.997 37.4915 109.997H37.9152C38.4288 109.997 38.8461 110.125 39.167 110.382C39.4945 110.633 39.671 110.963 39.6967 111.374H38.8204C38.8075 111.188 38.7177 111.034 38.5507 110.912C38.3903 110.79 38.1784 110.729 37.9152 110.729H37.4915C37.1962 110.729 36.9651 110.796 36.7982 110.931C36.6312 111.066 36.5478 111.249 36.5478 111.48C36.5478 111.852 36.7179 112.064 37.0582 112.116L38.4256 112.308C39.3243 112.437 39.7737 112.963 39.7737 113.887C39.7737 114.382 39.61 114.767 39.2826 115.043C38.9616 115.313 38.5058 115.447 37.9152 115.447H37.4915ZM44.007 115.37C43.5704 115.37 43.2206 115.245 42.9574 114.995C42.6941 114.738 42.5625 114.398 42.5625 113.974V110.864H41.0411V110.074H42.5625V108.581H43.4292V110.074H45.5959V110.864H43.4292V113.974C43.4292 114.154 43.4806 114.301 43.5833 114.417C43.6924 114.526 43.8337 114.581 44.007 114.581H45.5477V115.37H44.007ZM47.441 115.37V110.074H48.3077V111.085H48.3269C48.3719 110.745 48.5163 110.475 48.7603 110.276C49.0042 110.077 49.3316 109.978 49.7425 109.978C50.2946 109.978 50.7183 110.145 51.0136 110.479C51.3153 110.806 51.4662 111.275 51.4662 111.884V112.337H50.5995V111.884C50.5995 111.114 50.224 110.729 49.4729 110.729C49.0941 110.729 48.8052 110.838 48.6062 111.056C48.4072 111.275 48.3077 111.589 48.3077 112V115.37H47.441ZM52.955 115.37V114.581H54.8328V110.864H53.1476V110.074H55.6995V114.581H57.4809V115.37H52.955ZM55.1698 109.121C54.958 109.121 54.7911 109.066 54.6691 108.957C54.5471 108.848 54.4861 108.7 54.4861 108.514C54.4861 108.321 54.5471 108.171 54.6691 108.061C54.7911 107.946 54.958 107.888 55.1698 107.888C55.3817 107.888 55.5486 107.946 55.6706 108.061C55.7926 108.171 55.8535 108.321 55.8535 108.514C55.8535 108.7 55.7926 108.848 55.6706 108.957C55.5486 109.066 55.3817 109.121 55.1698 109.121ZM58.7964 115.37V110.074H59.6631V111.085H59.6727C59.7177 110.732 59.8621 110.459 60.1061 110.267C60.35 110.074 60.6742 109.978 61.0787 109.978C61.6115 109.978 62.0352 110.141 62.3498 110.469C62.6643 110.796 62.8216 111.242 62.8216 111.807V115.37H61.955V111.961C61.955 111.557 61.8522 111.249 61.6468 111.037C61.4478 110.819 61.175 110.71 60.8283 110.71C60.4688 110.71 60.1831 110.822 59.9713 111.047C59.7658 111.271 59.6631 111.589 59.6631 112V115.37H58.7964ZM65.2349 117.104V116.314H66.7275C67.0292 116.314 67.2668 116.227 67.4401 116.054C67.6134 115.887 67.7001 115.659 67.7001 115.37V114.889L67.7193 114.022H67.6905C67.6391 114.337 67.4882 114.581 67.2379 114.754C66.9875 114.921 66.6729 115.004 66.2942 115.004C65.7485 115.004 65.3184 114.831 65.0038 114.484C64.6892 114.138 64.5319 113.663 64.5319 113.059V111.942C64.5319 111.339 64.6892 110.86 65.0038 110.507C65.3184 110.154 65.7485 109.978 66.2942 109.978C66.6729 109.978 66.9875 110.068 67.2379 110.247C67.4882 110.427 67.6391 110.674 67.6905 110.989H67.7097V110.074H68.5668V115.37C68.5668 115.903 68.3998 116.324 68.066 116.632C67.7386 116.946 67.2892 117.104 66.7179 117.104H65.2349ZM66.5542 114.282C66.9137 114.282 67.1961 114.17 67.4016 113.945C67.607 113.72 67.7097 113.409 67.7097 113.011V112C67.7097 111.602 67.607 111.291 67.4016 111.066C67.1961 110.841 66.9137 110.729 66.5542 110.729C66.1882 110.729 65.9026 110.835 65.6971 111.047C65.4981 111.259 65.3986 111.544 65.3986 111.904V113.107C65.3986 113.467 65.4981 113.753 65.6971 113.964C65.9026 114.176 66.1882 114.282 66.5542 114.282ZM70.566 116.526V115.688C70.9832 115.592 71.3427 115.409 71.6445 115.139C71.9462 114.87 72.1773 114.533 72.3378 114.128C72.5047 113.724 72.5882 113.271 72.5882 112.77V111.037C72.5882 110.53 72.5047 110.077 72.3378 109.679C72.1773 109.275 71.9462 108.938 71.6445 108.668C71.3427 108.399 70.9832 108.216 70.566 108.119V107.281C71.484 107.487 72.1934 107.917 72.6941 108.572C73.2013 109.227 73.4548 110.048 73.4548 111.037V112.77C73.4548 113.759 73.2013 114.581 72.6941 115.236C72.1934 115.89 71.484 116.32 70.566 116.526ZM85.4362 116.43C84.8713 116.43 84.4219 116.288 84.0881 116.006C83.7542 115.73 83.6098 115.338 83.6547 114.831L83.7992 113.252C83.8313 112.912 83.7831 112.668 83.6547 112.52C83.5263 112.366 83.2535 112.289 82.8362 112.289H81.7288V111.519H82.8362C83.2535 111.519 83.5263 111.445 83.6547 111.297C83.7831 111.143 83.8313 110.896 83.7992 110.556L83.6547 108.976C83.6098 108.469 83.7542 108.078 84.0881 107.801C84.4219 107.519 84.8713 107.378 85.4362 107.378H85.8695V108.148H85.4362C85.1345 108.148 84.9002 108.219 84.7332 108.36C84.5663 108.495 84.4957 108.7 84.5214 108.976L84.6658 110.556C84.6979 110.934 84.6081 111.239 84.3962 111.47C84.1844 111.695 83.8377 111.83 83.3562 111.875C83.8377 111.92 84.1844 112.067 84.3962 112.318C84.6081 112.568 84.6979 112.88 84.6658 113.252L84.5214 114.831C84.4957 115.107 84.5663 115.313 84.7332 115.447C84.9002 115.589 85.1345 115.659 85.4362 115.659H85.8695V116.43H85.4362ZM61.329 130.37C60.8925 130.37 60.5426 130.245 60.2794 129.995C60.0162 129.738 59.8846 129.398 59.8846 128.974V125.864H58.3631V125.074H59.8846V123.581H60.7513V125.074H62.9179V125.864H60.7513V128.974C60.7513 129.154 60.8026 129.301 60.9053 129.417C61.0145 129.526 61.1557 129.581 61.329 129.581H62.8698V130.37H61.329ZM64.5705 130.37V123.341H65.4371V126.085H65.4468C65.4917 125.732 65.6361 125.459 65.8801 125.267C66.124 125.074 66.4482 124.978 66.8527 124.978C67.3855 124.978 67.8092 125.141 68.1238 125.469C68.4384 125.796 68.5956 126.242 68.5956 126.807V130.37H67.729V126.952C67.729 126.554 67.6263 126.249 67.4208 126.037C67.2218 125.819 66.949 125.71 66.6023 125.71C66.2428 125.71 65.9571 125.822 65.7453 126.047C65.5398 126.271 65.4371 126.589 65.4371 127V130.37H64.5705ZM70.2771 130.37V129.581H72.1548V125.864H70.4697V125.074H73.0215V129.581H74.803V130.37H70.2771ZM72.4919 124.121C72.28 124.121 72.1131 124.066 71.9911 123.957C71.8692 123.848 71.8082 123.7 71.8082 123.514C71.8082 123.321 71.8692 123.171 71.9911 123.061C72.1131 122.946 72.28 122.888 72.4919 122.888C72.7037 122.888 72.8706 122.946 72.9926 123.061C73.1146 123.171 73.1756 123.321 73.1756 123.514C73.1756 123.7 73.1146 123.848 72.9926 123.957C72.8706 124.066 72.7037 124.121 72.4919 124.121ZM77.9096 130.447C77.319 130.447 76.86 130.316 76.5326 130.053C76.2116 129.783 76.0511 129.404 76.0511 128.916H76.9177C76.9177 129.16 77.0044 129.353 77.1777 129.494C77.3511 129.629 77.595 129.696 77.9096 129.696H78.3333C78.6543 129.696 78.9015 129.626 79.0748 129.484C79.2545 129.343 79.3444 129.144 79.3444 128.887C79.3444 128.432 79.1358 128.175 78.7185 128.117L77.2548 127.905C76.8953 127.854 76.616 127.706 76.417 127.462C76.218 127.212 76.1185 126.884 76.1185 126.48C76.1185 126.018 76.2758 125.655 76.5903 125.392C76.9113 125.129 77.3511 124.997 77.9096 124.997H78.3333C78.8469 124.997 79.2642 125.125 79.5852 125.382C79.9126 125.633 80.0891 125.963 80.1148 126.374H79.2385C79.2256 126.188 79.1358 126.034 78.9689 125.912C78.8084 125.79 78.5965 125.729 78.3333 125.729H77.9096C77.6143 125.729 77.3832 125.796 77.2163 125.931C77.0494 126.066 76.9659 126.249 76.9659 126.48C76.9659 126.852 77.136 127.064 77.4763 127.116L78.8437 127.308C79.7424 127.437 80.1918 127.963 80.1918 128.887C80.1918 129.382 80.0281 129.767 79.7007 130.043C79.3797 130.313 78.9239 130.447 78.3333 130.447H77.9096ZM83.8955 130.467C83.6579 130.467 83.4653 130.396 83.3177 130.255C83.1765 130.114 83.1058 129.931 83.1058 129.706C83.1058 129.468 83.1765 129.276 83.3177 129.128C83.4653 128.98 83.6579 128.907 83.8955 128.907C84.133 128.907 84.3224 128.98 84.4636 129.128C84.6113 129.276 84.6851 129.468 84.6851 129.706C84.6851 129.931 84.6113 130.114 84.4636 130.255C84.3224 130.396 84.133 130.467 83.8955 130.467ZM88.331 132.104V131.314H89.8236C90.1253 131.314 90.3628 131.227 90.5362 131.054C90.7095 130.887 90.7962 130.659 90.7962 130.37V129.889L90.8154 129.022H90.7865C90.7352 129.337 90.5843 129.581 90.3339 129.754C90.0836 129.921 89.769 130.004 89.3902 130.004C88.8445 130.004 88.4144 129.831 88.0999 129.484C87.7853 129.138 87.628 128.663 87.628 128.059V126.942C87.628 126.339 87.7853 125.86 88.0999 125.507C88.4144 125.154 88.8445 124.978 89.3902 124.978C89.769 124.978 90.0836 125.068 90.3339 125.247C90.5843 125.427 90.7352 125.674 90.7865 125.989H90.8058V125.074H91.6628V130.37C91.6628 130.903 91.4959 131.324 91.1621 131.632C90.8347 131.946 90.3853 132.104 89.8139 132.104H88.331ZM89.6502 129.282C90.0097 129.282 90.2922 129.17 90.4976 128.945C90.7031 128.72 90.8058 128.409 90.8058 128.011V127C90.8058 126.602 90.7031 126.291 90.4976 126.066C90.2922 125.841 90.0097 125.729 89.6502 125.729C89.2843 125.729 88.9986 125.835 88.7932 126.047C88.5942 126.259 88.4947 126.544 88.4947 126.904V128.107C88.4947 128.467 88.5942 128.753 88.7932 128.964C88.9986 129.176 89.2843 129.282 89.6502 129.282ZM93.6331 130.37V125.074H94.4998V126.085H94.5191C94.564 125.745 94.7084 125.475 94.9524 125.276C95.1963 125.077 95.5237 124.978 95.9346 124.978C96.4867 124.978 96.9104 125.145 97.2057 125.479C97.5075 125.806 97.6583 126.275 97.6583 126.884V127.337H96.7916V126.884C96.7916 126.114 96.4161 125.729 95.665 125.729C95.2862 125.729 94.9973 125.838 94.7983 126.056C94.5993 126.275 94.4998 126.589 94.4998 127V130.37H93.6331ZM101.218 130.467C100.595 130.467 100.091 130.28 99.7057 129.908C99.3269 129.529 99.1375 129.009 99.1375 128.348V127.096C99.1375 126.435 99.3269 125.918 99.7057 125.546C100.091 125.167 100.595 124.978 101.218 124.978C101.635 124.978 101.998 125.061 102.306 125.228C102.62 125.395 102.864 125.629 103.038 125.931C103.211 126.233 103.298 126.589 103.298 127V127.944H99.9849V128.444C99.9849 128.836 100.097 129.147 100.322 129.379C100.547 129.603 100.845 129.716 101.218 129.716C101.539 129.716 101.802 129.655 102.007 129.533C102.219 129.404 102.347 129.234 102.392 129.022H103.259C103.201 129.465 102.986 129.818 102.614 130.081C102.241 130.338 101.776 130.467 101.218 130.467ZM99.9849 127.27H102.45V127C102.45 126.583 102.341 126.262 102.123 126.037C101.911 125.806 101.609 125.69 101.218 125.69C100.826 125.69 100.521 125.806 100.303 126.037C100.091 126.262 99.9849 126.583 99.9849 127V127.27ZM106.992 130.467C106.369 130.467 105.865 130.28 105.48 129.908C105.101 129.529 104.912 129.009 104.912 128.348V127.096C104.912 126.435 105.101 125.918 105.48 125.546C105.865 125.167 106.369 124.978 106.992 124.978C107.409 124.978 107.772 125.061 108.08 125.228C108.394 125.395 108.638 125.629 108.812 125.931C108.985 126.233 109.072 126.589 109.072 127V127.944H105.759V128.444C105.759 128.836 105.871 129.147 106.096 129.379C106.321 129.603 106.619 129.716 106.992 129.716C107.313 129.716 107.576 129.655 107.781 129.533C107.993 129.404 108.121 129.234 108.166 129.022H109.033C108.975 129.465 108.76 129.818 108.388 130.081C108.015 130.338 107.55 130.467 106.992 130.467ZM105.759 127.27H108.224V127C108.224 126.583 108.115 126.262 107.897 126.037C107.685 125.806 107.383 125.69 106.992 125.69C106.6 125.69 106.295 125.806 106.077 126.037C105.865 126.262 105.759 126.583 105.759 127V127.27ZM113.295 130.37C112.859 130.37 112.509 130.245 112.246 129.995C111.982 129.738 111.851 129.398 111.851 128.974V125.864H110.329V125.074H111.851V123.581H112.717V125.074H114.884V125.864H112.717V128.974C112.717 129.154 112.769 129.301 112.871 129.417C112.981 129.526 113.122 129.581 113.295 129.581H114.836V130.37H113.295ZM116.469 130.37V129.581H118.347V125.864H116.662V125.074H119.214V129.581H120.995V130.37H116.469ZM118.684 124.121C118.472 124.121 118.305 124.066 118.183 123.957C118.061 123.848 118 123.7 118 123.514C118 123.321 118.061 123.171 118.183 123.061C118.305 122.946 118.472 122.888 118.684 122.888C118.896 122.888 119.063 122.946 119.185 123.061C119.307 123.171 119.368 123.321 119.368 123.514C119.368 123.7 119.307 123.848 119.185 123.957C119.063 124.066 118.896 124.121 118.684 124.121ZM122.311 130.37V125.074H123.177V126.085H123.187C123.232 125.732 123.376 125.459 123.62 125.267C123.864 125.074 124.188 124.978 124.593 124.978C125.126 124.978 125.549 125.141 125.864 125.469C126.179 125.796 126.336 126.242 126.336 126.807V130.37H125.469V126.961C125.469 126.557 125.366 126.249 125.161 126.037C124.962 125.819 124.689 125.71 124.342 125.71C123.983 125.71 123.697 125.822 123.485 126.047C123.28 126.271 123.177 126.589 123.177 127V130.37H122.311ZM128.749 132.104V131.314H130.242C130.543 131.314 130.781 131.227 130.954 131.054C131.128 130.887 131.214 130.659 131.214 130.37V129.889L131.234 129.022H131.205C131.153 129.337 131.002 129.581 130.752 129.754C130.502 129.921 130.187 130.004 129.808 130.004C129.263 130.004 128.833 129.831 128.518 129.484C128.203 129.138 128.046 128.663 128.046 128.059V126.942C128.046 126.339 128.203 125.86 128.518 125.507C128.833 125.154 129.263 124.978 129.808 124.978C130.187 124.978 130.502 125.068 130.752 125.247C131.002 125.427 131.153 125.674 131.205 125.989H131.224V125.074H132.081V130.37C132.081 130.903 131.914 131.324 131.58 131.632C131.253 131.946 130.803 132.104 130.232 132.104H128.749ZM130.068 129.282C130.428 129.282 130.71 129.17 130.916 128.945C131.121 128.72 131.224 128.409 131.224 128.011V127C131.224 126.602 131.121 126.291 130.916 126.066C130.71 125.841 130.428 125.729 130.068 125.729C129.702 125.729 129.417 125.835 129.211 126.047C129.012 126.259 128.913 126.544 128.913 126.904V128.107C128.913 128.467 129.012 128.753 129.211 128.964C129.417 129.176 129.702 129.282 130.068 129.282ZM139.565 126.422V125.652H143.706V126.422H139.565ZM139.565 128.733V127.963H143.706V128.733H139.565ZM35.3922 145.37V140.074H36.1433V140.777H36.1626C36.1947 140.54 36.2878 140.347 36.4419 140.199C36.6024 140.052 36.8046 139.978 37.0485 139.978C37.2796 139.978 37.4754 140.045 37.6359 140.18C37.7964 140.315 37.912 140.498 37.9826 140.729H37.9922C38.0372 140.498 38.1367 140.315 38.2907 140.18C38.4512 140.045 38.6535 139.978 38.8974 139.978C39.2377 139.978 39.5073 140.106 39.7063 140.363C39.9117 140.613 40.0145 140.941 40.0145 141.345V145.37H39.2056V141.336C39.2056 141.124 39.1542 140.957 39.0515 140.835C38.9488 140.706 38.8075 140.642 38.6278 140.642C38.4545 140.642 38.3164 140.703 38.2137 140.825C38.111 140.947 38.0596 141.114 38.0596 141.326V145.37H37.347V141.336C37.347 141.124 37.2957 140.957 37.193 140.835C37.0903 140.706 36.9522 140.642 36.7789 140.642C36.5991 140.642 36.4579 140.703 36.3552 140.825C36.2525 140.947 36.2011 141.114 36.2011 141.326V145.37H35.3922ZM43.4774 145.467C42.8546 145.467 42.3507 145.28 41.9655 144.908C41.5867 144.529 41.3974 144.009 41.3974 143.348V142.096C41.3974 141.435 41.5867 140.918 41.9655 140.546C42.3507 140.167 42.8546 139.978 43.4774 139.978C43.8946 139.978 44.2574 140.061 44.5655 140.228C44.8801 140.395 45.124 140.629 45.2974 140.931C45.4707 141.233 45.5574 141.589 45.5574 142V142.944H42.2448V143.444C42.2448 143.836 42.3571 144.147 42.5818 144.379C42.8065 144.603 43.105 144.716 43.4774 144.716C43.7983 144.716 44.0616 144.655 44.267 144.533C44.4788 144.404 44.6072 144.234 44.6522 144.022H45.5188C45.4611 144.465 45.246 144.818 44.8737 145.081C44.5013 145.338 44.0359 145.467 43.4774 145.467ZM42.2448 142.27H44.71V142C44.71 141.583 44.6008 141.262 44.3825 141.037C44.1707 140.806 43.869 140.69 43.4774 140.69C43.0858 140.69 42.7808 140.806 42.5625 141.037C42.3507 141.262 42.2448 141.583 42.2448 142V142.27ZM49.0395 145.447C48.4489 145.447 47.9899 145.316 47.6625 145.053C47.3415 144.783 47.181 144.404 47.181 143.916H48.0477C48.0477 144.16 48.1343 144.353 48.3077 144.494C48.481 144.629 48.725 144.696 49.0395 144.696H49.4632C49.7842 144.696 50.0314 144.626 50.2047 144.484C50.3845 144.343 50.4743 144.144 50.4743 143.887C50.4743 143.432 50.2657 143.175 49.8484 143.117L48.3847 142.905C48.0252 142.854 47.7459 142.706 47.5469 142.462C47.3479 142.212 47.2484 141.884 47.2484 141.48C47.2484 141.018 47.4057 140.655 47.7203 140.392C48.0413 140.129 48.481 139.997 49.0395 139.997H49.4632C49.9768 139.997 50.3941 140.125 50.7151 140.382C51.0425 140.633 51.219 140.963 51.2447 141.374H50.3684C50.3556 141.188 50.2657 141.034 50.0988 140.912C49.9383 140.79 49.7264 140.729 49.4632 140.729H49.0395C48.7442 140.729 48.5131 140.796 48.3462 140.931C48.1793 141.066 48.0958 141.249 48.0958 141.48C48.0958 141.852 48.2659 142.064 48.6062 142.116L49.9736 142.308C50.8724 142.437 51.3217 142.963 51.3217 143.887C51.3217 144.382 51.158 144.767 50.8306 145.043C50.5096 145.313 50.0538 145.447 49.4632 145.447H49.0395ZM54.8135 145.447C54.2229 145.447 53.7639 145.316 53.4365 145.053C53.1155 144.783 52.955 144.404 52.955 143.916H53.8217C53.8217 144.16 53.9084 144.353 54.0817 144.494C54.255 144.629 54.499 144.696 54.8135 144.696H55.2372C55.5582 144.696 55.8054 144.626 55.9787 144.484C56.1585 144.343 56.2484 144.144 56.2484 143.887C56.2484 143.432 56.0397 143.175 55.6224 143.117L54.1587 142.905C53.7992 142.854 53.52 142.706 53.3209 142.462C53.1219 142.212 53.0224 141.884 53.0224 141.48C53.0224 141.018 53.1797 140.655 53.4943 140.392C53.8153 140.129 54.255 139.997 54.8135 139.997H55.2372C55.7508 139.997 56.1681 140.125 56.4891 140.382C56.8165 140.633 56.993 140.963 57.0187 141.374H56.1424C56.1296 141.188 56.0397 141.034 55.8728 140.912C55.7123 140.79 55.5005 140.729 55.2372 140.729H54.8135C54.5182 140.729 54.2871 140.796 54.1202 140.931C53.9533 141.066 53.8698 141.249 53.8698 141.48C53.8698 141.852 54.04 142.064 54.3802 142.116L55.7476 142.308C56.6464 142.437 57.0958 142.963 57.0958 143.887C57.0958 144.382 56.9321 144.767 56.6046 145.043C56.2837 145.313 55.8279 145.447 55.2372 145.447H54.8135ZM60.3372 145.467C59.7915 145.467 59.3582 145.316 59.0372 145.014C58.7162 144.706 58.5557 144.305 58.5557 143.81C58.5557 143.483 58.6295 143.197 58.7772 142.953C58.9248 142.709 59.1303 142.52 59.3935 142.385C59.6567 142.244 59.9584 142.173 60.2987 142.173H61.9357V141.759C61.9357 141.072 61.5601 140.729 60.809 140.729C60.4752 140.729 60.2056 140.79 60.0001 140.912C59.7947 141.034 59.6856 141.204 59.6727 141.422H58.8061C58.8382 141.005 59.0308 140.661 59.3839 140.392C59.7434 140.116 60.2184 139.978 60.809 139.978C61.451 139.978 61.9421 140.132 62.2824 140.44C62.629 140.748 62.8024 141.178 62.8024 141.73V145.37H61.9453V144.407H61.9261C61.8747 144.735 61.711 144.995 61.435 145.187C61.1589 145.374 60.793 145.467 60.3372 145.467ZM60.549 144.735C60.9727 144.735 61.3098 144.632 61.5601 144.427C61.8105 144.221 61.9357 143.942 61.9357 143.589V142.847H60.395C60.1125 142.847 59.8814 142.934 59.7016 143.107C59.5283 143.274 59.4416 143.499 59.4416 143.781C59.4416 144.077 59.5379 144.311 59.7305 144.484C59.9295 144.651 60.2024 144.735 60.549 144.735ZM65.2349 147.104V146.314H66.7275C67.0292 146.314 67.2668 146.227 67.4401 146.054C67.6134 145.887 67.7001 145.659 67.7001 145.37V144.889L67.7193 144.022H67.6905C67.6391 144.337 67.4882 144.581 67.2379 144.754C66.9875 144.921 66.6729 145.004 66.2942 145.004C65.7485 145.004 65.3184 144.831 65.0038 144.484C64.6892 144.138 64.5319 143.663 64.5319 143.059V141.942C64.5319 141.339 64.6892 140.86 65.0038 140.507C65.3184 140.154 65.7485 139.978 66.2942 139.978C66.6729 139.978 66.9875 140.068 67.2379 140.247C67.4882 140.427 67.6391 140.674 67.6905 140.989H67.7097V140.074H68.5668V145.37C68.5668 145.903 68.3998 146.324 68.066 146.632C67.7386 146.946 67.2892 147.104 66.7179 147.104H65.2349ZM66.5542 144.282C66.9137 144.282 67.1961 144.17 67.4016 143.945C67.607 143.72 67.7097 143.409 67.7097 143.011V142C67.7097 141.602 67.607 141.291 67.4016 141.066C67.1961 140.841 66.9137 140.729 66.5542 140.729C66.1882 140.729 65.9026 140.835 65.6971 141.047C65.4981 141.259 65.3986 141.544 65.3986 141.904V143.107C65.3986 143.467 65.4981 143.753 65.6971 143.964C65.9026 144.176 66.1882 144.282 66.5542 144.282ZM72.3474 145.467C71.7247 145.467 71.2208 145.28 70.8356 144.908C70.4568 144.529 70.2674 144.009 70.2674 143.348V142.096C70.2674 141.435 70.4568 140.918 70.8356 140.546C71.2208 140.167 71.7247 139.978 72.3474 139.978C72.7647 139.978 73.1274 140.061 73.4356 140.228C73.7502 140.395 73.9941 140.629 74.1674 140.931C74.3408 141.233 74.4274 141.589 74.4274 142V142.944H71.1148V143.444C71.1148 143.836 71.2272 144.147 71.4519 144.379C71.6766 144.603 71.9751 144.716 72.3474 144.716C72.6684 144.716 72.9316 144.655 73.1371 144.533C73.3489 144.404 73.4773 144.234 73.5223 144.022H74.3889C74.3311 144.465 74.1161 144.818 73.7437 145.081C73.3714 145.338 72.906 145.467 72.3474 145.467ZM71.1148 142.27H73.58V142C73.58 141.583 73.4709 141.262 73.2526 141.037C73.0408 140.806 72.739 140.69 72.3474 140.69C71.9558 140.69 71.6509 140.806 71.4326 141.037C71.2208 141.262 71.1148 141.583 71.1148 142V142.27ZM78.0252 141.422C77.8133 141.422 77.64 141.355 77.5052 141.22C77.3703 141.085 77.3029 140.912 77.3029 140.7C77.3029 140.495 77.3703 140.324 77.5052 140.19C77.6464 140.048 77.8197 139.978 78.0252 139.978H78.2177C78.4232 139.978 78.5933 140.048 78.7281 140.19C78.8694 140.324 78.94 140.495 78.94 140.7C78.94 140.912 78.8726 141.085 78.7377 141.22C78.6029 141.355 78.4296 141.422 78.2177 141.422H78.0252ZM77.2066 146.911L77.7363 143.964H78.7763L78.1022 146.911H77.2066ZM60.8764 159.467C60.2345 159.467 59.7209 159.287 59.3357 158.927C58.9505 158.568 58.7579 158.074 58.7579 157.444V156C58.7579 155.371 58.9505 154.877 59.3357 154.517C59.7209 154.158 60.2345 153.978 60.8764 153.978C61.4863 153.978 61.9774 154.141 62.3498 154.469C62.7285 154.796 62.9276 155.242 62.9468 155.807H62.0801C62.0609 155.467 61.9453 155.207 61.7335 155.027C61.5216 154.841 61.2359 154.748 60.8764 154.748C60.4977 154.748 60.1927 154.857 59.9616 155.076C59.7369 155.287 59.6246 155.592 59.6246 155.99V157.444C59.6246 157.842 59.7369 158.151 59.9616 158.369C60.1927 158.587 60.4977 158.696 60.8764 158.696C61.2359 158.696 61.5216 158.603 61.7335 158.417C61.9453 158.231 62.0609 157.971 62.0801 157.637H62.9468C62.9276 158.202 62.7285 158.648 62.3498 158.976C61.9774 159.303 61.4863 159.467 60.8764 159.467ZM66.5734 159.447C65.9379 159.447 65.4307 159.261 65.0519 158.889C64.6796 158.517 64.4934 157.997 64.4934 157.329V156.116C64.4934 155.441 64.6796 154.921 65.0519 154.556C65.4243 154.183 65.9314 153.997 66.5734 153.997C67.2154 153.997 67.7226 154.183 68.0949 154.556C68.4672 154.921 68.6534 155.441 68.6534 156.116V157.329C68.6534 157.997 68.464 158.517 68.0853 158.889C67.7129 159.261 67.209 159.447 66.5734 159.447ZM66.5734 158.677C66.9522 158.677 67.2475 158.571 67.4593 158.359C67.6776 158.147 67.7868 157.836 67.7868 157.425V156.019C67.7868 155.608 67.6776 155.297 67.4593 155.085C67.2475 154.873 66.9522 154.767 66.5734 154.767C66.2011 154.767 65.9058 154.873 65.6875 155.085C65.4692 155.297 65.3601 155.608 65.3601 156.019V157.425C65.3601 157.836 65.4692 158.147 65.6875 158.359C65.9058 158.571 66.2011 158.677 66.5734 158.677ZM70.3445 159.37V154.074H71.2111V155.085H71.2208C71.2657 154.732 71.4102 154.459 71.6541 154.267C71.8981 154.074 72.2223 153.978 72.6267 153.978C73.1595 153.978 73.5832 154.141 73.8978 154.469C74.2124 154.796 74.3697 155.242 74.3697 155.807V159.37H73.503V155.961C73.503 155.557 73.4003 155.249 73.1948 155.037C72.9958 154.819 72.723 154.71 72.3763 154.71C72.0168 154.71 71.7311 154.822 71.5193 155.047C71.3139 155.271 71.2111 155.589 71.2111 156V159.37H70.3445ZM77.9096 159.447C77.319 159.447 76.86 159.316 76.5326 159.053C76.2116 158.783 76.0511 158.404 76.0511 157.916H76.9177C76.9177 158.16 77.0044 158.353 77.1777 158.494C77.3511 158.629 77.595 158.696 77.9096 158.696H78.3333C78.6543 158.696 78.9015 158.626 79.0748 158.484C79.2545 158.343 79.3444 158.144 79.3444 157.887C79.3444 157.432 79.1358 157.175 78.7185 157.117L77.2548 156.905C76.8953 156.854 76.616 156.706 76.417 156.462C76.218 156.212 76.1185 155.884 76.1185 155.48C76.1185 155.018 76.2758 154.655 76.5903 154.392C76.9113 154.129 77.3511 153.997 77.9096 153.997H78.3333C78.8469 153.997 79.2642 154.125 79.5852 154.382C79.9126 154.633 80.0891 154.963 80.1148 155.374H79.2385C79.2256 155.188 79.1358 155.034 78.9689 154.912C78.8084 154.79 78.5965 154.729 78.3333 154.729H77.9096C77.6143 154.729 77.3832 154.796 77.2163 154.931C77.0494 155.066 76.9659 155.249 76.9659 155.48C76.9659 155.852 77.136 156.064 77.4763 156.116L78.8437 156.308C79.7424 156.437 80.1918 156.963 80.1918 157.887C80.1918 158.382 80.0281 158.767 79.7007 159.043C79.3797 159.313 78.9239 159.447 78.3333 159.447H77.9096ZM84.4251 159.37C83.9886 159.37 83.6387 159.245 83.3755 158.995C83.1123 158.738 82.9807 158.398 82.9807 157.974V154.864H81.4592V154.074H82.9807V152.581H83.8473V154.074H86.014V154.864H83.8473V157.974C83.8473 158.154 83.8987 158.301 84.0014 158.417C84.1105 158.526 84.2518 158.581 84.4251 158.581H85.9658V159.37H84.4251ZM94.9813 159.467C94.4356 159.467 94.0023 159.316 93.6813 159.014C93.3603 158.706 93.1998 158.305 93.1998 157.81C93.1998 157.483 93.2736 157.197 93.4213 156.953C93.5689 156.709 93.7744 156.52 94.0376 156.385C94.3008 156.244 94.6025 156.173 94.9428 156.173H96.5798V155.759C96.5798 155.072 96.2042 154.729 95.4531 154.729C95.1193 154.729 94.8497 154.79 94.6442 154.912C94.4388 155.034 94.3297 155.204 94.3168 155.422H93.4502C93.4823 155.005 93.6749 154.661 94.0279 154.392C94.3875 154.116 94.8625 153.978 95.4531 153.978C96.0951 153.978 96.5862 154.132 96.9265 154.44C97.2731 154.748 97.4465 155.178 97.4465 155.73V159.37H96.5894V158.407H96.5702C96.5188 158.735 96.3551 158.995 96.0791 159.187C95.803 159.374 95.4371 159.467 94.9813 159.467ZM95.1931 158.735C95.6168 158.735 95.9539 158.632 96.2042 158.427C96.4546 158.221 96.5798 157.942 96.5798 157.589V156.847H95.0391C94.7566 156.847 94.5255 156.934 94.3457 157.107C94.1724 157.274 94.0857 157.499 94.0857 157.781C94.0857 158.077 94.182 158.311 94.3746 158.484C94.5736 158.651 94.8465 158.735 95.1931 158.735ZM99.879 161.104V160.314H101.372C101.673 160.314 101.911 160.227 102.084 160.054C102.258 159.887 102.344 159.659 102.344 159.37V158.889L102.363 158.022H102.335C102.283 158.337 102.132 158.581 101.882 158.754C101.632 158.921 101.317 159.004 100.938 159.004C100.393 159.004 99.9625 158.831 99.6479 158.484C99.3333 158.138 99.176 157.663 99.176 157.059V155.942C99.176 155.339 99.3333 154.86 99.6479 154.507C99.9625 154.154 100.393 153.978 100.938 153.978C101.317 153.978 101.632 154.068 101.882 154.247C102.132 154.427 102.283 154.674 102.335 154.989H102.354V154.074H103.211V159.37C103.211 159.903 103.044 160.324 102.71 160.632C102.383 160.946 101.933 161.104 101.362 161.104H99.879ZM101.198 158.282C101.558 158.282 101.84 158.17 102.046 157.945C102.251 157.72 102.354 157.409 102.354 157.011V156C102.354 155.602 102.251 155.291 102.046 155.066C101.84 154.841 101.558 154.729 101.198 154.729C100.832 154.729 100.547 154.835 100.341 155.047C100.142 155.259 100.043 155.544 100.043 155.904V157.107C100.043 157.467 100.142 157.753 100.341 157.964C100.547 158.176 100.832 158.282 101.198 158.282ZM106.992 159.467C106.369 159.467 105.865 159.28 105.48 158.908C105.101 158.529 104.912 158.009 104.912 157.348V156.096C104.912 155.435 105.101 154.918 105.48 154.546C105.865 154.167 106.369 153.978 106.992 153.978C107.409 153.978 107.772 154.061 108.08 154.228C108.394 154.395 108.638 154.629 108.812 154.931C108.985 155.233 109.072 155.589 109.072 156V156.944H105.759V157.444C105.759 157.836 105.871 158.147 106.096 158.379C106.321 158.603 106.619 158.716 106.992 158.716C107.313 158.716 107.576 158.655 107.781 158.533C107.993 158.404 108.121 158.234 108.166 158.022H109.033C108.975 158.465 108.76 158.818 108.388 159.081C108.015 159.338 107.55 159.467 106.992 159.467ZM105.759 156.27H108.224V156C108.224 155.583 108.115 155.262 107.897 155.037C107.685 154.806 107.383 154.69 106.992 154.69C106.6 154.69 106.295 154.806 106.077 155.037C105.865 155.262 105.759 155.583 105.759 156V156.27ZM116.469 155.422V154.652H120.61V155.422H116.469ZM116.469 157.733V156.963H120.61V157.733H116.469ZM129.982 159.467C129.333 159.467 128.82 159.287 128.441 158.927C128.062 158.561 127.873 158.067 127.873 157.444H128.739C128.739 157.83 128.852 158.135 129.076 158.359C129.301 158.584 129.606 158.696 129.991 158.696C130.376 158.696 130.681 158.584 130.906 158.359C131.131 158.135 131.243 157.83 131.243 157.444V156.963C131.243 156.578 131.131 156.273 130.906 156.048C130.681 155.823 130.376 155.711 129.991 155.711H129.231V154.96L130.954 153.13H128.065V152.341H131.936V153.15L130.242 154.95C130.819 154.995 131.275 155.198 131.609 155.557C131.943 155.91 132.11 156.379 132.11 156.963V157.444C132.11 158.067 131.917 158.561 131.532 158.927C131.153 159.287 130.636 159.467 129.982 159.467ZM133.801 159.37V158.571L136.141 156.067C136.481 155.708 136.722 155.387 136.863 155.104C137.004 154.822 137.075 154.546 137.075 154.276C137.075 153.891 136.963 153.586 136.738 153.361C136.52 153.13 136.221 153.015 135.842 153.015C135.451 153.015 135.139 153.134 134.908 153.371C134.684 153.602 134.571 153.917 134.571 154.315H133.705C133.724 153.679 133.926 153.175 134.311 152.803C134.696 152.431 135.207 152.244 135.842 152.244C136.491 152.244 137.004 152.427 137.383 152.793C137.768 153.159 137.961 153.657 137.961 154.286C137.961 154.62 137.868 154.973 137.682 155.345C137.502 155.718 137.191 156.135 136.748 156.597L134.851 158.581H138.048V159.37H133.801ZM141.539 155.422C141.327 155.422 141.154 155.355 141.019 155.22C140.885 155.085 140.817 154.912 140.817 154.7C140.817 154.495 140.885 154.324 141.019 154.19C141.161 154.048 141.334 153.978 141.539 153.978H141.732C141.937 153.978 142.107 154.048 142.242 154.19C142.384 154.324 142.454 154.495 142.454 154.7C142.454 154.912 142.387 155.085 142.252 155.22C142.117 155.355 141.944 155.422 141.732 155.422H141.539ZM140.721 160.911L141.25 157.964H142.29L141.616 160.911H140.721ZM47.2773 175.43V174.659H47.7106C48.0124 174.659 48.2499 174.589 48.4232 174.447C48.603 174.313 48.6704 174.107 48.6254 173.831L48.3847 172.252C48.3269 171.886 48.3911 171.578 48.5773 171.327C48.7635 171.071 49.0203 170.913 49.3477 170.856C49.0203 170.804 48.7635 170.666 48.5773 170.441C48.3911 170.217 48.3269 169.921 48.3847 169.556L48.6254 167.976C48.6704 167.7 48.603 167.495 48.4232 167.36C48.2499 167.219 48.0124 167.148 47.7106 167.148H47.2773V166.378H47.7106C48.0894 166.378 48.42 166.442 48.7025 166.57C48.9914 166.692 49.2064 166.872 49.3477 167.11C49.4953 167.347 49.5435 167.636 49.4921 167.976L49.2514 169.556C49.2 169.896 49.2417 170.143 49.3766 170.297C49.5178 170.445 49.7971 170.519 50.2143 170.519H51.418V171.289H50.2143C49.8035 171.289 49.5274 171.366 49.3862 171.52C49.245 171.668 49.2 171.912 49.2514 172.252L49.4921 173.831C49.5435 174.165 49.4953 174.451 49.3477 174.688C49.2064 174.932 48.9914 175.115 48.7025 175.237C48.42 175.365 48.0894 175.43 47.7106 175.43H47.2773Z" fill="#D3D5DE"/>
<path d="M72.386 41.4667C71.744 41.4667 71.2368 41.2869 70.8645 40.9274C70.4921 40.5679 70.306 40.0736 70.306 39.4444V36.2667C70.306 35.6375 70.4921 35.1432 70.8645 34.7837C71.2368 34.4242 71.744 34.2444 72.386 34.2444C73.0151 34.2444 73.5158 34.4274 73.8882 34.7933C74.2605 35.1528 74.4467 35.6439 74.4467 36.2667H73.58C73.58 35.8686 73.4741 35.5637 73.2623 35.3519C73.0568 35.1336 72.7647 35.0244 72.386 35.0244C72.0072 35.0244 71.7087 35.1304 71.4904 35.3422C71.2785 35.5541 71.1726 35.859 71.1726 36.257V39.4444C71.1726 39.8425 71.2785 40.1506 71.4904 40.3689C71.7087 40.5872 72.0072 40.6963 72.386 40.6963C72.7647 40.6963 73.0568 40.5872 73.2623 40.3689C73.4741 40.1506 73.58 39.8425 73.58 39.4444V38.4815H72.1548V37.6919H74.4467V39.4444C74.4467 40.0672 74.2605 40.5615 73.8882 40.9274C73.5158 41.2869 73.0151 41.4667 72.386 41.4667ZM76.3111 41.3704V36.0741H77.1777V37.0852H77.197C77.2419 36.7449 77.3864 36.4753 77.6303 36.2763C77.8743 36.0773 78.2017 35.9778 78.6126 35.9778C79.1647 35.9778 79.5884 36.1447 79.8837 36.4785C80.1854 36.8059 80.3363 37.2746 80.3363 37.8844V38.337H79.4696V37.8844C79.4696 37.1141 79.094 36.7289 78.3429 36.7289C77.9642 36.7289 77.6753 36.838 77.4763 37.0563C77.2773 37.2746 77.1777 37.5891 77.1777 38V41.3704H76.3111ZM83.8955 41.4667C83.2728 41.4667 82.7688 41.2805 82.3836 40.9081C82.0049 40.5294 81.8155 40.0094 81.8155 39.3481V38.0963C81.8155 37.4351 82.0049 36.9183 82.3836 36.5459C82.7688 36.1672 83.2728 35.9778 83.8955 35.9778C84.3128 35.9778 84.6755 36.0612 84.9836 36.2281C85.2982 36.3951 85.5421 36.6294 85.7155 36.9311C85.8888 37.2328 85.9755 37.5891 85.9755 38V38.9437H82.6629V39.4444C82.6629 39.836 82.7752 40.1474 82.9999 40.3785C83.2246 40.6032 83.5231 40.7156 83.8955 40.7156C84.2165 40.7156 84.4797 40.6546 84.6851 40.5326C84.897 40.4042 85.0253 40.2341 85.0703 40.0222H85.937C85.8792 40.4652 85.6641 40.8183 85.2918 41.0815C84.9194 41.3383 84.454 41.4667 83.8955 41.4667ZM82.6629 38.2696H85.1281V38C85.1281 37.5827 85.0189 37.2617 84.8007 37.037C84.5888 36.8059 84.2871 36.6904 83.8955 36.6904C83.5039 36.6904 83.1989 36.8059 82.9807 37.037C82.7688 37.2617 82.6629 37.5827 82.6629 38V38.2696ZM89.6695 41.4667C89.0468 41.4667 88.5428 41.2805 88.1576 40.9081C87.7789 40.5294 87.5895 40.0094 87.5895 39.3481V38.0963C87.5895 37.4351 87.7789 36.9183 88.1576 36.5459C88.5428 36.1672 89.0468 35.9778 89.6695 35.9778C90.0868 35.9778 90.4495 36.0612 90.7576 36.2281C91.0722 36.3951 91.3162 36.6294 91.4895 36.9311C91.6628 37.2328 91.7495 37.5891 91.7495 38V38.9437H88.4369V39.4444C88.4369 39.836 88.5492 40.1474 88.7739 40.3785C88.9986 40.6032 89.2971 40.7156 89.6695 40.7156C89.9905 40.7156 90.2537 40.6546 90.4591 40.5326C90.671 40.4042 90.7994 40.2341 90.8443 40.0222H91.711C91.6532 40.4652 91.4381 40.8183 91.0658 41.0815C90.6934 41.3383 90.228 41.4667 89.6695 41.4667ZM88.4369 38.2696H90.9021V38C90.9021 37.5827 90.7929 37.2617 90.5747 37.037C90.3628 36.8059 90.0611 36.6904 89.6695 36.6904C89.2779 36.6904 88.9729 36.8059 88.7547 37.037C88.5428 37.2617 88.4369 37.5827 88.4369 38V38.2696ZM95.9731 41.3704C95.5366 41.3704 95.1867 41.2452 94.9235 40.9948C94.6603 40.738 94.5287 40.3978 94.5287 39.9741V36.8637H93.0072V36.0741H94.5287V34.5815H95.3954V36.0741H97.562V36.8637H95.3954V39.9741C95.3954 40.1538 95.4467 40.3015 95.5494 40.417C95.6586 40.5262 95.7998 40.5807 95.9731 40.5807H97.5139V41.3704H95.9731ZM101.218 41.4667C100.595 41.4667 100.091 41.2805 99.7057 40.9081C99.3269 40.5294 99.1375 40.0094 99.1375 39.3481V38.0963C99.1375 37.4351 99.3269 36.9183 99.7057 36.5459C100.091 36.1672 100.595 35.9778 101.218 35.9778C101.635 35.9778 101.998 36.0612 102.306 36.2281C102.62 36.3951 102.864 36.6294 103.038 36.9311C103.211 37.2328 103.298 37.5891 103.298 38V38.9437H99.9849V39.4444C99.9849 39.836 100.097 40.1474 100.322 40.3785C100.547 40.6032 100.845 40.7156 101.218 40.7156C101.539 40.7156 101.802 40.6546 102.007 40.5326C102.219 40.4042 102.347 40.2341 102.392 40.0222H103.259C103.201 40.4652 102.986 40.8183 102.614 41.0815C102.241 41.3383 101.776 41.4667 101.218 41.4667ZM99.9849 38.2696H102.45V38C102.45 37.5827 102.341 37.2617 102.123 37.037C101.911 36.8059 101.609 36.6904 101.218 36.6904C100.826 36.6904 100.521 36.8059 100.303 37.037C100.091 37.2617 99.9849 37.5827 99.9849 38V38.2696ZM105.181 41.3704V36.0741H106.048V37.0852H106.067C106.112 36.7449 106.256 36.4753 106.5 36.2763C106.744 36.0773 107.072 35.9778 107.483 35.9778C108.035 35.9778 108.458 36.1447 108.754 36.4785C109.055 36.8059 109.206 37.2746 109.206 37.8844V38.337H108.34V37.8844C108.34 37.1141 107.964 36.7289 107.213 36.7289C106.834 36.7289 106.545 36.838 106.346 37.0563C106.147 37.2746 106.048 37.5891 106.048 38V41.3704H105.181ZM49.4921 58.1037C48.9464 58.1037 48.4714 57.9881 48.0669 57.757C47.6625 57.5323 47.3479 57.2081 47.1232 56.7844C46.905 56.3672 46.7958 55.876 46.7958 55.3111V52.037C46.7958 51.1704 47.0269 50.4899 47.4892 49.9956C47.9514 49.4948 48.5869 49.2444 49.3958 49.2444C50.1277 49.2444 50.7022 49.4563 51.1195 49.88C51.5432 50.2973 51.7551 50.8719 51.7551 51.6037V54.2133C51.7551 54.7141 51.6171 55.1121 51.341 55.4074C51.065 55.6963 50.6894 55.8407 50.2143 55.8407C49.7457 55.8407 49.3701 55.6995 49.0877 55.417C48.8116 55.1346 48.6736 54.7654 48.6736 54.3096V53.1926C48.6736 52.7175 48.7859 52.3516 49.0106 52.0948C49.2353 51.8316 49.5531 51.7 49.964 51.7C50.2272 51.7 50.4454 51.7514 50.6188 51.8541C50.7921 51.9568 50.9077 52.098 50.9654 52.2778H50.9847V51.6037C50.9847 51.058 50.8467 50.6407 50.5706 50.3519C50.301 50.063 49.9094 49.9185 49.3958 49.9185C48.818 49.9185 48.3687 50.1047 48.0477 50.477C47.7267 50.8494 47.5662 51.3694 47.5662 52.037V55.3111C47.5662 55.9531 47.7363 56.457 48.0766 56.823C48.4232 57.1953 48.8951 57.3815 49.4921 57.3815H50.5514V58.1037H49.4921ZM50.2143 55.1956C50.4583 55.1956 50.6477 55.1185 50.7825 54.9644C50.9173 54.8039 50.9847 54.5857 50.9847 54.3096V53.183C50.9847 52.9005 50.9173 52.6854 50.7825 52.5378C50.6477 52.3837 50.4583 52.3067 50.2143 52.3067C49.9704 52.3067 49.781 52.3837 49.6462 52.5378C49.5114 52.6919 49.444 52.9101 49.444 53.1926V54.3096C49.444 54.5857 49.5114 54.8039 49.6462 54.9644C49.781 55.1185 49.9704 55.1956 50.2143 55.1956ZM54.2069 56.3704V52.5859H52.6661V51.7963H54.2069V50.6889C54.2069 50.2716 54.3385 49.9442 54.6017 49.7067C54.8649 49.4627 55.2276 49.3407 55.6898 49.3407H57.2402V50.1304H55.6898C55.279 50.1304 55.0735 50.3165 55.0735 50.6889V51.7963H57.2402V52.5859H55.0735V56.3704H54.2069ZM60.7994 56.4474C60.1639 56.4474 59.6567 56.2612 59.2779 55.8889C58.9056 55.5165 58.7194 54.9965 58.7194 54.3289V53.1156C58.7194 52.4415 58.9056 51.9215 59.2779 51.5556C59.6503 51.1832 60.1574 50.997 60.7994 50.997C61.4414 50.997 61.9485 51.1832 62.3209 51.5556C62.6932 51.9215 62.8794 52.4415 62.8794 53.1156V54.3289C62.8794 54.9965 62.69 55.5165 62.3113 55.8889C61.9389 56.2612 61.435 56.4474 60.7994 56.4474ZM60.7994 55.677C61.1782 55.677 61.4735 55.5711 61.6853 55.3593C61.9036 55.1474 62.0127 54.836 62.0127 54.4252V53.0193C62.0127 52.6084 61.9036 52.297 61.6853 52.0852C61.4735 51.8733 61.1782 51.7674 60.7994 51.7674C60.4271 51.7674 60.1318 51.8733 59.9135 52.0852C59.6952 52.297 59.5861 52.6084 59.5861 53.0193V54.4252C59.5861 54.836 59.6952 55.1474 59.9135 55.3593C60.1318 55.5711 60.4271 55.677 60.7994 55.677ZM64.7631 56.3704V51.0741H65.6297V52.0852H65.649C65.6939 51.7449 65.8384 51.4753 66.0823 51.2763C66.3263 51.0773 66.6537 50.9778 67.0645 50.9778C67.6166 50.9778 68.0403 51.1447 68.3356 51.4785C68.6374 51.8059 68.7882 52.2746 68.7882 52.8844V53.337H67.9216V52.8844C67.9216 52.1141 67.546 51.7289 66.7949 51.7289C66.4161 51.7289 66.1272 51.838 65.9282 52.0563C65.7292 52.2746 65.6297 52.5891 65.6297 53V56.3704H64.7631ZM70.0363 56.3704V51.0741H70.7874V51.777H70.8067C70.8388 51.5395 70.9319 51.3469 71.086 51.1993C71.2465 51.0516 71.4487 50.9778 71.6926 50.9778C71.9237 50.9778 72.1195 51.0452 72.28 51.18C72.4405 51.3148 72.5561 51.4978 72.6267 51.7289H72.6363C72.6813 51.4978 72.7808 51.3148 72.9348 51.18C73.0953 51.0452 73.2976 50.9778 73.5415 50.9778C73.8818 50.9778 74.1514 51.1062 74.3504 51.363C74.5558 51.6133 74.6585 51.9407 74.6585 52.3452V56.3704H73.8497V52.3356C73.8497 52.1237 73.7983 51.9568 73.6956 51.8348C73.5929 51.7064 73.4516 51.6422 73.2719 51.6422C73.0985 51.6422 72.9605 51.7032 72.8578 51.8252C72.7551 51.9472 72.7037 52.1141 72.7037 52.3259V56.3704H71.9911V52.3356C71.9911 52.1237 71.9398 51.9568 71.8371 51.8348C71.7344 51.7064 71.5963 51.6422 71.423 51.6422C71.2432 51.6422 71.102 51.7032 70.9993 51.8252C70.8966 51.9472 70.8452 52.1141 70.8452 52.3259V56.3704H70.0363ZM77.6592 56.4667C77.1136 56.4667 76.6802 56.3158 76.3592 56.0141C76.0382 55.7059 75.8777 55.3047 75.8777 54.8104C75.8777 54.483 75.9516 54.1973 76.0992 53.9533C76.2469 53.7094 76.4523 53.52 76.7155 53.3852C76.9787 53.2439 77.2805 53.1733 77.6207 53.1733H79.2577V52.7593C79.2577 52.0723 78.8822 51.7289 78.1311 51.7289C77.7973 51.7289 77.5276 51.7899 77.3222 51.9119C77.1168 52.0338 77.0076 52.2039 76.9948 52.4222H76.1281C76.1602 52.0049 76.3528 51.6615 76.7059 51.3919C77.0654 51.1158 77.5405 50.9778 78.1311 50.9778C78.7731 50.9778 79.2642 51.1319 79.6044 51.44C79.9511 51.7481 80.1244 52.1783 80.1244 52.7304V56.3704H79.2674V55.4074H79.2481C79.1968 55.7348 79.0331 55.9948 78.757 56.1874C78.481 56.3736 78.115 56.4667 77.6592 56.4667ZM77.8711 55.7348C78.2948 55.7348 78.6318 55.6321 78.8822 55.4267C79.1326 55.2212 79.2577 54.942 79.2577 54.5889V53.8474H77.717C77.4345 53.8474 77.2034 53.9341 77.0237 54.1074C76.8503 54.2743 76.7637 54.499 76.7637 54.7815C76.7637 55.0768 76.86 55.3111 77.0526 55.4844C77.2516 55.6514 77.5244 55.7348 77.8711 55.7348ZM84.4251 56.3704C83.9886 56.3704 83.6387 56.2452 83.3755 55.9948C83.1123 55.738 82.9807 55.3978 82.9807 54.9741V51.8637H81.4592V51.0741H82.9807V49.5815H83.8473V51.0741H86.014V51.8637H83.8473V54.9741C83.8473 55.1538 83.8987 55.3015 84.0014 55.417C84.1105 55.5262 84.2518 55.5807 84.4251 55.5807H85.9658V56.3704H84.4251ZM49.3284 100.467C48.6864 100.467 48.1729 100.287 47.7877 99.9274C47.4025 99.5679 47.2099 99.0736 47.2099 98.4444V97C47.2099 96.3709 47.4025 95.8765 47.7877 95.517C48.1729 95.1575 48.6864 94.9778 49.3284 94.9778C49.9383 94.9778 50.4294 95.1415 50.8017 95.4689C51.1805 95.7963 51.3795 96.2425 51.3988 96.8074H50.5321C50.5129 96.4672 50.3973 96.2072 50.1854 96.0274C49.9736 95.8412 49.6879 95.7481 49.3284 95.7481C48.9496 95.7481 48.6447 95.8573 48.4136 96.0756C48.1889 96.2874 48.0766 96.5923 48.0766 96.9904V98.4444C48.0766 98.8425 48.1889 99.1506 48.4136 99.3689C48.6447 99.5872 48.9496 99.6963 49.3284 99.6963C49.6879 99.6963 49.9736 99.6032 50.1854 99.417C50.3973 99.2309 50.5129 98.9709 50.5321 98.637H51.3988C51.3795 99.202 51.1805 99.6481 50.8017 99.9756C50.4294 100.303 49.9383 100.467 49.3284 100.467ZM55.0254 100.447C54.3898 100.447 53.8827 100.261 53.5039 99.8889C53.1316 99.5165 52.9454 98.9965 52.9454 98.3289V97.1156C52.9454 96.4415 53.1316 95.9215 53.5039 95.5556C53.8763 95.1832 54.3834 94.997 55.0254 94.997C55.6674 94.997 56.1745 95.1832 56.5469 95.5556C56.9192 95.9215 57.1054 96.4415 57.1054 97.1156V98.3289C57.1054 98.9965 56.916 99.5165 56.5372 99.8889C56.1649 100.261 55.6609 100.447 55.0254 100.447ZM55.0254 99.677C55.4042 99.677 55.6995 99.5711 55.9113 99.3593C56.1296 99.1474 56.2387 98.836 56.2387 98.4252V97.0193C56.2387 96.6084 56.1296 96.297 55.9113 96.0852C55.6995 95.8733 55.4042 95.7674 55.0254 95.7674C54.653 95.7674 54.3577 95.8733 54.1395 96.0852C53.9212 96.297 53.8121 96.6084 53.8121 97.0193V98.4252C53.8121 98.836 53.9212 99.1474 54.1395 99.3593C54.3577 99.5711 54.653 99.677 55.0254 99.677ZM58.7964 100.37V95.0741H59.6631V96.0852H59.6727C59.7177 95.7321 59.8621 95.4593 60.1061 95.2667C60.35 95.0741 60.6742 94.9778 61.0787 94.9778C61.6115 94.9778 62.0352 95.1415 62.3498 95.4689C62.6643 95.7963 62.8216 96.2425 62.8216 96.8074V100.37H61.955V96.9615C61.955 96.557 61.8522 96.2489 61.6468 96.037C61.4478 95.8188 61.175 95.7096 60.8283 95.7096C60.4688 95.7096 60.1831 95.822 59.9713 96.0467C59.7658 96.2714 59.6631 96.5891 59.6631 97V100.37H58.7964ZM66.3616 100.447C65.771 100.447 65.3119 100.316 64.9845 100.053C64.6635 99.783 64.5031 99.4042 64.5031 98.9163H65.3697C65.3697 99.1602 65.4564 99.3528 65.6297 99.4941C65.8031 99.6289 66.047 99.6963 66.3616 99.6963H66.7853C67.1063 99.6963 67.3534 99.6257 67.5268 99.4844C67.7065 99.3432 67.7964 99.1442 67.7964 98.8874C67.7964 98.4316 67.5877 98.1748 67.1705 98.117L65.7068 97.9052C65.3472 97.8538 65.068 97.7062 64.869 97.4622C64.67 97.2119 64.5705 96.8844 64.5705 96.48C64.5705 96.0178 64.7277 95.6551 65.0423 95.3919C65.3633 95.1286 65.8031 94.997 66.3616 94.997H66.7853C67.2989 94.997 67.7161 95.1254 68.0371 95.3822C68.3645 95.6326 68.5411 95.9632 68.5668 96.3741H67.6905C67.6776 96.1879 67.5877 96.0338 67.4208 95.9119C67.2603 95.7899 67.0485 95.7289 66.7853 95.7289H66.3616C66.0663 95.7289 65.8351 95.7963 65.6682 95.9311C65.5013 96.0659 65.4179 96.2489 65.4179 96.48C65.4179 96.8523 65.588 97.0642 65.9282 97.1156L67.2956 97.3081C68.1944 97.4365 68.6438 97.963 68.6438 98.8874C68.6438 99.3817 68.4801 99.7669 68.1527 100.043C67.8317 100.313 67.3759 100.447 66.7853 100.447H66.3616ZM72.8771 100.37C72.4405 100.37 72.0906 100.245 71.8274 99.9948C71.5642 99.738 71.4326 99.3978 71.4326 98.9741V95.8637H69.9111V95.0741H71.4326V93.5815H72.2993V95.0741H74.466V95.8637H72.2993V98.9741C72.2993 99.1538 72.3506 99.3015 72.4534 99.417C72.5625 99.5262 72.7037 99.5807 72.8771 99.5807H74.4178V100.37H72.8771ZM76.3111 100.37V95.0741H77.1777V96.0852H77.197C77.2419 95.7449 77.3864 95.4753 77.6303 95.2763C77.8743 95.0773 78.2017 94.9778 78.6126 94.9778C79.1647 94.9778 79.5884 95.1447 79.8837 95.4785C80.1854 95.8059 80.3363 96.2746 80.3363 96.8844V97.337H79.4696V96.8844C79.4696 96.1141 79.094 95.7289 78.3429 95.7289C77.9642 95.7289 77.6753 95.838 77.4763 96.0563C77.2773 96.2746 77.1777 96.5891 77.1777 97V100.37H76.3111ZM83.8858 100.467C83.276 100.467 82.7881 100.287 82.4221 99.9274C82.0562 99.5615 81.8732 99.0672 81.8732 98.4444V95.0741H82.7399V98.4444C82.7399 98.8296 82.8426 99.1378 83.0481 99.3689C83.2535 99.5936 83.5328 99.7059 83.8858 99.7059C84.2453 99.7059 84.5278 99.5936 84.7332 99.3689C84.9451 99.1378 85.051 98.8296 85.051 98.4444V95.0741H85.9177V98.4444C85.9177 99.0672 85.7315 99.5615 85.3592 99.9274C84.9868 100.287 84.4957 100.467 83.8858 100.467ZM89.7465 100.467C89.1045 100.467 88.591 100.287 88.2058 99.9274C87.8206 99.5679 87.628 99.0736 87.628 98.4444V97C87.628 96.3709 87.8206 95.8765 88.2058 95.517C88.591 95.1575 89.1045 94.9778 89.7465 94.9778C90.3564 94.9778 90.8475 95.1415 91.2199 95.4689C91.5986 95.7963 91.7976 96.2425 91.8169 96.8074H90.9502C90.931 96.4672 90.8154 96.2072 90.6036 96.0274C90.3917 95.8412 90.106 95.7481 89.7465 95.7481C89.3678 95.7481 89.0628 95.8573 88.8317 96.0756C88.607 96.2874 88.4947 96.5923 88.4947 96.9904V98.4444C88.4947 98.8425 88.607 99.1506 88.8317 99.3689C89.0628 99.5872 89.3678 99.6963 89.7465 99.6963C90.106 99.6963 90.3917 99.6032 90.6036 99.417C90.8154 99.2309 90.931 98.9709 90.9502 98.637H91.8169C91.7976 99.202 91.5986 99.6481 91.2199 99.9756C90.8475 100.303 90.3564 100.467 89.7465 100.467ZM95.9731 100.37C95.5366 100.37 95.1867 100.245 94.9235 99.9948C94.6603 99.738 94.5287 99.3978 94.5287 98.9741V95.8637H93.0072V95.0741H94.5287V93.5815H95.3954V95.0741H97.562V95.8637H95.3954V98.9741C95.3954 99.1538 95.4467 99.3015 95.5494 99.417C95.6586 99.5262 95.7998 99.5807 95.9731 99.5807H97.5139V100.37H95.9731ZM101.218 100.447C100.582 100.447 100.075 100.261 99.696 99.8889C99.3237 99.5165 99.1375 98.9965 99.1375 98.3289V97.1156C99.1375 96.4415 99.3237 95.9215 99.696 95.5556C100.068 95.1832 100.576 94.997 101.218 94.997C101.859 94.997 102.367 95.1832 102.739 95.5556C103.111 95.9215 103.298 96.4415 103.298 97.1156V98.3289C103.298 98.9965 103.108 99.5165 102.729 99.8889C102.357 100.261 101.853 100.447 101.218 100.447ZM101.218 99.677C101.596 99.677 101.892 99.5711 102.103 99.3593C102.322 99.1474 102.431 98.836 102.431 98.4252V97.0193C102.431 96.6084 102.322 96.297 102.103 96.0852C101.892 95.8733 101.596 95.7674 101.218 95.7674C100.845 95.7674 100.55 95.8733 100.332 96.0852C100.113 96.297 100.004 96.6084 100.004 97.0193V98.4252C100.004 98.836 100.113 99.1474 100.332 99.3593C100.55 99.5711 100.845 99.677 101.218 99.677ZM105.181 100.37V95.0741H106.048V96.0852H106.067C106.112 95.7449 106.256 95.4753 106.5 95.2763C106.744 95.0773 107.072 94.9778 107.483 94.9778C108.035 94.9778 108.458 95.1447 108.754 95.4785C109.055 95.8059 109.206 96.2746 109.206 96.8844V97.337H108.34V96.8844C108.34 96.1141 107.964 95.7289 107.213 95.7289C106.834 95.7289 106.545 95.838 106.346 96.0563C106.147 96.2746 106.048 96.5891 106.048 97V100.37H105.181Z" fill="white"/>
<path d="M94.0087 52.2296L93.9316 49.3407H94.9139L94.8465 52.2296H94.0087ZM96.0502 52.2296L95.9731 49.3407H96.9554L96.8879 52.2296H96.0502ZM99.2242 56.3704V49.3407H100.091V52.3452H102.344V49.3407H103.211V56.3704H102.344V53.1348H100.091V56.3704H99.2242ZM106.992 56.4667C106.369 56.4667 105.865 56.2805 105.48 55.9081C105.101 55.5294 104.912 55.0094 104.912 54.3481V53.0963C104.912 52.4351 105.101 51.9183 105.48 51.5459C105.865 51.1672 106.369 50.9778 106.992 50.9778C107.409 50.9778 107.772 51.0612 108.08 51.2281C108.394 51.3951 108.638 51.6294 108.812 51.9311C108.985 52.2328 109.072 52.5891 109.072 53V53.9437H105.759V54.4444C105.759 54.836 105.871 55.1474 106.096 55.3785C106.321 55.6032 106.619 55.7156 106.992 55.7156C107.313 55.7156 107.576 55.6546 107.781 55.5326C107.993 55.4042 108.121 55.2341 108.166 55.0222H109.033C108.975 55.4652 108.76 55.8183 108.388 56.0815C108.015 56.3383 107.55 56.4667 106.992 56.4667ZM105.759 53.2696H108.224V53C108.224 52.5827 108.115 52.2617 107.897 52.037C107.685 51.8059 107.383 51.6904 106.992 51.6904C106.6 51.6904 106.295 51.8059 106.077 52.037C105.865 52.2617 105.759 52.5827 105.759 53V53.2696ZM113.536 56.3704C113.067 56.3704 112.692 56.2356 112.409 55.9659C112.133 55.6899 111.995 55.3272 111.995 54.8778V50.1304H110.166V49.3407H112.862V54.8778C112.862 55.096 112.923 55.2694 113.045 55.3978C113.167 55.5198 113.33 55.5807 113.536 55.5807H115.173V56.3704H113.536ZM119.31 56.3704C118.841 56.3704 118.466 56.2356 118.183 55.9659C117.907 55.6899 117.769 55.3272 117.769 54.8778V50.1304H115.94V49.3407H118.636V54.8778C118.636 55.096 118.697 55.2694 118.819 55.3978C118.941 55.5198 119.105 55.5807 119.31 55.5807H120.947V56.3704H119.31ZM124.314 56.4474C123.678 56.4474 123.171 56.2612 122.792 55.8889C122.42 55.5165 122.234 54.9965 122.234 54.3289V53.1156C122.234 52.4415 122.42 51.9215 122.792 51.5556C123.164 51.1832 123.672 50.997 124.314 50.997C124.956 50.997 125.463 51.1832 125.835 51.5556C126.207 51.9215 126.394 52.4415 126.394 53.1156V54.3289C126.394 54.9965 126.204 55.5165 125.825 55.8889C125.453 56.2612 124.949 56.4474 124.314 56.4474ZM124.314 55.677C124.692 55.677 124.988 55.5711 125.2 55.3593C125.418 55.1474 125.527 54.836 125.527 54.4252V53.0193C125.527 52.6084 125.418 52.297 125.2 52.0852C124.988 51.8733 124.692 51.7674 124.314 51.7674C123.941 51.7674 123.646 51.8733 123.428 52.0852C123.209 52.297 123.1 52.6084 123.1 53.0193V54.4252C123.1 54.836 123.209 55.1474 123.428 55.3593C123.646 55.5711 123.941 55.677 124.314 55.677ZM129.221 57.9111L129.751 54.9644H130.791L130.116 57.9111H129.221ZM140.22 52.5185C139.809 52.5185 139.482 52.403 139.238 52.1719C139 51.9343 138.885 51.6165 138.891 51.2185V50.5926C138.885 50.1946 139 49.88 139.238 49.6489C139.482 49.4114 139.809 49.2926 140.22 49.2926C140.631 49.2926 140.955 49.4114 141.193 49.6489C141.437 49.88 141.562 50.1946 141.568 50.5926V51.2185C141.568 51.6165 141.446 51.9343 141.202 52.1719C140.965 52.403 140.637 52.5185 140.22 52.5185ZM138.882 56.3704L143.677 49.3407H144.39L139.594 56.3704H138.882ZM140.23 51.8637C140.422 51.8637 140.573 51.8059 140.682 51.6904C140.798 51.5748 140.856 51.4175 140.856 51.2185V50.5926C140.856 50.3936 140.798 50.2363 140.682 50.1207C140.573 50.0052 140.422 49.9474 140.23 49.9474C140.037 49.9474 139.883 50.0052 139.767 50.1207C139.658 50.2363 139.604 50.3936 139.604 50.5926V51.2185C139.604 51.4175 139.658 51.5748 139.767 51.6904C139.883 51.8059 140.037 51.8637 140.23 51.8637ZM143.042 56.4185C142.631 56.4185 142.303 56.303 142.059 56.0719C141.822 55.8343 141.703 55.5165 141.703 55.1185V54.4926C141.697 54.0946 141.815 53.78 142.059 53.5489C142.303 53.3114 142.631 53.1926 143.042 53.1926C143.452 53.1926 143.777 53.3114 144.014 53.5489C144.258 53.78 144.38 54.0946 144.38 54.4926V55.1185C144.38 55.5165 144.258 55.8343 144.014 56.0719C143.777 56.303 143.452 56.4185 143.042 56.4185ZM143.042 55.7541C143.234 55.7541 143.385 55.6995 143.494 55.5904C143.61 55.4748 143.667 55.3175 143.667 55.1185V54.4926C143.667 54.2936 143.61 54.1363 143.494 54.0207C143.385 53.9052 143.231 53.8474 143.032 53.8474C142.846 53.8474 142.695 53.9052 142.579 54.0207C142.47 54.1363 142.416 54.2936 142.416 54.4926V55.1185C142.409 55.3175 142.461 55.4748 142.57 55.5904C142.685 55.6995 142.843 55.7541 143.042 55.7541ZM147.198 56.4474C146.607 56.4474 146.148 56.3158 145.821 56.0526C145.5 55.783 145.339 55.4042 145.339 54.9163H146.206C146.206 55.1602 146.293 55.3528 146.466 55.4941C146.639 55.6289 146.883 55.6963 147.198 55.6963H147.621C147.942 55.6963 148.19 55.6257 148.363 55.4844C148.543 55.3432 148.633 55.1442 148.633 54.8874C148.633 54.4316 148.424 54.1748 148.007 54.117L146.543 53.9052C146.183 53.8538 145.904 53.7062 145.705 53.4622C145.506 53.2119 145.407 52.8844 145.407 52.48C145.407 52.0178 145.564 51.6551 145.879 51.3919C146.2 51.1286 146.639 50.997 147.198 50.997H147.621C148.135 50.997 148.552 51.1254 148.873 51.3822C149.201 51.6326 149.377 51.9632 149.403 52.3741H148.527C148.514 52.1879 148.424 52.0338 148.257 51.9119C148.097 51.7899 147.885 51.7289 147.621 51.7289H147.198C146.902 51.7289 146.671 51.7963 146.504 51.9311C146.338 52.0659 146.254 52.2489 146.254 52.48C146.254 52.8523 146.424 53.0642 146.764 53.1156L148.132 53.3081C149.031 53.4365 149.48 53.963 149.48 54.8874C149.48 55.3817 149.316 55.7669 148.989 56.043C148.668 56.3126 148.212 56.4474 147.621 56.4474H147.198ZM151.749 52.2296L151.672 49.3407H152.654L152.587 52.2296H151.749ZM153.79 52.2296L153.713 49.3407H154.696L154.628 52.2296H153.79Z" fill="#51BC2A"/>
</g>
</g>
<rect x="0.5" y="0.5" width="199" height="139" rx="11.5" stroke="#303341"/>
<defs>
<clipPath id="clip0_4060_86592">
<rect width="200" height="140" rx="12" fill="white"/>
</clipPath>
<clipPath id="clip1_4060_86592">
<rect width="130.37" height="149" fill="white" transform="translate(34.8145 30.3704)"/>
</clipPath>
</defs>
</svg>
