<svg width="200" height="140" viewBox="0 0 200 140" fill="none" xmlns="http://www.w3.org/2000/svg">
<g clip-path="url(#clip0_4060_86597)">
<rect width="200" height="140" rx="12" fill="#1E2029"/>
<rect x="20" y="20" width="71.3141" height="16.7798" rx="4.19495" fill="#1A1B23"/>
<rect x="20" y="20" width="71.3141" height="16.7798" rx="4.19495" stroke="#3385FF" stroke-width="1.04874"/>
<g clip-path="url(#clip1_4060_86597)">
<path d="M28.4222 30.9577C27.3281 30.9577 26.6987 30.0305 26.6987 28.4111C26.6987 26.8037 27.3377 25.8644 28.4222 25.8644C29.5067 25.8644 30.1458 26.8037 30.1458 28.4111C30.1458 30.0305 29.5164 30.9577 28.4222 30.9577ZM28.4222 30.4251C29.1436 30.4251 29.5648 29.7013 29.5648 28.4111C29.5648 27.1232 29.1388 26.3873 28.4222 26.3873C27.7057 26.3873 27.2797 27.1232 27.2797 28.4111C27.2797 29.7013 27.7009 30.4251 28.4222 30.4251ZM32.649 30.9577C31.7969 30.9577 31.1458 30.4057 31.1094 29.6505H31.6904C31.7364 30.0983 32.1407 30.4251 32.649 30.4251C33.2591 30.4251 33.7045 29.9579 33.7045 29.3213C33.7045 28.6725 33.2421 28.1932 32.6103 28.1884C32.3053 28.1859 31.9543 28.2924 31.7485 28.4401L31.1869 28.3723L31.4871 25.9322H34.0627V26.4648H31.9906L31.8163 27.9269H31.8454C32.0487 27.7647 32.3731 27.6461 32.7071 27.6461C33.6173 27.6461 34.2855 28.3505 34.2855 29.3116C34.2855 30.2605 33.5931 30.9577 32.649 30.9577ZM35.5208 30.9286C35.2812 30.9286 35.0851 30.7325 35.0851 30.4929C35.0851 30.2532 35.2812 30.0572 35.5208 30.0572C35.7605 30.0572 35.9566 30.2532 35.9566 30.4929C35.9566 30.7325 35.7605 30.9286 35.5208 30.9286ZM38.4501 30.9577C37.3559 30.9577 36.7265 30.0305 36.7265 28.4111C36.7265 26.8037 37.3656 25.8644 38.4501 25.8644C39.5346 25.8644 40.1737 26.8037 40.1737 28.4111C40.1737 30.0305 39.5443 30.9577 38.4501 30.9577ZM38.4501 30.4251C39.1715 30.4251 39.5927 29.7013 39.5927 28.4111C39.5927 27.1232 39.1666 26.3873 38.4501 26.3873C37.7336 26.3873 37.3075 27.1232 37.3075 28.4111C37.3075 29.7013 37.7287 30.4251 38.4501 30.4251ZM42.7156 30.9577C41.7159 30.9577 41.026 30.3791 41.0308 29.573C41.026 28.946 41.4448 28.4135 41.9894 28.3142V28.2852C41.515 28.1641 41.2099 27.709 41.2148 27.1813C41.2099 26.4261 41.8442 25.8644 42.7156 25.8644C43.5774 25.8644 44.2116 26.4261 44.2165 27.1813C44.2116 27.709 43.9066 28.1641 43.4419 28.2852V28.3142C43.9768 28.4135 44.3956 28.946 44.4005 29.573C44.3956 30.3791 43.7057 30.9577 42.7156 30.9577ZM42.7156 30.4251C43.3862 30.4251 43.805 30.0765 43.8098 29.544C43.805 28.9848 43.3426 28.5854 42.7156 28.5854C42.079 28.5854 41.6166 28.9848 41.6215 29.544C41.6166 30.0765 42.0354 30.4251 42.7156 30.4251ZM42.7156 28.0722C43.2482 28.0722 43.6307 27.7333 43.6355 27.2201C43.6307 26.7165 43.2627 26.3873 42.7156 26.3873C42.1589 26.3873 41.7909 26.7165 41.7958 27.2201C41.7909 27.7333 42.1734 28.0722 42.7156 28.0722ZM45.6352 30.9286C45.3956 30.9286 45.1995 30.7325 45.1995 30.4929C45.1995 30.2532 45.3956 30.0572 45.6352 30.0572C45.8749 30.0572 46.071 30.2532 46.071 30.4929C46.071 30.7325 45.8749 30.9286 45.6352 30.9286ZM47.1205 30.8899V30.4542L48.757 28.6628C49.3307 28.0358 49.5994 27.6969 49.5994 27.2394C49.5994 26.7165 49.1879 26.3873 48.6505 26.3873C48.0767 26.3873 47.7112 26.7625 47.7112 27.3266H47.1399C47.1399 26.4551 47.8008 25.8644 48.6698 25.8644C49.5413 25.8644 50.161 26.4745 50.161 27.2394C50.161 27.7889 49.9092 28.215 49.0571 29.1276L47.9436 30.3186V30.3573H50.2481V30.8899H47.1205ZM52.899 30.9577C51.8049 30.9577 51.1755 30.0305 51.1755 28.4111C51.1755 26.8037 51.8145 25.8644 52.899 25.8644C53.9835 25.8644 54.6226 26.8037 54.6226 28.4111C54.6226 30.0305 53.9932 30.9577 52.899 30.9577ZM52.899 30.4251C53.6204 30.4251 54.0416 29.7013 54.0416 28.4111C54.0416 27.1232 53.6156 26.3873 52.899 26.3873C52.1825 26.3873 51.7564 27.1232 51.7564 28.4111C51.7564 29.7013 52.1777 30.4251 52.899 30.4251ZM55.5766 30.8899V30.4542L57.213 28.6628C57.7867 28.0358 58.0554 27.6969 58.0554 27.2394C58.0554 26.7165 57.6439 26.3873 57.1065 26.3873C56.5328 26.3873 56.1672 26.7625 56.1672 27.3266H55.5959C55.5959 26.4551 56.2568 25.8644 57.1258 25.8644C57.9973 25.8644 58.617 26.4745 58.617 27.2394C58.617 27.7889 58.3652 28.215 57.5131 29.1276L56.3996 30.3186V30.3573H58.7042V30.8899H55.5766ZM61.2873 30.9577C60.4352 30.9577 59.784 30.4057 59.7477 29.6505H60.3287C60.3747 30.0983 60.7789 30.4251 61.2873 30.4251C61.8973 30.4251 62.3427 29.9579 62.3427 29.3213C62.3427 28.6725 61.8803 28.1932 61.2485 28.1884C60.9435 28.1859 60.5925 28.2924 60.3868 28.4401L59.8251 28.3723L60.1253 25.9322H62.701V26.4648H60.6288L60.4545 27.9269H60.4836C60.6869 27.7647 61.0113 27.6461 61.3454 27.6461C62.2556 27.6461 62.9237 28.3505 62.9237 29.3116C62.9237 30.2605 62.2314 30.9577 61.2873 30.9577Z" fill="#D3D5DE"/>
<rect width="0.524368" height="8.38989" transform="translate(63.7676 24.1949)" fill="#D3D5DE"/>
</g>
<path d="M84.0776 25.2437H81.7704V24.2998C81.7704 24.2419 81.7234 24.1949 81.6655 24.1949H81.0363C80.9784 24.1949 80.9314 24.2419 80.9314 24.2998V25.2437H79.6205C79.2729 25.2437 78.9912 25.5254 78.9912 25.8729V31.9556C78.9912 32.3031 79.2729 32.5848 79.6205 32.5848H86.2275C86.575 32.5848 86.8568 32.3031 86.8568 31.9556V25.8729C86.8568 25.5254 86.575 25.2437 86.2275 25.2437H84.9166V24.2998C84.9166 24.2419 84.8697 24.1949 84.8117 24.1949H84.1825C84.1246 24.1949 84.0776 24.2419 84.0776 24.2998V25.2437ZM79.9351 31.7459C79.8772 31.7459 79.8302 31.6989 79.8302 31.641V27.446C79.8302 27.3881 79.8772 27.3412 79.9351 27.3412H85.9129C85.9708 27.3412 86.0178 27.3881 86.0178 27.446V31.641C86.0178 31.6989 85.9708 31.7459 85.9129 31.7459H79.9351Z" fill="#626784"/>
<g filter="url(#filter0_d_4060_86597)">
<g clip-path="url(#clip2_4060_86597)">
<path d="M20 41.7127C20 39.3959 21.8781 37.5178 24.1949 37.5178H175.213C177.53 37.5178 179.408 39.3959 179.408 41.7127V188.097C179.408 190.414 177.53 192.292 175.213 192.292H24.1949C21.8781 192.292 20 190.414 20 188.097V41.7127Z" fill="#303341"/>
<path d="M31.7257 55.0052H30.9317L32.7158 50.0475H33.58L35.3641 55.0052H34.5701L34.1174 53.6931H32.1808L31.7257 55.0052ZM32.3987 53.0637H33.8996L33.1685 50.948H33.1298L32.3987 53.0637ZM38.4114 53.4631V51.2869H39.1376V55.0052H38.4259V54.3612H38.3872C38.2153 54.7582 37.8353 55.0536 37.2761 55.0536C36.562 55.0536 36.056 54.5743 36.056 53.652V51.2869H36.7798V53.5648C36.7798 54.0708 37.0897 54.3951 37.5375 54.3951C37.9442 54.3951 38.4138 54.095 38.4114 53.4631ZM41.7032 56.477C40.8148 56.477 40.3185 56.0896 40.1225 55.6345L40.7446 55.378C40.8729 55.591 41.1077 55.8936 41.7105 55.8936C42.26 55.8936 42.6594 55.6418 42.6594 55.0584V54.3274H42.6134C42.4827 54.5646 42.2188 54.9495 41.5362 54.9495C40.6574 54.9495 39.9821 54.3177 39.9821 53.1315C39.9821 51.9478 40.6429 51.2385 41.541 51.2385C42.2333 51.2385 42.4899 51.6597 42.6182 51.8897H42.6715V51.2869H43.3808V55.0875C43.3808 56.0437 42.6497 56.477 41.7032 56.477ZM41.6959 54.3491C42.3205 54.3491 42.6666 53.8892 42.6666 53.1218C42.6666 52.369 42.3277 51.8534 41.6959 51.8534C41.0423 51.8534 40.7131 52.4077 40.7131 53.1218C40.7131 53.8529 41.0496 54.3491 41.6959 54.3491ZM46.7409 53.4631V51.2869H47.4672V55.0052H46.7555V54.3612H46.7167C46.5449 54.7582 46.1648 55.0536 45.6056 55.0536C44.8915 55.0536 44.3856 54.5743 44.3856 53.652V51.2869H45.1094V53.5648C45.1094 54.0708 45.4192 54.3951 45.867 54.3951C46.2737 54.3951 46.7434 54.095 46.7409 53.4631ZM51.26 52.1947L50.604 52.3109C50.5193 52.0615 50.3111 51.8122 49.8609 51.8122C49.4493 51.8122 49.1395 52.0156 49.1419 52.3012C49.1395 52.553 49.3162 52.6909 49.7253 52.7878L50.3159 52.9233C50.9986 53.0807 51.3327 53.4051 51.3327 53.9304C51.3327 54.6033 50.7105 55.0802 49.8124 55.0802C48.9773 55.0802 48.4302 54.7098 48.3092 54.0514L49.0088 53.9449C49.0959 54.3104 49.3743 54.4968 49.8076 54.4968C50.2821 54.4968 50.5895 54.2717 50.5895 53.9836C50.5895 53.7512 50.4225 53.5914 50.0642 53.5116L49.4348 53.3736C48.7376 53.2187 48.4181 52.8676 48.4181 52.3399C48.4181 51.6815 49.0136 51.2385 49.8536 51.2385C50.6573 51.2385 51.1099 51.6161 51.26 52.1947ZM53.8982 51.2869V51.8679H53.1357V53.9134C53.1357 54.3322 53.3463 54.4097 53.5811 54.4097C53.6973 54.4097 53.7869 54.3879 53.8353 54.3782L53.966 54.9761C53.8813 55.0076 53.7264 55.0512 53.4964 55.0536C52.9251 55.0657 52.4095 54.7389 52.4119 54.0635V51.8679H51.8672V51.2869H52.4119V50.3961H53.1357V51.2869H53.8982Z" fill="#D3D5DE"/>
<path fill-rule="evenodd" clip-rule="evenodd" d="M61.3046 51.7186L60.7803 52.243L62.8777 54.3405L64.9752 52.243L64.4509 51.7186L62.8777 53.2917L61.3046 51.7186Z" fill="#D3D5DE"/>
<path d="M82.6863 55.0052V54.4629L84.3639 52.7248C84.8964 52.1608 85.1579 51.8461 85.1579 51.4079C85.1579 50.9141 84.7754 50.6043 84.2719 50.6043C83.7369 50.6043 83.3931 50.9528 83.3956 51.4854H82.6814C82.6814 50.5801 83.3592 49.9797 84.2864 49.9797C85.2208 49.9797 85.8695 50.5897 85.8695 51.3862C85.8695 51.9405 85.6105 52.3787 84.7028 53.2961L83.7175 54.3274V54.3637H85.9494V55.0052H82.6863ZM88.627 55.0875C87.4795 55.085 86.809 54.1506 86.809 52.5287C86.8114 50.9141 87.4892 49.9797 88.627 49.9797C89.7623 49.9797 90.4425 50.9165 90.4425 52.5287C90.4425 54.1531 89.772 55.0875 88.627 55.0875ZM88.627 54.4411C89.2951 54.4411 89.6993 53.7682 89.6993 52.5287C89.6993 51.2942 89.2927 50.6139 88.627 50.6139C87.9588 50.6139 87.5546 51.2942 87.5522 52.5287C87.5522 53.7682 87.9564 54.4411 88.627 54.4411ZM91.3354 55.0052V54.4629L93.0129 52.7248C93.5455 52.1608 93.8069 51.8461 93.8069 51.4079C93.8069 50.9141 93.4244 50.6043 92.9209 50.6043C92.3859 50.6043 92.0422 50.9528 92.0446 51.4854H91.3305C91.3305 50.5801 92.0083 49.9797 92.9355 49.9797C93.8699 49.9797 94.5186 50.5897 94.5186 51.3862C94.5186 51.9405 94.2596 52.3787 93.3518 53.2961L92.3666 54.3274V54.3637H94.5985V55.0052H91.3354ZM97.1865 55.0729C96.2763 55.0729 95.5912 54.5016 95.5621 53.7125H96.2884C96.3271 54.1385 96.7072 54.4435 97.1865 54.4435C97.7553 54.4435 98.1693 54.0127 98.1693 53.4172C98.1693 52.812 97.7432 52.3714 97.155 52.3666C96.8548 52.3666 96.5208 52.4803 96.3344 52.6474L95.6493 52.5457L95.9277 50.0475H98.6534V50.689H96.5498L96.3925 52.0761H96.4215C96.6152 51.8873 96.9565 51.7468 97.3244 51.7468C98.2274 51.7468 98.8955 52.444 98.8931 53.4026C98.8955 54.3685 98.1838 55.0729 97.1865 55.0729Z" fill="#D3D5DE"/>
<path fill-rule="evenodd" clip-rule="evenodd" d="M106.572 51.7186L106.048 52.243L108.145 54.3405L110.243 52.243L109.718 51.7186L108.145 53.2917L106.572 51.7186Z" fill="#D3D5DE"/>
<path fill-rule="evenodd" clip-rule="evenodd" d="M136.934 54.5598L136.41 55.0841L133.788 52.4623L136.41 49.8405L136.934 50.3648L134.837 52.4623L136.934 54.5598Z" fill="#D3D5DE"/>
<path d="M152.141 54.2976C153.3 54.2976 154.239 53.3585 154.239 52.2001C154.239 51.0417 153.3 50.1026 152.141 50.1026C150.983 50.1026 150.044 51.0417 150.044 52.2001C150.044 53.3585 150.983 54.2976 152.141 54.2976Z" fill="#D3D5DE"/>
<path fill-rule="evenodd" clip-rule="evenodd" d="M167.348 50.1026L167.872 49.5783L170.494 52.2001L167.872 54.8219L167.348 54.2976L169.445 52.2001L167.348 50.1026Z" fill="#D3D5DE"/>
<mask id="path-19-inside-1_4060_86597" fill="white">
<path d="M20 62.2488H179.408V79.0286H20V62.2488Z"/>
</mask>
<path d="M179.408 78.5043H20V79.553H179.408V78.5043Z" fill="#363949" mask="url(#path-19-inside-1_4060_86597)"/>
<path d="M35.9198 69.4205C35.8617 68.9315 35.4066 68.6458 34.8063 68.6458C34.1479 68.6458 33.7121 68.9944 33.7121 69.4689C33.7121 70.0015 34.3028 70.1951 34.6707 70.2919L35.1743 70.4275C35.6874 70.5631 36.5686 70.8632 36.5686 71.7928C36.5686 72.5965 35.9198 73.2259 34.7773 73.2259C33.7121 73.2259 33.0537 72.674 32.9956 71.8606H33.6153C33.6637 72.4222 34.1866 72.6836 34.7773 72.6836C35.4647 72.6836 35.9876 72.3254 35.9876 71.7831C35.9876 71.2893 35.5228 71.1053 35 70.9601L34.3899 70.7858C33.6153 70.5631 33.1312 70.1661 33.1312 69.4979C33.1312 68.6652 33.8767 68.1133 34.8257 68.1133C35.7843 68.1133 36.4742 68.6725 36.5008 69.4205H35.9198ZM39.8555 71.6185V69.4205H40.4268V73.1387H39.8555V72.5093H39.8168C39.6425 72.887 39.2746 73.1871 38.713 73.1871C38.0158 73.1871 37.5123 72.732 37.5123 71.7831V69.4205H38.0836V71.7444C38.0836 72.2866 38.4225 72.6352 38.8969 72.6352C39.323 72.6352 39.8555 72.3157 39.8555 71.6185Z" fill="#626784"/>
<path d="M53.2722 68.1811H53.9887L55.6736 72.2963H55.7317L57.4165 68.1811H58.133V73.1387H57.5714V69.3721H57.523L55.9737 73.1387H55.4315L53.8822 69.3721H53.8338V73.1387H53.2722V68.1811ZM60.8039 73.2162C59.7969 73.2162 59.1191 72.4512 59.1191 71.299C59.1191 70.137 59.7969 69.3721 60.8039 69.3721C61.8109 69.3721 62.4887 70.137 62.4887 71.299C62.4887 72.4512 61.8109 73.2162 60.8039 73.2162ZM60.8039 72.703C61.5688 72.703 61.9174 72.0446 61.9174 71.299C61.9174 70.5534 61.5688 69.8853 60.8039 69.8853C60.0389 69.8853 59.6904 70.5534 59.6904 71.299C59.6904 72.0446 60.0389 72.703 60.8039 72.703Z" fill="#626784"/>
<path d="M75.1273 68.7136V68.1811H78.8456V68.7136H77.2866V73.1387H76.6863V68.7136H75.1273ZM81.5661 71.6185V69.4205H82.1374V73.1387H81.5661V72.5093H81.5274C81.3531 72.887 80.9851 73.1871 80.4235 73.1871C79.7263 73.1871 79.2228 72.732 79.2228 71.7831V69.4205H79.7941V71.7444C79.7941 72.2866 80.133 72.6352 80.6075 72.6352C81.0335 72.6352 81.5661 72.3157 81.5661 71.6185Z" fill="#626784"/>
<path d="M96.1419 73.1387L94.7863 68.1811H95.3963L96.4324 72.2189H96.4808L97.5362 68.1811H98.214L99.2695 72.2189H99.3179L100.354 68.1811H100.964L99.6084 73.1387H98.9887L97.8945 69.1881H97.8558L96.7616 73.1387H96.1419ZM102.881 73.2162C101.807 73.2162 101.148 72.4512 101.148 71.3087C101.148 70.1661 101.816 69.3721 102.823 69.3721C103.598 69.3721 104.421 69.8465 104.421 71.2312V71.4733H101.722C101.749 72.2697 102.211 72.703 102.881 72.703C103.329 72.703 103.666 72.5093 103.811 72.122L104.363 72.277C104.189 72.8386 103.637 73.2162 102.881 73.2162ZM101.722 70.9794H103.84C103.84 70.35 103.443 69.8853 102.823 69.8853C102.17 69.8853 101.761 70.4009 101.722 70.9794Z" fill="#626784"/>
<path d="M116.79 68.7136V68.1811H120.509V68.7136H118.95V73.1387H118.349V68.7136H116.79ZM121.963 70.902V73.1387H121.392V68.1811H121.963V70.0015H122.011C122.186 69.6166 122.52 69.3721 123.106 69.3721C123.866 69.3721 124.374 69.8199 124.374 70.7761V73.1387H123.803V70.8148C123.803 70.2242 123.478 69.8853 122.941 69.8853C122.377 69.8853 121.963 70.2532 121.963 70.902Z" fill="#626784"/>
<path d="M138.988 73.1387V68.1811H141.961V68.7136H139.588V70.3888H141.738V70.9213H139.588V73.1387H138.988ZM142.906 73.1387V69.4205H143.457V69.9821H143.496C143.632 69.6141 144.019 69.3624 144.464 69.3624C144.549 69.3624 144.699 69.3672 144.765 69.3721V69.953C144.726 69.9434 144.569 69.9143 144.416 69.9143C143.874 69.9143 143.477 70.2823 143.477 70.7858V73.1387H142.906Z" fill="#626784"/>
<path d="M161.828 69.4205C161.77 68.9315 161.315 68.6458 160.715 68.6458C160.056 68.6458 159.621 68.9944 159.621 69.4689C159.621 70.0015 160.211 70.1951 160.579 70.2919L161.083 70.4275C161.596 70.5631 162.477 70.8632 162.477 71.7928C162.477 72.5965 161.828 73.2259 160.686 73.2259C159.621 73.2259 158.962 72.674 158.904 71.8606H159.524C159.572 72.4222 160.095 72.6836 160.686 72.6836C161.373 72.6836 161.896 72.3254 161.896 71.7831C161.896 71.2893 161.431 71.1053 160.909 70.9601L160.298 70.7858C159.524 70.5631 159.04 70.1661 159.04 69.4979C159.04 68.6652 159.785 68.1133 160.734 68.1133C161.693 68.1133 162.383 68.6725 162.409 69.4205H161.828ZM164.515 73.2259C163.808 73.2259 163.247 72.8095 163.247 72.0833C163.247 71.2312 163.999 71.0787 164.689 70.9891C165.367 70.902 165.648 70.9262 165.648 70.6502V70.6309C165.648 70.154 165.389 69.8756 164.864 69.8756C164.319 69.8756 164.021 70.1661 163.895 70.4372L163.353 70.2435C163.644 69.5657 164.283 69.3721 164.844 69.3721C165.319 69.3721 166.219 69.5076 166.219 70.6889V73.1387H165.648V72.6352H165.619C165.503 72.8773 165.164 73.2259 164.515 73.2259ZM164.602 72.7127C165.28 72.7127 165.648 72.2576 165.648 71.7928V71.2699C165.551 71.3861 164.902 71.4539 164.66 71.483C164.215 71.541 163.818 71.6766 163.818 72.1123C163.818 72.5093 164.147 72.7127 164.602 72.7127Z" fill="#626784"/>
<path d="M142.325 86.0096V90.9673H141.725V86.639H141.696L140.485 87.4427V86.8326L141.725 86.0096H142.325Z" fill="#D3D5DE"/>
<path d="M161.077 90.9673V90.5315L162.714 88.7402C163.288 88.1132 163.556 87.7743 163.556 87.3168C163.556 86.7939 163.145 86.4647 162.607 86.4647C162.034 86.4647 161.668 86.8399 161.668 87.4039H161.097C161.097 86.5325 161.758 85.9418 162.627 85.9418C163.498 85.9418 164.118 86.5518 164.118 87.3168C164.118 87.8663 163.866 88.2923 163.014 89.205L161.9 90.396V90.4347H164.205V90.9673H161.077Z" fill="#D3D5DE"/>
<path d="M35.0748 107.556H35.6848C35.7381 108.06 36.1859 108.331 36.7596 108.331C37.3769 108.331 37.8538 108.016 37.8538 107.401C37.8538 106.866 37.5028 106.385 36.5853 106.385H36.1883V105.901L37.4278 104.409V104.371H35.3169V103.838H38.2508V104.274L36.9242 105.881V105.92C37.7788 105.959 38.4445 106.576 38.4445 107.401C38.4445 108.249 37.7449 108.864 36.7499 108.864C35.8664 108.864 35.1329 108.382 35.0748 107.556Z" fill="#D3D5DE"/>
<path d="M55.9651 107.779V107.285L57.9501 103.838H58.5407L56.6041 107.208V107.247H58.2986V105.697H58.8699V107.247H59.5477V107.779H58.8699V108.796H58.2986V107.779H55.9651Z" fill="#D3D5DE"/>
<rect x="68.2422" y="97.9059" width="20.9747" height="16.7798" rx="4.19495" fill="#E2E3E9"/>
<path d="M78.7292 108.864C77.819 108.864 77.1339 108.292 77.1049 107.503H77.8311C77.8698 107.929 78.2499 108.234 78.7292 108.234C79.2981 108.234 79.712 107.803 79.712 107.208C79.712 106.603 79.286 106.162 78.6977 106.157C78.3975 106.157 78.0635 106.271 77.8771 106.438L77.192 106.336L77.4704 103.838H80.1962V104.48H78.0925L77.9352 105.867H77.9642C78.1579 105.678 78.4992 105.537 78.8672 105.537C79.7701 105.537 80.4382 106.235 80.4358 107.193C80.4382 108.159 79.7265 108.864 78.7292 108.864Z" fill="#21222C"/>
<path d="M98.1439 107.227C98.1536 106.762 98.3182 106.288 98.8605 105.484L99.974 103.838H100.632L99.3253 105.746C99.4415 105.707 99.5673 105.678 99.6932 105.678C100.594 105.678 101.262 106.356 101.262 107.276C101.262 108.195 100.603 108.864 99.7029 108.864C98.7927 108.864 98.1343 108.176 98.1439 107.227ZM98.7152 107.266C98.7152 107.895 99.1219 108.341 99.7029 108.341C100.284 108.341 100.691 107.895 100.691 107.276C100.691 106.646 100.284 106.21 99.7029 106.21C99.1219 106.21 98.7152 106.646 98.7152 107.266Z" fill="#D3D5DE"/>
<path d="M119.4 108.796L121.617 104.409V104.371H119.061V103.838H122.237V104.4L120.029 108.796H119.4Z" fill="#D3D5DE"/>
<path d="M141.654 108.864C140.654 108.864 139.965 108.285 139.969 107.479C139.965 106.852 140.383 106.319 140.928 106.22V106.191C140.454 106.07 140.149 105.615 140.153 105.087C140.149 104.332 140.783 103.77 141.654 103.77C142.516 103.77 143.15 104.332 143.155 105.087C143.15 105.615 142.845 106.07 142.38 106.191V106.22C142.915 106.319 143.334 106.852 143.339 107.479C143.334 108.285 142.644 108.864 141.654 108.864ZM141.654 108.331C142.325 108.331 142.744 107.982 142.748 107.45C142.744 106.891 142.281 106.491 141.654 106.491C141.018 106.491 140.555 106.891 140.56 107.45C140.555 107.982 140.974 108.331 141.654 108.331ZM141.654 105.978C142.187 105.978 142.569 105.639 142.574 105.126C142.569 104.622 142.201 104.293 141.654 104.293C141.097 104.293 140.73 104.622 140.734 105.126C140.73 105.639 141.112 105.978 141.654 105.978Z" fill="#D3D5DE"/>
<path d="M161.068 105.358C161.068 104.438 161.726 103.77 162.627 103.77C163.537 103.77 164.195 104.458 164.186 105.407C164.176 105.872 164.011 106.346 163.469 107.15L162.356 108.796H161.697L163.004 106.888C162.888 106.927 162.762 106.956 162.636 106.956C161.736 106.956 161.068 106.278 161.068 105.358ZM161.639 105.358C161.639 105.988 162.046 106.423 162.627 106.423C163.208 106.423 163.614 105.988 163.614 105.368C163.614 104.739 163.208 104.293 162.627 104.293C162.046 104.293 161.639 104.739 161.639 105.358Z" fill="#D3D5DE"/>
<path d="M35.3038 121.667V126.624H34.7034V122.296H34.6744L33.464 123.1V122.49L34.7034 121.667H35.3038ZM38.3807 126.692C37.2865 126.692 36.6571 125.765 36.6571 124.145C36.6571 122.538 37.2962 121.599 38.3807 121.599C39.4652 121.599 40.1043 122.538 40.1043 124.145C40.1043 125.765 39.4749 126.692 38.3807 126.692ZM38.3807 126.16C39.1021 126.16 39.5233 125.436 39.5233 124.145C39.5233 122.858 39.0972 122.122 38.3807 122.122C37.6642 122.122 37.2381 122.858 37.2381 124.145C37.2381 125.436 37.6593 126.16 38.3807 126.16Z" fill="#D3D5DE"/>
<path d="M56.8252 121.667V126.624H56.2249V122.296H56.1958L54.9855 123.1V122.49L56.2249 121.667H56.8252ZM60.028 121.667V126.624H59.4277V122.296H59.3987L58.1883 123.1V122.49L59.4277 121.667H60.028Z" fill="#D3D5DE"/>
<path d="M77.3205 121.667V126.624H76.7202V122.296H76.6911L75.4808 123.1V122.49L76.7202 121.667H77.3205ZM78.7804 126.624V126.189L80.4168 124.397C80.9906 123.77 81.2593 123.431 81.2593 122.974C81.2593 122.451 80.8477 122.122 80.3103 122.122C79.7366 122.122 79.3711 122.497 79.3711 123.061H78.7998C78.7998 122.19 79.4607 121.599 80.3297 121.599C81.2012 121.599 81.8209 122.209 81.8209 122.974C81.8209 123.523 81.5691 123.949 80.717 124.862L79.6035 126.053V126.092H81.908V126.624H78.7804Z" fill="#D3D5DE"/>
<path d="M98.2186 121.667V126.624H97.6182V122.296H97.5892L96.3788 123.1V122.49L97.6182 121.667H98.2186ZM99.601 125.385H100.211C100.264 125.888 100.712 126.16 101.286 126.16C101.903 126.16 102.38 125.845 102.38 125.23C102.38 124.695 102.029 124.213 101.112 124.213H100.715V123.729L101.954 122.238V122.199H99.8431V121.667H102.777V122.102L101.45 123.71V123.748C102.305 123.787 102.971 124.404 102.971 125.23C102.971 126.077 102.271 126.692 101.276 126.692C100.393 126.692 99.6591 126.21 99.601 125.385Z" fill="#D3D5DE"/>
<path d="M119.147 121.667V126.624H118.546V122.296H118.517L117.307 123.1V122.49L118.546 121.667H119.147ZM120.49 125.608V125.114L122.475 121.667H123.066L121.129 125.036V125.075H122.824V123.526H123.395V125.075H124.073V125.608H123.395V126.624H122.824V125.608H120.49Z" fill="#D3D5DE"/>
<path d="M140.234 121.667V126.624H139.634V122.296H139.605L138.395 123.1V122.49L139.634 121.667H140.234ZM143.244 126.692C142.391 126.692 141.74 126.14 141.704 125.385H142.285C142.331 125.833 142.735 126.16 143.244 126.16C143.854 126.16 144.299 125.692 144.299 125.056C144.299 124.407 143.837 123.928 143.205 123.923C142.9 123.92 142.549 124.027 142.343 124.175L141.781 124.107L142.082 121.667H144.657V122.199H142.585L142.411 123.661H142.44C142.643 123.499 142.968 123.381 143.302 123.381C144.212 123.381 144.88 124.085 144.88 125.046C144.88 125.995 144.188 126.692 143.244 126.692Z" fill="#D3D5DE"/>
<path d="M161.325 121.667V126.624H160.725V122.296H160.696L159.486 123.1V122.49L160.725 121.667H161.325ZM162.669 125.056C162.679 124.591 162.843 124.116 163.386 123.313L164.499 121.667H165.158L163.85 123.574C163.967 123.535 164.093 123.506 164.218 123.506C165.119 123.506 165.787 124.184 165.787 125.104C165.787 126.024 165.129 126.692 164.228 126.692C163.318 126.692 162.659 126.005 162.669 125.056ZM163.24 125.094C163.24 125.724 163.647 126.169 164.228 126.169C164.809 126.169 165.216 125.724 165.216 125.104C165.216 124.475 164.809 124.039 164.228 124.039C163.647 124.039 163.24 124.475 163.24 125.094Z" fill="#D3D5DE"/>
<path d="M35.4868 139.495V144.453H34.8865V140.125H34.8574L33.6471 140.928V140.318L34.8865 139.495H35.4868ZM37.1017 144.453L39.319 140.066V140.028H36.7628V139.495H39.9388V140.057L37.731 144.453H37.1017Z" fill="#D3D5DE"/>
<path d="M56.3093 139.495V144.453H55.709V140.125H55.6799L54.4695 140.928V140.318L55.709 139.495H56.3093ZM59.3572 144.521C58.3574 144.521 57.6675 143.942 57.6724 143.136C57.6675 142.509 58.0863 141.976 58.631 141.877V141.848C58.1565 141.727 57.8515 141.272 57.8563 140.744C57.8515 139.989 58.4857 139.427 59.3572 139.427C60.219 139.427 60.8532 139.989 60.8581 140.744C60.8532 141.272 60.5482 141.727 60.0834 141.848V141.877C60.6184 141.976 61.0372 142.509 61.042 143.136C61.0372 143.942 60.3473 144.521 59.3572 144.521ZM59.3572 143.988C60.0277 143.988 60.4465 143.639 60.4514 143.107C60.4465 142.548 59.9842 142.148 59.3572 142.148C58.7206 142.148 58.2582 142.548 58.263 143.107C58.2582 143.639 58.677 143.988 59.3572 143.988ZM59.3572 141.635C59.8898 141.635 60.2722 141.296 60.2771 140.783C60.2722 140.279 59.9043 139.95 59.3572 139.95C58.8004 139.95 58.4325 140.279 58.4373 140.783C58.4325 141.296 58.815 141.635 59.3572 141.635Z" fill="#D3D5DE"/>
<path d="M77.427 139.495V144.453H76.8267V140.125H76.7976L75.5873 140.928V140.318L76.8267 139.495H77.427ZM78.7707 141.015C78.7707 140.095 79.4292 139.427 80.3297 139.427C81.2399 139.427 81.8983 140.115 81.8886 141.064C81.879 141.529 81.7144 142.003 81.1721 142.807L80.0586 144.453H79.4001L80.7073 142.545C80.5911 142.584 80.4653 142.613 80.3394 142.613C79.4389 142.613 78.7707 141.935 78.7707 141.015ZM79.342 141.015C79.342 141.645 79.7487 142.08 80.3297 142.08C80.9107 142.08 81.3174 141.645 81.3174 141.025C81.3174 140.396 80.9107 139.95 80.3297 139.95C79.7487 139.95 79.342 140.396 79.342 141.015Z" fill="#D3D5DE"/>
<path d="M96.0063 144.453V144.017L97.6427 142.226C98.2165 141.599 98.4852 141.26 98.4852 140.802C98.4852 140.279 98.0736 139.95 97.5362 139.95C96.9625 139.95 96.597 140.325 96.597 140.89H96.0257C96.0257 140.018 96.6866 139.427 97.5556 139.427C98.4271 139.427 99.0468 140.037 99.0468 140.802C99.0468 141.352 98.795 141.778 97.9429 142.691L96.8294 143.882V143.92H99.1339V144.453H96.0063ZM101.785 144.521C100.691 144.521 100.061 143.593 100.061 141.974C100.061 140.367 100.7 139.427 101.785 139.427C102.869 139.427 103.508 140.367 103.508 141.974C103.508 143.593 102.879 144.521 101.785 144.521ZM101.785 143.988C102.506 143.988 102.927 143.264 102.927 141.974C102.927 140.686 102.501 139.95 101.785 139.95C101.068 139.95 100.642 140.686 100.642 141.974C100.642 143.264 101.063 143.988 101.785 143.988Z" fill="#D3D5DE"/>
<path d="M117.527 144.453V144.017L119.163 142.226C119.737 141.599 120.006 141.26 120.006 140.802C120.006 140.279 119.594 139.95 119.057 139.95C118.483 139.95 118.117 140.325 118.117 140.89H117.546C117.546 140.018 118.207 139.427 119.076 139.427C119.948 139.427 120.567 140.037 120.567 140.802C120.567 141.352 120.316 141.778 119.463 142.691L118.35 143.882V143.92H120.654V144.453H117.527ZM123.431 139.495V144.453H122.831V140.125H122.802L121.591 140.928V140.318L122.831 139.495H123.431Z" fill="#D3D5DE"/>
<path d="M138.022 144.453V144.017L139.659 142.226C140.232 141.599 140.501 141.26 140.501 140.802C140.501 140.279 140.089 139.95 139.552 139.95C138.978 139.95 138.613 140.325 138.613 140.89H138.041C138.041 140.018 138.702 139.427 139.571 139.427C140.443 139.427 141.063 140.037 141.063 140.802C141.063 141.352 140.811 141.778 139.959 142.691L138.845 143.882V143.92H141.15V144.453H138.022ZM142.184 144.453V144.017L143.82 142.226C144.394 141.599 144.662 141.26 144.662 140.802C144.662 140.279 144.251 139.95 143.713 139.95C143.14 139.95 142.774 140.325 142.774 140.89H142.203C142.203 140.018 142.864 139.427 143.733 139.427C144.604 139.427 145.224 140.037 145.224 140.802C145.224 141.352 144.972 141.778 144.12 142.691L143.007 143.882V143.92H145.311V144.453H142.184Z" fill="#D3D5DE"/>
<path d="M158.92 144.453V144.017L160.557 142.226C161.13 141.599 161.399 141.26 161.399 140.802C161.399 140.279 160.987 139.95 160.45 139.95C159.876 139.95 159.511 140.325 159.511 140.89H158.94C158.94 140.018 159.6 139.427 160.469 139.427C161.341 139.427 161.961 140.037 161.961 140.802C161.961 141.352 161.709 141.778 160.857 142.691L159.743 143.882V143.92H162.048V144.453H158.92ZM163.004 143.213H163.614C163.667 143.717 164.115 143.988 164.689 143.988C165.306 143.988 165.783 143.673 165.783 143.058C165.783 142.524 165.432 142.042 164.515 142.042H164.118V141.558L165.357 140.066V140.028H163.246V139.495H166.18V139.931L164.854 141.538V141.577C165.708 141.616 166.374 142.233 166.374 143.058C166.374 143.906 165.674 144.521 164.679 144.521C163.796 144.521 163.062 144.039 163.004 143.213Z" fill="#D3D5DE"/>
</g>
</g>
</g>
<rect x="0.5" y="0.5" width="199" height="139" rx="11.5" stroke="#303341"/>
<defs>
<filter id="filter0_d_4060_86597" x="15.8051" y="34.896" width="167.798" height="163.164" filterUnits="userSpaceOnUse" color-interpolation-filters="sRGB">
<feFlood flood-opacity="0" result="BackgroundImageFix"/>
<feColorMatrix in="SourceAlpha" type="matrix" values="0 0 0 0 0 0 0 0 0 0 0 0 0 0 0 0 0 0 127 0" result="hardAlpha"/>
<feOffset dy="1.57311"/>
<feGaussianBlur stdDeviation="2.09747"/>
<feColorMatrix type="matrix" values="0 0 0 0 0.152941 0 0 0 0 0.2 0 0 0 0 0.243137 0 0 0 0.2 0"/>
<feBlend mode="normal" in2="BackgroundImageFix" result="effect1_dropShadow_4060_86597"/>
<feBlend mode="normal" in="SourceGraphic" in2="effect1_dropShadow_4060_86597" result="shape"/>
</filter>
<clipPath id="clip0_4060_86597">
<rect width="200" height="140" rx="12" fill="white"/>
</clipPath>
<clipPath id="clip1_4060_86597">
<rect width="48.2419" height="9" fill="white" transform="translate(26.292 23.8899)"/>
</clipPath>
<clipPath id="clip2_4060_86597">
<path d="M20 41.7127C20 39.3959 21.8781 37.5178 24.1949 37.5178H175.213C177.53 37.5178 179.408 39.3959 179.408 41.7127V188.097C179.408 190.414 177.53 192.292 175.213 192.292H24.1949C21.8781 192.292 20 190.414 20 188.097V41.7127Z" fill="white"/>
</clipPath>
</defs>
</svg>
