<svg width="200" height="140" viewBox="0 0 200 140" fill="none" xmlns="http://www.w3.org/2000/svg">
<rect x="0.5" y="0.5" width="199" height="139" rx="11.5" fill="#F6F7F9"/>
<rect x="0.5" y="0.5" width="199" height="139" rx="11.5" stroke="#E8E9EE"/>
<path d="M35.6 77H32.4V63H37.3L40.1 71.7H40.5L43.3 63H48.2V77H45V68.4H44.6L41.8 77H38.8L36 68.4H35.6V77ZM54.0338 77.2C51.6938 77.2 50.2938 75.8 50.2938 74.06C50.2938 72.12 51.6938 70.7 54.4938 70.7H56.7338V70.52C56.7338 69.66 56.0938 69 55.1938 69C54.2738 69 53.8538 69.52 53.6938 69.9H50.7338C50.9338 68.28 52.4138 66.6 55.1938 66.6C58.0138 66.6 59.7538 68.34 59.7538 70.52V77H57.1338L56.9338 76.12H56.8338C56.4538 76.58 55.4538 77.2 54.0338 77.2ZM54.6938 74.86C55.9738 74.86 56.7338 74.12 56.7338 72.94V72.7H54.8938C53.8138 72.7 53.3338 73.14 53.3338 73.78C53.3338 74.44 53.8138 74.86 54.6938 74.86ZM65.0833 77H62.0633V66.8H64.6633L64.8633 67.6H64.9633C65.2233 67.2 65.8833 66.8 66.7633 66.8H68.7033V69.66H66.9033C65.6833 69.66 65.0833 70.26 65.0833 71.52V77ZM74.853 77.2C71.773 77.2 69.493 74.92 69.493 71.9C69.493 68.88 71.773 66.6 74.853 66.6C78.013 66.6 79.573 68.86 79.913 70.78H76.853C76.653 70.18 76.133 69.4 74.853 69.4C73.573 69.4 72.533 70.4 72.533 71.9C72.533 73.4 73.573 74.42 74.853 74.42C76.133 74.42 76.653 73.64 76.853 72.98H79.913C79.573 74.94 78.013 77.2 74.853 77.2ZM84.8317 77H81.8117V63H84.8317V67.7H84.9317C85.2717 67.22 86.2517 66.6 87.5717 66.6C89.9117 66.6 91.5717 68.28 91.5717 70.88V77H88.5517V71.38C88.5517 70.26 87.8117 69.48 86.6917 69.48C85.5717 69.48 84.8317 70.26 84.8317 71.38V77ZM103.12 77H99.4997L104.2 66.1H98.2797V63H107.9V65.82L103.12 77ZM110.449 78.88H108.029L108.569 73.7H111.889L110.449 78.88ZM124.987 77.2C121.667 77.2 119.027 74.56 119.027 70C119.027 65.44 121.667 62.8 124.987 62.8C128.307 62.8 130.927 65.44 130.927 70C130.927 74.56 128.307 77.2 124.987 77.2ZM124.987 74.1C126.427 74.1 127.727 72.78 127.727 70C127.727 67.22 126.427 65.9 124.987 65.9C123.547 65.9 122.227 67.22 122.227 70C122.227 72.78 123.547 74.1 124.987 74.1ZM137.623 62.8C140.623 62.8 142.803 64.98 142.803 67.74C142.803 69.24 142.263 70.3 141.863 70.92L137.943 77H134.343L137.263 72.5H137.203C134.663 72.5 132.423 70.48 132.423 67.74C132.423 64.98 134.603 62.8 137.623 62.8ZM137.623 69.7C138.803 69.7 139.603 68.84 139.603 67.74C139.603 66.62 138.803 65.76 137.623 65.76C136.443 65.76 135.623 66.62 135.623 67.74C135.623 68.84 136.443 69.7 137.623 69.7ZM147.96 69.98H144.62V66.66H147.96V69.98ZM147.96 77H144.62V73.68H147.96V77ZM158.906 77H155.706V74.42H149.386V71.62L154.126 63H158.906V71.5H160.406V74.42H158.906V77ZM152.806 71.4V71.5H155.706V66.82H155.306L152.806 71.4ZM166.994 77H163.794V67.52H161.014V64.46H163.174C163.594 64.46 163.794 64.26 163.794 63.82V63H166.994V77Z" fill="#6C7393"/>
</svg>
