<svg width="200" height="140" viewBox="0 0 200 140" fill="none" xmlns="http://www.w3.org/2000/svg">
<rect x="0.5" y="0.5" width="199" height="139" rx="11.5" fill="#1E2029"/>
<rect x="0.5" y="0.5" width="199" height="139" rx="11.5" stroke="#303341"/>
<path d="M32.9848 50.1774V42.0445H33.9697V49.3038H37.7502V50.1774H32.9848ZM41.682 50.3045C40.03 50.3045 38.9181 49.0496 38.9181 47.1593C38.9181 45.2532 40.03 43.9983 41.682 43.9983C43.334 43.9983 44.4459 45.2532 44.4459 47.1593C44.4459 49.0496 43.334 50.3045 41.682 50.3045ZM41.682 49.4626C42.9369 49.4626 43.5087 48.3825 43.5087 47.1593C43.5087 45.9362 42.9369 44.8402 41.682 44.8402C40.4271 44.8402 39.8553 45.9362 39.8553 47.1593C39.8553 48.3825 40.4271 49.4626 41.682 49.4626ZM48.3946 52.5919C47.0325 52.5919 46.2819 52.0081 45.9007 51.3688L46.6473 50.8446C46.8975 51.1821 47.2866 51.7659 48.3946 51.7659C49.3794 51.7659 50.0942 51.3052 50.0942 50.2886V49.0496H50.0148C49.8083 49.3832 49.4271 50.0821 48.2357 50.0821C46.7585 50.0821 45.6465 49.002 45.6465 47.0958C45.6465 45.2214 46.7108 43.9983 48.2516 43.9983C49.443 43.9983 49.8242 44.729 50.0307 45.0467H50.126V44.0777H51.0314V50.3522C51.0314 51.9247 49.856 52.5919 48.3946 52.5919ZM48.3628 49.2402C49.4906 49.2402 50.1101 48.4301 50.1101 47.0799C50.1101 45.7615 49.5065 44.8402 48.3628 44.8402C47.1715 44.8402 46.5837 45.8409 46.5837 47.0799C46.5837 48.3507 47.1874 49.2402 48.3628 49.2402ZM52.8029 50.1774V44.0777H53.7401V50.1774H52.8029ZM53.2794 43.0611C52.9141 43.0611 52.6123 42.7752 52.6123 42.4257C52.6123 42.0763 52.9141 41.7903 53.2794 41.7903C53.6448 41.7903 53.9466 42.0763 53.9466 42.4257C53.9466 42.7752 53.6448 43.0611 53.2794 43.0611ZM56.4497 46.5081V50.1774H55.5125V44.0777H56.418V45.0308H56.4974C56.7833 44.4113 57.3552 43.9983 58.2765 43.9983C59.5115 43.9983 60.3415 44.7449 60.3415 46.3016V50.1774H59.4043V46.3651C59.4043 45.4081 58.8761 44.8402 58.0064 44.8402C57.109 44.8402 56.4497 45.4438 56.4497 46.5081Z" fill="#8A8FA8"/>
<path d="M92.4164 50.3204C91.2568 50.3204 90.3355 49.6374 90.3355 48.446C90.3355 47.0482 91.5706 46.798 92.7023 46.651C93.8143 46.5081 94.2749 46.5478 94.2749 46.0951V46.0633C94.2749 45.281 93.85 44.8243 92.9883 44.8243C92.0947 44.8243 91.6063 45.3008 91.3998 45.7456L90.5103 45.4279C90.9868 44.316 92.0352 43.9983 92.9565 43.9983C93.7348 43.9983 95.2121 44.2207 95.2121 46.1586V50.1774H94.2749V49.3514H94.2273C94.0366 49.7485 93.4807 50.3204 92.4164 50.3204ZM92.5594 49.4785C93.6713 49.4785 94.2749 48.7319 94.2749 47.9695V47.1117C94.1161 47.3023 93.0518 47.4135 92.6547 47.4612C91.924 47.5565 91.2727 47.7788 91.2727 48.4937C91.2727 49.1449 91.8128 49.4785 92.5594 49.4785ZM99.2819 50.3045C97.7569 50.3045 96.6927 49.0814 96.6927 47.1435C96.6927 45.2214 97.7569 43.9983 99.2978 43.9983C100.489 43.9983 100.854 44.729 101.061 45.0467H101.14V42.0445H102.078V50.1774H101.172V49.2402H101.061C100.854 49.5738 100.457 50.3045 99.2819 50.3045ZM99.409 49.4626C100.537 49.4626 101.156 48.5095 101.156 47.1276C101.156 45.7615 100.553 44.8402 99.409 44.8402C98.2176 44.8402 97.6299 45.8409 97.6299 47.1276C97.6299 48.4301 98.2335 49.4626 99.409 49.4626ZM103.98 50.1774V44.0777H104.886V45.0308H104.965C105.219 44.3795 105.807 43.9983 106.601 43.9983C107.403 43.9983 107.935 44.3795 108.237 45.0308H108.301C108.614 44.3994 109.254 43.9983 110.127 43.9983C111.216 43.9983 111.986 44.6615 111.986 46.0951V50.1774H111.049V46.0951C111.049 45.1936 110.477 44.8402 109.81 44.8402C108.952 44.8402 108.46 45.42 108.46 46.2063V50.1774H107.506V45.9998C107.506 45.3048 107.01 44.8402 106.299 44.8402C105.569 44.8402 104.917 45.4716 104.917 46.3651V50.1774H103.98ZM113.755 50.1774V44.0777H114.693V50.1774H113.755ZM114.232 43.0611C113.867 43.0611 113.565 42.7752 113.565 42.4257C113.565 42.0763 113.867 41.7903 114.232 41.7903C114.597 41.7903 114.899 42.0763 114.899 42.4257C114.899 42.7752 114.597 43.0611 114.232 43.0611ZM117.402 46.5081V50.1774H116.465V44.0777H117.37V45.0308H117.45C117.736 44.4113 118.308 43.9983 119.229 43.9983C120.464 43.9983 121.294 44.7449 121.294 46.3016V50.1774H120.357V46.3651C120.357 45.4081 119.829 44.8402 118.959 44.8402C118.061 44.8402 117.402 45.4438 117.402 46.5081Z" fill="#D3D5DE"/>
<path d="M38.5445 68.9086C38.199 67.8404 37.4008 67.1772 36.2253 67.1772C34.7798 67.1772 33.6202 68.3209 33.6202 70.4335C33.6202 72.5462 34.7798 73.6899 36.2889 73.6899C37.6669 73.6899 38.6279 72.7686 38.6557 71.3072H36.5112V70.4335H39.6087V71.3072C39.6087 73.3206 38.2268 74.6112 36.2889 74.6112C34.1285 74.6112 32.6672 73.0069 32.6672 70.4335C32.6672 67.8602 34.1405 66.2559 36.2253 66.2559C37.9409 66.2559 39.2593 67.336 39.5611 68.9086H38.5445ZM41.2243 74.5V68.4003H42.1298V69.3216H42.1933C42.4157 68.718 43.0511 68.305 43.7818 68.305C43.9208 68.305 44.167 68.3129 44.2742 68.3209V69.274C44.2107 69.2581 43.9525 69.2104 43.7023 69.2104C42.8128 69.2104 42.1615 69.814 42.1615 70.64V74.5H41.2243ZM47.7334 74.6271C46.0814 74.6271 44.9695 73.3722 44.9695 71.4819C44.9695 69.5758 46.0814 68.3209 47.7334 68.3209C49.3854 68.3209 50.4973 69.5758 50.4973 71.4819C50.4973 73.3722 49.3854 74.6271 47.7334 74.6271ZM47.7334 73.7852C48.9883 73.7852 49.5601 72.705 49.5601 71.4819C49.5601 70.2588 48.9883 69.1628 47.7334 69.1628C46.4785 69.1628 45.9067 70.2588 45.9067 71.4819C45.9067 72.705 46.4785 73.7852 47.7334 73.7852ZM55.8279 72.0061V68.4003H56.7651V74.5H55.8279V73.4675H55.7644C55.4785 74.087 54.8749 74.5794 53.9535 74.5794C52.8098 74.5794 51.9838 73.8329 51.9838 72.2762V68.4003H52.921V72.2126C52.921 73.1022 53.477 73.674 54.2554 73.674C54.9543 73.674 55.8279 73.1498 55.8279 72.0061ZM58.5376 76.7874V68.4003H59.443V69.3693H59.5542C59.7607 69.0516 60.126 68.3209 61.3174 68.3209C62.8582 68.3209 63.9225 69.544 63.9225 71.466C63.9225 73.404 62.8582 74.6271 61.3333 74.6271C60.1578 74.6271 59.7607 73.8964 59.5542 73.5628H59.4748V76.7874H58.5376ZM59.4589 71.4502C59.4589 72.8321 60.0784 73.7852 61.2062 73.7852C62.3817 73.7852 62.9853 72.7527 62.9853 71.4502C62.9853 70.1635 62.3975 69.1628 61.2062 69.1628C60.0625 69.1628 59.4589 70.0841 59.4589 71.4502Z" fill="#8A8FA8"/>
<path d="M94.4655 72.0061V68.4003H95.4027V74.5H94.4655V73.4675H94.402C94.1161 74.087 93.5125 74.5794 92.5911 74.5794C91.4474 74.5794 90.6214 73.8329 90.6214 72.2762V68.4003H91.5586V72.2126C91.5586 73.1022 92.1146 73.674 92.8929 73.674C93.5919 73.674 94.4655 73.1498 94.4655 72.0061ZM101.496 69.7664L100.654 70.0047C100.491 69.5837 100.154 69.131 99.3355 69.131C98.5889 69.131 98.0329 69.5122 98.0329 70.0364C98.0329 70.505 98.3586 70.7473 99.0813 70.926L99.9868 71.1484C101.075 71.4144 101.607 71.9505 101.607 72.8004C101.607 73.8527 100.642 74.6271 99.2243 74.6271C97.9773 74.6271 97.1235 74.0751 96.9051 73.0386L97.7947 72.8162C97.9615 73.4715 98.442 73.8011 99.2084 73.8011C100.082 73.8011 100.638 73.3722 100.638 72.848C100.638 72.4271 100.348 72.1332 99.7326 71.9902L98.716 71.752C97.5961 71.4899 97.0957 70.926 97.0957 70.0841C97.0957 69.0516 98.0488 68.3209 99.3355 68.3209C100.543 68.3209 101.202 68.9007 101.496 69.7664ZM105.631 74.6271C103.868 74.6271 102.788 73.3722 102.788 71.4978C102.788 69.6234 103.884 68.3209 105.536 68.3209C106.807 68.3209 108.157 69.0992 108.157 71.3707V71.7679H103.729C103.773 73.0744 104.531 73.7852 105.631 73.7852C106.366 73.7852 106.918 73.4675 107.156 72.8321L108.061 73.0863C107.776 74.0076 106.87 74.6271 105.631 74.6271ZM103.729 70.9577H107.204C107.204 69.9252 106.552 69.1628 105.536 69.1628C104.464 69.1628 103.792 70.0086 103.729 70.9577ZM109.638 74.5V68.4003H110.544V69.3216H110.607C110.83 68.718 111.465 68.305 112.196 68.305C112.335 68.305 112.581 68.3129 112.688 68.3209V69.274C112.625 69.2581 112.367 69.2104 112.116 69.2104C111.227 69.2104 110.576 69.814 110.576 70.64V74.5H109.638ZM118.541 76.6444C115.301 76.6444 113.537 74.8336 113.537 71.6249C113.537 68.5274 115.364 66.6689 118.43 66.6689C121.4 66.6689 122.925 68.8133 122.925 70.9895C122.925 72.5303 122.766 74.3412 121.083 74.3412C120.527 74.3412 119.669 74.1029 119.573 73.4199H119.526C119.335 73.8805 118.859 74.3253 117.953 74.2935C116.571 74.2459 115.856 73.0863 115.856 71.5772C115.856 70.1476 116.762 69.1628 117.953 69.0357C118.747 68.9563 119.367 69.2581 119.478 69.6075H119.526V69.1628H120.368V72.7527C120.368 73.1975 120.622 73.5946 121.098 73.5946C121.909 73.5946 122.099 72.7845 122.099 70.9736C122.099 69.1945 120.908 67.4155 118.382 67.4155C115.888 67.4155 114.411 69.0039 114.411 71.6567C114.411 74.3571 115.856 75.882 118.573 75.882C119.446 75.882 120.368 75.5643 120.654 75.469L120.876 76.1997C120.384 76.4062 119.351 76.6444 118.541 76.6444ZM118.08 73.4834C119.145 73.4834 119.573 72.848 119.573 71.5296C119.573 70.1953 119.065 69.814 118.112 69.814C117.207 69.814 116.682 70.6083 116.682 71.5296C116.682 72.5462 117.048 73.4834 118.08 73.4834ZM126.862 74.6271C125.21 74.6271 124.098 73.3722 124.098 71.4819C124.098 69.5758 125.21 68.3209 126.862 68.3209C128.514 68.3209 129.626 69.5758 129.626 71.4819C129.626 73.3722 128.514 74.6271 126.862 74.6271ZM126.862 73.7852C128.117 73.7852 128.689 72.705 128.689 71.4819C128.689 70.2588 128.117 69.1628 126.862 69.1628C125.607 69.1628 125.035 70.2588 125.035 71.4819C125.035 72.705 125.607 73.7852 126.862 73.7852ZM131.112 74.5V68.4003H132.018V69.3216H132.081C132.304 68.718 132.939 68.305 133.67 68.305C133.809 68.305 134.055 68.3129 134.162 68.3209V69.274C134.099 69.2581 133.841 69.2104 133.59 69.2104C132.701 69.2104 132.05 69.814 132.05 70.64V74.5H131.112ZM137.606 76.9145C136.243 76.9145 135.493 76.3307 135.112 75.6914L135.858 75.1672C136.108 75.5047 136.498 76.0885 137.606 76.0885C138.59 76.0885 139.305 75.6278 139.305 74.6112V73.3722H139.226C139.019 73.7058 138.638 74.4047 137.447 74.4047C135.969 74.4047 134.857 73.3246 134.857 71.4184C134.857 69.544 135.922 68.3209 137.463 68.3209C138.654 68.3209 139.035 69.0516 139.242 69.3693H139.337V68.4003H140.242V74.6747C140.242 76.2473 139.067 76.9145 137.606 76.9145ZM137.574 73.5628C138.702 73.5628 139.321 72.7527 139.321 71.4025C139.321 70.0841 138.717 69.1628 137.574 69.1628C136.382 69.1628 135.795 70.1635 135.795 71.4025C135.795 72.6733 136.398 73.5628 137.574 73.5628ZM142.697 74.5636C142.304 74.5636 141.982 74.2419 141.982 73.8487C141.982 73.4556 142.304 73.1339 142.697 73.1339C143.09 73.1339 143.412 73.4556 143.412 73.8487C143.412 74.2419 143.09 74.5636 142.697 74.5636ZM147.627 74.6271C145.912 74.6271 144.863 73.3087 144.863 71.4819C144.863 69.6234 145.959 68.3209 147.611 68.3209C148.898 68.3209 149.867 69.0833 150.026 70.227H149.089C148.946 69.6711 148.453 69.1628 147.627 69.1628C146.531 69.1628 145.801 70.0682 145.801 71.4502C145.801 72.8639 146.515 73.7852 147.627 73.7852C148.358 73.7852 148.914 73.3881 149.089 72.7209H150.026C149.867 73.8011 148.978 74.6271 147.627 74.6271ZM153.93 74.6271C152.278 74.6271 151.166 73.3722 151.166 71.4819C151.166 69.5758 152.278 68.3209 153.93 68.3209C155.582 68.3209 156.694 69.5758 156.694 71.4819C156.694 73.3722 155.582 74.6271 153.93 74.6271ZM153.93 73.7852C155.185 73.7852 155.757 72.705 155.757 71.4819C155.757 70.2588 155.185 69.1628 153.93 69.1628C152.675 69.1628 152.103 70.2588 152.103 71.4819C152.103 72.705 152.675 73.7852 153.93 73.7852ZM158.18 74.5V68.4003H159.086V69.3534H159.165C159.419 68.7021 160.007 68.3209 160.801 68.3209C161.604 68.3209 162.136 68.7021 162.437 69.3534H162.501C162.815 68.722 163.454 68.3209 164.328 68.3209C165.416 68.3209 166.186 68.9841 166.186 70.4177V74.5H165.249V70.4177C165.249 69.5162 164.677 69.1628 164.01 69.1628C163.152 69.1628 162.66 69.7426 162.66 70.5289V74.5H161.707V70.3224C161.707 69.6274 161.21 69.1628 160.5 69.1628C159.769 69.1628 159.118 69.7942 159.118 70.6877V74.5H158.18Z" fill="#D3D5DE"/>
<path d="M37.4326 92.7229C37.3372 91.9207 36.5907 91.4521 35.6058 91.4521C34.5257 91.4521 33.8109 92.024 33.8109 92.8023C33.8109 93.676 34.7798 93.9937 35.3834 94.1525L36.2094 94.3749C37.0513 94.5973 38.4968 95.0897 38.4968 96.6146C38.4968 97.933 37.4326 98.9655 35.5582 98.9655C33.8109 98.9655 32.7307 98.0601 32.6354 96.7258H33.652C33.7314 97.6471 34.5892 98.076 35.5582 98.076C36.686 98.076 37.5437 97.4883 37.5437 96.5987C37.5437 95.7886 36.7813 95.4868 35.9235 95.2485L34.9228 94.9626C33.652 94.5973 32.8578 93.946 32.8578 92.85C32.8578 91.4839 34.0809 90.5785 35.6376 90.5785C37.2102 90.5785 38.3419 91.4958 38.3856 92.7229H37.4326ZM42.6976 92.7229V93.5171H41.3951V97.0753C41.3951 97.8695 41.7922 97.9966 42.2052 97.9966C42.4117 97.9966 42.5388 97.9648 42.6182 97.9489L42.8088 98.7908C42.6818 98.8385 42.4594 98.902 42.1099 98.902C41.3157 98.902 40.4579 98.3937 40.4579 97.3294V93.5171H39.5366V92.7229H40.4579V91.2615H41.3951V92.7229H42.6976ZM45.9583 98.9655C44.7987 98.9655 43.8774 98.2825 43.8774 97.0912C43.8774 95.6933 45.1124 95.4431 46.2442 95.2962C47.3561 95.1532 47.8168 95.1929 47.8168 94.7402V94.7085C47.8168 93.9261 47.3919 93.4695 46.5301 93.4695C45.6366 93.4695 45.1482 93.946 44.9417 94.3908L44.0521 94.0731C44.5287 92.9611 45.577 92.6435 46.4984 92.6435C47.2767 92.6435 48.754 92.8658 48.754 94.8038V98.8226H47.8168V97.9966H47.7691C47.5785 98.3937 47.0226 98.9655 45.9583 98.9655ZM46.1012 98.1237C47.2132 98.1237 47.8168 97.3771 47.8168 96.6146V95.7568C47.6579 95.9475 46.5937 96.0587 46.1966 96.1063C45.4659 96.2016 44.8146 96.424 44.8146 97.1388C44.8146 97.7901 45.3547 98.1237 46.1012 98.1237ZM53.1732 92.7229V93.5171H51.8707V97.0753C51.8707 97.8695 52.2678 97.9966 52.6808 97.9966C52.8873 97.9966 53.0144 97.9648 53.0938 97.9489L53.2844 98.7908C53.1573 98.8385 52.9349 98.902 52.5855 98.902C51.7912 98.902 50.9335 98.3937 50.9335 97.3294V93.5171H50.0122V92.7229H50.9335V91.2615H51.8707V92.7229H53.1732ZM58.483 96.3287V92.7229H59.4202V98.8226H58.483V97.7901H58.4194C58.1335 98.4096 57.5299 98.902 56.6086 98.902C55.4649 98.902 54.6389 98.1554 54.6389 96.5987V92.7229H55.5761V96.5352C55.5761 97.4247 56.132 97.9966 56.9104 97.9966C57.6093 97.9966 58.483 97.4724 58.483 96.3287ZM65.5132 94.089L64.6714 94.3272C64.5085 93.9063 64.171 93.4536 63.3529 93.4536C62.6063 93.4536 62.0504 93.8348 62.0504 94.359C62.0504 94.8276 62.376 95.0698 63.0988 95.2485L64.0042 95.4709C65.0923 95.737 65.6244 96.2731 65.6244 97.1229C65.6244 98.1753 64.6594 98.9497 63.2417 98.9497C61.9948 98.9497 61.141 98.3977 60.9226 97.3612L61.8121 97.1388C61.9789 97.7941 62.4594 98.1237 63.2259 98.1237C64.0995 98.1237 64.6555 97.6948 64.6555 97.1706C64.6555 96.7496 64.3656 96.4558 63.75 96.3128L62.7334 96.0745C61.6136 95.8124 61.1132 95.2485 61.1132 94.4067C61.1132 93.3741 62.0663 92.6435 63.3529 92.6435C64.5602 92.6435 65.2194 93.2232 65.5132 94.089Z" fill="#8A8FA8"/>
<path d="M91.0821 98.8226H90.0496L93.0359 90.6896H94.0525L97.0388 98.8226H96.0063L95.1883 96.5193H91.9002L91.0821 98.8226ZM92.2099 95.6457H94.8785L93.576 91.9763H93.5125L92.2099 95.6457ZM100.712 98.9497C98.9969 98.9497 97.9486 97.6312 97.9486 95.8045C97.9486 93.946 99.0446 92.6435 100.697 92.6435C101.983 92.6435 102.952 93.4059 103.111 94.5496H102.174C102.031 93.9937 101.538 93.4853 100.712 93.4853C99.6164 93.4853 98.8858 94.3908 98.8858 95.7727C98.8858 97.1865 99.6006 98.1078 100.712 98.1078C101.443 98.1078 101.999 97.7107 102.174 97.0435H103.111C102.952 98.1237 102.063 98.9497 100.712 98.9497ZM107.19 92.7229V93.5171H105.887V97.0753C105.887 97.8695 106.284 97.9966 106.697 97.9966C106.904 97.9966 107.031 97.9648 107.11 97.9489L107.301 98.7908C107.174 98.8385 106.952 98.902 106.602 98.902C105.808 98.902 104.95 98.3937 104.95 97.3294V93.5171H104.029V92.7229H104.95V91.2615H105.887V92.7229H107.19ZM108.655 98.8226V92.7229H109.593V98.8226H108.655ZM109.132 91.7063C108.767 91.7063 108.465 91.4203 108.465 91.0709C108.465 90.7214 108.767 90.4355 109.132 90.4355C109.497 90.4355 109.799 90.7214 109.799 91.0709C109.799 91.4203 109.497 91.7063 109.132 91.7063ZM116.353 92.7229L114.097 98.8226H113.144L110.889 92.7229H111.905L113.589 97.5836H113.652L115.336 92.7229H116.353ZM119.985 98.9497C118.222 98.9497 117.141 97.6948 117.141 95.8204C117.141 93.946 118.238 92.6435 119.89 92.6435C121.16 92.6435 122.51 93.4218 122.51 95.6933V96.0904H118.083C118.126 97.3969 118.885 98.1078 119.985 98.1078C120.719 98.1078 121.271 97.7901 121.51 97.1547L122.415 97.4089C122.129 98.3302 121.224 98.9497 119.985 98.9497ZM118.083 95.2803H121.557C121.557 94.2478 120.906 93.4853 119.89 93.4853C118.817 93.4853 118.146 94.3312 118.083 95.2803Z" fill="#D3D5DE"/>
</svg>
