<svg width="200" height="140" viewBox="0 0 200 140" fill="none" xmlns="http://www.w3.org/2000/svg">
<rect x="0.5" y="0.5" width="199" height="139" rx="11.5" fill="#1E2029"/>
<rect x="0.5" y="0.5" width="199" height="139" rx="11.5" stroke="#303341"/>
<g filter="url(#filter0_d_4060_86623)">
<g clip-path="url(#clip0_4060_86623)">
<path d="M45 59C45 54.5817 48.5817 51 53 51H147C151.418 51 155 54.5817 155 59V115C155 119.418 151.418 123 147 123H53C48.5817 123 45 119.418 45 115V59Z" fill="#303341"/>
<path d="M65.8711 71.8L70.8 71.8C70.9104 71.8 71 71.7104 71 71.6V70.4C71 70.2895 70.9104 70.2 70.8 70.2L65.8711 70.2L65.8711 65.2C65.8711 65.0895 65.7815 65 65.6711 65H64.4711C64.3606 65 64.2711 65.0895 64.2711 65.2V70.2L59.2 70.2C59.0895 70.2 59 70.2896 59 70.4V71.6C59 71.7105 59.0895 71.8 59.2 71.8L64.2711 71.8L64.2711 76.8C64.2711 76.9104 64.3606 77 64.4711 77H65.6711C65.7815 77 65.8711 76.9104 65.8711 76.8L65.8711 71.8Z" fill="#D3D5DE"/>
<path d="M82.5327 76H81.3324L84.804 66.5455H85.9858L89.4574 76H88.2571L87.3061 73.3224H83.4837L82.5327 76ZM83.8438 72.3068H86.946L85.4318 68.0412H85.358L83.8438 72.3068ZM93.5249 76.1477C91.7521 76.1477 90.5149 74.7259 90.5149 72.473C90.5149 70.2386 91.7521 68.8168 93.5433 68.8168C94.9283 68.8168 95.353 69.6662 95.5931 70.0355H95.6854V66.5455H96.7749V76H95.7223V74.9105H95.5931C95.353 75.2983 94.8913 76.1477 93.5249 76.1477ZM93.6726 75.169C94.9837 75.169 95.7038 74.0611 95.7038 72.4545C95.7038 70.8665 95.0021 69.7955 93.6726 69.7955C92.2877 69.7955 91.6044 70.9588 91.6044 72.4545C91.6044 73.9688 92.3061 75.169 93.6726 75.169ZM101.664 76.1477C99.8914 76.1477 98.6541 74.7259 98.6541 72.473C98.6541 70.2386 99.8914 68.8168 101.683 68.8168C103.067 68.8168 103.492 69.6662 103.732 70.0355H103.825V66.5455H104.914V76H103.862V74.9105H103.732C103.492 75.2983 103.031 76.1477 101.664 76.1477ZM101.812 75.169C103.123 75.169 103.843 74.0611 103.843 72.4545C103.843 70.8665 103.141 69.7955 101.812 69.7955C100.427 69.7955 99.7436 70.9588 99.7436 72.4545C99.7436 73.9688 100.445 75.169 101.812 75.169Z" fill="#D3D5DE"/>
<path d="M62 97.4C62 96.6268 62.6268 96 63.4 96H66.6C67.3732 96 68 96.6268 68 97.4L71.3 97.4C71.4105 97.4 71.5 97.4896 71.5 97.6V98.8C71.5 98.9105 71.4105 99 71.3 99H58.7C58.5895 99 58.5 98.9105 58.5 98.8V97.6C58.5 97.4896 58.5895 97.4 58.7 97.4L62 97.4Z" fill="#D3D5DE"/>
<path d="M70.5 100.2H59.5V108.6C59.5 109.373 60.1268 110 60.9 110H69.1C69.8732 110 70.5 109.373 70.5 108.6V100.2ZM63.6 102.2V107.8C63.6 107.91 63.5105 108 63.4 108H62.6C62.4895 108 62.4 107.91 62.4 107.8V102.2C62.4 102.089 62.4895 102 62.6 102H63.4C63.5105 102 63.6 102.089 63.6 102.2ZM66.4 102.2C66.4 102.089 66.4895 102 66.6 102H67.4C67.5105 102 67.6 102.089 67.6 102.2V107.8C67.6 107.91 67.5105 108 67.4 108H66.6C66.4895 108 66.4 107.91 66.4 107.8V102.2Z" fill="#D3D5DE"/>
<path d="M85.0625 108H82.1449V98.5455H85.1918C87.9432 98.5455 89.5682 100.318 89.5682 103.254C89.5682 106.209 87.9432 108 85.0625 108ZM83.2898 106.984H84.9886C87.3338 106.984 88.4602 105.562 88.4602 103.254C88.4602 100.964 87.3338 99.5611 85.1179 99.5611H83.2898V106.984ZM94.3789 108.148C92.3292 108.148 91.0735 106.689 91.0735 104.51C91.0735 102.331 92.3477 100.817 94.2681 100.817C95.7454 100.817 97.315 101.722 97.315 104.362V104.824H92.1676C92.2184 106.343 93.1002 107.169 94.3789 107.169C95.233 107.169 95.8747 106.8 96.1516 106.061L97.2042 106.357C96.8718 107.428 95.8193 108.148 94.3789 108.148ZM92.1676 103.882H96.207C96.207 102.682 95.4499 101.795 94.2681 101.795C93.0217 101.795 92.2415 102.779 92.1676 103.882ZM99.0373 98.5455H100.127V106.153C100.127 106.841 100.238 107.091 100.718 107.077C100.976 107.067 101.073 107.035 101.179 107.003L101.401 107.945C101.212 108 100.902 108.055 100.588 108.055C99.5544 108.055 99.0373 107.46 99.0373 106.449V98.5455ZM105.44 108.148C103.39 108.148 102.134 106.689 102.134 104.51C102.134 102.331 103.408 100.817 105.329 100.817C106.806 100.817 108.376 101.722 108.376 104.362V104.824H103.228C103.279 106.343 104.161 107.169 105.44 107.169C106.294 107.169 106.935 106.8 107.212 106.061L108.265 106.357C107.932 107.428 106.88 108.148 105.44 108.148ZM103.228 103.882H107.268C107.268 102.682 106.511 101.795 105.329 101.795C104.082 101.795 103.302 102.779 103.228 103.882ZM113.182 100.909V101.832H111.668V105.969C111.668 106.892 112.129 107.04 112.609 107.04C112.849 107.04 112.997 107.003 113.089 106.984L113.311 107.963C113.163 108.018 112.905 108.092 112.499 108.092C111.575 108.092 110.578 107.501 110.578 106.264V101.832H109.507V100.909H110.578V99.2102H111.668V100.909H113.182ZM117.782 108.148C115.733 108.148 114.477 106.689 114.477 104.51C114.477 102.331 115.751 100.817 117.672 100.817C119.149 100.817 120.719 101.722 120.719 104.362V104.824H115.571C115.622 106.343 116.504 107.169 117.782 107.169C118.637 107.169 119.278 106.8 119.555 106.061L120.608 106.357C120.275 107.428 119.223 108.148 117.782 108.148ZM115.571 103.882H119.611C119.611 102.682 118.853 101.795 117.672 101.795C116.425 101.795 115.645 102.779 115.571 103.882Z" fill="#D3D5DE"/>
</g>
</g>
<path d="M45 26C45 21.5817 48.5817 18 53 18H122C126.418 18 130 21.5817 130 26V42C130 46.4183 126.418 50 122 50H53C48.5817 50 45 46.4183 45 42V26Z" fill="#858991"/>
<path d="M62.5086 29.5455H64.2398L67.2497 36.8949H67.3605L70.3705 29.5455H72.1016V39H70.7444V32.1584H70.6567L67.8683 38.9862H66.7419L63.9535 32.1538H63.8658V39H62.5086V29.5455ZM77.1166 39.1431C75.1177 39.1431 73.8112 37.6797 73.8112 35.4869C73.8112 33.2802 75.1177 31.8168 77.1166 31.8168C79.1156 31.8168 80.422 33.2802 80.422 35.4869C80.422 37.6797 79.1156 39.1431 77.1166 39.1431ZM77.1213 37.9844C78.4185 37.9844 79.0279 36.8441 79.0279 35.4822C79.0279 34.125 78.4185 32.9709 77.1213 32.9709C75.8148 32.9709 75.2054 34.125 75.2054 35.4822C75.2054 36.8441 75.8148 37.9844 77.1213 37.9844ZM82.0278 39V31.9091H83.362V33.0355H83.4358C83.6943 32.2738 84.4053 31.8029 85.2362 31.8029C85.4117 31.8029 85.684 31.8168 85.8225 31.8352V33.1555C85.7117 33.1232 85.3886 33.0724 85.1024 33.0724C84.1237 33.0724 83.4081 33.7418 83.4081 34.6697V39H82.0278ZM89.8843 39.1431C87.793 39.1431 86.5096 37.7028 86.5096 35.5007C86.5096 33.3217 87.8115 31.8168 89.7873 31.8168C91.3938 31.8168 92.9265 32.8185 92.9265 35.3807V35.87H87.8853C87.9223 37.2365 88.7163 38.0028 89.8981 38.0028C90.6829 38.0028 91.283 37.6612 91.5323 36.9918L92.8388 37.2273C92.5249 38.3814 91.4308 39.1431 89.8843 39.1431ZM87.8899 34.8359H91.5739C91.5693 33.7511 90.8676 32.957 89.7965 32.957C88.6747 32.957 87.9453 33.8295 87.8899 34.8359Z" fill="#21222C"/>
<path fill-rule="evenodd" clip-rule="evenodd" d="M107 32.5L106 33.5L110 37.5L114 33.5L113 32.5L110 35.5L107 32.5Z" fill="#21222C"/>
<defs>
<filter id="filter0_d_4060_86623" x="37" y="46" width="126" height="88" filterUnits="userSpaceOnUse" color-interpolation-filters="sRGB">
<feFlood flood-opacity="0" result="BackgroundImageFix"/>
<feColorMatrix in="SourceAlpha" type="matrix" values="0 0 0 0 0 0 0 0 0 0 0 0 0 0 0 0 0 0 127 0" result="hardAlpha"/>
<feOffset dy="3"/>
<feGaussianBlur stdDeviation="4"/>
<feColorMatrix type="matrix" values="0 0 0 0 0.152941 0 0 0 0 0.2 0 0 0 0 0.243137 0 0 0 0.2 0"/>
<feBlend mode="normal" in2="BackgroundImageFix" result="effect1_dropShadow_4060_86623"/>
<feBlend mode="normal" in="SourceGraphic" in2="effect1_dropShadow_4060_86623" result="shape"/>
</filter>
<clipPath id="clip0_4060_86623">
<path d="M45 59C45 54.5817 48.5817 51 53 51H147C151.418 51 155 54.5817 155 59V115C155 119.418 151.418 123 147 123H53C48.5817 123 45 119.418 45 115V59Z" fill="white"/>
</clipPath>
</defs>
</svg>
