<svg width="200" height="140" viewBox="0 0 200 140" fill="none" xmlns="http://www.w3.org/2000/svg">
<rect x="0.5" y="0.5" width="199" height="139" rx="11.5" fill="#1E2029"/>
<rect x="0.5" y="0.5" width="199" height="139" rx="11.5" stroke="#303341"/>
<path d="M28 89.0002C27.4919 89.0002 26.9959 88.9504 26.5163 88.8555L26.4387 89.2479C25.3891 89.0403 24.4134 88.6274 23.5551 88.0527L23.7776 87.7203C22.9486 87.1654 22.2348 86.4516 21.6799 85.6226L21.3475 85.8451C20.7728 84.9868 20.3599 84.0111 20.1523 82.9615L20.5447 82.8839C20.4498 82.4043 20.4 81.9083 20.4 81.4002V80.0002H20V77.2002H20.4V74.4002H20V71.6002H20.4V68.8002H20V66.0002H20.4V63.2002H20V60.4002H20.4V59.0002C20.4 58.4921 20.4498 57.9961 20.5447 57.5165L20.1523 57.4389C20.3599 56.3893 20.7728 55.4136 21.3475 54.5553L21.6799 54.7778C22.2348 53.9488 22.9486 53.235 23.7776 52.6801L23.5551 52.3477C24.4134 51.773 25.3891 51.3601 26.4387 51.1525L26.5163 51.5449C26.9959 51.45 27.4919 51.4002 28 51.4002H29.5652V51.0002H32.6957V51.4002H35.8261V51.0002H38.9565V51.4002H42.087V51.0002H45.2174V51.4002H48.3478V51.0002H51.4783V51.4002H54.6087V51.0002H57.7391V51.4002H60.8696V51.0002H64V51.4002H67.1304V51.0002H70.2609V51.4002H73.3913V51.0002H76.5217V51.4002H79.6522V51.0002H82.7826V51.4002H85.913V51.0002H89.0435V51.4002H92.1739V51.0002H95.3044V51.4002H98.4348V51.0002H101.565V51.4002H104.696V51.0002H107.826V51.4002H110.957V51.0002H114.087V51.4002H117.217V51.0002H120.348V51.4002H123.478V51.0002H126.609V51.4002H129.739V51.0002H132.87V51.4002H136V51.0002H139.13V51.4002H142.261V51.0002H145.391V51.4002H148.522V51.0002H151.652V51.4002H154.783V51.0002H157.913V51.4002H161.043V51.0002H164.174V51.4002H167.304V51.0002H170.435V51.4002H172C172.508 51.4002 173.004 51.45 173.484 51.5449L173.561 51.1525C174.611 51.3601 175.587 51.773 176.445 52.3477L176.222 52.6801C177.051 53.235 177.765 53.9488 178.32 54.7778L178.653 54.5553C179.227 55.4136 179.64 56.3893 179.848 57.4389L179.455 57.5165C179.55 57.9961 179.6 58.4921 179.6 59.0002V60.4002H180V63.2002H179.6V66.0002H180V68.8002H179.6V71.6002H180V74.4002H179.6V77.2002H180V80.0002H179.6V81.4002C179.6 81.9083 179.55 82.4043 179.455 82.8839L179.848 82.9615C179.64 84.0111 179.227 84.9868 178.653 85.8451L178.32 85.6226C177.765 86.4516 177.051 87.1654 176.222 87.7203L176.445 88.0527C175.587 88.6274 174.611 89.0403 173.561 89.2479L173.484 88.8555C173.004 88.9504 172.508 89.0002 172 89.0002H170.435V89.4002H167.304V89.0002H164.174V89.4002H161.043V89.0002H157.913V89.4002H154.783V89.0002H151.652V89.4002H148.522V89.0002H145.391V89.4002H142.261V89.0002H139.13V89.4002H136V89.0002H132.87V89.4002H129.739V89.0002H126.609V89.4002H123.478V89.0002H120.348V89.4002H117.217V89.0002H114.087V89.4002H110.957V89.0002H107.826V89.4002H104.696V89.0002H101.565V89.4002H98.4348V89.0002H95.3044V89.4002H92.1739V89.0002H89.0435V89.4002H85.9131V89.0002H82.7826V89.4002H79.6522V89.0002H76.5218V89.4002H73.3913V89.0002H70.2609V89.4002H67.1305V89.0002H64V89.4002H60.8696V89.0002H57.7392V89.4002H54.6087V89.0002H51.4783V89.4002H48.3479V89.0002H45.2174V89.4002H42.087V89.0002H38.9566V89.4002H35.8261V89.0002H32.6957V89.4002H29.5653V89.0002H28Z" fill="#1A1B23"/>
<path d="M28 89.0002C27.4919 89.0002 26.9959 88.9504 26.5163 88.8555L26.4387 89.2479C25.3891 89.0403 24.4134 88.6274 23.5551 88.0527L23.7776 87.7203C22.9486 87.1654 22.2348 86.4516 21.6799 85.6226L21.3475 85.8451C20.7728 84.9868 20.3599 84.0111 20.1523 82.9615L20.5447 82.8839C20.4498 82.4043 20.4 81.9083 20.4 81.4002V80.0002H20V77.2002H20.4V74.4002H20V71.6002H20.4V68.8002H20V66.0002H20.4V63.2002H20V60.4002H20.4V59.0002C20.4 58.4921 20.4498 57.9961 20.5447 57.5165L20.1523 57.4389C20.3599 56.3893 20.7728 55.4136 21.3475 54.5553L21.6799 54.7778C22.2348 53.9488 22.9486 53.235 23.7776 52.6801L23.5551 52.3477C24.4134 51.773 25.3891 51.3601 26.4387 51.1525L26.5163 51.5449C26.9959 51.45 27.4919 51.4002 28 51.4002H29.5652V51.0002H32.6957V51.4002H35.8261V51.0002H38.9565V51.4002H42.087V51.0002H45.2174V51.4002H48.3478V51.0002H51.4783V51.4002H54.6087V51.0002H57.7391V51.4002H60.8696V51.0002H64V51.4002H67.1304V51.0002H70.2609V51.4002H73.3913V51.0002H76.5217V51.4002H79.6522V51.0002H82.7826V51.4002H85.913V51.0002H89.0435V51.4002H92.1739V51.0002H95.3044V51.4002H98.4348V51.0002H101.565V51.4002H104.696V51.0002H107.826V51.4002H110.957V51.0002H114.087V51.4002H117.217V51.0002H120.348V51.4002H123.478V51.0002H126.609V51.4002H129.739V51.0002H132.87V51.4002H136V51.0002H139.13V51.4002H142.261V51.0002H145.391V51.4002H148.522V51.0002H151.652V51.4002H154.783V51.0002H157.913V51.4002H161.043V51.0002H164.174V51.4002H167.304V51.0002H170.435V51.4002H172C172.508 51.4002 173.004 51.45 173.484 51.5449L173.561 51.1525C174.611 51.3601 175.587 51.773 176.445 52.3477L176.222 52.6801C177.051 53.235 177.765 53.9488 178.32 54.7778L178.653 54.5553C179.227 55.4136 179.64 56.3893 179.848 57.4389L179.455 57.5165C179.55 57.9961 179.6 58.4921 179.6 59.0002V60.4002H180V63.2002H179.6V66.0002H180V68.8002H179.6V71.6002H180V74.4002H179.6V77.2002H180V80.0002H179.6V81.4002C179.6 81.9083 179.55 82.4043 179.455 82.8839L179.848 82.9615C179.64 84.0111 179.227 84.9868 178.653 85.8451L178.32 85.6226C177.765 86.4516 177.051 87.1654 176.222 87.7203L176.445 88.0527C175.587 88.6274 174.611 89.0403 173.561 89.2479L173.484 88.8555C173.004 88.9504 172.508 89.0002 172 89.0002H170.435V89.4002H167.304V89.0002H164.174V89.4002H161.043V89.0002H157.913V89.4002H154.783V89.0002H151.652V89.4002H148.522V89.0002H145.391V89.4002H142.261V89.0002H139.13V89.4002H136V89.0002H132.87V89.4002H129.739V89.0002H126.609V89.4002H123.478V89.0002H120.348V89.4002H117.217V89.0002H114.087V89.4002H110.957V89.0002H107.826V89.4002H104.696V89.0002H101.565V89.4002H98.4348V89.0002H95.3044V89.4002H92.1739V89.0002H89.0435V89.4002H85.9131V89.0002H82.7826V89.4002H79.6522V89.0002H76.5218V89.4002H73.3913V89.0002H70.2609V89.4002H67.1305V89.0002H64V89.4002H60.8696V89.0002H57.7392V89.4002H54.6087V89.0002H51.4783V89.4002H48.3479V89.0002H45.2174V89.4002H42.087V89.0002H38.9566V89.4002H35.8261V89.0002H32.6957V89.4002H29.5653V89.0002H28Z" stroke="#363949" stroke-width="0.8" stroke-dasharray="3.2 3.2"/>
<path fill-rule="evenodd" clip-rule="evenodd" d="M33.89 69.565C32.4572 69.569 31.2372 70.781 31.2372 72.2722C31.2372 73.7626 32.4572 74.9746 33.9588 74.9746L36.8 74.9731V76.5985L33.9588 76.6002C31.5548 76.6002 29.5996 74.6586 29.5996 72.2722C29.5996 70.0658 31.2708 68.2394 33.4212 67.9762C34.2204 65.5218 36.5548 63.8002 39.1996 63.8002C41.8452 63.8002 44.1796 65.5218 44.9788 67.9762C47.1292 68.2402 48.7996 70.0658 48.7996 72.2722C48.7996 74.617 46.8764 76.5554 44.5124 76.5938L41.6 76.5956V74.9705L44.498 74.969C45.9612 74.945 47.1628 73.7346 47.1628 72.2722C47.1628 70.781 45.942 69.569 44.4412 69.569C44.462 69.5722 44.4132 69.577 44.3636 69.5786L43.6812 69.5954L43.542 68.9314C43.118 66.9002 41.2916 65.4258 39.1996 65.4258C37.1076 65.4258 35.282 66.9002 34.8588 68.9306L34.7204 69.5946L33.89 69.565ZM40 77.3965V78.9982C40 79.4411 39.6375 79.8001 39.2023 79.8001C38.7572 79.8001 38.4 79.4355 38.4 78.9982V72.5197L37.458 73.4618C37.1482 73.7716 36.646 73.7716 36.3314 73.457C36.019 73.1446 36.0168 72.6402 36.3266 72.3304L38.696 69.9611C38.8501 69.807 39.0518 69.7295 39.2544 69.7293C39.4614 69.73 39.6637 69.8069 39.8178 69.9611L42.1871 72.3304C42.4969 72.6402 42.497 73.1424 42.1824 73.457C41.8699 73.7694 41.3656 73.7716 41.0558 73.4618L40 72.406V75.7714V77.3965Z" fill="#626784"/>
<path d="M58.4502 73.7002H56.1161V66.1366H58.5536C60.7547 66.1366 62.0547 67.5547 62.0547 69.9036C62.0547 72.2672 60.7547 73.7002 58.4502 73.7002ZM57.032 72.8877H58.3911C60.2672 72.8877 61.1684 71.7502 61.1684 69.9036C61.1684 68.0718 60.2672 66.9491 58.4945 66.9491H57.032V72.8877ZM63.5249 73.7002V68.0275H64.367V68.8843H64.4261C64.6329 68.3229 65.2238 67.9388 65.9033 67.9388C66.0326 67.9388 66.2616 67.9462 66.3613 67.9536V68.84C66.3022 68.8252 66.0621 68.7809 65.8295 68.7809C65.0022 68.7809 64.3965 69.3422 64.3965 70.1104V73.7002H63.5249ZM69.1158 73.8331C68.0374 73.8331 67.1805 73.1979 67.1805 72.09C67.1805 70.79 68.3291 70.5573 69.3817 70.4206C70.4158 70.2877 70.8442 70.3246 70.8442 69.9036V69.8741C70.8442 69.1465 70.449 68.7218 69.6476 68.7218C68.8166 68.7218 68.3624 69.165 68.1703 69.5786L67.343 69.2831C67.7862 68.2491 68.7612 67.9536 69.618 67.9536C70.3419 67.9536 71.7158 68.1604 71.7158 69.9627V73.7002H70.8442V72.932H70.7999C70.6226 73.3013 70.1055 73.8331 69.1158 73.8331ZM69.2487 73.0502C70.2828 73.0502 70.8442 72.3559 70.8442 71.6468V70.8491C70.6965 71.0263 69.7067 71.1297 69.3374 71.1741C68.6578 71.2627 68.0521 71.4695 68.0521 72.1343C68.0521 72.74 68.5544 73.0502 69.2487 73.0502ZM75.6484 75.9457C74.3816 75.9457 73.6836 75.4028 73.3291 74.8081L74.0234 74.3206C74.2561 74.6346 74.618 75.1775 75.6484 75.1775C76.5643 75.1775 77.2291 74.7491 77.2291 73.8036V72.6513H77.1552C76.9632 72.9616 76.6086 73.6116 75.5007 73.6116C74.1268 73.6116 73.0927 72.607 73.0927 70.8343C73.0927 69.0911 74.0825 67.9536 75.5154 67.9536C76.6234 67.9536 76.9779 68.6331 77.17 68.9286H77.2586V68.0275H78.1007V73.8627C78.1007 75.3252 77.0075 75.9457 75.6484 75.9457ZM75.6188 72.8286C76.6677 72.8286 77.2438 72.0752 77.2438 70.8195C77.2438 69.5934 76.6825 68.7366 75.6188 68.7366C74.5109 68.7366 73.9643 69.6672 73.9643 70.8195C73.9643 72.0013 74.5257 72.8286 75.6188 72.8286ZM83.5967 70.2877V73.7002H82.7251V66.1366H83.5967V68.9138H83.6706C83.9365 68.3266 84.4461 67.9536 85.3399 67.9536C86.4995 67.9536 87.2751 68.6368 87.2751 70.0956V73.7002H86.4035V70.1547C86.4035 69.2536 85.9086 68.7366 85.0887 68.7366C84.2282 68.7366 83.5967 69.2979 83.5967 70.2877ZM91.3001 73.8184C89.6603 73.8184 88.6557 72.6513 88.6557 70.9081C88.6557 69.165 89.6751 67.9536 91.2114 67.9536C92.3932 67.9536 93.6489 68.6775 93.6489 70.79V71.1593H89.531C89.5716 72.3743 90.277 73.0354 91.3001 73.0354C91.9833 73.0354 92.4966 72.74 92.7182 72.1491L93.5603 72.3854C93.2944 73.2422 92.4523 73.8184 91.3001 73.8184ZM89.531 70.4059H92.7626C92.7626 69.4456 92.1569 68.7366 91.2114 68.7366C90.2143 68.7366 89.5901 69.5232 89.531 70.4059ZM95.0268 73.7002V68.0275H95.8688V68.8843H95.9279C96.1347 68.3229 96.7256 67.9388 97.4052 67.9388C97.5344 67.9388 97.7634 67.9462 97.8631 67.9536V68.84C97.804 68.8252 97.564 68.7809 97.3313 68.7809C96.504 68.7809 95.8984 69.3422 95.8984 70.1104V73.7002H95.0268ZM101.154 73.8184C99.5143 73.8184 98.5097 72.6513 98.5097 70.9081C98.5097 69.165 99.5291 67.9536 101.065 67.9536C102.247 67.9536 103.503 68.6775 103.503 70.79V71.1593H99.385C99.4256 72.3743 100.131 73.0354 101.154 73.0354C101.837 73.0354 102.351 72.74 102.572 72.1491L103.414 72.3854C103.148 73.2422 102.306 73.8184 101.154 73.8184ZM99.385 70.4059H102.617C102.617 69.4456 102.011 68.7366 101.065 68.7366C100.068 68.7366 99.4441 69.5232 99.385 70.4059ZM110.162 73.8184C108.626 73.8184 107.592 72.6513 107.592 70.8934C107.592 69.1206 108.626 67.9536 110.162 67.9536C111.699 67.9536 112.733 69.1206 112.733 70.8934C112.733 72.6513 111.699 73.8184 110.162 73.8184ZM110.162 73.0354C111.329 73.0354 111.861 72.0309 111.861 70.8934C111.861 69.7559 111.329 68.7366 110.162 68.7366C108.995 68.7366 108.463 69.7559 108.463 70.8934C108.463 72.0309 108.995 73.0354 110.162 73.0354ZM114.115 73.7002V68.0275H114.957V68.8843H115.016C115.223 68.3229 115.814 67.9388 116.494 67.9388C116.623 67.9388 116.852 67.9462 116.952 67.9536V68.84C116.893 68.8252 116.652 68.7809 116.42 68.7809C115.593 68.7809 114.987 69.3422 114.987 70.1104V73.7002H114.115Z" fill="#D3D5DE"/>
<path d="M123.503 73.8184C121.907 73.8184 120.932 72.5922 120.932 70.8934C120.932 69.165 121.952 67.9536 123.488 67.9536C124.684 67.9536 125.586 68.6627 125.733 69.7263H124.862C124.729 69.2093 124.271 68.7366 123.503 68.7366C122.483 68.7366 121.804 69.5786 121.804 70.8638C121.804 72.1786 122.469 73.0354 123.503 73.0354C124.182 73.0354 124.699 72.6661 124.862 72.0456H125.733C125.586 73.0502 124.758 73.8184 123.503 73.8184ZM127.931 70.2877V73.7002H127.059V66.1366H127.931V68.9138H128.005C128.271 68.3266 128.781 67.9536 129.674 67.9536C130.834 67.9536 131.609 68.6368 131.609 70.0956V73.7002H130.738V70.1547C130.738 69.2536 130.243 68.7366 129.423 68.7366C128.563 68.7366 127.931 69.2979 127.931 70.2877ZM135.561 73.8184C134.024 73.8184 132.99 72.6513 132.99 70.8934C132.99 69.1206 134.024 67.9536 135.561 67.9536C137.097 67.9536 138.131 69.1206 138.131 70.8934C138.131 72.6513 137.097 73.8184 135.561 73.8184ZM135.561 73.0354C136.728 73.0354 137.259 72.0309 137.259 70.8934C137.259 69.7559 136.728 68.7366 135.561 68.7366C134.394 68.7366 133.862 69.7559 133.862 70.8934C133.862 72.0309 134.394 73.0354 135.561 73.0354ZM141.818 73.8184C140.282 73.8184 139.248 72.6513 139.248 70.8934C139.248 69.1206 140.282 67.9536 141.818 67.9536C143.354 67.9536 144.388 69.1206 144.388 70.8934C144.388 72.6513 143.354 73.8184 141.818 73.8184ZM141.818 73.0354C142.985 73.0354 143.517 72.0309 143.517 70.8934C143.517 69.7559 142.985 68.7366 141.818 68.7366C140.651 68.7366 140.119 69.7559 140.119 70.8934C140.119 72.0309 140.651 73.0354 141.818 73.0354ZM149.789 69.2979L149.006 69.5195C148.855 69.128 148.541 68.707 147.78 68.707C147.086 68.707 146.569 69.0616 146.569 69.5491C146.569 69.9849 146.872 70.2101 147.544 70.3763L148.386 70.5831C149.398 70.8306 149.893 71.3292 149.893 72.1195C149.893 73.0982 148.995 73.8184 147.677 73.8184C146.517 73.8184 145.723 73.305 145.52 72.3411L146.347 72.1343C146.502 72.7437 146.949 73.0502 147.662 73.0502C148.474 73.0502 148.991 72.6513 148.991 72.1638C148.991 71.7724 148.722 71.4991 148.149 71.3661L147.204 71.1445C146.162 70.9008 145.697 70.3763 145.697 69.5934C145.697 68.6331 146.583 67.9536 147.78 67.9536C148.903 67.9536 149.516 68.4928 149.789 69.2979ZM153.635 73.8184C151.995 73.8184 150.991 72.6513 150.991 70.9081C150.991 69.165 152.01 67.9536 153.546 67.9536C154.728 67.9536 155.984 68.6775 155.984 70.79V71.1593H151.866C151.907 72.3743 152.612 73.0354 153.635 73.0354C154.318 73.0354 154.832 72.74 155.053 72.1491L155.895 72.3854C155.629 73.2422 154.787 73.8184 153.635 73.8184ZM151.866 70.4059H155.097C155.097 69.4456 154.492 68.7366 153.546 68.7366C152.549 68.7366 151.925 69.5232 151.866 70.4059Z" fill="#4D94FF"/>
</svg>
