<svg width="200" height="140" viewBox="0 0 200 140" fill="none" xmlns="http://www.w3.org/2000/svg">
<rect x="0.5" y="0.5" width="199" height="139" rx="11.5" fill="#F6F7F9"/>
<rect x="0.5" y="0.5" width="199" height="139" rx="11.5" stroke="#E8E9EE"/>
<path d="M28.642 41.5455V51H27.5341L22.3821 43.5767H22.2898V51H21.1449V41.5455H22.2528L27.4233 48.9872H27.5156V41.5455H28.642ZM32.9369 51.1662C31.5889 51.1662 30.5179 50.3722 30.5179 48.9872C30.5179 47.3622 31.9536 47.0714 33.2693 46.9006C34.5619 46.7344 35.0974 46.7805 35.0974 46.2543V46.2173C35.0974 45.3079 34.6034 44.777 33.6017 44.777C32.563 44.777 31.9951 45.331 31.7551 45.848L30.721 45.4787C31.275 44.1861 32.4937 43.8168 33.5647 43.8168C34.4696 43.8168 36.1869 44.0753 36.1869 46.3281V51H35.0974V50.0398H35.042C34.8204 50.5014 34.1741 51.1662 32.9369 51.1662ZM33.1031 50.1875C34.3957 50.1875 35.0974 49.3196 35.0974 48.4332V47.4361C34.9127 47.6577 33.6755 47.7869 33.2139 47.8423C32.3644 47.9531 31.6073 48.2116 31.6073 49.0426C31.6073 49.7997 32.2352 50.1875 33.1031 50.1875ZM38.2404 51V43.9091H39.293V45.017H39.3853C39.6808 44.2599 40.364 43.8168 41.2873 43.8168C42.2198 43.8168 42.8385 44.2599 43.1893 45.017H43.2632C43.6279 44.283 44.3711 43.8168 45.3867 43.8168C46.6517 43.8168 47.5473 44.5877 47.5473 46.2543V51H46.4578V46.2543C46.4578 45.2063 45.793 44.7955 45.0174 44.7955C44.0203 44.7955 43.4478 45.4695 43.4478 46.3835V51H42.3399V46.1435C42.3399 45.3356 41.7628 44.7955 40.9365 44.7955C40.087 44.7955 39.3299 45.5295 39.3299 46.5682V51H38.2404ZM52.5773 51.1477C50.5276 51.1477 49.2719 49.6889 49.2719 47.5099C49.2719 45.331 50.546 43.8168 52.4665 43.8168C53.9438 43.8168 55.5134 44.7216 55.5134 47.3622V47.8239H50.366C50.4168 49.3427 51.2985 50.169 52.5773 50.169C53.4313 50.169 54.073 49.7997 54.35 49.0611L55.4026 49.3565C55.0702 50.4276 54.0176 51.1477 52.5773 51.1477ZM50.366 46.8821H54.4054C54.4054 45.6818 53.6483 44.7955 52.4665 44.7955C51.22 44.7955 50.4399 45.7788 50.366 46.8821Z" fill="#6C7393"/>
<rect x="73" y="30" width="107" height="32" rx="8" fill="white"/>
<rect x="73" y="30" width="107" height="32" rx="8" stroke="#3385FF" stroke-width="2"/>
<rect width="1" height="16" transform="translate(85 38)" fill="#21222C"/>
<path d="M20.6278 90.5611V89.5455H27.7188V90.5611H24.7457V99H23.6009V90.5611H20.6278ZM29.2922 101.659C28.9229 101.659 28.6089 101.585 28.4981 101.53L28.7751 100.57C29.5692 100.773 30.0585 100.671 30.4555 99.5909L30.6587 99.0369L28.0365 91.9091H29.2183L31.1757 97.5597H31.2496L33.207 91.9091H34.3888L31.3788 100.034C30.968 101.137 30.2755 101.659 29.2922 101.659ZM35.8918 101.659V91.9091H36.9444V93.0355H37.0736C37.3137 92.6662 37.7384 91.8168 39.1233 91.8168C40.9145 91.8168 42.1518 93.2386 42.1518 95.473C42.1518 97.7259 40.9145 99.1477 39.1418 99.1477C37.7753 99.1477 37.3137 98.2983 37.0736 97.9105H36.9813V101.659H35.8918ZM36.9628 95.4545C36.9628 97.0611 37.683 98.169 38.9941 98.169C40.3606 98.169 41.0623 96.9688 41.0623 95.4545C41.0623 93.9588 40.379 92.7955 38.9941 92.7955C37.6645 92.7955 36.9628 93.8665 36.9628 95.4545ZM46.8517 99.1477C44.802 99.1477 43.5463 97.6889 43.5463 95.5099C43.5463 93.331 44.8204 91.8168 46.7409 91.8168C48.2182 91.8168 49.7878 92.7216 49.7878 95.3622V95.8239H44.6404C44.6912 97.3427 45.5729 98.169 46.8517 98.169C47.7057 98.169 48.3474 97.7997 48.6244 97.0611L49.677 97.3565C49.3446 98.4276 48.292 99.1477 46.8517 99.1477ZM44.6404 94.8821H48.6798C48.6798 93.6818 47.9227 92.7955 46.7409 92.7955C45.4944 92.7955 44.7143 93.7788 44.6404 94.8821Z" fill="#6C7393"/>
<path d="M80 78.5H172C176.142 78.5 179.5 81.8579 179.5 86V102C179.5 106.142 176.142 109.5 172 109.5H80C75.8579 109.5 72.5 106.142 72.5 102V86C72.5 81.8579 75.8579 78.5 80 78.5Z" fill="white"/>
<path d="M80 78.5H172C176.142 78.5 179.5 81.8579 179.5 86V102C179.5 106.142 176.142 109.5 172 109.5H80C75.8579 109.5 72.5 106.142 72.5 102V86C72.5 81.8579 75.8579 78.5 80 78.5Z" stroke="#D3D5DE"/>
<path fill-rule="evenodd" clip-rule="evenodd" d="M161 92.5L160 93.5L164 97.5L168 93.5L167 92.5L164 95.5L161 92.5Z" fill="#8A8FA8"/>
</svg>
