<svg width="200" height="140" viewBox="0 0 200 140" fill="none" xmlns="http://www.w3.org/2000/svg">
<g clip-path="url(#clip0_4060_86315)">
<rect width="200" height="140" rx="12" fill="#F6F7F9"/>
<rect x="12" y="12" width="718.2" height="158.275" rx="10.8" fill="white"/>
<g clip-path="url(#clip1_4060_86315)">
<mask id="path-4-inside-1_4060_86315" fill="white">
<path d="M22.7998 22.7999H719.4V50.6749H22.7998V22.7999Z"/>
</mask>
<mask id="path-6-inside-2_4060_86315" fill="white">
<path d="M28.2002 22.7999H49.8002V50.4749H28.2002V22.7999Z"/>
</mask>
<path d="M49.8002 49.7999H28.2002V51.1499H49.8002V49.7999Z" fill="#D3D5DE" mask="url(#path-6-inside-2_4060_86315)"/>
<path d="M33.6006 34.4999C33.6006 32.5117 35.2124 30.8999 37.2006 30.8999H40.8006C42.7888 30.8999 44.4006 32.5117 44.4006 34.4999V38.0999C44.4006 40.0881 42.7888 41.6999 40.8006 41.6999H37.2006C35.2124 41.6999 33.6006 40.0881 33.6006 38.0999V34.4999Z" fill="#0066FF"/>
<rect x="35.2256" y="35.2249" width="6.75" height="1.35" fill="white"/>
<mask id="path-10-inside-3_4060_86315" fill="white">
<path d="M49.7998 22.7999H134.85V50.6749H49.7998V22.7999Z"/>
</mask>
<path d="M134.85 49.9999H49.7998V51.3499H134.85V49.9999Z" fill="#D3D5DE" mask="url(#path-10-inside-3_4060_86315)"/>
<g clip-path="url(#clip2_4060_86315)">
<path d="M55.624 34.2036V33.5181H58.6653V34.2036H57.5311V39.2144H58.6653V39.8999H55.624V39.2144H56.7583V34.2036H55.624ZM59.9073 39.8999V33.5181H62.0637C63.5626 33.5181 64.2325 34.4093 64.2325 35.5373C64.2325 36.6654 63.5626 37.569 62.0762 37.569H60.6801V39.8999H59.9073ZM60.6801 36.8835H62.0512C63.0764 36.8835 63.4722 36.3039 63.4722 35.5373C63.4722 34.7708 63.0764 34.2036 62.0388 34.2036H60.6801V36.8835ZM69.3419 40.0121C68.432 40.0121 67.7091 39.4761 67.7091 38.5413C67.7091 37.4444 68.6782 37.2481 69.5663 37.1328C70.4388 37.0206 70.8002 37.0518 70.8002 36.6965V36.6716C70.8002 36.0577 70.4668 35.6994 69.7906 35.6994C69.0895 35.6994 68.7062 36.0733 68.5442 36.4223L67.8462 36.173C68.2201 35.3005 69.0428 35.0512 69.7657 35.0512C70.3765 35.0512 71.5357 35.2257 71.5357 36.7464V39.8999H70.8002V39.2517H70.7629C70.6133 39.5634 70.177 40.0121 69.3419 40.0121ZM69.4541 39.3515C70.3266 39.3515 70.8002 38.7656 70.8002 38.1673V37.4943C70.6756 37.6438 69.8405 37.7311 69.5289 37.7685C68.9555 37.8433 68.4445 38.0178 68.4445 38.5787C68.4445 39.0897 68.8683 39.3515 69.4541 39.3515ZM74.7291 39.9996C73.5326 39.9996 72.6974 39.0399 72.6974 37.5192C72.6974 36.011 73.5326 35.0512 74.7416 35.0512C75.6765 35.0512 75.9631 35.6246 76.1252 35.8739H76.1875V33.5181H76.9229V39.8999H76.2124V39.1645H76.1252C75.9631 39.4263 75.6515 39.9996 74.7291 39.9996ZM74.8289 39.339C75.7138 39.339 76.2 38.5911 76.2 37.5067C76.2 36.4348 75.7263 35.7118 74.8289 35.7118C73.894 35.7118 73.4328 36.4971 73.4328 37.5067C73.4328 38.5288 73.9065 39.339 74.8289 39.339ZM80.2231 39.9996C79.0265 39.9996 78.1914 39.0399 78.1914 37.5192C78.1914 36.011 79.0265 35.0512 80.2356 35.0512C81.1704 35.0512 81.4571 35.6246 81.6191 35.8739H81.6815V33.5181H82.4169V39.8999H81.7064V39.1645H81.6191C81.4571 39.4263 81.1455 39.9996 80.2231 39.9996ZM80.3228 39.339C81.2078 39.339 81.6939 38.5911 81.6939 37.5067C81.6939 36.4348 81.2203 35.7118 80.3228 35.7118C79.388 35.7118 78.9268 36.4971 78.9268 37.5067C78.9268 38.5288 79.4005 39.339 80.3228 39.339ZM83.9097 39.8999V35.1135H84.6202V35.8365H84.6701C84.8446 35.3628 85.3432 35.0388 85.9165 35.0388C86.0256 35.0388 86.2188 35.045 86.3029 35.0512V35.7991C86.2531 35.7866 86.0505 35.7492 85.8542 35.7492C85.1562 35.7492 84.6451 36.2229 84.6451 36.871V39.8999H83.9097ZM89.0796 39.9996C87.6961 39.9996 86.8485 39.0149 86.8485 37.5441C86.8485 36.0733 87.7085 35.0512 89.0049 35.0512C90.002 35.0512 91.0615 35.662 91.0615 37.4444V37.756H87.587C87.6213 38.7812 88.2165 39.339 89.0796 39.339C89.6561 39.339 90.0893 39.0897 90.2762 38.5911L90.9867 38.7906C90.7623 39.5135 90.0519 39.9996 89.0796 39.9996ZM87.587 37.1203H90.3136C90.3136 36.3101 89.8026 35.7118 89.0049 35.7118C88.1635 35.7118 87.6369 36.3756 87.587 37.1203ZM95.6144 36.1855L94.9538 36.3725C94.826 36.0421 94.5611 35.6869 93.9192 35.6869C93.3334 35.6869 92.8971 35.9861 92.8971 36.3974C92.8971 36.7651 93.1527 36.9552 93.7198 37.0954L94.4303 37.2699C95.2841 37.4787 95.7017 37.8994 95.7017 38.5662C95.7017 39.392 94.9444 39.9996 93.832 39.9996C92.8535 39.9996 92.1835 39.5665 92.0122 38.7532L92.7102 38.5787C92.8411 39.0928 93.2181 39.3515 93.8195 39.3515C94.5051 39.3515 94.9413 39.0149 94.9413 38.6036C94.9413 38.2733 94.7138 38.0427 94.2308 37.9305L93.4331 37.7435C92.5544 37.5379 92.1617 37.0954 92.1617 36.4348C92.1617 35.6246 92.9096 35.0512 93.9192 35.0512C94.8665 35.0512 95.3838 35.5062 95.6144 36.1855ZM100.243 36.1855L99.5822 36.3725C99.4545 36.0421 99.1896 35.6869 98.5477 35.6869C97.9619 35.6869 97.5256 35.9861 97.5256 36.3974C97.5256 36.7651 97.7811 36.9552 98.3483 37.0954L99.0587 37.2699C99.9126 37.4787 100.33 37.8994 100.33 38.5662C100.33 39.392 99.5729 39.9996 98.4604 39.9996C97.482 39.9996 96.812 39.5665 96.6406 38.7532L97.3386 38.5787C97.4695 39.0928 97.8466 39.3515 98.448 39.3515C99.1335 39.3515 99.5698 39.0149 99.5698 38.6036C99.5698 38.2733 99.3423 38.0427 98.8593 37.9305L98.0616 37.7435C97.1828 37.5379 96.7902 37.0954 96.7902 36.4348C96.7902 35.6246 97.5381 35.0512 98.5477 35.0512C99.495 35.0512 100.012 35.5062 100.243 36.1855Z" fill="#6C7393"/>
</g>
<mask id="path-13-inside-4_4060_86315" fill="white">
<path d="M134.85 22.7999H202.35V50.6749H134.85V22.7999Z"/>
</mask>
<path d="M202.35 49.9999H134.85V51.3499H202.35V49.9999Z" fill="#D3D5DE" mask="url(#path-13-inside-4_4060_86315)"/>
<g clip-path="url(#clip3_4060_86315)">
<path d="M144.513 35.1135C144.438 34.4841 143.852 34.1164 143.079 34.1164C142.232 34.1164 141.671 34.5651 141.671 35.1759C141.671 35.8614 142.431 36.1107 142.905 36.2353L143.553 36.4098C144.214 36.5843 145.348 36.9707 145.348 38.1673C145.348 39.2019 144.513 40.0121 143.042 40.0121C141.671 40.0121 140.823 39.3016 140.749 38.2546H141.546C141.609 38.9775 142.282 39.3141 143.042 39.3141C143.927 39.3141 144.6 38.8529 144.6 38.1549C144.6 37.5192 144.002 37.2824 143.329 37.0954L142.543 36.871C141.546 36.5843 140.923 36.0733 140.923 35.2133C140.923 34.1413 141.883 33.4308 143.104 33.4308C144.338 33.4308 145.226 34.1507 145.261 35.1135H144.513ZM148.644 35.1135V35.7368H147.622V38.5288C147.622 39.152 147.934 39.2517 148.258 39.2517C148.42 39.2517 148.52 39.2268 148.582 39.2144L148.732 39.875C148.632 39.9124 148.457 39.9622 148.183 39.9622C147.56 39.9622 146.887 39.5634 146.887 38.7282V35.7368H146.164V35.1135H146.887V33.9668H147.622V35.1135H148.644ZM151.203 40.0121C150.293 40.0121 149.57 39.4761 149.57 38.5413C149.57 37.4444 150.539 37.2481 151.427 37.1328C152.3 37.0206 152.661 37.0518 152.661 36.6965V36.6716C152.661 36.0577 152.328 35.6994 151.652 35.6994C150.95 35.6994 150.567 36.0733 150.405 36.4223L149.707 36.173C150.081 35.3005 150.904 35.0512 151.627 35.0512C152.237 35.0512 153.397 35.2257 153.397 36.7464V39.8999H152.661V39.2517H152.624C152.474 39.5634 152.038 40.0121 151.203 40.0121ZM151.315 39.3515C152.188 39.3515 152.661 38.7656 152.661 38.1673V37.4943C152.537 37.6438 151.701 37.7311 151.39 37.7685C150.816 37.8433 150.305 38.0178 150.305 38.5787C150.305 39.0897 150.729 39.3515 151.315 39.3515ZM156.864 35.1135V35.7368H155.842V38.5288C155.842 39.152 156.154 39.2517 156.478 39.2517C156.64 39.2517 156.74 39.2268 156.802 39.2144L156.952 39.875C156.852 39.9124 156.677 39.9622 156.403 39.9622C155.78 39.9622 155.107 39.5634 155.107 38.7282V35.7368H154.384V35.1135H155.107V33.9668H155.842V35.1135H156.864ZM161.031 37.943V35.1135H161.766V39.8999H161.031V39.0897H160.981C160.757 39.5758 160.283 39.9622 159.56 39.9622C158.663 39.9622 158.014 39.3764 158.014 38.1549V35.1135H158.75V38.105C158.75 38.803 159.186 39.2517 159.797 39.2517C160.345 39.2517 161.031 38.8404 161.031 37.943ZM166.547 36.1855L165.887 36.3725C165.759 36.0421 165.494 35.6869 164.852 35.6869C164.266 35.6869 163.83 35.9861 163.83 36.3974C163.83 36.7651 164.086 36.9552 164.653 37.0954L165.363 37.2699C166.217 37.4787 166.635 37.8994 166.635 38.5662C166.635 39.392 165.877 39.9996 164.765 39.9996C163.787 39.9996 163.117 39.5665 162.945 38.7532L163.643 38.5787C163.774 39.0928 164.151 39.3515 164.753 39.3515C165.438 39.3515 165.874 39.0149 165.874 38.6036C165.874 38.2733 165.647 38.0427 165.164 37.9305L164.366 37.7435C163.487 37.5379 163.095 37.0954 163.095 36.4348C163.095 35.6246 163.843 35.0512 164.852 35.0512C165.8 35.0512 166.317 35.5062 166.547 36.1855Z" fill="#6C7393"/>
</g>
</g>
<path d="M719.4 49.9999H22.7998V51.3499H719.4V49.9999Z" fill="#D3D5DE" mask="url(#path-4-inside-1_4060_86315)"/>
<g clip-path="url(#clip4_4060_86315)">
<path d="M22.7998 50.6749H719.4V72.4749C719.4 75.4573 716.982 77.8749 714 77.8749H28.1998C25.2175 77.8749 22.7998 75.4573 22.7998 72.4749V50.6749Z" fill="#D6E7FF"/>
<path d="M37.2006 59.1124H40.8006C42.6024 59.1124 44.0631 60.5731 44.0631 62.3749V65.9749C44.0631 67.7767 42.6024 69.2374 40.8006 69.2374H37.2006C35.3988 69.2374 33.9381 67.7767 33.9381 65.9749V62.3749C33.9381 60.5731 35.3988 59.1124 37.2006 59.1124Z" fill="white"/>
<path d="M37.2006 59.1124H40.8006C42.6024 59.1124 44.0631 60.5731 44.0631 62.3749V65.9749C44.0631 67.7767 42.6024 69.2374 40.8006 69.2374H37.2006C35.3988 69.2374 33.9381 67.7767 33.9381 65.9749V62.3749C33.9381 60.5731 35.3988 59.1124 37.2006 59.1124Z" stroke="#D3D5DE" stroke-width="0.675"/>
<mask id="mask0_4060_86315" style="mask-type:alpha" maskUnits="userSpaceOnUse" x="55" y="50" width="75" height="28">
<rect x="55.2002" y="50.6749" width="74.2" height="27" fill="white"/>
</mask>
<g mask="url(#mask0_4060_86315)">
<path d="M58.1044 61.3931V67.7749H57.3316V62.2033H57.2942L55.7362 63.2378V62.4526L57.3316 61.3931H58.1044ZM59.8341 65.7557C59.8466 65.1574 60.0585 64.5466 60.7565 63.512L62.1899 61.3931H63.0375L61.3548 63.8486C61.5044 63.7987 61.6664 63.7613 61.8284 63.7613C62.9876 63.7613 63.8477 64.6339 63.8477 65.818C63.8477 67.0021 63.0001 67.8622 61.8409 67.8622C60.6692 67.8622 59.8217 66.9772 59.8341 65.7557ZM60.5695 65.8055C60.5695 66.6157 61.093 67.1891 61.8409 67.1891C62.5888 67.1891 63.1123 66.6157 63.1123 65.818C63.1123 65.0078 62.5888 64.4469 61.8409 64.4469C61.093 64.4469 60.5695 65.0078 60.5695 65.8055ZM64.9144 67.7749L67.7688 62.1285V62.0786H64.4782V61.3931H68.5665V62.116L65.7246 67.7749H64.9144ZM69.2235 67.8248C68.915 67.8248 68.6626 67.5724 68.6626 67.2639C68.6626 66.9554 68.915 66.703 69.2235 66.703C69.532 66.703 69.7844 66.9554 69.7844 67.2639C69.7844 67.5724 69.532 67.8248 69.2235 67.8248ZM72.6164 61.3931V67.7749H71.8436V62.2033H71.8062L70.2482 63.2378V62.4526L71.8436 61.3931H72.6164ZM76.7393 61.3931V67.7749H75.9665V62.2033H75.9291L74.371 63.2378V62.4526L75.9665 61.3931H76.7393ZM80.6129 67.8622C79.516 67.8622 78.6778 67.1517 78.631 66.1794H79.3789C79.4381 66.7559 79.9585 67.1766 80.6129 67.1766C81.3981 67.1766 81.9715 66.5752 81.9715 65.7557C81.9715 64.9205 81.3763 64.3035 80.563 64.2973C80.1704 64.2942 79.7186 64.4313 79.4537 64.6214L78.7307 64.5341L79.1171 61.3931H82.4327V62.0786H79.7653L79.5409 63.9608H79.5783C79.8401 63.752 80.2576 63.5993 80.6877 63.5993C81.8593 63.5993 82.7194 64.5061 82.7194 65.7432C82.7194 66.9647 81.8282 67.8622 80.6129 67.8622ZM84.3096 67.8248C84.0011 67.8248 83.7487 67.5724 83.7487 67.2639C83.7487 66.9554 84.0011 66.703 84.3096 66.703C84.6181 66.703 84.8705 66.9554 84.8705 67.2639C84.8705 67.5724 84.6181 67.8248 84.3096 67.8248ZM86.2216 67.7749V67.214L88.3281 64.9081C89.0666 64.101 89.4125 63.6647 89.4125 63.0758C89.4125 62.4027 88.8828 61.9789 88.191 61.9789C87.4525 61.9789 86.982 62.4619 86.982 63.188H86.2466C86.2466 62.0662 87.0973 61.3058 88.2159 61.3058C89.3377 61.3058 90.1355 62.0911 90.1355 63.0758C90.1355 63.7831 89.8114 64.3316 88.7145 65.5064L87.2811 67.0395V67.0894H90.2477V67.7749H86.2216ZM93.5728 67.8622C92.4759 67.8622 91.6377 67.1517 91.591 66.1794H92.3388C92.398 66.7559 92.9184 67.1766 93.5728 67.1766C94.3581 67.1766 94.9314 66.5752 94.9314 65.7557C94.9314 64.9205 94.3363 64.3035 93.523 64.2973C93.1303 64.2942 92.6785 64.4313 92.4136 64.6214L91.6907 64.5341L92.0771 61.3931H95.3926V62.0786H92.7252L92.5009 63.9608H92.5383C92.8 63.752 93.2176 63.5993 93.6476 63.5993C94.8193 63.5993 95.6793 64.5061 95.6793 65.7432C95.6793 66.9647 94.7881 67.8622 93.5728 67.8622ZM96.8613 66.1794H97.6466C97.7152 66.8276 98.2916 67.1766 99.0302 67.1766C99.8248 67.1766 100.439 66.7715 100.439 65.98C100.439 65.2914 99.9868 64.6712 98.8058 64.6712H98.2948V64.048L99.8902 62.1285V62.0786H97.173V61.3931H100.95V61.954L99.2421 64.0231V64.0729C100.342 64.1228 101.199 64.9174 101.199 65.98C101.199 67.0707 100.298 67.8622 99.0177 67.8622C97.8803 67.8622 96.9361 67.242 96.8613 66.1794ZM102.866 67.8248C102.558 67.8248 102.305 67.5724 102.305 67.2639C102.305 66.9554 102.558 66.703 102.866 66.703C103.175 66.703 103.427 66.9554 103.427 67.2639C103.427 67.5724 103.175 67.8248 102.866 67.8248ZM106.259 61.3931V67.7749H105.486V62.2033H105.449L103.891 63.2378V62.4526L105.486 61.3931H106.259ZM107.989 65.7557C108.001 65.1574 108.213 64.5466 108.911 63.512L110.345 61.3931H111.192L109.51 63.8486C109.659 63.7987 109.821 63.7613 109.983 63.7613C111.143 63.7613 112.003 64.6339 112.003 65.818C112.003 67.0021 111.155 67.8622 109.996 67.8622C108.824 67.8622 107.977 66.9772 107.989 65.7557ZM108.724 65.8055C108.724 66.6157 109.248 67.1891 109.996 67.1891C110.744 67.1891 111.267 66.6157 111.267 65.818C111.267 65.0078 110.744 64.4469 109.996 64.4469C109.248 64.4469 108.724 65.0078 108.724 65.8055ZM113.121 66.1794H113.907C113.975 66.8276 114.552 67.1766 115.29 67.1766C116.085 67.1766 116.699 66.7715 116.699 65.98C116.699 65.2914 116.247 64.6712 115.066 64.6712H114.555V64.048L116.15 62.1285V62.0786H113.433V61.3931H117.21V61.954L115.502 64.0231V64.0729C116.602 64.1228 117.459 64.9174 117.459 65.98C117.459 67.0707 116.559 67.8622 115.278 67.8622C114.14 67.8622 113.196 67.242 113.121 66.1794Z" fill="#21222C"/>
</g>
<mask id="mask1_4060_86315" style="mask-type:alpha" maskUnits="userSpaceOnUse" x="140" y="50" width="57" height="28">
<rect x="140.25" y="50.6749" width="56.2" height="27" fill="white"/>
</mask>
<g mask="url(#mask1_4060_86315)">
<path d="M140.25 59.575C140.25 57.5868 141.862 55.975 143.85 55.975H183.45C185.438 55.975 187.05 57.5868 187.05 59.575V68.775C187.05 70.7632 185.438 72.375 183.45 72.375H143.85C141.862 72.375 140.25 70.7632 140.25 68.775V59.575Z" fill="#0066FF"/>
<path d="M147.067 67.675H146.045L148.342 61.2932H149.454L151.751 67.675H150.729L150.146 65.986H147.653L147.067 67.675ZM147.933 65.1759H149.865L148.924 62.4524H148.874L147.933 65.1759ZM153.573 64.8331V67.675H152.641V62.8886H153.536V63.6677H153.595C153.816 63.1597 154.287 62.8263 155.006 62.8263C155.985 62.8263 156.636 63.4464 156.636 64.6305V67.675H155.704V64.7427C155.704 64.0478 155.321 63.6334 154.689 63.6334C154.04 63.6334 153.573 64.0696 153.573 64.8331ZM159.323 67.7809C158.413 67.7809 157.705 67.2637 157.705 66.3226C157.705 65.2351 158.634 64.9982 159.541 64.8923C160.401 64.7926 160.75 64.7988 160.75 64.4591V64.4373C160.75 63.8951 160.441 63.5804 159.84 63.5804C159.213 63.5804 158.864 63.9076 158.727 64.2473L157.852 64.0478C158.163 63.1753 158.961 62.8263 159.827 62.8263C160.588 62.8263 161.685 63.1036 161.685 64.4965V67.675H160.775V67.0206H160.737C160.56 67.379 160.114 67.7809 159.323 67.7809ZM159.525 67.0331C160.301 67.0331 160.753 66.5158 160.753 65.9487V65.3317C160.619 65.4657 159.902 65.5467 159.6 65.5872C159.061 65.6589 158.618 65.8365 158.618 66.3351C158.618 66.7962 158.998 67.0331 159.525 67.0331ZM162.969 61.2932H163.901V66.3662C163.901 66.7775 163.985 66.9334 164.284 66.924C164.446 66.9209 164.512 66.8991 164.577 66.8804L164.746 67.6251C164.615 67.6656 164.415 67.7061 164.166 67.7093C163.359 67.7217 162.969 67.3166 162.969 66.5594V61.2932ZM165.993 69.4699C165.713 69.4699 165.47 69.4169 165.357 69.367L165.582 68.6036C166.093 68.7438 166.426 68.6908 166.663 68.0552L166.778 67.7373L165.027 62.8886H166.024L167.236 66.603H167.286L168.498 62.8886H169.499L167.526 68.3138C167.249 69.0679 166.763 69.4699 165.993 69.4699ZM174.005 64.0572L173.16 64.2067C173.051 63.8858 172.783 63.5648 172.204 63.5648C171.674 63.5648 171.275 63.8266 171.278 64.1943C171.275 64.5184 171.503 64.696 172.029 64.8206L172.79 64.9951C173.668 65.1977 174.098 65.6152 174.098 66.2914C174.098 67.1577 173.297 67.7716 172.141 67.7716C171.066 67.7716 170.362 67.2948 170.206 66.4472L171.107 66.3101C171.219 66.7807 171.577 67.0206 172.135 67.0206C172.746 67.0206 173.142 66.7308 173.142 66.36C173.142 66.0608 172.927 65.8552 172.465 65.7523L171.655 65.5747C170.758 65.3753 170.347 64.9235 170.347 64.2441C170.347 63.3966 171.113 62.8263 172.194 62.8263C173.229 62.8263 173.812 63.3124 174.005 64.0572ZM175.167 67.675V62.8886H176.098V67.675H175.167ZM175.637 62.1501C175.313 62.1501 175.048 61.9008 175.048 61.5954C175.048 61.2901 175.313 61.0376 175.637 61.0376C175.958 61.0376 176.226 61.2901 176.226 61.5954C176.226 61.9008 175.958 62.1501 175.637 62.1501ZM180.982 64.0572L180.138 64.2067C180.029 63.8858 179.761 63.5648 179.181 63.5648C178.651 63.5648 178.253 63.8266 178.256 64.1943C178.253 64.5184 178.48 64.696 179.007 64.8206L179.767 64.9951C180.646 65.1977 181.076 65.6152 181.076 66.2914C181.076 67.1577 180.275 67.7716 179.119 67.7716C178.044 67.7716 177.34 67.2948 177.184 66.4472L178.084 66.3101C178.197 66.7807 178.555 67.0206 179.113 67.0206C179.723 67.0206 180.119 66.7308 180.119 66.36C180.119 66.0608 179.904 65.8552 179.443 65.7523L178.633 65.5747C177.735 65.3753 177.324 64.9235 177.324 64.2441C177.324 63.3966 178.091 62.8263 179.172 62.8263C180.206 62.8263 180.789 63.3124 180.982 64.0572Z" fill="white"/>
</g>
<path d="M33.6006 89.5749C33.6006 87.5867 35.2124 85.9749 37.2006 85.9749H40.8006C42.7888 85.9749 44.4006 87.5867 44.4006 89.5749V93.1749C44.4006 95.1631 42.7888 96.7749 40.8006 96.7749H37.2006C35.2124 96.7749 33.6006 95.1631 33.6006 93.1749V89.5749Z" fill="#0066FF"/>
<path d="M35.626 91.7124L36.6385 90.6999L38.326 92.3874L41.701 89.0124L42.7135 90.0249L38.326 94.4124L35.626 91.7124Z" fill="white"/>
<mask id="mask2_4060_86315" style="mask-type:alpha" maskUnits="userSpaceOnUse" x="55" y="77" width="75" height="28">
<rect x="55.2002" y="77.8749" width="74.2" height="27" fill="white"/>
</mask>
<g mask="url(#mask2_4060_86315)">
<path d="M55.7112 92.9557C55.7237 92.3574 55.9356 91.7466 56.6336 90.7121L58.067 88.5931H58.9146L57.2319 91.0486C57.3815 90.9987 57.5435 90.9613 57.7056 90.9613C58.8648 90.9613 59.7248 91.8339 59.7248 93.018C59.7248 94.2021 58.8772 95.0622 57.718 95.0622C56.5464 95.0622 55.6988 94.1772 55.7112 92.9557ZM56.4466 93.0055C56.4466 93.8157 56.9702 94.3891 57.718 94.3891C58.4659 94.3891 58.9894 93.8157 58.9894 93.018C58.9894 92.2078 58.4659 91.6469 57.718 91.6469C56.9702 91.6469 56.4466 92.2078 56.4466 93.0055ZM60.8437 93.3795H61.629C61.6976 94.0276 62.274 94.3766 63.0126 94.3766C63.8072 94.3766 64.4211 93.9715 64.4211 93.18C64.4211 92.4914 63.9692 91.8713 62.7882 91.8713H62.2772V91.248L63.8726 89.3285V89.2786H61.1554V88.5931H64.9321V89.154L63.2245 91.2231V91.273C64.3245 91.3228 65.1814 92.1174 65.1814 93.18C65.1814 94.2707 64.2808 95.0622 63.0001 95.0622C61.8627 95.0622 60.9185 94.4421 60.8437 93.3795ZM66.8488 95.0248C66.5403 95.0248 66.2879 94.7724 66.2879 94.4639C66.2879 94.1554 66.5403 93.903 66.8488 93.903C67.1573 93.903 67.4097 94.1554 67.4097 94.4639C67.4097 94.7724 67.1573 95.0248 66.8488 95.0248ZM70.2417 88.5931V94.9749H69.4689V89.4033H69.4315L67.8734 90.4378V89.6526L69.4689 88.5931H70.2417ZM71.9714 93.6661V93.0305L74.5266 88.5931H75.2869L72.794 92.9307V92.9806H74.9753V90.9863H75.7107V92.9806H76.5832V93.6661H75.7107V94.9749H74.9753V93.6661H71.9714ZM77.6453 90.55C77.6453 89.3659 78.4929 88.5058 79.6521 88.5058C80.8238 88.5058 81.6713 89.3908 81.6589 90.6123C81.6464 91.2106 81.4345 91.8214 80.7365 92.856L79.3031 94.9749H78.4555L80.1382 92.5194C79.9886 92.5693 79.8266 92.6067 79.6646 92.6067C78.5054 92.6067 77.6453 91.7341 77.6453 90.55ZM78.3807 90.55C78.3807 91.3602 78.9042 91.9211 79.6521 91.9211C80.4 91.9211 80.9235 91.3602 80.9235 90.5625C80.9235 89.7523 80.4 89.1789 79.6521 89.1789C78.9042 89.1789 78.3807 89.7523 78.3807 90.55ZM82.5519 95.0248C82.2434 95.0248 81.991 94.7724 81.991 94.4639C81.991 94.1554 82.2434 93.903 82.5519 93.903C82.8604 93.903 83.1128 94.1554 83.1128 94.4639C83.1128 94.7724 82.8604 95.0248 82.5519 95.0248ZM84.4639 94.9749V94.414L86.5704 92.1081C87.3089 91.301 87.6548 90.8647 87.6548 90.2758C87.6548 89.6027 87.1251 89.1789 86.4333 89.1789C85.6948 89.1789 85.2242 89.6619 85.2242 90.388H84.4888C84.4888 89.2662 85.3395 88.5058 86.4582 88.5058C87.58 88.5058 88.3777 89.2911 88.3777 90.2758C88.3777 90.9832 88.0537 91.5316 86.9568 92.7064L85.5234 94.2395V94.2894H88.4899V94.9749H84.4639ZM89.5341 93.6661V93.0305L92.0893 88.5931H92.8496L90.3567 92.9307V92.9806H92.538V90.9863H93.2734V92.9806H94.1459V93.6661H93.2734V94.9749H92.538V93.6661H89.5341ZM97.4017 95.0622C96.1148 95.0622 95.2267 94.3174 95.2329 93.2797C95.2267 92.4727 95.7658 91.7871 96.4669 91.6594V91.622C95.8561 91.4662 95.4635 90.8803 95.4697 90.201C95.4635 89.2288 96.2799 88.5058 97.4017 88.5058C98.5111 88.5058 99.3275 89.2288 99.3337 90.201C99.3275 90.8803 98.9349 91.4662 98.3366 91.622V91.6594C99.0252 91.7871 99.5643 92.4727 99.5706 93.2797C99.5643 94.3174 98.6762 95.0622 97.4017 95.0622ZM97.4017 94.3766C98.2649 94.3766 98.804 93.9279 98.8102 93.2424C98.804 92.5225 98.2088 92.0084 97.4017 92.0084C96.5822 92.0084 95.987 92.5225 95.9933 93.2424C95.987 93.9279 96.5261 94.3766 97.4017 94.3766ZM97.4017 91.3477C98.0873 91.3477 98.5796 90.9115 98.5859 90.2509C98.5796 89.6027 98.106 89.1789 97.4017 89.1789C96.685 89.1789 96.2114 89.6027 96.2176 90.2509C96.2114 90.9115 96.7037 91.3477 97.4017 91.3477ZM101.16 95.0248C100.852 95.0248 100.599 94.7724 100.599 94.4639C100.599 94.1554 100.852 93.903 101.16 93.903C101.469 93.903 101.721 94.1554 101.721 94.4639C101.721 94.7724 101.469 95.0248 101.16 95.0248ZM104.553 88.5931V94.9749H103.78V89.4033H103.743L102.185 90.4378V89.6526L103.78 88.5931H104.553ZM106.283 93.6661V93.0305L108.838 88.5931H109.598L107.105 92.9307V92.9806H109.287V90.9863H110.022V92.9806H110.895V93.6661H110.022V94.9749H109.287V93.6661H106.283ZM112.006 93.3795H112.792C112.86 94.0276 113.437 94.3766 114.175 94.3766C114.97 94.3766 115.584 93.9715 115.584 93.18C115.584 92.4914 115.132 91.8713 113.951 91.8713H113.44V91.248L115.035 89.3285V89.2786H112.318V88.5931H116.095V89.154L114.387 91.2231V91.273C115.487 91.3228 116.344 92.1174 116.344 93.18C116.344 94.2707 115.444 95.0622 114.163 95.0622C113.025 95.0622 112.081 94.4421 112.006 93.3795Z" fill="#21222C"/>
</g>
<mask id="mask3_4060_86315" style="mask-type:alpha" maskUnits="userSpaceOnUse" x="140" y="77" width="57" height="28">
<rect x="140.25" y="77.8749" width="56.2" height="27" fill="white"/>
</mask>
<g mask="url(#mask3_4060_86315)">
<path d="M140.25 86.775C140.25 84.7868 141.862 83.175 143.85 83.175H189.45C191.438 83.175 193.05 84.7868 193.05 86.775V95.975C193.05 97.9632 191.438 99.575 189.45 99.575H143.85C141.862 99.575 140.25 97.9632 140.25 95.975V86.775Z" fill="#FFA100"/>
<path d="M146.572 94.875V88.4932H148.846C150.326 88.4932 151.056 89.319 151.056 90.4937C151.056 91.3507 150.666 92.0019 149.884 92.2917L151.299 94.875H150.202L148.906 92.46C148.884 92.46 148.865 92.46 148.843 92.46H147.534V94.875H146.572ZM147.534 91.6311H148.756C149.694 91.6311 150.087 91.2136 150.087 90.4937C150.087 89.7708 149.694 89.319 148.744 89.319H147.534V91.6311ZM154.199 94.9716C152.788 94.9716 151.921 93.9994 151.921 92.513C151.921 91.0422 152.8 90.0263 154.134 90.0263C155.218 90.0263 156.253 90.7025 156.253 92.432V92.7623H152.85C152.875 93.6846 153.411 94.2019 154.209 94.2019C154.738 94.2019 155.143 93.9713 155.312 93.5195L156.194 93.6784C155.982 94.4574 155.243 94.9716 154.199 94.9716ZM152.853 92.0643H155.34C155.337 91.332 154.863 90.796 154.14 90.796C153.383 90.796 152.891 91.3849 152.853 92.0643ZM160.917 91.2572L160.073 91.4068C159.964 91.0858 159.696 90.7648 159.116 90.7648C158.586 90.7648 158.187 91.0266 158.191 91.3943C158.187 91.7184 158.415 91.896 158.942 92.0206L159.702 92.1951C160.581 92.3977 161.011 92.8152 161.011 93.4914C161.011 94.3577 160.21 94.9716 159.054 94.9716C157.979 94.9716 157.274 94.4948 157.119 93.6472L158.019 93.5101C158.131 93.9807 158.49 94.2206 159.047 94.2206C159.658 94.2206 160.054 93.9308 160.054 93.56C160.054 93.2608 159.839 93.0552 159.378 92.9524L158.568 92.7747C157.67 92.5753 157.259 92.1235 157.259 91.4441C157.259 90.5966 158.025 90.0263 159.107 90.0263C160.141 90.0263 160.724 90.5124 160.917 91.2572ZM162.079 96.6699V90.0886H162.989V90.8646H163.067C163.232 90.5685 163.553 90.0263 164.441 90.0263C165.597 90.0263 166.451 90.9393 166.451 92.4912C166.451 94.0399 165.609 94.9685 164.45 94.9685C163.578 94.9685 163.235 94.4356 163.067 94.1302H163.011V96.6699H162.079ZM162.992 92.4818C162.992 93.4883 163.441 94.1739 164.242 94.1739C165.074 94.1739 165.51 93.4416 165.51 92.4818C165.51 91.5314 165.086 90.8178 164.242 90.8178C163.428 90.8178 162.992 91.4815 162.992 92.4818ZM169.555 94.9716C168.205 94.9716 167.324 93.9838 167.324 92.5036C167.324 91.0141 168.205 90.0263 169.555 90.0263C170.904 90.0263 171.786 91.0141 171.786 92.5036C171.786 93.9838 170.904 94.9716 169.555 94.9716ZM169.558 94.1895C170.433 94.1895 170.845 93.4198 170.845 92.5005C170.845 91.5844 170.433 90.8053 169.558 90.8053C168.676 90.8053 168.265 91.5844 168.265 92.5005C168.265 93.4198 168.676 94.1895 169.558 94.1895ZM173.801 92.0331V94.875H172.87V90.0886H173.764V90.8677H173.823C174.045 90.3597 174.515 90.0263 175.235 90.0263C176.213 90.0263 176.865 90.6464 176.865 91.8305V94.875H175.933V91.9427C175.933 91.2478 175.55 90.8334 174.917 90.8334C174.269 90.8334 173.801 91.2696 173.801 92.0331ZM181.745 91.2572L180.9 91.4068C180.791 91.0858 180.523 90.7648 179.944 90.7648C179.414 90.7648 179.015 91.0266 179.018 91.3943C179.015 91.7184 179.242 91.896 179.769 92.0206L180.529 92.1951C181.408 92.3977 181.838 92.8152 181.838 93.4914C181.838 94.3577 181.037 94.9716 179.881 94.9716C178.806 94.9716 178.102 94.4948 177.946 93.6472L178.847 93.5101C178.959 93.9807 179.317 94.2206 179.875 94.2206C180.486 94.2206 180.882 93.9308 180.882 93.56C180.882 93.2608 180.667 93.0552 180.205 92.9524L179.395 92.7747C178.498 92.5753 178.086 92.1235 178.086 91.4441C178.086 90.5966 178.853 90.0263 179.934 90.0263C180.969 90.0263 181.552 90.5124 181.745 91.2572ZM184.969 94.9716C183.558 94.9716 182.692 93.9994 182.692 92.513C182.692 91.0422 183.57 90.0263 184.904 90.0263C185.988 90.0263 187.023 90.7025 187.023 92.432V92.7623H183.62C183.645 93.6846 184.181 94.2019 184.979 94.2019C185.508 94.2019 185.914 93.9713 186.082 93.5195L186.964 93.6784C186.752 94.4574 186.013 94.9716 184.969 94.9716ZM183.623 92.0643H186.11C186.107 91.332 185.633 90.796 184.91 90.796C184.153 90.796 183.661 91.3849 183.623 92.0643Z" fill="white"/>
</g>
<path d="M33.6006 116.775C33.6006 114.787 35.2124 113.175 37.2006 113.175H40.8006C42.7888 113.175 44.4006 114.787 44.4006 116.775V120.375C44.4006 122.363 42.7888 123.975 40.8006 123.975H37.2006C35.2124 123.975 33.6006 122.363 33.6006 120.375V116.775Z" fill="#0066FF"/>
<path d="M35.626 118.912L36.6385 117.9L38.326 119.587L41.701 116.212L42.7135 117.225L38.326 121.612L35.626 118.912Z" fill="white"/>
<mask id="mask4_4060_86315" style="mask-type:alpha" maskUnits="userSpaceOnUse" x="55" y="105" width="75" height="28">
<rect x="55.2002" y="105.075" width="74.2" height="27" fill="white"/>
</mask>
<g mask="url(#mask4_4060_86315)">
<path d="M57.905 122.262C56.618 122.262 55.7299 121.517 55.7362 120.48C55.7299 119.673 56.269 118.987 56.9702 118.859V118.822C56.3594 118.666 55.9668 118.08 55.973 117.401C55.9668 116.429 56.7832 115.706 57.905 115.706C59.0143 115.706 59.8308 116.429 59.837 117.401C59.8308 118.08 59.4381 118.666 58.8398 118.822V118.859C59.5285 118.987 60.0676 119.673 60.0738 120.48C60.0676 121.517 59.1795 122.262 57.905 122.262ZM57.905 121.577C58.7682 121.577 59.3072 121.128 59.3135 120.442C59.3072 119.723 58.7121 119.208 57.905 119.208C57.0854 119.208 56.4903 119.723 56.4965 120.442C56.4903 121.128 57.0294 121.577 57.905 121.577ZM57.905 118.548C58.5905 118.548 59.0829 118.112 59.0891 117.451C59.0829 116.803 58.6092 116.379 57.905 116.379C57.1883 116.379 56.7146 116.803 56.7209 117.451C56.7146 118.112 57.207 118.548 57.905 118.548ZM61.2122 120.579H61.9975C62.066 121.228 62.6425 121.577 63.381 121.577C64.1757 121.577 64.7895 121.172 64.7895 120.38C64.7895 119.691 64.3377 119.071 63.1567 119.071H62.6456V118.448L64.2411 116.529V116.479H61.5238V115.793H65.3006V116.354L63.5929 118.423V118.473C64.6929 118.523 65.5499 119.317 65.5499 120.38C65.5499 121.471 64.6493 122.262 63.3686 122.262C62.2312 122.262 61.287 121.642 61.2122 120.579ZM67.2172 122.225C66.9087 122.225 66.6563 121.972 66.6563 121.664C66.6563 121.355 66.9087 121.103 67.2172 121.103C67.5257 121.103 67.7781 121.355 67.7781 121.664C67.7781 121.972 67.5257 122.225 67.2172 122.225ZM70.6102 115.793V122.175H69.8374V116.603H69.8L68.2419 117.638V116.853L69.8374 115.793H70.6102ZM72.6889 122.175L75.5432 116.529V116.479H72.2526V115.793H76.341V116.516L73.4991 122.175H72.6889ZM77.3968 117.75C77.3968 116.566 78.2444 115.706 79.4036 115.706C80.5752 115.706 81.4228 116.591 81.4104 117.812C81.3979 118.411 81.186 119.021 80.488 120.056L79.0546 122.175H78.207L79.8897 119.719C79.7401 119.769 79.5781 119.807 79.416 119.807C78.2569 119.807 77.3968 118.934 77.3968 117.75ZM78.1322 117.75C78.1322 118.56 78.6557 119.121 79.4036 119.121C80.1515 119.121 80.675 118.56 80.675 117.762C80.675 116.952 80.1515 116.379 79.4036 116.379C78.6557 116.379 78.1322 116.952 78.1322 117.75ZM82.3034 122.225C81.9949 122.225 81.7425 121.972 81.7425 121.664C81.7425 121.355 81.9949 121.103 82.3034 121.103C82.6119 121.103 82.8643 121.355 82.8643 121.664C82.8643 121.972 82.6119 122.225 82.3034 122.225ZM84.2863 122.175L87.1406 116.529V116.479H83.85V115.793H87.9384V116.516L85.0965 122.175H84.2863ZM91.0882 122.262C89.6797 122.262 88.8696 121.069 88.8696 118.984C88.8696 116.915 89.6922 115.706 91.0882 115.706C92.4843 115.706 93.3069 116.915 93.3069 118.984C93.3069 121.069 92.4967 122.262 91.0882 122.262ZM91.0882 121.577C92.0168 121.577 92.559 120.645 92.559 118.984C92.559 117.326 92.0106 116.379 91.0882 116.379C90.1659 116.379 89.6174 117.326 89.6174 118.984C89.6174 120.645 90.1596 121.577 91.0882 121.577ZM94.8605 122.225C94.552 122.225 94.2996 121.972 94.2996 121.664C94.2996 121.355 94.552 121.103 94.8605 121.103C95.169 121.103 95.4214 121.355 95.4214 121.664C95.4214 121.972 95.169 122.225 94.8605 122.225ZM98.2535 115.793V122.175H97.4807V116.603H97.4433L95.8852 117.638V116.853L97.4807 115.793H98.2535ZM102.376 115.793V122.175H101.604V116.603H101.566L100.008 117.638V116.853L101.604 115.793H102.376Z" fill="#21222C"/>
</g>
<mask id="mask5_4060_86315" style="mask-type:alpha" maskUnits="userSpaceOnUse" x="140" y="105" width="57" height="28">
<rect x="140.25" y="105.075" width="56.2" height="27" fill="white"/>
</mask>
<g mask="url(#mask5_4060_86315)">
<path d="M140.25 113.975C140.25 111.987 141.862 110.375 143.85 110.375H167.45C169.438 110.375 171.05 111.987 171.05 113.975V123.175C171.05 125.163 169.438 126.775 167.45 126.775H143.85C141.862 126.775 140.25 125.163 140.25 123.175V113.975Z" fill="#E8E9EE"/>
<path d="M151.989 115.693V122.075H151.104L147.861 117.395H147.801V122.075H146.839V115.693H147.73L150.977 120.38H151.036V115.693H151.989ZM155.426 122.172C154.014 122.172 153.148 121.199 153.148 119.713C153.148 118.242 154.027 117.226 155.361 117.226C156.445 117.226 157.48 117.903 157.48 119.632V119.962H154.077C154.102 120.885 154.638 121.402 155.435 121.402C155.965 121.402 156.37 121.171 156.538 120.719L157.42 120.878C157.208 121.657 156.47 122.172 155.426 122.172ZM154.08 119.264H156.567C156.563 118.532 156.09 117.996 155.367 117.996C154.61 117.996 154.117 118.585 154.08 119.264ZM159.586 122.075L158.178 117.289H159.141L160.079 120.804H160.125L161.066 117.289H162.029L162.964 120.788H163.011L163.943 117.289H164.906L163.5 122.075H162.55L161.578 118.619H161.506L160.534 122.075H159.586Z" fill="#21222C"/>
</g>
<mask id="mask6_4060_86315" style="mask-type:alpha" maskUnits="userSpaceOnUse" x="140" y="132" width="57" height="28">
<rect x="140.25" y="132.275" width="56.2" height="27" fill="white"/>
</mask>
<g mask="url(#mask6_4060_86315)">
<path d="M140.25 141.175C140.25 139.187 141.862 137.575 143.85 137.575H170.45C172.438 137.575 174.05 139.187 174.05 141.175V150.375C174.05 152.363 172.438 153.975 170.45 153.975H143.85C141.862 153.975 140.25 152.363 140.25 150.375V141.175Z" fill="#51BC2A"/>
</g>
</g>
</g>
<rect x="0.5" y="0.5" width="199" height="139" rx="11.5" stroke="#E8E9EE"/>
<defs>
<clipPath id="clip0_4060_86315">
<rect width="200" height="140" rx="12" fill="white"/>
</clipPath>
<clipPath id="clip1_4060_86315">
<path d="M22.7998 22.7999H719.4V50.6749H22.7998V22.7999Z" fill="white"/>
</clipPath>
<clipPath id="clip2_4060_86315">
<rect width="74.25" height="11" fill="white" transform="translate(55.2002 30.8999)"/>
</clipPath>
<clipPath id="clip3_4060_86315">
<rect width="56.7" height="11" fill="white" transform="translate(140.25 30.8999)"/>
</clipPath>
<clipPath id="clip4_4060_86315">
<rect width="696.6" height="108.8" fill="white" transform="translate(22.7998 50.6749)"/>
</clipPath>
</defs>
</svg>
