<svg width="200" height="140" viewBox="0 0 200 140" fill="none" xmlns="http://www.w3.org/2000/svg">
<g clip-path="url(#clip0_4060_86471)">
<rect width="200" height="140" rx="12" fill="#F6F7F9"/>
<g clip-path="url(#clip1_4060_86471)">
<rect x="0.319489" y="0.319489" width="24.9201" height="24.9201" stroke="#D3D5DF" stroke-width="0.638978"/>
<rect x="25.2394" y="0.319489" width="24.9201" height="24.9201" stroke="#D3D5DF" stroke-width="0.638978"/>
<rect x="50.1593" y="0.319489" width="24.9201" height="24.9201" stroke="#D3D5DF" stroke-width="0.638978"/>
<rect x="75.0802" y="0.319489" width="24.9201" height="24.9201" stroke="#D3D5DF" stroke-width="0.638978"/>
<rect x="100" y="0.319489" width="24.9201" height="24.9201" stroke="#D3D5DF" stroke-width="0.638978"/>
<rect x="124.92" y="0.319489" width="24.9201" height="24.9201" stroke="#D3D5DF" stroke-width="0.638978"/>
<rect x="149.84" y="0.319489" width="24.9201" height="24.9201" stroke="#D3D5DF" stroke-width="0.638978"/>
<rect x="174.76" y="0.319489" width="24.9201" height="24.9201" stroke="#D3D5DF" stroke-width="0.638978"/>
<rect x="0.319489" y="25.2396" width="24.9201" height="24.9201" stroke="#D3D5DF" stroke-width="0.638978"/>
<rect x="25.2394" y="25.2396" width="24.9201" height="24.9201" stroke="#D3D5DF" stroke-width="0.638978"/>
<rect x="50.1593" y="25.2396" width="24.9201" height="24.9201" stroke="#D3D5DF" stroke-width="0.638978"/>
<rect x="75.0802" y="25.2396" width="24.9201" height="24.9201" stroke="#D3D5DF" stroke-width="0.638978"/>
<rect x="100" y="25.2396" width="24.9201" height="24.9201" stroke="#D3D5DF" stroke-width="0.638978"/>
<rect x="124.92" y="25.2396" width="24.9201" height="24.9201" stroke="#D3D5DF" stroke-width="0.638978"/>
<rect x="149.84" y="25.2396" width="24.9201" height="24.9201" stroke="#D3D5DF" stroke-width="0.638978"/>
<rect x="174.76" y="25.2396" width="24.9201" height="24.9201" stroke="#D3D5DF" stroke-width="0.638978"/>
<rect x="0.319489" y="50.1598" width="24.9201" height="24.9201" stroke="#D3D5DF" stroke-width="0.638978"/>
<rect x="25.2394" y="50.1598" width="24.9201" height="24.9201" stroke="#D3D5DF" stroke-width="0.638978"/>
<rect x="50.1593" y="50.1598" width="24.9201" height="24.9201" stroke="#D3D5DF" stroke-width="0.638978"/>
<rect x="75.0802" y="50.1598" width="24.9201" height="24.9201" stroke="#D3D5DF" stroke-width="0.638978"/>
<rect x="100" y="50.1598" width="24.9201" height="24.9201" stroke="#D3D5DF" stroke-width="0.638978"/>
<rect x="124.92" y="50.1598" width="24.9201" height="24.9201" stroke="#D3D5DF" stroke-width="0.638978"/>
<rect x="149.84" y="50.1598" width="24.9201" height="24.9201" stroke="#D3D5DF" stroke-width="0.638978"/>
<rect x="174.76" y="50.1598" width="24.9201" height="24.9201" stroke="#D3D5DF" stroke-width="0.638978"/>
<rect x="0.319489" y="75.0799" width="24.9201" height="24.9201" stroke="#D3D5DF" stroke-width="0.638978"/>
<rect x="25.2394" y="75.0799" width="24.9201" height="24.9201" stroke="#D3D5DF" stroke-width="0.638978"/>
<rect x="50.1593" y="75.0799" width="24.9201" height="24.9201" stroke="#D3D5DF" stroke-width="0.638978"/>
<rect x="75.0802" y="75.0799" width="24.9201" height="24.9201" stroke="#D3D5DF" stroke-width="0.638978"/>
<rect x="100" y="75.0799" width="24.9201" height="24.9201" stroke="#D3D5DF" stroke-width="0.638978"/>
<rect x="124.92" y="75.0799" width="24.9201" height="24.9201" stroke="#D3D5DF" stroke-width="0.638978"/>
<rect x="149.84" y="75.0799" width="24.9201" height="24.9201" stroke="#D3D5DF" stroke-width="0.638978"/>
<rect x="174.76" y="75.0799" width="24.9201" height="24.9201" stroke="#D3D5DF" stroke-width="0.638978"/>
<rect x="0.319489" y="100" width="24.9201" height="24.9201" stroke="#D3D5DF" stroke-width="0.638978"/>
<rect x="25.2394" y="100" width="24.9201" height="24.9201" stroke="#D3D5DF" stroke-width="0.638978"/>
<rect x="50.1593" y="100" width="24.9201" height="24.9201" stroke="#D3D5DF" stroke-width="0.638978"/>
<rect x="75.0802" y="100" width="24.9201" height="24.9201" stroke="#D3D5DF" stroke-width="0.638978"/>
<rect x="100" y="100" width="24.9201" height="24.9201" stroke="#D3D5DF" stroke-width="0.638978"/>
<rect x="124.92" y="100" width="24.9201" height="24.9201" stroke="#D3D5DF" stroke-width="0.638978"/>
<rect x="149.84" y="100" width="24.9201" height="24.9201" stroke="#D3D5DF" stroke-width="0.638978"/>
<rect x="174.76" y="100" width="24.9201" height="24.9201" stroke="#D3D5DF" stroke-width="0.638978"/>
<rect x="0.319489" y="124.92" width="24.9201" height="24.9201" stroke="#D3D5DF" stroke-width="0.638978"/>
<rect x="25.2394" y="124.92" width="24.9201" height="24.9201" stroke="#D3D5DF" stroke-width="0.638978"/>
<rect x="50.1593" y="124.92" width="24.9201" height="24.9201" stroke="#D3D5DF" stroke-width="0.638978"/>
<rect x="75.0802" y="124.92" width="24.9201" height="24.9201" stroke="#D3D5DF" stroke-width="0.638978"/>
<rect x="100" y="124.92" width="24.9201" height="24.9201" stroke="#D3D5DF" stroke-width="0.638978"/>
<rect x="124.92" y="124.92" width="24.9201" height="24.9201" stroke="#D3D5DF" stroke-width="0.638978"/>
<rect x="149.84" y="124.92" width="24.9201" height="24.9201" stroke="#D3D5DF" stroke-width="0.638978"/>
<rect x="174.76" y="124.92" width="24.9201" height="24.9201" stroke="#D3D5DF" stroke-width="0.638978"/>
<mask id="mask0_4060_86471" style="mask-type:alpha" maskUnits="userSpaceOnUse" x="0" y="0" width="200" height="140">
<rect x="200" y="140" width="200" height="140" transform="rotate(-180 200 140)" fill="url(#paint0_radial_4060_86471)"/>
</mask>
<g mask="url(#mask0_4060_86471)">
<rect width="200" height="140" fill="#F6F7F9"/>
</g>
</g>
<path d="M52 86C60.8366 86 68 78.8366 68 70C68 61.1634 60.8366 54 52 54C43.1634 54 36 61.1634 36 70C36 78.8366 43.1634 86 52 86ZM61.7086 65.72C57.135 70.2936 54.5708 72.8664 49.9972 77.44C49.841 77.5962 49.5877 77.5962 49.4315 77.44L42.2915 70.3C42.1353 70.1438 42.1353 69.8762 42.2915 69.72L43.4229 68.6C43.5791 68.4438 43.8323 68.4438 43.9885 68.6L49.7143 74.32L60.0115 64.02C60.1677 63.8638 60.421 63.8638 60.5772 64.02L61.7086 65.16C61.8648 65.3162 61.8648 65.5638 61.7086 65.72Z" fill="#0066FF"/>
<path d="M108.783 56.7026C107.846 55.7658 106.327 55.7658 105.391 56.7026L103.677 58.4159L111.585 66.3232L113.298 64.6099C114.235 63.6731 114.235 62.1544 113.298 61.2177L108.783 56.7026Z" fill="#6C7393"/>
<path d="M109.889 68.0194L101.981 60.112L89.2722 72.8211L97.1795 80.7285L109.889 68.0194Z" fill="#6C7393"/>
<path d="M86.6008 83.8736C86.3181 83.9332 86.0675 83.6825 86.127 83.3998L87.9238 74.865L95.1356 82.0768L86.6008 83.8736Z" fill="#6C7393"/>
<path d="M142 58.8C142 57.2536 143.254 56 144.8 56H151.2C152.746 56 154 57.2536 154 58.8L160.6 58.8C160.821 58.8 161 58.9791 161 59.2V61.6C161 61.821 160.821 62 160.6 62H135.4C135.179 62 135 61.821 135 61.6V59.2C135 58.9791 135.179 58.8 135.4 58.8L142 58.8Z" fill="#A7ABBE"/>
<path d="M159 64.3999H137V81.1999C137 82.7463 138.254 83.9999 139.8 83.9999H156.2C157.746 83.9999 159 82.7463 159 81.1999V64.3999ZM145.2 68.3999V79.5999C145.2 79.8208 145.021 79.9999 144.8 79.9999H143.2C142.979 79.9999 142.8 79.8208 142.8 79.5999V68.3999C142.8 68.179 142.979 67.9999 143.2 67.9999H144.8C145.021 67.9999 145.2 68.179 145.2 68.3999ZM150.8 68.3999C150.8 68.179 150.979 67.9999 151.2 67.9999H152.8C153.021 67.9999 153.2 68.179 153.2 68.3999V79.5999C153.2 79.8208 153.021 79.9999 152.8 79.9999H151.2C150.979 79.9999 150.8 79.8208 150.8 79.5999V68.3999Z" fill="#A7ABBE"/>
</g>
<rect x="0.5" y="0.5" width="199" height="139" rx="11.5" stroke="#E8E9EE"/>
<defs>
<radialGradient id="paint0_radial_4060_86471" cx="0" cy="0" r="1" gradientUnits="userSpaceOnUse" gradientTransform="translate(300 204.5) rotate(90) scale(109.5 122.053)">
<stop stop-color="white" stop-opacity="0"/>
<stop offset="1" stop-color="white"/>
</radialGradient>
<clipPath id="clip0_4060_86471">
<rect width="200" height="140" rx="12" fill="white"/>
</clipPath>
<clipPath id="clip1_4060_86471">
<rect width="200" height="150.16" fill="white"/>
</clipPath>
</defs>
</svg>
