<svg width="200" height="140" viewBox="0 0 200 140" fill="none" xmlns="http://www.w3.org/2000/svg">
<rect x="0.5" y="0.5" width="199" height="139" rx="11.5" fill="#F6F7F9"/>
<rect x="0.5" y="0.5" width="199" height="139" rx="11.5" stroke="#E8E9EE"/>
<rect x="20" y="34" width="160" height="32" rx="8" fill="white"/>
<rect x="20" y="34" width="160" height="32" rx="8" stroke="#3385FF" stroke-width="2"/>
<rect width="1" height="16" transform="translate(32 42)" fill="#21222C"/>
<rect x="20.5" y="74.5" width="69" height="31" rx="7.5" fill="white"/>
<rect x="20.5" y="74.5" width="69" height="31" rx="7.5" stroke="#D3D5DE"/>
<path d="M36.3026 85.5455V95H35.1577V86.7457H35.1023L32.794 88.2784V87.1151L35.1577 85.5455H36.3026ZM42.0412 95.1293C40.4162 95.1293 39.1744 94.0767 39.1051 92.6364H40.2131C40.3008 93.4904 41.0717 94.1136 42.0412 94.1136C43.2046 94.1136 44.054 93.2227 44.054 92.0085C44.054 90.7713 43.1722 89.8572 41.9673 89.848C41.3857 89.8434 40.7163 90.0465 40.3239 90.3281L39.2529 90.1989L39.8253 85.5455H44.7372V86.5611H40.7855L40.4531 89.3494H40.5085C40.8963 89.0401 41.5149 88.8139 42.152 88.8139C43.8878 88.8139 45.1619 90.1573 45.1619 91.9901C45.1619 93.7997 43.8416 95.1293 42.0412 95.1293ZM50.1446 95.1293C48.058 95.1293 46.8577 93.3612 46.8577 90.2727C46.8577 87.2074 48.0765 85.4162 50.1446 85.4162C52.2128 85.4162 53.4316 87.2074 53.4316 90.2727C53.4316 93.3612 52.2313 95.1293 50.1446 95.1293ZM50.1446 94.1136C51.5204 94.1136 52.3236 92.7333 52.3236 90.2727C52.3236 87.8168 51.5111 86.4134 50.1446 86.4134C48.7782 86.4134 47.9657 87.8168 47.9657 90.2727C47.9657 92.7333 48.7689 94.1136 50.1446 94.1136Z" fill="#21222C"/>
<path fill-rule="evenodd" clip-rule="evenodd" d="M69 85.5L68 84.5L74 78.5L80 84.5L79 85.5L74 80.5L69 85.5Z" fill="#8A8FA8"/>
<path fill-rule="evenodd" clip-rule="evenodd" d="M69 94.5L68 95.5L74 101.5L80 95.5L79 94.5L74 99.5L69 94.5Z" fill="#8A8FA8"/>
<rect x="98.5" y="74.5" width="81" height="31" rx="7.5" fill="white"/>
<rect x="98.5" y="74.5" width="81" height="31" rx="7.5" stroke="#D3D5DE"/>
<path d="M113.656 93.2642C112.534 93.2642 111.625 92.3548 111.625 91.233C111.625 90.1112 112.534 89.2017 113.656 89.2017C114.778 89.2017 115.688 90.1112 115.688 91.233C115.688 92.3548 114.778 93.2642 113.656 93.2642ZM121.034 93.2642C119.912 93.2642 119.003 92.3548 119.003 91.233C119.003 90.1112 119.912 89.2017 121.034 89.2017C122.156 89.2017 123.065 90.1112 123.065 91.233C123.065 92.3548 122.156 93.2642 121.034 93.2642ZM128.411 93.2642C127.289 93.2642 126.38 92.3548 126.38 91.233C126.38 90.1112 127.289 89.2017 128.411 89.2017C129.533 89.2017 130.443 90.1112 130.443 91.233C130.443 92.3548 129.533 93.2642 128.411 93.2642ZM135.789 93.2642C134.667 93.2642 133.757 92.3548 133.757 91.233C133.757 90.1112 134.667 89.2017 135.789 89.2017C136.911 89.2017 137.82 90.1112 137.82 91.233C137.82 92.3548 136.911 93.2642 135.789 93.2642Z" fill="#21222C"/>
<path d="M164 92.2716C165.258 92.2716 166.277 91.2546 166.277 90C166.277 88.7454 165.258 87.7284 164 87.7284C162.742 87.7284 161.723 88.7454 161.723 90C161.723 91.2546 162.742 92.2716 164 92.2716Z" fill="#8A8FA8"/>
<path d="M156.066 90.149C155.978 90.069 155.978 89.9311 156.066 89.851L159.922 86.3334C162.236 84.2222 165.764 84.2222 168.078 86.3334L171.934 89.851C172.022 89.9311 172.022 90.069 171.934 90.149L168.078 93.6666C165.764 95.7778 162.236 95.7778 159.922 93.6666L156.066 90.149ZM167.796 90C167.796 87.909 166.096 86.214 164 86.214C161.904 86.214 160.204 87.909 160.204 90C160.204 92.091 161.904 93.7861 164 93.7861C166.096 93.7861 167.796 92.091 167.796 90Z" fill="#8A8FA8"/>
</svg>
