<svg width="200" height="140" viewBox="0 0 200 140" fill="none" xmlns="http://www.w3.org/2000/svg">
<g clip-path="url(#clip0_4060_86488)">
<rect width="200" height="140" rx="12" fill="#F6F7F9"/>
<g clip-path="url(#clip1_4060_86488)">
<rect x="0.319489" y="0.319489" width="24.9201" height="24.9201" stroke="#D3D5DF" stroke-width="0.638978"/>
<rect x="25.2394" y="0.319489" width="24.9201" height="24.9201" stroke="#D3D5DF" stroke-width="0.638978"/>
<rect x="50.1593" y="0.319489" width="24.9201" height="24.9201" stroke="#D3D5DF" stroke-width="0.638978"/>
<rect x="75.0802" y="0.319489" width="24.9201" height="24.9201" stroke="#D3D5DF" stroke-width="0.638978"/>
<rect x="100" y="0.319489" width="24.9201" height="24.9201" stroke="#D3D5DF" stroke-width="0.638978"/>
<rect x="124.92" y="0.319489" width="24.9201" height="24.9201" stroke="#D3D5DF" stroke-width="0.638978"/>
<rect x="149.84" y="0.319489" width="24.9201" height="24.9201" stroke="#D3D5DF" stroke-width="0.638978"/>
<rect x="174.76" y="0.319489" width="24.9201" height="24.9201" stroke="#D3D5DF" stroke-width="0.638978"/>
<rect x="0.319489" y="25.2396" width="24.9201" height="24.9201" stroke="#D3D5DF" stroke-width="0.638978"/>
<rect x="25.2394" y="25.2396" width="24.9201" height="24.9201" stroke="#D3D5DF" stroke-width="0.638978"/>
<rect x="50.1593" y="25.2396" width="24.9201" height="24.9201" stroke="#D3D5DF" stroke-width="0.638978"/>
<rect x="75.0802" y="25.2396" width="24.9201" height="24.9201" stroke="#D3D5DF" stroke-width="0.638978"/>
<rect x="100" y="25.2396" width="24.9201" height="24.9201" stroke="#D3D5DF" stroke-width="0.638978"/>
<rect x="124.92" y="25.2396" width="24.9201" height="24.9201" stroke="#D3D5DF" stroke-width="0.638978"/>
<rect x="149.84" y="25.2396" width="24.9201" height="24.9201" stroke="#D3D5DF" stroke-width="0.638978"/>
<rect x="174.76" y="25.2396" width="24.9201" height="24.9201" stroke="#D3D5DF" stroke-width="0.638978"/>
<rect x="0.319489" y="50.1598" width="24.9201" height="24.9201" stroke="#D3D5DF" stroke-width="0.638978"/>
<rect x="25.2394" y="50.1598" width="24.9201" height="24.9201" stroke="#D3D5DF" stroke-width="0.638978"/>
<rect x="50.1593" y="50.1598" width="24.9201" height="24.9201" stroke="#D3D5DF" stroke-width="0.638978"/>
<rect x="75.0802" y="50.1598" width="24.9201" height="24.9201" stroke="#D3D5DF" stroke-width="0.638978"/>
<rect x="100" y="50.1598" width="24.9201" height="24.9201" stroke="#D3D5DF" stroke-width="0.638978"/>
<rect x="124.92" y="50.1598" width="24.9201" height="24.9201" stroke="#D3D5DF" stroke-width="0.638978"/>
<rect x="149.84" y="50.1598" width="24.9201" height="24.9201" stroke="#D3D5DF" stroke-width="0.638978"/>
<rect x="174.76" y="50.1598" width="24.9201" height="24.9201" stroke="#D3D5DF" stroke-width="0.638978"/>
<rect x="0.319489" y="75.0799" width="24.9201" height="24.9201" stroke="#D3D5DF" stroke-width="0.638978"/>
<rect x="25.2394" y="75.0799" width="24.9201" height="24.9201" stroke="#D3D5DF" stroke-width="0.638978"/>
<rect x="50.1593" y="75.0799" width="24.9201" height="24.9201" stroke="#D3D5DF" stroke-width="0.638978"/>
<rect x="75.0802" y="75.0799" width="24.9201" height="24.9201" stroke="#D3D5DF" stroke-width="0.638978"/>
<rect x="100" y="75.0799" width="24.9201" height="24.9201" stroke="#D3D5DF" stroke-width="0.638978"/>
<rect x="124.92" y="75.0799" width="24.9201" height="24.9201" stroke="#D3D5DF" stroke-width="0.638978"/>
<rect x="149.84" y="75.0799" width="24.9201" height="24.9201" stroke="#D3D5DF" stroke-width="0.638978"/>
<rect x="174.76" y="75.0799" width="24.9201" height="24.9201" stroke="#D3D5DF" stroke-width="0.638978"/>
<rect x="0.319489" y="100" width="24.9201" height="24.9201" stroke="#D3D5DF" stroke-width="0.638978"/>
<rect x="25.2394" y="100" width="24.9201" height="24.9201" stroke="#D3D5DF" stroke-width="0.638978"/>
<rect x="50.1593" y="100" width="24.9201" height="24.9201" stroke="#D3D5DF" stroke-width="0.638978"/>
<rect x="75.0802" y="100" width="24.9201" height="24.9201" stroke="#D3D5DF" stroke-width="0.638978"/>
<rect x="100" y="100" width="24.9201" height="24.9201" stroke="#D3D5DF" stroke-width="0.638978"/>
<rect x="124.92" y="100" width="24.9201" height="24.9201" stroke="#D3D5DF" stroke-width="0.638978"/>
<rect x="149.84" y="100" width="24.9201" height="24.9201" stroke="#D3D5DF" stroke-width="0.638978"/>
<rect x="174.76" y="100" width="24.9201" height="24.9201" stroke="#D3D5DF" stroke-width="0.638978"/>
<rect x="0.319489" y="124.92" width="24.9201" height="24.9201" stroke="#D3D5DF" stroke-width="0.638978"/>
<rect x="25.2394" y="124.92" width="24.9201" height="24.9201" stroke="#D3D5DF" stroke-width="0.638978"/>
<rect x="50.1593" y="124.92" width="24.9201" height="24.9201" stroke="#D3D5DF" stroke-width="0.638978"/>
<rect x="75.0802" y="124.92" width="24.9201" height="24.9201" stroke="#D3D5DF" stroke-width="0.638978"/>
<rect x="100" y="124.92" width="24.9201" height="24.9201" stroke="#D3D5DF" stroke-width="0.638978"/>
<rect x="124.92" y="124.92" width="24.9201" height="24.9201" stroke="#D3D5DF" stroke-width="0.638978"/>
<rect x="149.84" y="124.92" width="24.9201" height="24.9201" stroke="#D3D5DF" stroke-width="0.638978"/>
<rect x="174.76" y="124.92" width="24.9201" height="24.9201" stroke="#D3D5DF" stroke-width="0.638978"/>
<mask id="mask0_4060_86488" style="mask-type:alpha" maskUnits="userSpaceOnUse" x="0" y="0" width="200" height="140">
<rect x="200" y="140" width="200" height="140" transform="rotate(-180 200 140)" fill="url(#paint0_radial_4060_86488)"/>
</mask>
<g mask="url(#mask0_4060_86488)">
<rect width="200" height="140" fill="#F6F7F9"/>
</g>
</g>
<path d="M101.571 77.9954L108.581 70.9567C108.737 70.8004 108.988 70.8004 109.144 70.9567L110.848 72.6681C111.005 72.8254 111.005 73.0812 110.848 73.2385L100.247 83.8829C100.092 84.0391 99.8401 84.0391 99.6845 83.8829L89.0833 73.2385C88.9267 73.0812 88.9267 72.8254 89.0833 72.6681L90.7878 70.9567C90.9434 70.8004 91.1949 70.8004 91.3505 70.9567L98.3608 77.9955L98.3608 56.4024C98.3608 56.1802 98.5394 56.0001 98.7596 56.0001L101.172 56.0001C101.392 56.0001 101.571 56.1802 101.571 56.4024L101.571 77.9954Z" fill="#A7ABBE"/>
</g>
<rect x="0.5" y="0.5" width="199" height="139" rx="11.5" stroke="#E8E9EE"/>
<defs>
<radialGradient id="paint0_radial_4060_86488" cx="0" cy="0" r="1" gradientUnits="userSpaceOnUse" gradientTransform="translate(300 204.5) rotate(90) scale(109.5 122.053)">
<stop stop-color="white" stop-opacity="0"/>
<stop offset="1" stop-color="white"/>
</radialGradient>
<clipPath id="clip0_4060_86488">
<rect width="200" height="140" rx="12" fill="white"/>
</clipPath>
<clipPath id="clip1_4060_86488">
<rect width="200" height="150.16" fill="white"/>
</clipPath>
</defs>
</svg>
