<svg width="200" height="140" viewBox="0 0 200 140" fill="none" xmlns="http://www.w3.org/2000/svg">
<g clip-path="url(#clip0_4060_86900)">
<rect width="200" height="140" rx="12" fill="#1E2029"/>
<g clip-path="url(#clip1_4060_86900)">
<rect x="0.319489" y="0.319489" width="24.9201" height="24.9201" stroke="#36394A" stroke-width="0.638978"/>
<rect x="25.2394" y="0.319489" width="24.9201" height="24.9201" stroke="#36394A" stroke-width="0.638978"/>
<rect x="50.1593" y="0.319489" width="24.9201" height="24.9201" stroke="#36394A" stroke-width="0.638978"/>
<rect x="75.0802" y="0.319489" width="24.9201" height="24.9201" stroke="#36394A" stroke-width="0.638978"/>
<rect x="100" y="0.319489" width="24.9201" height="24.9201" stroke="#36394A" stroke-width="0.638978"/>
<rect x="124.92" y="0.319489" width="24.9201" height="24.9201" stroke="#36394A" stroke-width="0.638978"/>
<rect x="149.84" y="0.319489" width="24.9201" height="24.9201" stroke="#36394A" stroke-width="0.638978"/>
<rect x="174.76" y="0.319489" width="24.9201" height="24.9201" stroke="#36394A" stroke-width="0.638978"/>
<rect x="0.319489" y="25.2396" width="24.9201" height="24.9201" stroke="#36394A" stroke-width="0.638978"/>
<rect x="25.2394" y="25.2396" width="24.9201" height="24.9201" stroke="#36394A" stroke-width="0.638978"/>
<rect x="50.1593" y="25.2396" width="24.9201" height="24.9201" stroke="#36394A" stroke-width="0.638978"/>
<rect x="75.0802" y="25.2396" width="24.9201" height="24.9201" stroke="#36394A" stroke-width="0.638978"/>
<rect x="100" y="25.2396" width="24.9201" height="24.9201" stroke="#36394A" stroke-width="0.638978"/>
<rect x="124.92" y="25.2396" width="24.9201" height="24.9201" stroke="#36394A" stroke-width="0.638978"/>
<rect x="149.84" y="25.2396" width="24.9201" height="24.9201" stroke="#36394A" stroke-width="0.638978"/>
<rect x="174.76" y="25.2396" width="24.9201" height="24.9201" stroke="#36394A" stroke-width="0.638978"/>
<rect x="0.319489" y="50.1598" width="24.9201" height="24.9201" stroke="#36394A" stroke-width="0.638978"/>
<rect x="25.2394" y="50.1598" width="24.9201" height="24.9201" stroke="#36394A" stroke-width="0.638978"/>
<rect x="50.1593" y="50.1598" width="24.9201" height="24.9201" stroke="#36394A" stroke-width="0.638978"/>
<rect x="75.0802" y="50.1598" width="24.9201" height="24.9201" stroke="#36394A" stroke-width="0.638978"/>
<rect x="100" y="50.1598" width="24.9201" height="24.9201" stroke="#36394A" stroke-width="0.638978"/>
<rect x="124.92" y="50.1598" width="24.9201" height="24.9201" stroke="#36394A" stroke-width="0.638978"/>
<rect x="149.84" y="50.1598" width="24.9201" height="24.9201" stroke="#36394A" stroke-width="0.638978"/>
<rect x="174.76" y="50.1598" width="24.9201" height="24.9201" stroke="#36394A" stroke-width="0.638978"/>
<rect x="0.319489" y="75.0799" width="24.9201" height="24.9201" stroke="#36394A" stroke-width="0.638978"/>
<rect x="25.2394" y="75.0799" width="24.9201" height="24.9201" stroke="#36394A" stroke-width="0.638978"/>
<rect x="50.1593" y="75.0799" width="24.9201" height="24.9201" stroke="#36394A" stroke-width="0.638978"/>
<rect x="75.0802" y="75.0799" width="24.9201" height="24.9201" stroke="#36394A" stroke-width="0.638978"/>
<rect x="100" y="75.0799" width="24.9201" height="24.9201" stroke="#36394A" stroke-width="0.638978"/>
<rect x="124.92" y="75.0799" width="24.9201" height="24.9201" stroke="#36394A" stroke-width="0.638978"/>
<rect x="149.84" y="75.0799" width="24.9201" height="24.9201" stroke="#36394A" stroke-width="0.638978"/>
<rect x="174.76" y="75.0799" width="24.9201" height="24.9201" stroke="#36394A" stroke-width="0.638978"/>
<rect x="0.319489" y="100" width="24.9201" height="24.9201" stroke="#36394A" stroke-width="0.638978"/>
<rect x="25.2394" y="100" width="24.9201" height="24.9201" stroke="#36394A" stroke-width="0.638978"/>
<rect x="50.1593" y="100" width="24.9201" height="24.9201" stroke="#36394A" stroke-width="0.638978"/>
<rect x="75.0802" y="100" width="24.9201" height="24.9201" stroke="#36394A" stroke-width="0.638978"/>
<rect x="100" y="100" width="24.9201" height="24.9201" stroke="#36394A" stroke-width="0.638978"/>
<rect x="124.92" y="100" width="24.9201" height="24.9201" stroke="#36394A" stroke-width="0.638978"/>
<rect x="149.84" y="100" width="24.9201" height="24.9201" stroke="#36394A" stroke-width="0.638978"/>
<rect x="174.76" y="100" width="24.9201" height="24.9201" stroke="#36394A" stroke-width="0.638978"/>
<rect x="0.319489" y="124.92" width="24.9201" height="24.9201" stroke="#36394A" stroke-width="0.638978"/>
<rect x="25.2394" y="124.92" width="24.9201" height="24.9201" stroke="#36394A" stroke-width="0.638978"/>
<rect x="50.1593" y="124.92" width="24.9201" height="24.9201" stroke="#36394A" stroke-width="0.638978"/>
<rect x="75.0802" y="124.92" width="24.9201" height="24.9201" stroke="#36394A" stroke-width="0.638978"/>
<rect x="100" y="124.92" width="24.9201" height="24.9201" stroke="#36394A" stroke-width="0.638978"/>
<rect x="124.92" y="124.92" width="24.9201" height="24.9201" stroke="#36394A" stroke-width="0.638978"/>
<rect x="149.84" y="124.92" width="24.9201" height="24.9201" stroke="#36394A" stroke-width="0.638978"/>
<rect x="174.76" y="124.92" width="24.9201" height="24.9201" stroke="#36394A" stroke-width="0.638978"/>
<mask id="mask0_4060_86900" style="mask-type:alpha" maskUnits="userSpaceOnUse" x="0" y="0" width="200" height="140">
<rect x="200" y="140" width="200" height="140" transform="rotate(-180 200 140)" fill="url(#paint0_radial_4060_86900)"/>
</mask>
<g mask="url(#mask0_4060_86900)">
<rect width="200" height="140" fill="#1E2029"/>
</g>
</g>
<path d="M101.571 77.9953L108.581 70.9565C108.737 70.8003 108.988 70.8003 109.144 70.9565L110.848 72.668C111.005 72.8252 111.005 73.0811 110.848 73.2384L100.247 83.8827C100.092 84.0389 99.8401 84.0389 99.6845 83.8827L89.0833 73.2384C88.9267 73.0811 88.9267 72.8252 89.0833 72.668L90.7878 70.9565C90.9434 70.8003 91.1949 70.8003 91.3505 70.9565L98.3608 77.9954L98.3608 56.4022C98.3608 56.18 98.5394 55.9999 98.7596 55.9999L101.172 55.9999C101.392 55.9999 101.571 56.18 101.571 56.4022L101.571 77.9953Z" fill="#626784"/>
</g>
<rect x="0.5" y="0.5" width="199" height="139" rx="11.5" stroke="#303341"/>
<defs>
<radialGradient id="paint0_radial_4060_86900" cx="0" cy="0" r="1" gradientUnits="userSpaceOnUse" gradientTransform="translate(300 204.5) rotate(90) scale(109.5 122.053)">
<stop stop-color="white" stop-opacity="0"/>
<stop offset="1" stop-color="white"/>
</radialGradient>
<clipPath id="clip0_4060_86900">
<rect width="200" height="140" rx="12" fill="white"/>
</clipPath>
<clipPath id="clip1_4060_86900">
<rect width="200" height="150.16" fill="white"/>
</clipPath>
</defs>
</svg>
