<svg width="200" height="140" viewBox="0 0 200 140" fill="none" xmlns="http://www.w3.org/2000/svg">
<rect x="0.5" y="0.5" width="199" height="139" rx="11.5" fill="#F6F7F9"/>
<rect x="0.5" y="0.5" width="199" height="139" rx="11.5" stroke="#E8E9EE"/>
<path d="M82.2173 77V62.8182H83.9347V75.4766H90.527V77H82.2173ZM93.062 77V66.3636H94.6962V77H93.062ZM93.893 64.5909C93.2559 64.5909 92.7296 64.0923 92.7296 63.483C92.7296 62.8736 93.2559 62.375 93.893 62.375C94.53 62.375 95.0563 62.8736 95.0563 63.483C95.0563 64.0923 94.53 64.5909 93.893 64.5909ZM99.4212 70.6016V77H97.7869V66.3636H99.3658V68.0256H99.5043C100.003 66.9453 101 66.2251 102.607 66.2251C104.76 66.2251 106.207 67.527 106.207 70.2415V77H104.573V70.3523C104.573 68.6834 103.652 67.6932 102.136 67.6932C100.571 67.6932 99.4212 68.7457 99.4212 70.6016ZM109.291 77V62.8182H110.925V71.1001H111.119L115.773 66.3636H117.795L113.301 70.9062L118.127 77H116.05L112.068 71.9588L110.925 73.0183V77H109.291Z" fill="#0066FF"/>
<rect x="80.5" y="80.5" width="38" height="1.5" fill="#99C2FF"/>
</svg>
