<svg width="200" height="140" viewBox="0 0 200 140" fill="none" xmlns="http://www.w3.org/2000/svg">
<rect x="0.5" y="0.5" width="199" height="139" rx="11.5" fill="#1E2029"/>
<rect x="0.5" y="0.5" width="199" height="139" rx="11.5" stroke="#303341"/>
<path d="M79.6278 42.5611V41.5455H84.1335V42.5611H82.4531V49.9844H84.1335V51H79.6278V49.9844H81.3082V42.5611H79.6278ZM88.9096 43.9091V44.8324H87.3954V48.9688C87.3954 49.892 87.8571 50.0398 88.3372 50.0398C88.5773 50.0398 88.725 50.0028 88.8173 49.9844L89.0389 50.9631C88.8912 51.0185 88.6326 51.0923 88.2264 51.0923C87.3031 51.0923 86.3059 50.5014 86.3059 49.2642V44.8324H85.2349V43.9091H86.3059V42.2102H87.3954V43.9091H88.9096ZM93.5103 51.1477C91.4606 51.1477 90.2049 49.6889 90.2049 47.5099C90.2049 45.331 91.4791 43.8168 93.3995 43.8168C94.8768 43.8168 96.4464 44.7216 96.4464 47.3622V47.8239H91.299C91.3498 49.3427 92.2316 50.169 93.5103 50.169C94.3644 50.169 95.0061 49.7997 95.2831 49.0611L96.3356 49.3565C96.0032 50.4276 94.9507 51.1477 93.5103 51.1477ZM91.299 46.8821H95.3385C95.3385 45.6818 94.5813 44.7955 93.3995 44.7955C92.1531 44.7955 91.3729 45.7788 91.299 46.8821ZM98.1687 51V43.9091H99.2213V45.017H99.3136C99.6091 44.2599 100.292 43.8168 101.216 43.8168C102.148 43.8168 102.767 44.2599 103.118 45.017H103.191C103.556 44.283 104.299 43.8168 105.315 43.8168C106.58 43.8168 107.476 44.5877 107.476 46.2543V51H106.386V46.2543C106.386 45.2063 105.721 44.7955 104.946 44.7955C103.949 44.7955 103.376 45.4695 103.376 46.3835V51H102.268V46.1435C102.268 45.3356 101.691 44.7955 100.865 44.7955C100.015 44.7955 99.2582 45.5295 99.2582 46.5682V51H98.1687ZM116.559 41.5455V51H115.414V42.7457H115.359L113.051 44.2784V43.1151L115.414 41.5455H116.559Z" fill="#D3D5DE"/>
<path d="M79.6278 66.5611V65.5455H84.1335V66.5611H82.4531V73.9844H84.1335V75H79.6278V73.9844H81.3082V66.5611H79.6278ZM88.9096 67.9091V68.8324H87.3954V72.9688C87.3954 73.892 87.8571 74.0398 88.3372 74.0398C88.5773 74.0398 88.725 74.0028 88.8173 73.9844L89.0389 74.9631C88.8912 75.0185 88.6326 75.0923 88.2264 75.0923C87.3031 75.0923 86.3059 74.5014 86.3059 73.2642V68.8324H85.2349V67.9091H86.3059V66.2102H87.3954V67.9091H88.9096ZM93.5103 75.1477C91.4606 75.1477 90.2049 73.6889 90.2049 71.5099C90.2049 69.331 91.4791 67.8168 93.3995 67.8168C94.8768 67.8168 96.4464 68.7216 96.4464 71.3622V71.8239H91.299C91.3498 73.3427 92.2316 74.169 93.5103 74.169C94.3644 74.169 95.0061 73.7997 95.2831 73.0611L96.3356 73.3565C96.0032 74.4276 94.9507 75.1477 93.5103 75.1477ZM91.299 70.8821H95.3385C95.3385 69.6818 94.5813 68.7955 93.3995 68.7955C92.1531 68.7955 91.3729 69.7788 91.299 70.8821ZM98.1687 75V67.9091H99.2213V69.017H99.3136C99.6091 68.2599 100.292 67.8168 101.216 67.8168C102.148 67.8168 102.767 68.2599 103.118 69.017H103.191C103.556 68.283 104.299 67.8168 105.315 67.8168C106.58 67.8168 107.476 68.5877 107.476 70.2543V75H106.386V70.2543C106.386 69.2063 105.721 68.7955 104.946 68.7955C103.949 68.7955 103.376 69.4695 103.376 70.3835V75H102.268V70.1435C102.268 69.3356 101.691 68.7955 100.865 68.7955C100.015 68.7955 99.2582 69.5295 99.2582 70.5682V75H98.1687ZM113.235 75V74.169L116.356 70.7528C117.45 69.5572 117.963 68.9109 117.963 68.0384C117.963 67.0412 117.178 66.4134 116.153 66.4134C115.059 66.4134 114.362 67.1289 114.362 68.2045H113.272C113.272 66.5426 114.533 65.4162 116.19 65.4162C117.852 65.4162 119.034 66.5795 119.034 68.0384C119.034 69.0863 118.554 69.8988 116.929 71.6392L114.805 73.9105V73.9844H119.2V75H113.235Z" fill="#D3D5DE"/>
<path d="M79.6278 90.5611V89.5455H84.1335V90.5611H82.4531V97.9844H84.1335V99H79.6278V97.9844H81.3082V90.5611H79.6278ZM88.9096 91.9091V92.8324H87.3954V96.9688C87.3954 97.892 87.8571 98.0398 88.3372 98.0398C88.5773 98.0398 88.725 98.0028 88.8173 97.9844L89.0389 98.9631C88.8912 99.0185 88.6326 99.0923 88.2264 99.0923C87.3031 99.0923 86.3059 98.5014 86.3059 97.2642V92.8324H85.2349V91.9091H86.3059V90.2102H87.3954V91.9091H88.9096ZM93.5103 99.1477C91.4606 99.1477 90.2049 97.6889 90.2049 95.5099C90.2049 93.331 91.4791 91.8168 93.3995 91.8168C94.8768 91.8168 96.4464 92.7216 96.4464 95.3622V95.8239H91.299C91.3498 97.3427 92.2316 98.169 93.5103 98.169C94.3644 98.169 95.0061 97.7997 95.2831 97.0611L96.3356 97.3565C96.0032 98.4276 94.9507 99.1477 93.5103 99.1477ZM91.299 94.8821H95.3385C95.3385 93.6818 94.5813 92.7955 93.3995 92.7955C92.1531 92.7955 91.3729 93.7788 91.299 94.8821ZM98.1687 99V91.9091H99.2213V93.017H99.3136C99.6091 92.2599 100.292 91.8168 101.216 91.8168C102.148 91.8168 102.767 92.2599 103.118 93.017H103.191C103.556 92.283 104.299 91.8168 105.315 91.8168C106.58 91.8168 107.476 92.5877 107.476 94.2543V99H106.386V94.2543C106.386 93.2063 105.721 92.7955 104.946 92.7955C103.949 92.7955 103.376 93.4695 103.376 94.3835V99H102.268V94.1435C102.268 93.3356 101.691 92.7955 100.865 92.7955C100.015 92.7955 99.2582 93.5295 99.2582 94.5682V99H98.1687ZM113.088 96.6364H114.251C114.353 97.5966 115.207 98.1136 116.301 98.1136C117.478 98.1136 118.387 97.5135 118.387 96.3409C118.387 95.3207 117.718 94.402 115.968 94.402H115.211V93.4787L117.575 90.6349V90.5611H113.549V89.5455H119.144V90.3764L116.615 93.4418V93.5156C118.244 93.5895 119.514 94.7667 119.514 96.3409C119.514 97.9567 118.18 99.1293 116.282 99.1293C114.597 99.1293 113.198 98.2106 113.088 96.6364Z" fill="#D3D5DE"/>
</svg>
