<svg width="200" height="140" viewBox="0 0 200 140" fill="none" xmlns="http://www.w3.org/2000/svg">
<rect x="0.5" y="0.5" width="199" height="139" rx="11.5" fill="#F6F7F9"/>
<rect x="0.5" y="0.5" width="199" height="139" rx="11.5" stroke="#E8E9EE"/>
<g filter="url(#filter0_d_4060_86242)">
<g clip-path="url(#clip0_4060_86242)">
<path d="M20 29.6001C20 24.2982 24.2981 20.0001 29.6 20.0001H170.4C175.702 20.0001 180 24.2982 180 29.6001V109.6C180 114.902 175.702 119.2 170.4 119.2H29.6C24.2981 119.2 20 114.902 20 109.6V29.6001Z" fill="white"/>
<rect width="160" height="38.4" transform="translate(20 20.0001)" fill="white"/>
<path d="M41.9602 43.7001H40.0402V35.3001H42.9802L44.6602 40.5201H44.9002L46.5802 35.3001H49.5202V43.7001H47.6002V38.5401H47.3602L45.6802 43.7001H43.8802L42.2002 38.5401H41.9602V43.7001ZM53.9804 43.8201C52.1324 43.8201 50.7764 42.4521 50.7764 40.6401C50.7764 38.8281 52.1324 37.4601 53.9804 37.4601C55.8284 37.4601 57.1844 38.8281 57.1844 40.6401C57.1844 42.4521 55.8284 43.8201 53.9804 43.8201ZM53.9804 42.1401C54.7484 42.1401 55.3724 41.5401 55.3724 40.6401C55.3724 39.7401 54.7484 39.1401 53.9804 39.1401C53.2124 39.1401 52.5884 39.7401 52.5884 40.6401C52.5884 41.5401 53.2124 42.1401 53.9804 42.1401ZM60.8626 43.8201C59.3026 43.8201 58.0186 42.5361 58.0186 40.6401C58.0186 38.7441 59.3026 37.4601 60.8626 37.4601C61.6786 37.4601 62.2786 37.8321 62.4946 38.1081H62.5546V35.3001H64.3666V43.7001H62.8066L62.6866 43.1001H62.6266C62.3386 43.4841 61.7386 43.8201 60.8626 43.8201ZM61.1986 42.1521C61.9666 42.1521 62.5546 41.5761 62.5546 40.6401C62.5546 39.7041 61.9666 39.1401 61.1986 39.1401C60.4306 39.1401 59.8426 39.7041 59.8426 40.6401C59.8426 41.5761 60.4306 42.1521 61.1986 42.1521ZM67.8095 43.8201C66.4055 43.8201 65.5655 42.9801 65.5655 41.9361C65.5655 40.7721 66.4055 39.9201 68.0855 39.9201H69.4295V39.8121C69.4295 39.2961 69.0455 38.9001 68.5055 38.9001C67.9535 38.9001 67.7015 39.2121 67.6055 39.4401H65.8295C65.9495 38.4681 66.8375 37.4601 68.5055 37.4601C70.1975 37.4601 71.2415 38.5041 71.2415 39.8121V43.7001H69.6695L69.5495 43.1721H69.4895C69.2615 43.4481 68.6615 43.8201 67.8095 43.8201ZM68.2055 42.4161C68.9735 42.4161 69.4295 41.9721 69.4295 41.2641V41.1201H68.3255C67.6775 41.1201 67.3895 41.3841 67.3895 41.7681C67.3895 42.1641 67.6775 42.4161 68.2055 42.4161ZM74.4992 43.7001H72.6872V35.3001H74.4992V43.7001ZM81.1086 43.7001H79.2966V35.3001H81.1086V38.1201H81.1686C81.3726 37.8321 81.9606 37.4601 82.7526 37.4601C84.1566 37.4601 85.1526 38.4681 85.1526 40.0281V43.7001H83.3406V40.3281C83.3406 39.6561 82.8966 39.1881 82.2246 39.1881C81.5526 39.1881 81.1086 39.6561 81.1086 40.3281V43.7001ZM89.4534 43.8201C87.6054 43.8201 86.2374 42.4521 86.2374 40.6401C86.2374 38.8281 87.6054 37.4601 89.4534 37.4601C91.2174 37.4601 92.5614 38.8041 92.5614 40.5681C92.5614 40.8321 92.5254 41.0601 92.5014 41.1681H88.0374C88.1334 41.8281 88.6974 42.3561 89.4534 42.3561C90.0654 42.3561 90.4494 42.0321 90.5814 41.8761H92.4054C92.2014 42.5601 91.3014 43.8201 89.4534 43.8201ZM88.0374 40.0761H90.7734C90.6774 39.4401 90.1854 38.9001 89.4534 38.9001C88.6614 38.9001 88.1694 39.4401 88.0374 40.0761ZM95.6415 43.8201C94.2375 43.8201 93.3975 42.9801 93.3975 41.9361C93.3975 40.7721 94.2375 39.9201 95.9175 39.9201H97.2615V39.8121C97.2615 39.2961 96.8775 38.9001 96.3375 38.9001C95.7855 38.9001 95.5335 39.2121 95.4375 39.4401H93.6615C93.7815 38.4681 94.6695 37.4601 96.3375 37.4601C98.0295 37.4601 99.0735 38.5041 99.0735 39.8121V43.7001H97.5015L97.3815 43.1721H97.3215C97.0935 43.4481 96.4935 43.8201 95.6415 43.8201ZM96.0375 42.4161C96.8055 42.4161 97.2615 41.9721 97.2615 41.2641V41.1201H96.1575C95.5095 41.1201 95.2215 41.3841 95.2215 41.7681C95.2215 42.1641 95.5095 42.4161 96.0375 42.4161ZM103.003 43.8201C101.443 43.8201 100.159 42.5361 100.159 40.6401C100.159 38.7441 101.443 37.4601 103.003 37.4601C103.819 37.4601 104.419 37.8321 104.635 38.1081H104.695V35.3001H106.507V43.7001H104.947L104.827 43.1001H104.767C104.479 43.4841 103.879 43.8201 103.003 43.8201ZM103.339 42.1521C104.107 42.1521 104.695 41.5761 104.695 40.6401C104.695 39.7041 104.107 39.1401 103.339 39.1401C102.571 39.1401 101.983 39.7041 101.983 40.6401C101.983 41.5761 102.571 42.1521 103.339 42.1521ZM110.922 43.8201C109.074 43.8201 107.706 42.4521 107.706 40.6401C107.706 38.8281 109.074 37.4601 110.922 37.4601C112.686 37.4601 114.03 38.8041 114.03 40.5681C114.03 40.8321 113.994 41.0601 113.97 41.1681H109.506C109.602 41.8281 110.166 42.3561 110.922 42.3561C111.534 42.3561 111.918 42.0321 112.05 41.8761H113.874C113.67 42.5601 112.77 43.8201 110.922 43.8201ZM109.506 40.0761H112.242C112.146 39.4401 111.654 38.9001 110.922 38.9001C110.13 38.9001 109.638 39.4401 109.506 40.0761ZM116.978 43.7001H115.166V37.5801H116.726L116.846 38.0601H116.906C117.062 37.8201 117.458 37.5801 117.986 37.5801H119.15V39.2961H118.07C117.338 39.2961 116.978 39.6561 116.978 40.4121V43.7001Z" fill="#21222C"/>
<path d="M163.199 38.3516L160.902 36.0546L160.054 36.9031L162.351 39.2001L160.054 41.4972L160.902 42.3457L163.199 40.0487L165.496 42.3457L166.345 41.4972L164.048 39.2001L166.345 36.9031L165.496 36.0546L163.199 38.3516Z" fill="#21222C"/>
<g clip-path="url(#clip1_4060_86242)">
<g clip-path="url(#clip2_4060_86242)">
<path d="M44.4519 62.5001H43.765C43.5988 61.7135 42.9229 61.2925 42.1695 61.2925C41.1391 61.2925 40.3303 62.0902 40.3303 63.5638C40.3303 65.0374 41.1391 65.8351 42.1695 65.8351C42.9229 65.8351 43.5988 65.4141 43.765 64.6274H44.4519C44.2414 65.7908 43.3107 66.4777 42.1695 66.4777C40.7181 66.4777 39.6655 65.3587 39.6655 63.5638C39.6655 61.7689 40.7181 60.6499 42.1695 60.6499C43.3107 60.6499 44.2414 61.3368 44.4519 62.5001ZM47.2407 66.4888C46.0884 66.4888 45.3129 65.6135 45.3129 64.295C45.3129 62.9655 46.0884 62.0902 47.2407 62.0902C48.393 62.0902 49.1685 62.9655 49.1685 64.295C49.1685 65.6135 48.393 66.4888 47.2407 66.4888ZM47.2407 65.9016C48.116 65.9016 48.5149 65.1482 48.5149 64.295C48.5149 63.4419 48.116 62.6774 47.2407 62.6774C46.3654 62.6774 45.9666 63.4419 45.9666 64.295C45.9666 65.1482 46.3654 65.9016 47.2407 65.9016ZM50.8591 63.8408V66.4001H50.2054V62.1456H50.8369V62.8104H50.8923C51.0918 62.3783 51.4906 62.0902 52.1332 62.0902C52.9947 62.0902 53.5736 62.6109 53.5736 63.6967V66.4001H52.9199V63.7411C52.9199 63.0735 52.5515 62.6774 51.9449 62.6774C51.3189 62.6774 50.8591 63.0984 50.8591 63.8408ZM56.6574 62.1456V62.6996H55.7489V65.1814C55.7489 65.7354 56.0258 65.824 56.3139 65.824C56.4579 65.824 56.5466 65.8019 56.602 65.7908L56.7349 66.378C56.6463 66.4112 56.4912 66.4555 56.2474 66.4555C55.6935 66.4555 55.0952 66.101 55.0952 65.3587V62.6996H54.4525V62.1456H55.0952V61.1263H55.7489V62.1456H56.6574ZM59.4178 66.4888C58.188 66.4888 57.4346 65.6135 57.4346 64.3061C57.4346 62.9987 58.199 62.0902 59.3513 62.0902C60.2377 62.0902 61.1794 62.6331 61.1794 64.2175V64.4945H58.091C58.1215 65.4058 58.6505 65.9016 59.4178 65.9016C59.9302 65.9016 60.3152 65.68 60.4814 65.2368L61.113 65.4141C60.9135 66.0567 60.282 66.4888 59.4178 66.4888ZM58.091 63.9294H60.5147C60.5147 63.2092 60.0604 62.6774 59.3513 62.6774C58.6034 62.6774 58.1353 63.2674 58.091 63.9294ZM62.8665 63.8408V66.4001H62.2128V62.1456H62.8444V62.8104H62.8998C63.0992 62.3783 63.4981 62.0902 64.1407 62.0902C65.0021 62.0902 65.581 62.6109 65.581 63.6967V66.4001H64.9273V63.7411C64.9273 63.0735 64.5589 62.6774 63.9523 62.6774C63.3263 62.6774 62.8665 63.0984 62.8665 63.8408ZM68.6648 62.1456V62.6996H67.7563V65.1814C67.7563 65.7354 68.0333 65.824 68.3213 65.824C68.4654 65.824 68.554 65.8019 68.6094 65.7908L68.7424 66.378C68.6537 66.4112 68.4986 66.4555 68.2549 66.4555C67.7009 66.4555 67.1026 66.101 67.1026 65.3587V62.6996H66.46V62.1456H67.1026V61.1263H67.7563V62.1456H68.6648Z" fill="#21222C"/>
</g>
</g>
<rect width="160" height="36.4" transform="translate(20 82.8)" fill="white"/>
<g clip-path="url(#clip3_4060_86242)">
<rect x="39.2002" y="87.6001" width="45.2" height="19.6" rx="4.8" fill="#363949"/>
<path d="M54.523 96.5722H53.6588C53.5176 95.8381 52.911 95.431 52.188 95.431C51.2103 95.431 50.479 96.1871 50.479 97.5638C50.479 98.9515 51.213 99.6966 52.1853 99.6966C52.9027 99.6966 53.512 99.2977 53.6588 98.572L54.523 98.5748C54.3375 99.6966 53.4262 100.478 52.1797 100.478C50.7061 100.478 49.6287 99.3781 49.6287 97.5638C49.6287 95.7495 50.7117 94.6499 52.1797 94.6499C53.3791 94.6499 54.3292 95.359 54.523 96.5722ZM55.5197 100.4V96.1456H56.3202V96.8215H56.3645C56.5197 96.3644 56.9462 96.0819 57.4448 96.0819C57.5501 96.0819 57.7135 96.0902 57.7966 96.1013V96.8935C57.7301 96.8741 57.5362 96.8436 57.3645 96.8436C56.7773 96.8436 56.3479 97.2452 56.3479 97.802V100.4H55.5197ZM60.2336 100.486C58.9788 100.486 58.2088 99.6218 58.2088 98.3006C58.2088 96.9932 58.9899 96.0902 60.1754 96.0902C61.1394 96.0902 62.059 96.6913 62.059 98.2286V98.5222H59.0342C59.0564 99.342 59.5328 99.8019 60.2419 99.8019C60.7128 99.8019 61.0729 99.5969 61.2225 99.1952L62.0063 99.3365C61.818 100.029 61.1615 100.486 60.2336 100.486ZM59.037 97.9017H61.2474C61.2446 97.2508 60.8236 96.7744 60.181 96.7744C59.5079 96.7744 59.0703 97.2979 59.037 97.9017ZM64.255 100.494C63.4462 100.494 62.8174 100.035 62.8174 99.198C62.8174 98.2313 63.6429 98.0208 64.4489 97.9266C65.2134 97.838 65.5236 97.8435 65.5236 97.5416V97.5222C65.5236 97.0403 65.2494 96.7605 64.7148 96.7605C64.1581 96.7605 63.8478 97.0514 63.726 97.3533L62.9476 97.176C63.2246 96.4004 63.9337 96.0902 64.7037 96.0902C65.3796 96.0902 66.3546 96.3367 66.3546 97.5749V100.4H65.5458V99.8185H65.5125C65.3547 100.137 64.9586 100.494 64.255 100.494ZM64.4351 99.8295C65.1248 99.8295 65.5264 99.3697 65.5264 98.8656V98.3172C65.4073 98.4363 64.7702 98.5083 64.5015 98.5443C64.0223 98.608 63.629 98.7659 63.629 99.2091C63.629 99.619 63.9669 99.8295 64.4351 99.8295ZM69.4827 96.1456V96.8104H68.6102V99.1509C68.6102 99.6301 68.8512 99.7188 69.1198 99.7188C69.2528 99.7188 69.3553 99.6938 69.4107 99.6827L69.5603 100.367C69.4633 100.403 69.286 100.453 69.0229 100.456C68.3692 100.469 67.7792 100.095 67.782 99.3227V96.8104H67.1588V96.1456H67.782V95.1263H68.6102V96.1456H69.4827ZM72.2258 100.486C70.971 100.486 70.201 99.6218 70.201 98.3006C70.201 96.9932 70.9821 96.0902 72.1676 96.0902C73.1316 96.0902 74.0512 96.6913 74.0512 98.2286V98.5222H71.0264C71.0486 99.342 71.525 99.8019 72.2341 99.8019C72.705 99.8019 73.0651 99.5969 73.2147 99.1952L73.9985 99.3365C73.8102 100.029 73.1537 100.486 72.2258 100.486ZM71.0292 97.9017H73.2396C73.2368 97.2508 72.8158 96.7744 72.1732 96.7744C71.5001 96.7744 71.0624 97.2979 71.0292 97.9017Z" fill="white"/>
<rect x="94" y="87.6001" width="46.2" height="19.6" rx="4.8" fill="#E8E9EE"/>
<path d="M109.354 96.5722H108.49C108.349 95.8381 107.742 95.431 107.019 95.431C106.042 95.431 105.31 96.1871 105.31 97.5638C105.31 98.9515 106.044 99.6966 107.017 99.6966C107.734 99.6966 108.343 99.2977 108.49 98.572L109.354 98.5748C109.169 99.6966 108.258 100.478 107.011 100.478C105.537 100.478 104.46 99.3781 104.46 97.5638C104.46 95.7495 105.543 94.6499 107.011 94.6499C108.21 94.6499 109.16 95.359 109.354 96.5722ZM111.589 100.494C110.78 100.494 110.152 100.035 110.152 99.198C110.152 98.2313 110.977 98.0208 111.783 97.9266C112.548 97.838 112.858 97.8435 112.858 97.5416V97.5222C112.858 97.0403 112.584 96.7605 112.049 96.7605C111.492 96.7605 111.182 97.0514 111.06 97.3533L110.282 97.176C110.559 96.4004 111.268 96.0902 112.038 96.0902C112.714 96.0902 113.689 96.3367 113.689 97.5749V100.4H112.88V99.8185H112.847C112.689 100.137 112.293 100.494 111.589 100.494ZM111.769 99.8295C112.459 99.8295 112.861 99.3697 112.861 98.8656V98.3172C112.741 98.4363 112.104 98.5083 111.836 98.5443C111.357 98.608 110.963 98.7659 110.963 99.2091C110.963 99.619 111.301 99.8295 111.769 99.8295ZM115.659 97.874V100.4H114.831V96.1456H115.626V96.8381H115.678C115.875 96.3866 116.293 96.0902 116.933 96.0902C117.803 96.0902 118.382 96.6414 118.382 97.694V100.4H117.554V97.7937C117.554 97.176 117.213 96.8076 116.651 96.8076C116.075 96.8076 115.659 97.1954 115.659 97.874ZM121.324 100.486C120.088 100.486 119.34 99.5747 119.34 98.2923C119.34 96.9932 120.116 96.0902 121.315 96.0902C122.282 96.0902 122.983 96.6608 123.072 97.5195H122.265C122.177 97.1206 121.856 96.7882 121.329 96.7882C120.637 96.7882 120.177 97.3616 120.177 98.2729C120.177 99.2008 120.628 99.7852 121.329 99.7852C121.803 99.7852 122.16 99.5138 122.265 99.054H123.072C122.98 99.8822 122.329 100.486 121.324 100.486ZM125.83 100.486C124.575 100.486 123.805 99.6218 123.805 98.3006C123.805 96.9932 124.586 96.0902 125.772 96.0902C126.736 96.0902 127.655 96.6913 127.655 98.2286V98.5222H124.631C124.653 99.342 125.129 99.8019 125.838 99.8019C126.309 99.8019 126.669 99.5969 126.819 99.1952L127.603 99.3365C127.414 100.029 126.758 100.486 125.83 100.486ZM124.633 97.9017H126.844C126.841 97.2508 126.42 96.7744 125.777 96.7744C125.104 96.7744 124.667 97.2979 124.633 97.9017ZM128.613 94.7274H129.441V99.2368C129.441 99.6024 129.516 99.7409 129.782 99.7326C129.926 99.7298 129.984 99.7104 130.042 99.6938L130.192 100.356C130.076 100.392 129.898 100.428 129.677 100.431C128.959 100.442 128.613 100.082 128.613 99.4085V94.7274Z" fill="#21222C"/>
</g>
</g>
</g>
<defs>
<filter id="filter0_d_4060_86242" x="15.2" y="16.4001" width="169.6" height="108.8" filterUnits="userSpaceOnUse" color-interpolation-filters="sRGB">
<feFlood flood-opacity="0" result="BackgroundImageFix"/>
<feColorMatrix in="SourceAlpha" type="matrix" values="0 0 0 0 0 0 0 0 0 0 0 0 0 0 0 0 0 0 127 0" result="hardAlpha"/>
<feOffset dy="1.2"/>
<feGaussianBlur stdDeviation="2.4"/>
<feColorMatrix type="matrix" values="0 0 0 0 0 0 0 0 0 0 0 0 0 0 0 0 0 0 0.16 0"/>
<feBlend mode="normal" in2="BackgroundImageFix" result="effect1_dropShadow_4060_86242"/>
<feBlend mode="normal" in="SourceGraphic" in2="effect1_dropShadow_4060_86242" result="shape"/>
</filter>
<clipPath id="clip0_4060_86242">
<path d="M20 29.6001C20 24.2982 24.2981 20.0001 29.6 20.0001H170.4C175.702 20.0001 180 24.2982 180 29.6001V109.6C180 114.902 175.702 119.2 170.4 119.2H29.6C24.2981 119.2 20 114.902 20 109.6V29.6001Z" fill="white"/>
</clipPath>
<clipPath id="clip1_4060_86242">
<rect width="160" height="24.4" fill="white" transform="translate(20 58.4001)"/>
</clipPath>
<clipPath id="clip2_4060_86242">
<rect width="160" height="24.4" fill="white" transform="translate(20 58.4001)"/>
</clipPath>
<clipPath id="clip3_4060_86242">
<rect width="121.6" height="19.6" fill="white" transform="translate(39.2002 87.6001)"/>
</clipPath>
</defs>
</svg>
