<svg width="200" height="140" viewBox="0 0 200 140" fill="none" xmlns="http://www.w3.org/2000/svg">
<g clip-path="url(#clip0_4060_86244)">
<rect width="200" height="140" rx="12" fill="#F6F7F9"/>
<rect x="20" y="50" width="832.5" height="40" rx="4" fill="white"/>
<path d="M37.917 72.0833V74.5833H35.417V72.0833H37.917ZM41.2503 72.0833V74.5833H38.7503V72.0833H41.2503ZM44.5837 72.0833V74.5833H42.0837V72.0833H44.5837ZM37.917 68.75V71.25H35.417V68.75H37.917ZM41.2503 68.75V71.25H38.7503V68.75H41.2503ZM44.5837 68.75V71.25H42.0837V68.75H44.5837ZM37.917 65.4166V67.9166H35.417V65.4166H37.917ZM41.2503 65.4166V67.9166H38.7503V65.4166H41.2503ZM44.5837 65.4166V67.9166H42.0837V65.4166H44.5837Z" fill="#21222C"/>
<path fill-rule="evenodd" clip-rule="evenodd" d="M59.666 77.6667C59.666 80.0038 59.666 81.3029 60.5146 82.1515C61.3631 83 62.6623 83 64.9993 83H80.9994C83.3364 83 84.6356 83 85.4841 82.1515C86.3327 81.3029 86.3327 80.0038 86.3327 77.6667V61.6667C86.3327 59.3297 86.3327 58.0305 85.4841 57.1819C84.6356 56.3334 83.3364 56.3334 80.9994 56.3334H64.9993C62.6623 56.3334 61.3631 56.3334 60.5146 57.1819C59.666 58.0305 59.666 59.3297 59.666 61.6667V77.6667Z" fill="#FF0000"/>
<path d="M72.4816 70L69.3282 73.1534L66.1748 70L69.3282 66.8892L72.4816 70ZM76.4873 74.0483L73.3765 77.1591L70.2231 74.0483L73.3765 70.8949L76.4873 74.0483ZM76.4873 65.9944L73.3765 69.1051L70.2231 65.9944L73.3765 62.8409L76.4873 65.9944ZM80.493 70L77.3822 73.1534L74.2714 70L77.3822 66.8892L80.493 70Z" fill="white"/>
<path d="M103.909 75H101.284L100.609 72.9H96.559L95.884 75H93.259L96.859 64.5H100.309L103.909 75ZM98.434 67.05L97.234 70.8H99.934L98.734 67.05H98.434ZM107.002 78H104.737V67.35H106.687L106.837 68.1H106.912C107.272 67.62 108.037 67.2 109.102 67.2C111.052 67.2 112.657 68.805 112.657 71.175C112.657 73.545 111.052 75.15 109.102 75.15C108.067 75.15 107.332 74.715 107.077 74.385H107.002V78ZM108.697 73.065C109.657 73.065 110.392 72.345 110.392 71.175C110.392 70.005 109.657 69.3 108.697 69.3C107.737 69.3 107.002 70.005 107.002 71.175C107.002 72.345 107.737 73.065 108.697 73.065ZM116.348 78H114.083V67.35H116.033L116.183 68.1H116.258C116.618 67.62 117.383 67.2 118.448 67.2C120.398 67.2 122.003 68.805 122.003 71.175C122.003 73.545 120.398 75.15 118.448 75.15C117.413 75.15 116.678 74.715 116.423 74.385H116.348V78ZM118.043 73.065C119.003 73.065 119.738 72.345 119.738 71.175C119.738 70.005 119.003 69.3 118.043 69.3C117.083 69.3 116.348 70.005 116.348 71.175C116.348 72.345 117.083 73.065 118.043 73.065ZM130.021 75H127.621V64.5H130.546L133.846 70.8H134.146V64.5H136.546V75H133.621L130.321 68.7H130.021V75ZM141.727 75.15C139.732 75.15 138.127 73.545 138.127 71.175C138.127 68.805 139.732 67.2 141.727 67.2C142.822 67.2 143.587 67.695 143.887 68.1H143.962L144.112 67.35H146.062V75H144.112L143.962 74.25H143.887C143.587 74.67 142.822 75.15 141.727 75.15ZM142.102 73.065C143.062 73.065 143.797 72.345 143.797 71.175C143.797 70.005 143.062 69.3 142.102 69.3C141.142 69.3 140.407 70.005 140.407 71.175C140.407 72.345 141.142 73.065 142.102 73.065ZM150.127 75H147.862V67.35H149.812L149.962 68.025H150.037C150.292 67.665 150.982 67.2 151.852 67.2C152.962 67.2 153.682 67.83 153.937 68.25H154.012C154.342 67.755 155.152 67.2 156.307 67.2C157.912 67.2 159.157 68.505 159.157 70.305V75H156.892V70.635C156.892 69.795 156.457 69.36 155.812 69.36C155.137 69.36 154.642 69.885 154.642 70.635V75H152.377V70.635C152.377 69.795 151.927 69.36 151.297 69.36C150.607 69.36 150.127 69.885 150.127 70.635V75ZM164.529 75.15C162.219 75.15 160.509 73.44 160.509 71.175C160.509 68.91 162.219 67.2 164.529 67.2C166.734 67.2 168.414 68.88 168.414 71.085C168.414 71.415 168.369 71.7 168.339 71.835H162.759C162.879 72.66 163.584 73.32 164.529 73.32C165.294 73.32 165.774 72.915 165.939 72.72H168.219C167.964 73.575 166.839 75.15 164.529 75.15ZM162.759 70.47H166.179C166.059 69.675 165.444 69 164.529 69C163.539 69 162.924 69.675 162.759 70.47Z" fill="#21222C"/>
<g clip-path="url(#clip1_4060_86244)">
<path d="M184.333 63C184.333 59.3181 187.318 56.3334 191 56.3334H245.333C249.015 56.3334 252 59.3181 252 63V77C252 80.6819 249.015 83.6667 245.333 83.6667H191C187.318 83.6667 184.333 80.6819 184.333 77V63Z" fill="#6C7393" fill-opacity="0.16"/>
<path d="M205.686 70.0607C205.686 72.5806 204.178 74.1078 202.139 74.1078C200.093 74.1078 198.588 72.5767 198.588 70.0607C198.588 67.5409 200.093 66.0136 202.139 66.0136C204.178 66.0136 205.686 67.5409 205.686 70.0607ZM204.509 70.0607C204.509 68.141 203.493 67.0985 202.139 67.0985C200.781 67.0985 199.769 68.141 199.769 70.0607C199.769 71.9804 200.781 73.023 202.139 73.023C203.493 73.023 204.509 71.9804 204.509 70.0607ZM207.222 74.0001V66.1213H208.373V69.0489H208.442C208.646 68.6835 209.042 68.0141 210.139 68.0141C211.566 68.0141 212.62 69.1413 212.62 71.0571C212.62 72.9691 211.581 74.1155 210.15 74.1155C209.073 74.1155 208.65 73.4577 208.442 73.0807H208.346V74.0001H207.222ZM208.35 71.0456C208.35 72.2882 208.904 73.1345 209.892 73.1345C210.919 73.1345 211.458 72.2305 211.458 71.0456C211.458 69.8722 210.935 68.9912 209.892 68.9912C208.888 68.9912 208.35 69.8107 208.35 71.0456ZM213.966 68.091H215.116V74.3848C215.116 75.5697 214.466 76.216 213.242 76.216C213.162 76.216 213.089 76.216 213.008 76.2122V75.2235H213.192C213.739 75.2235 213.966 74.9234 213.966 74.3771V68.091ZM214.535 67.1793C214.135 67.1793 213.808 66.8715 213.808 66.4945C213.808 66.1175 214.135 65.8059 214.535 65.8059C214.931 65.8059 215.262 66.1175 215.262 66.4945C215.262 66.8715 214.931 67.1793 214.535 67.1793ZM219.264 74.1194C217.522 74.1194 216.452 72.9191 216.452 71.084C216.452 69.2682 217.537 68.0141 219.184 68.0141C220.522 68.0141 221.8 68.8489 221.8 70.984V71.3918H217.599C217.629 72.5305 218.291 73.1692 219.276 73.1692C219.93 73.1692 220.43 72.8845 220.638 72.3266L221.726 72.5228C221.465 73.4846 220.553 74.1194 219.264 74.1194ZM217.602 70.5301H220.672C220.669 69.626 220.084 68.9643 219.191 68.9643C218.256 68.9643 217.649 69.6914 217.602 70.5301ZM225.619 74.1194C223.903 74.1194 222.865 72.8537 222.865 71.0725C222.865 69.2682 223.942 68.0141 225.608 68.0141C226.95 68.0141 227.923 68.8066 228.047 69.9992H226.927C226.804 69.4452 226.358 68.9835 225.627 68.9835C224.665 68.9835 224.026 69.7799 224.026 71.0456C224.026 72.3343 224.653 73.1461 225.627 73.1461C226.285 73.1461 226.781 72.7691 226.927 72.1304H228.047C227.92 73.2807 227.016 74.1194 225.619 74.1194ZM232.089 68.091V69.0143H230.877V72.2651C230.877 72.9306 231.212 73.0537 231.585 73.0537C231.77 73.0537 231.912 73.0191 231.989 73.0037L232.197 73.954C232.062 74.004 231.816 74.0732 231.451 74.0771C230.543 74.0963 229.723 73.5769 229.727 72.5036V69.0143H228.861V68.091H229.727V66.6753H230.877V68.091H232.089ZM237.748 69.5337L236.706 69.7183C236.571 69.3221 236.24 68.9258 235.525 68.9258C234.871 68.9258 234.378 69.249 234.382 69.703C234.378 70.103 234.659 70.3223 235.309 70.4762L236.248 70.6916C237.333 70.9417 237.864 71.4572 237.864 72.292C237.864 73.3615 236.875 74.1194 235.448 74.1194C234.121 74.1194 233.251 73.5308 233.059 72.4844L234.171 72.3151C234.309 72.896 234.752 73.1922 235.44 73.1922C236.194 73.1922 236.683 72.8345 236.683 72.3767C236.683 72.0073 236.417 71.7534 235.848 71.6265L234.848 71.4072C233.74 71.161 233.232 70.6032 233.232 69.7645C233.232 68.7181 234.178 68.0141 235.513 68.0141C236.791 68.0141 237.51 68.6142 237.748 69.5337Z" fill="#21222C"/>
</g>
<mask id="mask0_4060_86244" style="mask-type:alpha" maskUnits="userSpaceOnUse" x="123" y="6" width="77" height="256">
<rect x="123" y="262" width="256" height="77" transform="rotate(-90 123 262)" fill="url(#paint0_linear_4060_86244)"/>
</mask>
<g mask="url(#mask0_4060_86244)">
<rect x="123" y="262" width="256" height="77" transform="rotate(-90 123 262)" fill="#F6F7F9"/>
</g>
</g>
<rect x="0.5" y="0.5" width="199" height="139" rx="11.5" stroke="#E8E9EE"/>
<defs>
<linearGradient id="paint0_linear_4060_86244" x1="251" y1="262" x2="251" y2="339" gradientUnits="userSpaceOnUse">
<stop stop-opacity="0"/>
<stop offset="0.885"/>
</linearGradient>
<clipPath id="clip0_4060_86244">
<rect width="200" height="140" rx="12" fill="white"/>
</clipPath>
<clipPath id="clip1_4060_86244">
<rect width="488.167" height="40" fill="white" transform="translate(184.333 50)"/>
</clipPath>
</defs>
</svg>
