<svg width="200" height="140" viewBox="0 0 200 140" fill="none" xmlns="http://www.w3.org/2000/svg">
<g clip-path="url(#clip0_4060_86656)">
<rect width="200" height="140" rx="12" fill="#1E2029"/>
<rect x="20" y="50" width="832.5" height="40" rx="4" fill="#1A1B23"/>
<path d="M37.917 72.0833V74.5833H35.417V72.0833H37.917ZM41.2503 72.0833V74.5833H38.7503V72.0833H41.2503ZM44.5837 72.0833V74.5833H42.0837V72.0833H44.5837ZM37.917 68.75V71.25H35.417V68.75H37.917ZM41.2503 68.75V71.25H38.7503V68.75H41.2503ZM44.5837 68.75V71.25H42.0837V68.75H44.5837ZM37.917 65.4167V67.9167H35.417V65.4167H37.917ZM41.2503 65.4167V67.9167H38.7503V65.4167H41.2503ZM44.5837 65.4167V67.9167H42.0837V65.4167H44.5837Z" fill="#D3D5DE"/>
<path fill-rule="evenodd" clip-rule="evenodd" d="M59.666 77.6667C59.666 80.0037 59.666 81.3029 60.5146 82.1515C61.3631 83 62.6623 83 64.9993 83H80.9994C83.3364 83 84.6356 83 85.4841 82.1515C86.3327 81.3029 86.3327 80.0037 86.3327 77.6667V61.6667C86.3327 59.3296 86.3327 58.0304 85.4841 57.1819C84.6356 56.3333 83.3364 56.3333 80.9994 56.3333H64.9993C62.6623 56.3333 61.3631 56.3333 60.5146 57.1819C59.666 58.0304 59.666 59.3296 59.666 61.6667V77.6667Z" fill="#FF0000"/>
<path d="M72.4816 70L69.3282 73.1534L66.1748 70L69.3282 66.8892L72.4816 70ZM76.4873 74.0483L73.3765 77.1591L70.2231 74.0483L73.3765 70.8949L76.4873 74.0483ZM76.4873 65.9944L73.3765 69.1051L70.2231 65.9944L73.3765 62.8409L76.4873 65.9944ZM80.493 70L77.3822 73.1534L74.2714 70L77.3822 66.8892L80.493 70Z" fill="white"/>
<path d="M103.909 75H101.284L100.609 72.9H96.559L95.884 75H93.259L96.859 64.5H100.309L103.909 75ZM98.434 67.05L97.234 70.8H99.934L98.734 67.05H98.434ZM107.002 78H104.737V67.35H106.687L106.837 68.1H106.912C107.272 67.62 108.037 67.2 109.102 67.2C111.052 67.2 112.657 68.805 112.657 71.175C112.657 73.545 111.052 75.15 109.102 75.15C108.067 75.15 107.332 74.715 107.077 74.385H107.002V78ZM108.697 73.065C109.657 73.065 110.392 72.345 110.392 71.175C110.392 70.005 109.657 69.3 108.697 69.3C107.737 69.3 107.002 70.005 107.002 71.175C107.002 72.345 107.737 73.065 108.697 73.065ZM116.348 78H114.083V67.35H116.033L116.183 68.1H116.258C116.618 67.62 117.383 67.2 118.448 67.2C120.398 67.2 122.003 68.805 122.003 71.175C122.003 73.545 120.398 75.15 118.448 75.15C117.413 75.15 116.678 74.715 116.423 74.385H116.348V78ZM118.043 73.065C119.003 73.065 119.738 72.345 119.738 71.175C119.738 70.005 119.003 69.3 118.043 69.3C117.083 69.3 116.348 70.005 116.348 71.175C116.348 72.345 117.083 73.065 118.043 73.065ZM130.021 75H127.621V64.5H130.546L133.846 70.8H134.146V64.5H136.546V75H133.621L130.321 68.7H130.021V75ZM141.727 75.15C139.732 75.15 138.127 73.545 138.127 71.175C138.127 68.805 139.732 67.2 141.727 67.2C142.822 67.2 143.587 67.695 143.887 68.1H143.962L144.112 67.35H146.062V75H144.112L143.962 74.25H143.887C143.587 74.67 142.822 75.15 141.727 75.15ZM142.102 73.065C143.062 73.065 143.797 72.345 143.797 71.175C143.797 70.005 143.062 69.3 142.102 69.3C141.142 69.3 140.407 70.005 140.407 71.175C140.407 72.345 141.142 73.065 142.102 73.065ZM150.127 75H147.862V67.35H149.812L149.962 68.025H150.037C150.292 67.665 150.982 67.2 151.852 67.2C152.962 67.2 153.682 67.83 153.937 68.25H154.012C154.342 67.755 155.152 67.2 156.307 67.2C157.912 67.2 159.157 68.505 159.157 70.305V75H156.892V70.635C156.892 69.795 156.457 69.36 155.812 69.36C155.137 69.36 154.642 69.885 154.642 70.635V75H152.377V70.635C152.377 69.795 151.927 69.36 151.297 69.36C150.607 69.36 150.127 69.885 150.127 70.635V75ZM164.529 75.15C162.219 75.15 160.509 73.44 160.509 71.175C160.509 68.91 162.219 67.2 164.529 67.2C166.734 67.2 168.414 68.88 168.414 71.085C168.414 71.415 168.369 71.7 168.339 71.835H162.759C162.879 72.66 163.584 73.32 164.529 73.32C165.294 73.32 165.774 72.915 165.939 72.72H168.219C167.964 73.575 166.839 75.15 164.529 75.15ZM162.759 70.47H166.179C166.059 69.675 165.444 69 164.529 69C163.539 69 162.924 69.675 162.759 70.47Z" fill="#D3D5DE"/>
<g clip-path="url(#clip1_4060_86656)">
<path d="M184.333 63C184.333 59.3181 187.318 56.3333 191 56.3333H245.333C249.015 56.3333 252 59.3181 252 63V77C252 80.6819 249.015 83.6667 245.333 83.6667H191C187.318 83.6667 184.333 80.6819 184.333 77V63Z" fill="#B3C1FF" fill-opacity="0.15"/>
<path d="M205.686 70.0606C205.686 72.5805 204.178 74.1077 202.139 74.1077C200.093 74.1077 198.588 72.5766 198.588 70.0606C198.588 67.5408 200.093 66.0135 202.139 66.0135C204.178 66.0135 205.686 67.5408 205.686 70.0606ZM204.509 70.0606C204.509 68.141 203.493 67.0984 202.139 67.0984C200.781 67.0984 199.769 68.141 199.769 70.0606C199.769 71.9803 200.781 73.0229 202.139 73.0229C203.493 73.0229 204.509 71.9803 204.509 70.0606ZM207.222 74V66.1212H208.373V69.0489H208.442C208.646 68.6834 209.042 68.014 210.139 68.014C211.566 68.014 212.62 69.1412 212.62 71.057C212.62 72.969 211.581 74.1154 210.15 74.1154C209.073 74.1154 208.65 73.4576 208.442 73.0806H208.346V74H207.222ZM208.35 71.0455C208.35 72.2881 208.904 73.1344 209.892 73.1344C210.919 73.1344 211.458 72.2304 211.458 71.0455C211.458 69.8721 210.935 68.9912 209.892 68.9912C208.888 68.9912 208.35 69.8106 208.35 71.0455ZM213.966 68.0909H215.116V74.3847C215.116 75.5696 214.466 76.2159 213.242 76.2159C213.162 76.2159 213.089 76.2159 213.008 76.2121V75.2234H213.192C213.739 75.2234 213.966 74.9233 213.966 74.377V68.0909ZM214.535 67.1792C214.135 67.1792 213.808 66.8714 213.808 66.4944C213.808 66.1174 214.135 65.8058 214.535 65.8058C214.931 65.8058 215.262 66.1174 215.262 66.4944C215.262 66.8714 214.931 67.1792 214.535 67.1792ZM219.264 74.1193C217.522 74.1193 216.452 72.919 216.452 71.084C216.452 69.2681 217.537 68.014 219.184 68.014C220.522 68.014 221.8 68.8488 221.8 70.9839V71.3917H217.599C217.629 72.5305 218.291 73.1691 219.276 73.1691C219.93 73.1691 220.43 72.8844 220.638 72.3266L221.726 72.5228C221.465 73.4845 220.553 74.1193 219.264 74.1193ZM217.602 70.53H220.672C220.669 69.6259 220.084 68.9642 219.191 68.9642C218.256 68.9642 217.649 69.6913 217.602 70.53ZM225.619 74.1193C223.903 74.1193 222.865 72.8536 222.865 71.0724C222.865 69.2681 223.942 68.014 225.608 68.014C226.95 68.014 227.923 68.8065 228.047 69.9991H226.927C226.804 69.4451 226.358 68.9835 225.627 68.9835C224.665 68.9835 224.026 69.7798 224.026 71.0455C224.026 72.3343 224.653 73.146 225.627 73.146C226.285 73.146 226.781 72.769 226.927 72.1304H228.047C227.92 73.2806 227.016 74.1193 225.619 74.1193ZM232.089 68.0909V69.0142H230.877V72.265C230.877 72.9305 231.212 73.0537 231.585 73.0537C231.77 73.0537 231.912 73.019 231.989 73.0036L232.197 73.9539C232.062 74.0039 231.816 74.0731 231.451 74.077C230.543 74.0962 229.723 73.5769 229.727 72.5035V69.0142H228.861V68.0909H229.727V66.6752H230.877V68.0909H232.089ZM237.748 69.5336L236.706 69.7182C236.571 69.322 236.24 68.9258 235.525 68.9258C234.871 68.9258 234.378 69.2489 234.382 69.7029C234.378 70.103 234.659 70.3222 235.309 70.4761L236.248 70.6916C237.333 70.9416 237.864 71.4571 237.864 72.2919C237.864 73.3614 236.875 74.1193 235.448 74.1193C234.121 74.1193 233.251 73.5307 233.059 72.4843L234.171 72.315C234.309 72.8959 234.752 73.1921 235.44 73.1921C236.194 73.1921 236.683 72.8344 236.683 72.3766C236.683 72.0073 236.417 71.7533 235.848 71.6264L234.848 71.4071C233.74 71.1609 233.232 70.6031 233.232 69.7644C233.232 68.718 234.178 68.014 235.513 68.014C236.791 68.014 237.51 68.6141 237.748 69.5336Z" fill="#D3D5DE"/>
</g>
<mask id="mask0_4060_86656" style="mask-type:alpha" maskUnits="userSpaceOnUse" x="123" y="6" width="77" height="256">
<rect x="123" y="262" width="256" height="77" transform="rotate(-90 123 262)" fill="url(#paint0_linear_4060_86656)"/>
</mask>
<g mask="url(#mask0_4060_86656)">
<rect x="123" y="262" width="256" height="77" transform="rotate(-90 123 262)" fill="#1E2029"/>
</g>
</g>
<rect x="0.5" y="0.5" width="199" height="139" rx="11.5" stroke="#303341"/>
<defs>
<linearGradient id="paint0_linear_4060_86656" x1="251" y1="262" x2="251" y2="339" gradientUnits="userSpaceOnUse">
<stop stop-opacity="0"/>
<stop offset="0.885"/>
</linearGradient>
<clipPath id="clip0_4060_86656">
<rect width="200" height="140" rx="12" fill="white"/>
</clipPath>
<clipPath id="clip1_4060_86656">
<rect width="488.167" height="40" fill="white" transform="translate(184.333 50)"/>
</clipPath>
</defs>
</svg>
