<svg width="200" height="140" viewBox="0 0 200 140" fill="none" xmlns="http://www.w3.org/2000/svg">
<rect x="0.5" y="0.5" width="199" height="139" rx="11.5" fill="#F6F7F9"/>
<rect x="0.5" y="0.5" width="199" height="139" rx="11.5" stroke="#E8E9EE"/>
<path d="M61.58 77H58.38V67.52H55.6V64.46H57.76C58.18 64.46 58.38 64.26 58.38 63.82V63H61.58V77ZM66.1283 78.88H63.7083L64.2483 73.7H67.5683L66.1283 78.88ZM75.2756 77.2C71.9556 77.2 69.3156 74.56 69.3156 70C69.3156 65.44 71.9556 62.8 75.2756 62.8C78.5956 62.8 81.2156 65.44 81.2156 70C81.2156 74.56 78.5956 77.2 75.2756 77.2ZM75.2756 74.1C76.7156 74.1 78.0156 72.78 78.0156 70C78.0156 67.22 76.7156 65.9 75.2756 65.9C73.8356 65.9 72.5156 67.22 72.5156 70C72.5156 72.78 73.8356 74.1 75.2756 74.1ZM88.7717 77.2C85.4517 77.2 82.8117 74.56 82.8117 70C82.8117 65.44 85.4517 62.8 88.7717 62.8C92.0917 62.8 94.7117 65.44 94.7117 70C94.7117 74.56 92.0917 77.2 88.7717 77.2ZM88.7717 74.1C90.2117 74.1 91.5117 72.78 91.5117 70C91.5117 67.22 90.2117 65.9 88.7717 65.9C87.3317 65.9 86.0117 67.22 86.0117 70C86.0117 72.78 87.3317 74.1 88.7717 74.1ZM102.268 77.2C98.9478 77.2 96.3078 74.56 96.3078 70C96.3078 65.44 98.9478 62.8 102.268 62.8C105.588 62.8 108.208 65.44 108.208 70C108.208 74.56 105.588 77.2 102.268 77.2ZM102.268 74.1C103.708 74.1 105.008 72.78 105.008 70C105.008 67.22 103.708 65.9 102.268 65.9C100.828 65.9 99.5078 67.22 99.5078 70C99.5078 72.78 100.828 74.1 102.268 74.1ZM113.464 77H110.124V73.7H113.464V77ZM119.978 77H116.778V67.52H113.998V64.46H116.158C116.578 64.46 116.778 64.26 116.778 63.82V63H119.978V77ZM132.207 77H122.387V74.18L128.107 69.02C128.507 68.66 128.867 68.28 128.867 67.48C128.867 66.62 128.187 65.9 127.207 65.9C126.187 65.9 125.387 66.72 125.387 67.84H122.187C122.187 64.84 124.207 62.8 127.207 62.8C130.207 62.8 132.127 64.78 132.127 67.42C132.127 69.16 131.107 70.2 129.827 71.36L127.087 73.88V73.98H132.207V77ZM138.808 77.2C135.588 77.2 133.608 75.22 133.608 72.54H136.808C136.808 73.42 137.568 74.18 138.808 74.18C140.008 74.18 140.648 73.52 140.648 72.72C140.648 71.8 139.968 71.14 138.708 71.14H137.768V68.52H138.708C139.868 68.52 140.448 67.86 140.448 67.08C140.448 66.42 139.868 65.82 138.768 65.82C137.668 65.82 137.008 66.42 137.008 67.22H133.808C133.808 64.78 135.788 62.8 138.868 62.8C141.768 62.8 143.648 64.68 143.648 66.94C143.648 68.52 142.608 69.5 141.828 69.8V69.9C142.688 70.2 143.848 71.26 143.848 73.02C143.848 75.26 141.908 77.2 138.808 77.2Z" fill="#6C7393"/>
</svg>
