<svg width="200" height="140" viewBox="0 0 200 140" fill="none" xmlns="http://www.w3.org/2000/svg">
<g clip-path="url(#clip0_4060_86664)">
<rect width="200" height="140" rx="12" fill="#1E2029"/>
<path d="M100 18C86.7452 18 76 28.7452 76 42H79C79 30.402 88.402 21 100 21C111.598 21 121 30.402 121 42C121 53.598 111.598 63 100 63V66C113.255 66 124 55.2548 124 42C124 28.7452 113.255 18 100 18Z" fill="#4D94FF"/>
<path d="M76.9283 98H69.1423V86.1H71.3523V95.875H76.9283V98ZM81.8803 98.17C79.3813 98.17 77.5113 96.283 77.5113 93.699C77.5113 91.098 79.3813 89.228 81.8803 89.228C84.3793 89.228 86.2493 91.098 86.2493 93.699C86.2493 96.283 84.3793 98.17 81.8803 98.17ZM81.8803 96.232C83.1383 96.232 84.1583 95.229 84.1583 93.699C84.1583 92.169 83.1383 91.149 81.8803 91.149C80.6223 91.149 79.5853 92.169 79.5853 93.699C79.5853 95.229 80.6223 96.232 81.8803 96.232ZM91.5175 98.17C89.2735 98.17 87.5055 96.368 87.5055 93.699C87.5055 91.03 89.2735 89.228 91.5175 89.228C92.7415 89.228 93.6085 89.772 94.0675 90.367H94.1525L94.3225 89.398H96.1245V98H94.3225L94.1525 97.014H94.0675C93.6085 97.643 92.7415 98.17 91.5175 98.17ZM91.8235 96.249C93.0475 96.249 94.0335 95.263 94.0335 93.699C94.0335 92.135 93.0475 91.149 91.8235 91.149C90.5995 91.149 89.5965 92.135 89.5965 93.699C89.5965 95.263 90.5995 96.249 91.8235 96.249ZM101.826 98.17C99.6162 98.17 97.8482 96.368 97.8482 93.699C97.8482 91.03 99.6162 89.228 101.826 89.228C102.999 89.228 103.849 89.738 104.291 90.299H104.376V86.1H106.467V98H104.665L104.495 97.014H104.41C103.9 97.677 103.05 98.17 101.826 98.17ZM102.166 96.249C103.39 96.249 104.376 95.263 104.376 93.699C104.376 92.135 103.39 91.149 102.166 91.149C100.942 91.149 99.9392 92.135 99.9392 93.699C99.9392 95.263 100.942 96.249 102.166 96.249ZM110.892 87.936H108.665V85.998H110.892V87.936ZM110.807 98H108.733V89.398H110.807V98ZM115.057 98H112.983V89.398H114.768L114.938 90.214H115.023C115.363 89.823 116.213 89.228 117.505 89.228C119.477 89.228 120.905 90.656 120.905 92.832V98H118.831V93.104C118.831 91.999 118.049 91.2 116.978 91.2C115.873 91.2 115.057 92.033 115.057 93.104V98ZM128.059 101.4H124.387V99.479H127.6C128.586 99.479 128.96 99.071 128.96 98.136V96.572H128.875C128.416 97.065 127.566 97.507 126.478 97.507C124.268 97.507 122.568 95.807 122.568 93.359C122.568 90.928 124.268 89.228 126.478 89.228C127.617 89.228 128.45 89.687 128.977 90.333H129.062L129.232 89.398H131.034V98.578C131.034 100.346 129.98 101.4 128.059 101.4ZM126.801 95.654C128.008 95.654 128.96 94.719 128.96 93.359C128.96 92.016 128.008 91.081 126.801 91.081C125.611 91.081 124.659 92.016 124.659 93.359C124.659 94.719 125.611 95.654 126.801 95.654Z" fill="#D3D5DE"/>
<path d="M58.522 119V118.169L61.6428 114.753C62.7369 113.557 63.2493 112.911 63.2493 112.038C63.2493 111.041 62.4645 110.413 61.4396 110.413C60.3455 110.413 59.6484 111.129 59.6484 112.205H58.5589C58.5589 110.543 59.8192 109.416 61.4766 109.416C63.1385 109.416 64.3203 110.58 64.3203 112.038C64.3203 113.086 63.8402 113.899 62.2152 115.639L60.0916 117.911V117.984H64.4865V119H58.522ZM70.1978 119V111.909H71.2504V113.017H71.3427C71.6382 112.26 72.3214 111.817 73.2447 111.817C74.1772 111.817 74.7958 112.26 75.1467 113.017H75.2206C75.5853 112.283 76.3285 111.817 77.3441 111.817C78.609 111.817 79.5046 112.588 79.5046 114.254V119H78.4152V114.254C78.4152 113.206 77.7504 112.795 76.9748 112.795C75.9777 112.795 75.4052 113.469 75.4052 114.384V119H74.2973V114.143C74.2973 113.336 73.7202 112.795 72.8938 112.795C72.0444 112.795 71.2873 113.529 71.2873 114.568V119H70.1978ZM81.5617 119V111.909H82.6511V119H81.5617ZM82.1156 110.727C81.6909 110.727 81.3401 110.395 81.3401 109.989C81.3401 109.582 81.6909 109.25 82.1156 109.25C82.5403 109.25 82.8912 109.582 82.8912 109.989C82.8912 110.395 82.5403 110.727 82.1156 110.727ZM85.8011 114.734V119H84.7116V111.909H85.7642V113.017H85.8565C86.1889 112.297 86.8537 111.817 87.9247 111.817C89.3604 111.817 90.3253 112.685 90.3253 114.494V119H89.2358V114.568C89.2358 113.456 88.6218 112.795 87.6108 112.795C86.5674 112.795 85.8011 113.497 85.8011 114.734ZM96.8499 116.101V111.909H97.9393V119H96.8499V117.8H96.776C96.4436 118.52 95.7419 119.092 94.6709 119.092C93.3413 119.092 92.3811 118.224 92.3811 116.415V111.909H93.4706V116.341C93.4706 117.375 94.1169 118.04 95.0217 118.04C95.8342 118.04 96.8499 117.43 96.8499 116.101ZM103.084 111.909V112.832H101.569V116.969C101.569 117.892 102.031 118.04 102.511 118.04C102.751 118.04 102.899 118.003 102.991 117.984L103.213 118.963C103.065 119.018 102.807 119.092 102.4 119.092C101.477 119.092 100.48 118.501 100.48 117.264V112.832H99.4089V111.909H100.48V110.21H101.569V111.909H103.084ZM107.684 119.148C105.635 119.148 104.379 117.689 104.379 115.51C104.379 113.331 105.653 111.817 107.574 111.817C109.051 111.817 110.62 112.722 110.62 115.362V115.824H105.473C105.524 117.343 106.406 118.169 107.684 118.169C108.538 118.169 109.18 117.8 109.457 117.061L110.51 117.357C110.177 118.428 109.125 119.148 107.684 119.148ZM105.473 114.882H109.512C109.512 113.682 108.755 112.795 107.574 112.795C106.327 112.795 105.547 113.779 105.473 114.882ZM117.365 113.497L116.387 113.774C116.197 113.285 115.805 112.759 114.854 112.759C113.986 112.759 113.34 113.202 113.34 113.811C113.34 114.356 113.718 114.637 114.559 114.845L115.611 115.104C116.876 115.413 117.495 116.036 117.495 117.024C117.495 118.248 116.373 119.148 114.725 119.148C113.275 119.148 112.283 118.506 112.029 117.301L113.063 117.043C113.257 117.804 113.815 118.188 114.706 118.188C115.722 118.188 116.368 117.689 116.368 117.08C116.368 116.59 116.031 116.249 115.316 116.082L114.134 115.805C112.832 115.501 112.25 114.845 112.25 113.866C112.25 112.666 113.358 111.817 114.854 111.817C116.257 111.817 117.024 112.491 117.365 113.497ZM122.921 109.545H124.01V117.153C124.01 117.841 124.121 118.091 124.601 118.077C124.86 118.067 124.957 118.035 125.063 118.003L125.285 118.945C125.095 119 124.786 119.055 124.472 119.055C123.438 119.055 122.921 118.46 122.921 117.449V109.545ZM129.323 119.148C127.273 119.148 126.018 117.689 126.018 115.51C126.018 113.331 127.292 111.817 129.212 111.817C130.69 111.817 132.259 112.722 132.259 115.362V115.824H127.112C127.163 117.343 128.044 118.169 129.323 118.169C130.177 118.169 130.819 117.8 131.096 117.061L132.148 117.357C131.816 118.428 130.764 119.148 129.323 119.148ZM127.112 114.882H131.151C131.151 113.682 130.394 112.795 129.212 112.795C127.966 112.795 127.186 113.779 127.112 114.882ZM137.139 111.909V112.832H135.551V119H134.462V112.832H133.317V111.909H134.462V110.93C134.462 109.712 135.44 109.102 136.456 109.102C136.992 109.102 137.324 109.213 137.49 109.287L137.176 110.229C137.065 110.192 136.881 110.118 136.567 110.118C135.847 110.118 135.551 110.487 135.551 111.189V111.909H137.139ZM141.815 111.909V112.832H140.301V116.969C140.301 117.892 140.762 118.04 141.243 118.04C141.483 118.04 141.63 118.003 141.723 117.984L141.944 118.963C141.797 119.018 141.538 119.092 141.132 119.092C140.208 119.092 139.211 118.501 139.211 117.264V112.832H138.14V111.909H139.211V110.21H140.301V111.909H141.815Z" fill="#8A8FA8"/>
</g>
<rect x="0.5" y="0.5" width="199" height="139" rx="11.5" stroke="#303341"/>
<defs>
<clipPath id="clip0_4060_86664">
<rect width="200" height="140" rx="12" fill="white"/>
</clipPath>
</defs>
</svg>
