<svg width="200" height="140" viewBox="0 0 200 140" fill="none" xmlns="http://www.w3.org/2000/svg">
<g clip-path="url(#clip0_4060_86666)">
<rect width="200" height="140" rx="12" fill="#1E2029"/>
<g filter="url(#filter0_d_4060_86666)">
<rect x="20" y="27.9999" width="160" height="83.4" rx="9.6" fill="#303341"/>
<path d="M20 37.5999C20 32.298 24.2981 27.9999 29.6 27.9999H170.4C175.702 27.9999 180 32.298 180 37.5999V66.3999H20V37.5999Z" fill="#303341"/>
<path d="M41.8743 55.3999H40.1702V46.2239H44.3257C45.9904 46.2239 47.1964 47.443 47.1964 49.2782C47.1964 51.1265 45.9904 52.3456 44.3257 52.3456H41.8743V55.3999ZM41.8743 47.8625V50.7071H44.247C44.9418 50.7071 45.4923 50.1696 45.4923 49.2913C45.4923 48.4131 44.9418 47.8625 44.247 47.8625H41.8743ZM51.3366 55.531C49.4096 55.531 47.9677 54.076 47.9677 52.0835C47.9677 50.0778 49.4096 48.6359 51.3366 48.6359C53.2636 48.6359 54.7055 50.0778 54.7055 52.0835C54.7055 54.076 53.2636 55.531 51.3366 55.531ZM51.3366 54.0366C52.3066 54.0366 53.0931 53.2632 53.0931 52.0835C53.0931 50.9037 52.3066 50.1172 51.3366 50.1172C50.3666 50.1172 49.5669 50.9037 49.5669 52.0835C49.5669 53.2632 50.3666 54.0366 51.3366 54.0366ZM57.6273 58.0216H56.028V48.767H57.4044L57.5355 49.5142H57.6011C57.9943 49.0029 58.6629 48.6359 59.5936 48.6359C61.2977 48.6359 62.661 50.0254 62.661 52.0835C62.661 54.1415 61.2977 55.531 59.5936 55.531C58.676 55.531 58.0336 55.1509 57.6928 54.7183H57.6273V58.0216ZM59.3445 54.0497C60.2883 54.0497 61.0617 53.2895 61.0617 52.0835C61.0617 50.8775 60.2883 50.1172 59.3445 50.1172C58.4007 50.1172 57.6273 50.8775 57.6273 52.0835C57.6273 53.2895 58.4007 54.0497 59.3445 54.0497ZM67.0054 55.531C65.0785 55.531 63.6365 54.076 63.6365 52.0835C63.6365 50.0778 65.0785 48.6359 67.0054 48.6359C68.9324 48.6359 70.3744 50.0778 70.3744 52.0835C70.3744 54.076 68.9324 55.531 67.0054 55.531ZM67.0054 54.0366C67.9755 54.0366 68.762 53.2632 68.762 52.0835C68.762 50.9037 67.9755 50.1172 67.0054 50.1172C66.0354 50.1172 65.2358 50.9037 65.2358 52.0835C65.2358 53.2632 66.0354 54.0366 67.0054 54.0366ZM75.2917 55.3999H73.0633L70.7824 48.767H72.4471L74.0464 53.5123H74.3086L75.9078 48.767H77.5857L75.2917 55.3999ZM81.3686 55.531C79.4547 55.531 77.9997 54.076 77.9997 52.0835C77.9997 50.0778 79.4547 48.6359 81.3686 48.6359C83.2169 48.6359 84.6326 50.0385 84.6326 51.9393C84.6326 52.2539 84.5933 52.516 84.5671 52.6078H79.5989C79.7169 53.5254 80.451 54.1808 81.3686 54.1808C82.0895 54.1808 82.6008 53.8138 82.8105 53.4599H84.4491C84.1345 54.4037 83.1513 55.531 81.3686 55.531ZM79.5989 51.5198H83.0334C82.9416 50.6415 82.2862 49.9599 81.3686 49.9599C80.3854 49.9599 79.73 50.6415 79.5989 51.5198ZM87.544 55.3999H85.9448V48.767H87.3212L87.4523 49.3307H87.5178C87.7276 49.0292 88.0946 48.767 88.7238 48.767H89.9429V50.2745H88.8287C87.9897 50.2745 87.544 50.7202 87.544 51.5853V55.3999ZM95.6872 55.3999H94.088V46.2239H95.6872V49.3962H95.7528C96.0018 49.0685 96.6704 48.6359 97.5749 48.6359C99.0955 48.6359 100.197 49.737 100.197 51.4149V55.3999H98.5973V51.6247C98.5973 50.7726 97.9943 50.1565 97.1685 50.1565C96.3164 50.1565 95.6872 50.7988 95.6872 51.6247V55.3999ZM104.846 55.531C102.932 55.531 101.477 54.076 101.477 52.0835C101.477 50.0778 102.932 48.6359 104.846 48.6359C106.695 48.6359 108.11 50.0385 108.11 51.9393C108.11 52.2539 108.071 52.516 108.045 52.6078H103.077C103.195 53.5254 103.929 54.1808 104.846 54.1808C105.567 54.1808 106.078 53.8138 106.288 53.4599H107.927C107.612 54.4037 106.629 55.531 104.846 55.531ZM103.077 51.5198H106.511C106.419 50.6415 105.764 49.9599 104.846 49.9599C103.863 49.9599 103.208 50.6415 103.077 51.5198ZM112.162 55.531C110.432 55.531 109.069 54.1415 109.069 52.0835C109.069 50.0254 110.432 48.6359 112.162 48.6359C113.106 48.6359 113.775 49.0554 114.128 49.5142H114.194L114.325 48.767H115.715V55.3999H114.325L114.194 54.6396H114.128C113.775 55.1247 113.106 55.531 112.162 55.531ZM112.398 54.0497C113.342 54.0497 114.102 53.2895 114.102 52.0835C114.102 50.8775 113.342 50.1172 112.398 50.1172C111.454 50.1172 110.681 50.8775 110.681 52.0835C110.681 53.2895 111.454 54.0497 112.398 54.0497ZM120.111 55.531C118.407 55.531 117.044 54.1415 117.044 52.0835C117.044 50.0254 118.407 48.6359 120.111 48.6359C121.016 48.6359 121.671 49.0292 122.012 49.4617H122.077V46.2239H123.69V55.3999H122.3L122.169 54.6396H122.104C121.71 55.1509 121.055 55.531 120.111 55.531ZM120.373 54.0497C121.317 54.0497 122.077 53.2895 122.077 52.0835C122.077 50.8775 121.317 50.1172 120.373 50.1172C119.43 50.1172 118.656 50.8775 118.656 52.0835C118.656 53.2895 119.43 54.0497 120.373 54.0497ZM128.452 55.531C126.538 55.531 125.083 54.076 125.083 52.0835C125.083 50.0778 126.538 48.6359 128.452 48.6359C130.3 48.6359 131.716 50.0385 131.716 51.9393C131.716 52.2539 131.677 52.516 131.65 52.6078H126.682C126.8 53.5254 127.534 54.1808 128.452 54.1808C129.173 54.1808 129.684 53.8138 129.894 53.4599H131.532C131.218 54.4037 130.235 55.531 128.452 55.531ZM126.682 51.5198H130.117C130.025 50.6415 129.37 49.9599 128.452 49.9599C127.469 49.9599 126.813 50.6415 126.682 51.5198ZM134.627 55.3999H133.028V48.767H134.405L134.536 49.3307H134.601C134.811 49.0292 135.178 48.767 135.807 48.767H137.026V50.2745H135.912C135.073 50.2745 134.627 50.7202 134.627 51.5853V55.3999Z" fill="#D3D5DE"/>
<path d="M160.801 46.0685L157.738 43.0058L156.606 44.1372L159.669 47.1999L156.606 50.2627L157.738 51.394L160.801 48.3313L163.863 51.394L164.995 50.2627L161.932 47.1999L164.995 44.1372L163.863 43.0058L160.801 46.0685Z" fill="#D3D5DE"/>
<g clip-path="url(#clip1_4060_86666)">
<g clip-path="url(#clip2_4060_86666)">
<path d="M46.2025 77.5999H45.2866C45.065 76.5511 44.1638 75.9897 43.1593 75.9897C41.7854 75.9897 40.707 77.0533 40.707 79.0181C40.707 80.9829 41.7854 82.0465 43.1593 82.0465C44.1638 82.0465 45.065 81.4852 45.2866 80.4363H46.2025C45.9218 81.9874 44.6809 82.9033 43.1593 82.9033C41.2241 82.9033 39.8206 81.4113 39.8206 79.0181C39.8206 76.6249 41.2241 75.1329 43.1593 75.1329C44.6809 75.1329 45.9218 76.0488 46.2025 77.5999ZM49.9209 82.9181C48.3845 82.9181 47.3504 81.7511 47.3504 79.9931C47.3504 78.2204 48.3845 77.0533 49.9209 77.0533C51.4572 77.0533 52.4913 78.2204 52.4913 79.9931C52.4913 81.7511 51.4572 82.9181 49.9209 82.9181ZM49.9209 82.1352C51.0879 82.1352 51.6197 81.1306 51.6197 79.9931C51.6197 78.8556 51.0879 77.8363 49.9209 77.8363C48.7538 77.8363 48.222 78.8556 48.222 79.9931C48.222 81.1306 48.7538 82.1352 49.9209 82.1352ZM54.7454 79.3874V82.7999H53.8738V77.1272H54.7158V78.0136H54.7897C55.0556 77.4374 55.5874 77.0533 56.4443 77.0533C57.5928 77.0533 58.3647 77.7477 58.3647 79.1954V82.7999H57.4931V79.2545C57.4931 78.3644 57.0019 77.8363 56.1931 77.8363C55.3585 77.8363 54.7454 78.3977 54.7454 79.3874ZM62.4764 77.1272V77.8658H61.2651V81.1749C61.2651 81.9136 61.6344 82.0317 62.0185 82.0317C62.2105 82.0317 62.3287 82.0022 62.4026 81.9874L62.5798 82.7704C62.4617 82.8147 62.2548 82.8738 61.9298 82.8738C61.1912 82.8738 60.3935 82.4011 60.3935 81.4113V77.8658H59.5367V77.1272H60.3935V75.7681H61.2651V77.1272H62.4764ZM66.157 82.9181C64.5172 82.9181 63.5127 81.7511 63.5127 80.0079C63.5127 78.2647 64.532 77.0533 66.0684 77.0533C67.2502 77.0533 68.5059 77.7772 68.5059 79.8897V80.259H64.388C64.4286 81.4741 65.134 82.1352 66.157 82.1352C66.8402 82.1352 67.3536 81.8397 67.5752 81.2488L68.4172 81.4852C68.1513 82.342 67.3093 82.9181 66.157 82.9181ZM64.388 79.5056H67.6195C67.6195 78.5454 67.0138 77.8363 66.0684 77.8363C65.0712 77.8363 64.447 78.6229 64.388 79.5056ZM70.7553 79.3874V82.7999H69.8837V77.1272H70.7258V78.0136H70.7996C71.0655 77.4374 71.5973 77.0533 72.4542 77.0533C73.6027 77.0533 74.3746 77.7477 74.3746 79.1954V82.7999H73.503V79.2545C73.503 78.3644 73.0118 77.8363 72.203 77.8363C71.3684 77.8363 70.7553 78.3977 70.7553 79.3874ZM78.4863 77.1272V77.8658H77.275V81.1749C77.275 81.9136 77.6443 82.0317 78.0284 82.0317C78.2204 82.0317 78.3386 82.0022 78.4125 81.9874L78.5898 82.7704C78.4716 82.8147 78.2648 82.8738 77.9398 82.8738C77.2011 82.8738 76.4034 82.4011 76.4034 81.4113V77.8658H75.5466V77.1272H76.4034V75.7681H77.275V77.1272H78.4863Z" fill="#D3D5DE"/>
</g>
</g>
<path fill-rule="evenodd" clip-rule="evenodd" d="M183.051 109.019L176.151 102.219L169.251 109.019H169.256L168.851 109.419L168.856 109.419L168.451 109.819H183.851L183.445 109.419L183.451 109.419L183.045 109.019H183.051Z" fill="#303341"/>
</g>
</g>
<rect x="0.5" y="0.5" width="199" height="139" rx="11.5" stroke="#303341"/>
<defs>
<filter id="filter0_d_4060_86666" x="13.6" y="23.1999" width="249.05" height="176.019" filterUnits="userSpaceOnUse" color-interpolation-filters="sRGB">
<feFlood flood-opacity="0" result="BackgroundImageFix"/>
<feColorMatrix in="SourceAlpha" type="matrix" values="0 0 0 0 0 0 0 0 0 0 0 0 0 0 0 0 0 0 127 0" result="hardAlpha"/>
<feOffset dy="1.6"/>
<feGaussianBlur stdDeviation="3.2"/>
<feColorMatrix type="matrix" values="0 0 0 0 0 0 0 0 0 0 0 0 0 0 0 0 0 0 0.16 0"/>
<feBlend mode="normal" in2="BackgroundImageFix" result="effect1_dropShadow_4060_86666"/>
<feBlend mode="normal" in="SourceGraphic" in2="effect1_dropShadow_4060_86666" result="shape"/>
</filter>
<clipPath id="clip0_4060_86666">
<rect width="200" height="140" rx="12" fill="white"/>
</clipPath>
<clipPath id="clip1_4060_86666">
<rect width="160" height="45" fill="white" transform="translate(20 66.3999)"/>
</clipPath>
<clipPath id="clip2_4060_86666">
<rect width="160" height="45" fill="white" transform="translate(20 66.3999)"/>
</clipPath>
</defs>
</svg>
