<svg width="200" height="140" viewBox="0 0 200 140" fill="none" xmlns="http://www.w3.org/2000/svg">
<g clip-path="url(#clip0_4060_86254)">
<rect width="200" height="140" rx="12" fill="#F6F7F9"/>
<g filter="url(#filter0_d_4060_86254)">
<rect x="20" y="28" width="160" height="83.4" rx="9.6" fill="white"/>
<path d="M20 37.6C20 32.2981 24.2981 28 29.6 28H170.4C175.702 28 180 32.2981 180 37.6V66.4H20V37.6Z" fill="white"/>
<path d="M41.8743 55.4H40.1702V46.224H44.3257C45.9904 46.224 47.1964 47.4431 47.1964 49.2783C47.1964 51.1266 45.9904 52.3457 44.3257 52.3457H41.8743V55.4ZM41.8743 47.8626V50.7072H44.247C44.9418 50.7072 45.4923 50.1697 45.4923 49.2914C45.4923 48.4131 44.9418 47.8626 44.247 47.8626H41.8743ZM51.3366 55.5311C49.4096 55.5311 47.9677 54.0761 47.9677 52.0836C47.9677 50.0779 49.4096 48.636 51.3366 48.636C53.2636 48.636 54.7055 50.0779 54.7055 52.0836C54.7055 54.0761 53.2636 55.5311 51.3366 55.5311ZM51.3366 54.0367C52.3066 54.0367 53.0931 53.2633 53.0931 52.0836C53.0931 50.9038 52.3066 50.1173 51.3366 50.1173C50.3666 50.1173 49.5669 50.9038 49.5669 52.0836C49.5669 53.2633 50.3666 54.0367 51.3366 54.0367ZM57.6273 58.0217H56.028V48.7671H57.4044L57.5355 49.5143H57.6011C57.9943 49.003 58.6629 48.636 59.5936 48.636C61.2977 48.636 62.661 50.0255 62.661 52.0836C62.661 54.1416 61.2977 55.5311 59.5936 55.5311C58.676 55.5311 58.0336 55.151 57.6928 54.7184H57.6273V58.0217ZM59.3445 54.0498C60.2883 54.0498 61.0617 53.2895 61.0617 52.0836C61.0617 50.8776 60.2883 50.1173 59.3445 50.1173C58.4007 50.1173 57.6273 50.8776 57.6273 52.0836C57.6273 53.2895 58.4007 54.0498 59.3445 54.0498ZM67.0054 55.5311C65.0785 55.5311 63.6365 54.0761 63.6365 52.0836C63.6365 50.0779 65.0785 48.636 67.0054 48.636C68.9324 48.636 70.3744 50.0779 70.3744 52.0836C70.3744 54.0761 68.9324 55.5311 67.0054 55.5311ZM67.0054 54.0367C67.9755 54.0367 68.762 53.2633 68.762 52.0836C68.762 50.9038 67.9755 50.1173 67.0054 50.1173C66.0354 50.1173 65.2358 50.9038 65.2358 52.0836C65.2358 53.2633 66.0354 54.0367 67.0054 54.0367ZM75.2917 55.4H73.0633L70.7824 48.7671H72.4471L74.0464 53.5124H74.3086L75.9078 48.7671H77.5857L75.2917 55.4ZM81.3686 55.5311C79.4547 55.5311 77.9997 54.0761 77.9997 52.0836C77.9997 50.0779 79.4547 48.636 81.3686 48.636C83.2169 48.636 84.6326 50.0386 84.6326 51.9394C84.6326 52.254 84.5933 52.5161 84.5671 52.6079H79.5989C79.7169 53.5255 80.451 54.1809 81.3686 54.1809C82.0895 54.1809 82.6008 53.8139 82.8105 53.46H84.4491C84.1345 54.4038 83.1513 55.5311 81.3686 55.5311ZM79.5989 51.5199H83.0334C82.9416 50.6416 82.2862 49.96 81.3686 49.96C80.3854 49.96 79.73 50.6416 79.5989 51.5199ZM87.544 55.4H85.9448V48.7671H87.3212L87.4523 49.3307H87.5178C87.7276 49.0293 88.0946 48.7671 88.7238 48.7671H89.9429V50.2746H88.8287C87.9897 50.2746 87.544 50.7203 87.544 51.5854V55.4ZM95.6872 55.4H94.088V46.224H95.6872V49.3963H95.7528C96.0018 49.0686 96.6704 48.636 97.5749 48.636C99.0955 48.636 100.197 49.7371 100.197 51.415V55.4H98.5973V51.6248C98.5973 50.7727 97.9943 50.1566 97.1685 50.1566C96.3164 50.1566 95.6872 50.7989 95.6872 51.6248V55.4ZM104.846 55.5311C102.932 55.5311 101.477 54.0761 101.477 52.0836C101.477 50.0779 102.932 48.636 104.846 48.636C106.695 48.636 108.11 50.0386 108.11 51.9394C108.11 52.254 108.071 52.5161 108.045 52.6079H103.077C103.195 53.5255 103.929 54.1809 104.846 54.1809C105.567 54.1809 106.078 53.8139 106.288 53.46H107.927C107.612 54.4038 106.629 55.5311 104.846 55.5311ZM103.077 51.5199H106.511C106.419 50.6416 105.764 49.96 104.846 49.96C103.863 49.96 103.208 50.6416 103.077 51.5199ZM112.162 55.5311C110.432 55.5311 109.069 54.1416 109.069 52.0836C109.069 50.0255 110.432 48.636 112.162 48.636C113.106 48.636 113.775 49.0555 114.128 49.5143H114.194L114.325 48.7671H115.715V55.4H114.325L114.194 54.6397H114.128C113.775 55.1247 113.106 55.5311 112.162 55.5311ZM112.398 54.0498C113.342 54.0498 114.102 53.2895 114.102 52.0836C114.102 50.8776 113.342 50.1173 112.398 50.1173C111.454 50.1173 110.681 50.8776 110.681 52.0836C110.681 53.2895 111.454 54.0498 112.398 54.0498ZM120.111 55.5311C118.407 55.5311 117.044 54.1416 117.044 52.0836C117.044 50.0255 118.407 48.636 120.111 48.636C121.016 48.636 121.671 49.0293 122.012 49.4618H122.077V46.224H123.69V55.4H122.3L122.169 54.6397H122.104C121.71 55.151 121.055 55.5311 120.111 55.5311ZM120.373 54.0498C121.317 54.0498 122.077 53.2895 122.077 52.0836C122.077 50.8776 121.317 50.1173 120.373 50.1173C119.43 50.1173 118.656 50.8776 118.656 52.0836C118.656 53.2895 119.43 54.0498 120.373 54.0498ZM128.452 55.5311C126.538 55.5311 125.083 54.0761 125.083 52.0836C125.083 50.0779 126.538 48.636 128.452 48.636C130.3 48.636 131.716 50.0386 131.716 51.9394C131.716 52.254 131.677 52.5161 131.65 52.6079H126.682C126.8 53.5255 127.534 54.1809 128.452 54.1809C129.173 54.1809 129.684 53.8139 129.894 53.46H131.532C131.218 54.4038 130.235 55.5311 128.452 55.5311ZM126.682 51.5199H130.117C130.025 50.6416 129.37 49.96 128.452 49.96C127.469 49.96 126.813 50.6416 126.682 51.5199ZM134.627 55.4H133.028V48.7671H134.405L134.536 49.3307H134.601C134.811 49.0293 135.178 48.7671 135.807 48.7671H137.026V50.2746H135.912C135.073 50.2746 134.627 50.7203 134.627 51.5854V55.4Z" fill="#21222C"/>
<path d="M160.801 46.0686L157.738 43.0059L156.606 44.1372L159.669 47.2L156.606 50.2627L157.738 51.3941L160.801 48.3313L163.863 51.3941L164.995 50.2627L161.932 47.2L164.995 44.1372L163.863 43.0059L160.801 46.0686Z" fill="#21222C"/>
<g clip-path="url(#clip1_4060_86254)">
<g clip-path="url(#clip2_4060_86254)">
<path d="M46.2025 77.6H45.2866C45.065 76.5512 44.1638 75.9898 43.1593 75.9898C41.7854 75.9898 40.707 77.0535 40.707 79.0182C40.707 80.983 41.7854 82.0466 43.1593 82.0466C44.1638 82.0466 45.065 81.4853 45.2866 80.4364H46.2025C45.9218 81.9875 44.6809 82.9035 43.1593 82.9035C41.2241 82.9035 39.8206 81.4114 39.8206 79.0182C39.8206 76.625 41.2241 75.133 43.1593 75.133C44.6809 75.133 45.9218 76.0489 46.2025 77.6ZM49.9209 82.9182C48.3845 82.9182 47.3504 81.7512 47.3504 79.9932C47.3504 78.2205 48.3845 77.0535 49.9209 77.0535C51.4572 77.0535 52.4913 78.2205 52.4913 79.9932C52.4913 81.7512 51.4572 82.9182 49.9209 82.9182ZM49.9209 82.1353C51.0879 82.1353 51.6197 81.1307 51.6197 79.9932C51.6197 78.8557 51.0879 77.8364 49.9209 77.8364C48.7538 77.8364 48.222 78.8557 48.222 79.9932C48.222 81.1307 48.7538 82.1353 49.9209 82.1353ZM54.7454 79.3875V82.8H53.8738V77.1273H54.7158V78.0137H54.7897C55.0556 77.4375 55.5874 77.0535 56.4443 77.0535C57.5928 77.0535 58.3647 77.7478 58.3647 79.1955V82.8H57.4931V79.2546C57.4931 78.3645 57.0019 77.8364 56.1931 77.8364C55.3585 77.8364 54.7454 78.3978 54.7454 79.3875ZM62.4764 77.1273V77.866H61.2651V81.175C61.2651 81.9137 61.6344 82.0319 62.0185 82.0319C62.2105 82.0319 62.3287 82.0023 62.4026 81.9875L62.5798 82.7705C62.4617 82.8148 62.2548 82.8739 61.9298 82.8739C61.1912 82.8739 60.3935 82.4012 60.3935 81.4114V77.866H59.5367V77.1273H60.3935V75.7682H61.2651V77.1273H62.4764ZM66.157 82.9182C64.5172 82.9182 63.5127 81.7512 63.5127 80.008C63.5127 78.2648 64.532 77.0535 66.0684 77.0535C67.2502 77.0535 68.5059 77.7773 68.5059 79.8898V80.2591H64.388C64.4286 81.4742 65.134 82.1353 66.157 82.1353C66.8402 82.1353 67.3536 81.8398 67.5752 81.2489L68.4172 81.4853C68.1513 82.3421 67.3093 82.9182 66.157 82.9182ZM64.388 79.5057H67.6195C67.6195 78.5455 67.0138 77.8364 66.0684 77.8364C65.0712 77.8364 64.447 78.6231 64.388 79.5057ZM70.7553 79.3875V82.8H69.8837V77.1273H70.7258V78.0137H70.7996C71.0655 77.4375 71.5973 77.0535 72.4542 77.0535C73.6027 77.0535 74.3746 77.7478 74.3746 79.1955V82.8H73.503V79.2546C73.503 78.3645 73.0118 77.8364 72.203 77.8364C71.3684 77.8364 70.7553 78.3978 70.7553 79.3875ZM78.4863 77.1273V77.866H77.275V81.175C77.275 81.9137 77.6443 82.0319 78.0284 82.0319C78.2204 82.0319 78.3386 82.0023 78.4125 81.9875L78.5898 82.7705C78.4716 82.8148 78.2648 82.8739 77.9398 82.8739C77.2011 82.8739 76.4034 82.4012 76.4034 81.4114V77.866H75.5466V77.1273H76.4034V75.7682H77.275V77.1273H78.4863Z" fill="#21222C"/>
</g>
</g>
<path fill-rule="evenodd" clip-rule="evenodd" d="M208.051 66.1439L201.151 59.3439L194.251 66.1439H194.256L193.851 66.5439L193.856 66.5439L193.451 66.9439L208.851 66.9439L208.445 66.5439L208.451 66.5439L208.045 66.1439H208.051Z" fill="white"/>
</g>
</g>
<rect x="0.5" y="0.5" width="199" height="139" rx="11.5" stroke="#E8E9EE"/>
<defs>
<filter id="filter0_d_4060_86254" x="13.6" y="23.2" width="319.05" height="244.894" filterUnits="userSpaceOnUse" color-interpolation-filters="sRGB">
<feFlood flood-opacity="0" result="BackgroundImageFix"/>
<feColorMatrix in="SourceAlpha" type="matrix" values="0 0 0 0 0 0 0 0 0 0 0 0 0 0 0 0 0 0 127 0" result="hardAlpha"/>
<feOffset dy="1.6"/>
<feGaussianBlur stdDeviation="3.2"/>
<feColorMatrix type="matrix" values="0 0 0 0 0 0 0 0 0 0 0 0 0 0 0 0 0 0 0.16 0"/>
<feBlend mode="normal" in2="BackgroundImageFix" result="effect1_dropShadow_4060_86254"/>
<feBlend mode="normal" in="SourceGraphic" in2="effect1_dropShadow_4060_86254" result="shape"/>
</filter>
<clipPath id="clip0_4060_86254">
<rect width="200" height="140" rx="12" fill="white"/>
</clipPath>
<clipPath id="clip1_4060_86254">
<rect width="160" height="45" fill="white" transform="translate(20 66.4)"/>
</clipPath>
<clipPath id="clip2_4060_86254">
<rect width="160" height="45" fill="white" transform="translate(20 66.4)"/>
</clipPath>
</defs>
</svg>
