<svg width="200" height="140" viewBox="0 0 200 140" fill="none" xmlns="http://www.w3.org/2000/svg">
<rect x="0.5" y="0.5" width="199" height="139" rx="11.5" fill="#F6F7F9"/>
<rect x="0.5" y="0.5" width="199" height="139" rx="11.5" stroke="#E8E9EE"/>
<path d="M104 70C104 57.249 94.0562 46.8206 81.5003 46.0461C80.6734 45.9951 80 46.6716 80 47.5V47.5C80 48.3284 80.6738 48.9944 81.5002 49.0528C92.398 49.822 101 58.9064 101 70C101 81.598 91.598 91 80 91C68.9064 91 59.822 82.398 59.0528 71.5002C58.9944 70.6738 58.3284 70 57.5 70V70C56.6716 70 55.9951 70.6734 56.0461 71.5003C56.8206 84.0562 67.249 94 80 94C93.2548 94 104 83.2548 104 70Z" fill="#0066FF"/>
<path fill-rule="evenodd" clip-rule="evenodd" d="M136 63C136 62.4477 136.45 61.9934 136.998 62.0616C140.945 62.5529 144 65.9197 144 70C144 74.4183 140.418 78 136 78C131.92 78 128.553 74.9453 128.062 70.998C127.993 70.45 128.448 70 129 70V70C129.552 70 129.991 70.4511 130.082 70.9958C130.557 73.8356 133.026 76 136 76C139.314 76 142 73.3137 142 70C142 67.0255 139.836 64.5566 136.996 64.0823C136.451 63.9913 136 63.5523 136 63V63Z" fill="#0066FF"/>
</svg>
