<svg width="200" height="140" viewBox="0 0 200 140" fill="none" xmlns="http://www.w3.org/2000/svg">
<rect x="0.5" y="0.5" width="199" height="139" rx="11.5" fill="#F6F7F9"/>
<rect x="0.5" y="0.5" width="199" height="139" rx="11.5" stroke="#E8E9EE"/>
<g clip-path="url(#clip0_4060_86262)">
<g clip-path="url(#clip1_4060_86262)">
<path d="M77.5 46C77.5 50.1421 74.1421 53.5 70 53.5C65.8579 53.5 62.5 50.1421 62.5 46C62.5 41.8579 65.8579 38.5 70 38.5C74.1421 38.5 77.5 41.8579 77.5 46Z" fill="#0066FF" stroke="#0066FF"/>
<circle cx="70" cy="46" r="3" fill="white"/>
</g>
<path d="M87.1449 51V41.5455H88.2898V49.9844H92.6847V51H87.1449ZM97.2553 51.1477C95.3349 51.1477 94.0423 49.6889 94.0423 47.4915C94.0423 45.2756 95.3349 43.8168 97.2553 43.8168C99.1758 43.8168 100.468 45.2756 100.468 47.4915C100.468 49.6889 99.1758 51.1477 97.2553 51.1477ZM97.2553 50.169C98.7141 50.169 99.3789 48.9134 99.3789 47.4915C99.3789 46.0696 98.7141 44.7955 97.2553 44.7955C95.7965 44.7955 95.1318 46.0696 95.1318 47.4915C95.1318 48.9134 95.7965 50.169 97.2553 50.169ZM103.562 51L101.401 43.9091H102.546L104.079 49.3381H104.153L105.667 43.9091H106.83L108.326 49.3196H108.4L109.933 43.9091H111.077L108.917 51H107.846L106.295 45.5526H106.184L104.633 51H103.562Z" fill="#21222C"/>
</g>
<g clip-path="url(#clip2_4060_86262)">
<g clip-path="url(#clip3_4060_86262)">
<path d="M77.5 70C77.5 74.1421 74.1421 77.5 70 77.5C65.8579 77.5 62.5 74.1421 62.5 70C62.5 65.8579 65.8579 62.5 70 62.5C74.1421 62.5 77.5 65.8579 77.5 70Z" fill="white" stroke="#D3D5DE"/>
</g>
<path d="M87.1449 65.5455H88.5114L91.7244 73.3935H91.8352L95.0483 65.5455H96.4148V75H95.3438V67.8168H95.2514L92.2969 75H91.2628L88.3082 67.8168H88.2159V75H87.1449V65.5455ZM101.601 75.1477C99.5509 75.1477 98.2952 73.6889 98.2952 71.5099C98.2952 69.331 99.5693 67.8168 101.49 67.8168C102.967 67.8168 104.537 68.7216 104.537 71.3622V71.8239H99.3893C99.4401 73.3427 100.322 74.169 101.601 74.169C102.455 74.169 103.096 73.7997 103.373 73.0611L104.426 73.3565C104.093 74.4276 103.041 75.1477 101.601 75.1477ZM99.3893 70.8821H103.429C103.429 69.6818 102.672 68.7955 101.49 68.7955C100.243 68.7955 99.4632 69.7788 99.3893 70.8821ZM108.937 75.1477C107.164 75.1477 105.927 73.7259 105.927 71.473C105.927 69.2386 107.164 67.8168 108.955 67.8168C110.34 67.8168 110.765 68.6662 111.005 69.0355H111.097V65.5455H112.187V75H111.134V73.9105H111.005C110.765 74.2983 110.303 75.1477 108.937 75.1477ZM109.084 74.169C110.395 74.169 111.116 73.0611 111.116 71.4545C111.116 69.8665 110.414 68.7955 109.084 68.7955C107.699 68.7955 107.016 69.9588 107.016 71.4545C107.016 72.9688 107.718 74.169 109.084 74.169ZM114.398 75V67.9091H115.488V75H114.398ZM114.952 66.7273C114.527 66.7273 114.177 66.3949 114.177 65.9886C114.177 65.5824 114.527 65.25 114.952 65.25C115.377 65.25 115.728 65.5824 115.728 65.9886C115.728 66.3949 115.377 66.7273 114.952 66.7273ZM122.017 72.1009V67.9091H123.106V75H122.017V73.7997H121.943C121.611 74.5199 120.909 75.0923 119.838 75.0923C118.508 75.0923 117.548 74.2244 117.548 72.4148V67.9091H118.638V72.3409C118.638 73.375 119.284 74.0398 120.189 74.0398C121.001 74.0398 122.017 73.4304 122.017 72.1009ZM125.167 75V67.9091H126.219V69.017H126.312C126.607 68.2599 127.29 67.8168 128.214 67.8168C129.146 67.8168 129.765 68.2599 130.116 69.017H130.19C130.554 68.283 131.298 67.8168 132.313 67.8168C133.578 67.8168 134.474 68.5877 134.474 70.2543V75H133.384V70.2543C133.384 69.2063 132.719 68.7955 131.944 68.7955C130.947 68.7955 130.374 69.4695 130.374 70.3835V75H129.266V70.1435C129.266 69.3356 128.689 68.7955 127.863 68.7955C127.013 68.7955 126.256 69.5295 126.256 70.5682V75H125.167Z" fill="#21222C"/>
</g>
<g clip-path="url(#clip4_4060_86262)">
<g clip-path="url(#clip5_4060_86262)">
<path d="M77.5 94C77.5 98.1421 74.1421 101.5 70 101.5C65.8579 101.5 62.5 98.1421 62.5 94C62.5 89.8579 65.8579 86.5 70 86.5C74.1421 86.5 77.5 89.8579 77.5 94Z" fill="white" stroke="#D3D5DE"/>
</g>
<path d="M87.1449 99V89.5455H88.2898V93.7557H93.331V89.5455H94.4759V99H93.331V94.7713H88.2898V99H87.1449ZM96.6852 99V91.9091H97.7747V99H96.6852ZM97.2392 90.7273C96.8145 90.7273 96.4636 90.3949 96.4636 89.9886C96.4636 89.5824 96.8145 89.25 97.2392 89.25C97.6639 89.25 98.0148 89.5824 98.0148 89.9886C98.0148 90.3949 97.6639 90.7273 97.2392 90.7273ZM102.697 101.807C101.114 101.807 100.241 101.128 99.7982 100.385L100.666 99.7756C100.957 100.168 101.409 100.847 102.697 100.847C103.842 100.847 104.673 100.311 104.673 99.1293V97.6889H104.581C104.341 98.0767 103.898 98.8892 102.513 98.8892C100.795 98.8892 99.5028 97.6335 99.5028 95.4176C99.5028 93.2386 100.74 91.8168 102.531 91.8168C103.916 91.8168 104.359 92.6662 104.599 93.0355H104.71V91.9091H105.763V99.2031C105.763 101.031 104.396 101.807 102.697 101.807ZM102.66 97.9105C103.972 97.9105 104.692 96.9688 104.692 95.3991C104.692 93.8665 103.99 92.7955 102.66 92.7955C101.276 92.7955 100.592 93.9588 100.592 95.3991C100.592 96.8764 101.294 97.9105 102.66 97.9105ZM108.912 94.7344V99H107.822V89.5455H108.912V93.017H109.004C109.336 92.283 109.973 91.8168 111.091 91.8168C112.54 91.8168 113.51 92.6708 113.51 94.4943V99H112.42V94.5682C112.42 93.4418 111.801 92.7955 110.777 92.7955C109.701 92.7955 108.912 93.4972 108.912 94.7344Z" fill="#21222C"/>
</g>
<defs>
<clipPath id="clip0_4060_86262">
<rect width="75" height="16" fill="white" transform="translate(62 38)"/>
</clipPath>
<clipPath id="clip1_4060_86262">
<rect width="16" height="16" fill="white" transform="translate(62 38)"/>
</clipPath>
<clipPath id="clip2_4060_86262">
<rect width="75" height="16" fill="white" transform="translate(62 62)"/>
</clipPath>
<clipPath id="clip3_4060_86262">
<rect width="16" height="16" fill="white" transform="translate(62 62)"/>
</clipPath>
<clipPath id="clip4_4060_86262">
<rect width="75" height="16" fill="white" transform="translate(62 86)"/>
</clipPath>
<clipPath id="clip5_4060_86262">
<rect width="16" height="16" fill="white" transform="translate(62 86)"/>
</clipPath>
</defs>
</svg>
