<svg width="200" height="140" viewBox="0 0 200 140" fill="none" xmlns="http://www.w3.org/2000/svg">
<rect x="0.5" y="0.5" width="199" height="139" rx="11.5" fill="#1E2029"/>
<rect x="0.5" y="0.5" width="199" height="139" rx="11.5" stroke="#303341"/>
<path d="M28 54.5H172C176.142 54.5 179.5 57.8579 179.5 62V78C179.5 82.1421 176.142 85.5 172 85.5H28C23.8579 85.5 20.5 82.1421 20.5 78V62C20.5 57.8579 23.8579 54.5 28 54.5Z" fill="#1A1B23"/>
<path d="M28 54.5H172C176.142 54.5 179.5 57.8579 179.5 62V78C179.5 82.1421 176.142 85.5 172 85.5H28C23.8579 85.5 20.5 82.1421 20.5 78V62C20.5 57.8579 23.8579 54.5 28 54.5Z" stroke="#363949"/>
<path d="M33.5327 75H32.3324L35.804 65.5455H36.9858L40.4574 75H39.2571L38.3061 72.3224H34.4837L33.5327 75ZM34.8438 71.3068H37.946L36.4318 67.0412H36.358L34.8438 71.3068ZM41.8473 65.5455H42.9368V73.1534C42.9368 73.8413 43.0476 74.0906 43.5277 74.0767C43.7862 74.0675 43.8832 74.0352 43.9894 74.0028L44.211 74.9446C44.0217 75 43.7124 75.0554 43.3985 75.0554C42.3644 75.0554 41.8473 74.4599 41.8473 73.4489V65.5455ZM45.467 65.5455H46.5565V73.1534C46.5565 73.8413 46.6673 74.0906 47.1474 74.0767C47.4059 74.0675 47.5029 74.0352 47.609 74.0028L47.8306 74.9446C47.6414 75 47.3321 75.0554 47.0181 75.0554C45.984 75.0554 45.467 74.4599 45.467 73.4489V65.5455ZM55.7013 67.9091V68.8324H54.1871V72.9688C54.1871 73.892 54.6488 74.0398 55.1289 74.0398C55.3689 74.0398 55.5167 74.0028 55.609 73.9844L55.8306 74.9631C55.6829 75.0185 55.4243 75.0923 55.0181 75.0923C54.0948 75.0923 53.0976 74.5014 53.0976 73.2642V68.8324H52.0266V67.9091H53.0976V66.2102H54.1871V67.9091H55.7013ZM58.1069 77.6591C57.7376 77.6591 57.4236 77.5852 57.3128 77.5298L57.5898 76.5696C58.3839 76.7727 58.8732 76.6712 59.2702 75.5909L59.4733 75.0369L56.8512 67.9091H58.033L59.9904 73.5597H60.0643L62.0216 67.9091H63.2035L60.1935 76.0341C59.7827 77.1374 59.0902 77.6591 58.1069 77.6591ZM64.7065 77.6591V67.9091H65.7591V69.0355H65.8883C66.1284 68.6662 66.5531 67.8168 67.938 67.8168C69.7292 67.8168 70.9664 69.2386 70.9664 71.473C70.9664 73.7259 69.7292 75.1477 67.9565 75.1477C66.59 75.1477 66.1284 74.2983 65.8883 73.9105H65.796V77.6591H64.7065ZM65.7775 71.4545C65.7775 73.0611 66.4977 74.169 67.8088 74.169C69.1752 74.169 69.8769 72.9688 69.8769 71.4545C69.8769 69.9588 69.1937 68.7955 67.8088 68.7955C66.4792 68.7955 65.7775 69.8665 65.7775 71.4545ZM75.6664 75.1477C73.6167 75.1477 72.361 73.6889 72.361 71.5099C72.361 69.331 73.6351 67.8168 75.5556 67.8168C77.0329 67.8168 78.6025 68.7216 78.6025 71.3622V71.8239H73.4551C73.5059 73.3427 74.3876 74.169 75.6664 74.169C76.5204 74.169 77.1621 73.7997 77.4391 73.0611L78.4917 73.3565C78.1593 74.4276 77.1067 75.1477 75.6664 75.1477ZM73.4551 70.8821H77.4945C77.4945 69.6818 76.7374 68.7955 75.5556 68.7955C74.3091 68.7955 73.529 69.7788 73.4551 70.8821ZM85.3475 69.4972L84.3688 69.7741C84.1795 69.2848 83.7871 68.7585 82.8361 68.7585C81.9682 68.7585 81.3219 69.2017 81.3219 69.8111C81.3219 70.3558 81.7005 70.6374 82.5407 70.8452L83.5932 71.1037C84.8582 71.413 85.4768 72.0362 85.4768 73.0241C85.4768 74.2475 84.355 75.1477 82.7069 75.1477C81.2573 75.1477 80.2648 74.506 80.0109 73.3011L81.0449 73.0426C81.2388 73.8043 81.7974 74.1875 82.6884 74.1875C83.704 74.1875 84.3503 73.6889 84.3503 73.0795C84.3503 72.5902 84.0133 72.2486 83.2978 72.0824L82.116 71.8054C80.8141 71.5007 80.2324 70.8452 80.2324 69.8665C80.2324 68.6662 81.3404 67.8168 82.8361 67.8168C84.2395 67.8168 85.0059 68.4908 85.3475 69.4972Z" fill="#D3D5DE"/>
<path fill-rule="evenodd" clip-rule="evenodd" d="M161 68.5L160 69.5L164 73.5L168 69.5L167 68.5L164 71.5L161 68.5Z" fill="#626784"/>
</svg>
