<svg width="200" height="140" viewBox="0 0 200 140" fill="none" xmlns="http://www.w3.org/2000/svg">
<g clip-path="url(#clip0_4060_86683)">
<rect width="200" height="140" rx="12" fill="#1E2029"/>
<g filter="url(#filter0_d_4060_86683)">
<g clip-path="url(#clip1_4060_86683)">
<rect x="20" y="20" width="180" height="166.612" rx="5.95041" fill="#21222C"/>
<rect width="180" height="47.6033" transform="translate(20 20)" fill="#21222C"/>
<path d="M41.8978 48.9281C39.5586 48.9281 38.2309 47.6004 38.2309 45.8934H40.254C40.254 46.5889 40.8231 47.1579 41.8978 47.1579C42.9726 47.1579 43.4152 46.7153 43.4152 46.2095C43.4152 45.767 43.0991 45.4382 42.1507 45.2612L40.7598 45.0083C39.1792 44.7175 38.4206 43.9335 38.4206 42.5426C38.4206 41.0252 39.6218 39.824 41.7714 39.824C44.1107 39.824 45.3751 41.0884 45.3751 42.8587H43.352C43.352 42.1759 42.7577 41.5942 41.7714 41.5942C40.8863 41.5942 40.4437 42.0368 40.4437 42.5426C40.4437 42.9851 40.6966 43.2127 41.5185 43.3645L42.9094 43.6174C44.6797 43.9335 45.4383 44.6922 45.4383 46.2095C45.4383 47.7269 44.2371 48.9281 41.8978 48.9281ZM48.6583 41.4172H46.6604V39.7608H48.6583V41.4172ZM48.6077 48.8017H46.6984V42.3529H48.6077V48.8017ZM52.8118 48.9281C51.168 48.9281 49.8151 47.5751 49.8151 45.5773C49.8151 43.5794 51.168 42.2265 52.8118 42.2265C53.6717 42.2265 54.3039 42.6184 54.5315 42.9093H54.5947V39.9504H56.5041V48.8017H54.8603L54.7338 48.1694H54.6706C54.3671 48.5741 53.7349 48.9281 52.8118 48.9281ZM53.1659 47.1705C53.9751 47.1705 54.5947 46.5636 54.5947 45.5773C54.5947 44.591 53.9751 43.9967 53.1659 43.9967C52.3566 43.9967 51.737 44.591 51.737 45.5773C51.737 46.5636 52.3566 47.1705 53.1659 47.1705ZM61.1561 48.9281C59.2088 48.9281 57.7673 47.4866 57.7673 45.5773C57.7673 43.6679 59.2088 42.2265 61.1561 42.2265C63.0149 42.2265 64.4311 43.6427 64.4311 45.5014C64.4311 45.7796 64.3931 46.0198 64.3678 46.1336H59.664C59.7652 46.8291 60.3595 47.3855 61.1561 47.3855C61.801 47.3855 62.2056 47.0441 62.3447 46.8797H64.2667C64.0517 47.6004 63.1034 48.9281 61.1561 48.9281ZM59.664 44.983H62.547C62.4459 44.3128 61.9274 43.7438 61.1561 43.7438C60.3216 43.7438 59.8031 44.3128 59.664 44.983ZM67.5376 51.3306H65.6283V42.3529H67.2721L67.3985 42.9851H67.4617C67.7652 42.5805 68.4101 42.2265 69.3078 42.2265C70.9516 42.2265 72.3046 43.5794 72.3046 45.5773C72.3046 47.5751 70.9516 48.9281 69.3078 48.9281C68.4354 48.9281 67.8158 48.5614 67.6008 48.2832H67.5376V51.3306ZM68.9664 47.1705C69.7757 47.1705 70.3953 46.5636 70.3953 45.5773C70.3953 44.591 69.7757 43.9967 68.9664 43.9967C68.1572 43.9967 67.5376 44.591 67.5376 45.5773C67.5376 46.5636 68.1572 47.1705 68.9664 47.1705ZM75.5549 48.9281C74.0755 48.9281 73.1903 48.043 73.1903 46.9429C73.1903 45.7164 74.0755 44.8186 75.8457 44.8186H77.2619V44.7048C77.2619 44.1611 76.8573 43.7438 76.2883 43.7438C75.7066 43.7438 75.4411 44.0726 75.3399 44.3128H73.4685C73.595 43.2886 74.5307 42.2265 76.2883 42.2265C78.0712 42.2265 79.1712 43.3265 79.1712 44.7048V48.8017H77.5148L77.3884 48.2453H77.3251C77.0849 48.5361 76.4526 48.9281 75.5549 48.9281ZM75.9722 47.4487C76.7814 47.4487 77.2619 46.9808 77.2619 46.2348V46.0831H76.0986C75.4158 46.0831 75.1123 46.3613 75.1123 46.7659C75.1123 47.1832 75.4158 47.4487 75.9722 47.4487ZM82.5407 48.8017H80.6314V42.3529H82.2752L82.4017 42.9219H82.4649C82.6925 42.6564 83.2868 42.2265 84.2731 42.2265C85.7525 42.2265 86.802 43.2886 86.802 44.9324V48.8017H84.8926V45.2485C84.8926 44.5404 84.4248 44.0473 83.7167 44.0473C83.0086 44.0473 82.5407 44.5404 82.5407 45.2485V48.8017ZM91.3229 48.9281C89.3757 48.9281 87.9342 47.4866 87.9342 45.5773C87.9342 43.6679 89.3757 42.2265 91.3229 42.2265C93.1817 42.2265 94.5979 43.6427 94.5979 45.5014C94.5979 45.7796 94.56 46.0198 94.5347 46.1336H89.8309C89.932 46.8291 90.5263 47.3855 91.3229 47.3855C91.9678 47.3855 92.3724 47.0441 92.5115 46.8797H94.4335C94.2186 47.6004 93.2702 48.9281 91.3229 48.9281ZM89.8309 44.983H92.7138C92.6127 44.3128 92.0943 43.7438 91.3229 43.7438C90.4884 43.7438 89.97 44.3128 89.8309 44.983ZM97.7676 48.8017H95.8583V39.9504H97.7676V48.8017ZM104.732 48.8017H102.823V39.9504H104.732V42.9219H104.795C105.01 42.6184 105.63 42.2265 106.464 42.2265C107.944 42.2265 108.993 43.2886 108.993 44.9324V48.8017H107.084V45.2485C107.084 44.5404 106.616 44.0473 105.908 44.0473C105.2 44.0473 104.732 44.5404 104.732 45.2485V48.8017ZM113.525 48.9281C111.578 48.9281 110.136 47.4866 110.136 45.5773C110.136 43.6679 111.578 42.2265 113.525 42.2265C115.384 42.2265 116.8 43.6427 116.8 45.5014C116.8 45.7796 116.762 46.0198 116.737 46.1336H112.033C112.134 46.8291 112.729 47.3855 113.525 47.3855C114.17 47.3855 114.575 47.0441 114.714 46.8797H116.636C116.421 47.6004 115.472 48.9281 113.525 48.9281ZM112.033 44.983H114.916C114.815 44.3128 114.296 43.7438 113.525 43.7438C112.691 43.7438 112.172 44.3128 112.033 44.983ZM120.046 48.9281C118.566 48.9281 117.681 48.043 117.681 46.9429C117.681 45.7164 118.566 44.8186 120.337 44.8186H121.753V44.7048C121.753 44.1611 121.348 43.7438 120.779 43.7438C120.197 43.7438 119.932 44.0726 119.831 44.3128H117.959C118.086 43.2886 119.021 42.2265 120.779 42.2265C122.562 42.2265 123.662 43.3265 123.662 44.7048V48.8017H122.006L121.879 48.2453H121.816C121.576 48.5361 120.943 48.9281 120.046 48.9281ZM120.463 47.4487C121.272 47.4487 121.753 46.9808 121.753 46.2348V46.0831H120.589C119.907 46.0831 119.603 46.3613 119.603 46.7659C119.603 47.1832 119.907 47.4487 120.463 47.4487ZM127.803 48.9281C126.159 48.9281 124.806 47.5751 124.806 45.5773C124.806 43.5794 126.159 42.2265 127.803 42.2265C128.663 42.2265 129.295 42.6184 129.523 42.9093H129.586V39.9504H131.495V48.8017H129.851L129.725 48.1694H129.662C129.358 48.5741 128.726 48.9281 127.803 48.9281ZM128.157 47.1705C128.966 47.1705 129.586 46.5636 129.586 45.5773C129.586 44.591 128.966 43.9967 128.157 43.9967C127.348 43.9967 126.728 44.591 126.728 45.5773C126.728 46.5636 127.348 47.1705 128.157 47.1705ZM136.147 48.9281C134.2 48.9281 132.758 47.4866 132.758 45.5773C132.758 43.6679 134.2 42.2265 136.147 42.2265C138.006 42.2265 139.422 43.6427 139.422 45.5014C139.422 45.7796 139.384 46.0198 139.359 46.1336H134.655C134.756 46.8291 135.351 47.3855 136.147 47.3855C136.792 47.3855 137.197 47.0441 137.336 46.8797H139.258C139.043 47.6004 138.094 48.9281 136.147 48.9281ZM134.655 44.983H137.538C137.437 44.3128 136.918 43.7438 136.147 43.7438C135.313 43.7438 134.794 44.3128 134.655 44.983ZM142.529 48.8017H140.619V42.3529H142.263L142.39 42.8587H142.453C142.617 42.6058 143.034 42.3529 143.591 42.3529H144.817V44.1611H143.679C142.908 44.1611 142.529 44.5404 142.529 45.337V48.8017Z" fill="#D3D5DE"/>
<path d="M174.294 38.5061C174.353 38.4479 174.353 38.3534 174.294 38.2951L173.661 37.662C173.603 37.6037 173.508 37.6037 173.45 37.662L170.247 40.865L167.044 37.662C166.986 37.6037 166.891 37.6037 166.833 37.662L166.2 38.2951C166.142 38.3534 166.142 38.4479 166.2 38.5061L169.403 41.7092L166.2 44.9122C166.142 44.9705 166.142 45.065 166.2 45.1233L166.833 45.7564C166.891 45.8147 166.986 45.8147 167.044 45.7564L170.247 42.5533L173.45 45.7564C173.508 45.8147 173.603 45.8147 173.661 45.7564L174.294 45.1233C174.353 45.065 174.353 44.9705 174.294 44.9122L171.091 41.7092L174.294 38.5061Z" fill="#D3D5DE"/>
<g clip-path="url(#clip2_4060_86683)">
<g clip-path="url(#clip3_4060_86683)">
<path d="M44.2795 69.571V76.6033H43.4554L39.6234 71.0818H39.5547V76.6033H38.7031V69.571H39.5272L43.373 75.1062H43.4417V69.571H44.2795ZM47.474 76.7269C46.4714 76.7269 45.6748 76.1363 45.6748 75.1062C45.6748 73.8975 46.7427 73.6812 47.7213 73.5541C48.6827 73.4305 49.081 73.4649 49.081 73.0734V73.0459C49.081 72.3695 48.7136 71.9746 47.9685 71.9746C47.1959 71.9746 46.7736 72.3867 46.595 72.7712L45.8258 72.4965C46.2379 71.5351 47.1444 71.2604 47.941 71.2604C48.614 71.2604 49.8914 71.4527 49.8914 73.1284V76.6033H49.081V75.8891H49.0398C48.875 76.2325 48.3943 76.7269 47.474 76.7269ZM47.5977 75.999C48.5591 75.999 49.081 75.3534 49.081 74.6941V73.9525C48.9437 74.1173 48.0234 74.2134 47.6801 74.2546C47.0483 74.337 46.4851 74.5293 46.4851 75.1474C46.4851 75.7105 46.9521 75.999 47.5977 75.999ZM51.4188 76.6033V71.3291H52.2017V72.1532H52.2704C52.4902 71.59 52.9984 71.2604 53.6851 71.2604C54.3787 71.2604 54.8388 71.59 55.0998 72.1532H55.1547C55.426 71.6072 55.9788 71.2604 56.7343 71.2604C57.6751 71.2604 58.3413 71.8338 58.3413 73.0734V76.6033H57.5309V73.0734C57.5309 72.294 57.0364 71.9884 56.4596 71.9884C55.7179 71.9884 55.2921 72.4897 55.2921 73.1696V76.6033H54.468V72.991C54.468 72.3901 54.0388 71.9884 53.4241 71.9884C52.7923 71.9884 52.2292 72.5343 52.2292 73.3069V76.6033H51.4188ZM62.0826 76.7132C60.558 76.7132 59.624 75.6281 59.624 74.0074C59.624 72.3867 60.5717 71.2604 62.0002 71.2604C63.099 71.2604 64.2665 71.9334 64.2665 73.8975V74.2409H60.4378C60.4756 75.3706 61.1314 75.9852 62.0826 75.9852C62.7178 75.9852 63.1951 75.7105 63.4012 75.1611L64.184 75.3809C63.9368 76.1775 63.1539 76.7132 62.0826 76.7132ZM60.4378 73.5404H63.4424C63.4424 72.6476 62.8792 71.9884 62.0002 71.9884C61.0731 71.9884 60.4928 72.7197 60.4378 73.5404Z" fill="#8A8FA8"/>
<path d="M111.386 76.6033L109.463 69.571H110.328L111.798 75.2985H111.866L113.364 69.571H114.325L115.822 75.2985H115.891L117.36 69.571H118.226L116.303 76.6033H115.424L113.872 70.9994H113.817L112.265 76.6033H111.386ZM120.946 76.7132C119.421 76.7132 118.487 75.6281 118.487 74.0074C118.487 72.3867 119.435 71.2604 120.863 71.2604C121.962 71.2604 123.129 71.9334 123.129 73.8975V74.2409H119.301C119.339 75.3706 119.994 75.9852 120.946 75.9852C121.581 75.9852 122.058 75.7105 122.264 75.1611L123.047 75.3809C122.8 76.1775 122.017 76.7132 120.946 76.7132ZM119.301 73.5404H122.305C122.305 72.6476 121.742 71.9884 120.863 71.9884C119.936 71.9884 119.356 72.7197 119.301 73.5404ZM124.52 76.6033V69.571H125.331V72.1669H125.399C125.578 71.8922 125.894 71.2604 126.924 71.2604C128.256 71.2604 129.177 72.318 129.177 73.9799C129.177 75.6556 128.256 76.7132 126.938 76.7132C125.921 76.7132 125.578 76.0814 125.399 75.7929H125.303V76.6033H124.52ZM125.317 73.9662C125.317 75.1611 125.853 75.9852 126.828 75.9852C127.844 75.9852 128.366 75.0925 128.366 73.9662C128.366 72.8537 127.858 71.9884 126.828 71.9884C125.839 71.9884 125.317 72.785 125.317 73.9662ZM133.631 76.6033H132.738L135.32 69.571H136.199L138.781 76.6033H137.888L137.181 74.6117H134.338L133.631 76.6033ZM134.606 73.8563H136.913L135.787 70.6835H135.732L134.606 73.8563ZM139.815 78.5811V71.3291H140.598V72.1669H140.694C140.873 71.8922 141.189 71.2604 142.219 71.2604C143.551 71.2604 144.471 72.318 144.471 73.9799C144.471 75.6556 143.551 76.7132 142.232 76.7132C141.216 76.7132 140.873 76.0814 140.694 75.7929H140.625V78.5811H139.815ZM140.612 73.9662C140.612 75.1611 141.147 75.9852 142.123 75.9852C143.139 75.9852 143.661 75.0925 143.661 73.9662C143.661 72.8537 143.153 71.9884 142.123 71.9884C141.134 71.9884 140.612 72.785 140.612 73.9662ZM145.756 78.5811V71.3291H146.539V72.1669H146.635C146.813 71.8922 147.129 71.2604 148.159 71.2604C149.492 71.2604 150.412 72.318 150.412 73.9799C150.412 75.6556 149.492 76.7132 148.173 76.7132C147.157 76.7132 146.813 76.0814 146.635 75.7929H146.566V78.5811H145.756ZM146.552 73.9662C146.552 75.1611 147.088 75.9852 148.063 75.9852C149.08 75.9852 149.602 75.0925 149.602 73.9662C149.602 72.8537 149.093 71.9884 148.063 71.9884C147.074 71.9884 146.552 72.785 146.552 73.9662Z" fill="#D3D5DE"/>
<path d="M43.3181 90.4966H44.1697V95.1528C44.1697 96.595 43.0915 97.6525 41.4364 97.6525C39.7813 97.6525 38.7031 96.595 38.7031 95.1528V90.4966H39.5547V95.0841C39.5547 96.1142 40.2621 96.8559 41.4364 96.8559C42.6107 96.8559 43.3181 96.1142 43.3181 95.0841V90.4966ZM45.9186 97.5289V90.4966H48.2947C49.9429 90.4966 50.6846 91.41 50.6846 92.653C50.6846 93.587 50.2657 94.3184 49.3695 94.624L50.9593 97.5289H49.9704L48.487 94.7785C48.4286 94.7819 48.3703 94.7819 48.3084 94.7819H46.7701V97.5289H45.9186ZM46.7701 94.0128H48.281C49.4072 94.0128 49.8468 93.4977 49.8468 92.653C49.8468 91.8083 49.4072 91.252 48.2672 91.252H46.7701V94.0128ZM52.1519 97.5289V90.4966H53.0035V96.7735H56.2724V97.5289H52.1519Z" fill="#8A8FA8"/>
<path d="M112.21 97.6388C110.685 97.6388 109.751 96.5537 109.751 94.933C109.751 93.3123 110.699 92.186 112.127 92.186C113.226 92.186 114.394 92.859 114.394 94.8231V95.1665H110.565C110.603 96.2962 111.259 96.9109 112.21 96.9109C112.845 96.9109 113.322 96.6362 113.528 96.0868L114.311 96.3065C114.064 97.1031 113.281 97.6388 112.21 97.6388ZM110.565 94.466H113.57C113.57 93.5733 113.006 92.914 112.127 92.914C111.2 92.914 110.62 93.6454 110.565 94.466ZM116.137 92.2547L117.401 94.4111L118.665 92.2547H119.599L117.896 94.8918L119.599 97.5289H118.665L117.401 95.4824L116.137 97.5289H115.203L116.879 94.8918L115.203 92.2547H116.137ZM122.355 97.6525C121.353 97.6525 120.556 97.0619 120.556 96.0318C120.556 94.8231 121.624 94.6068 122.603 94.4798C123.564 94.3562 123.962 94.3905 123.962 93.999V93.9716C123.962 93.2951 123.595 92.9002 122.85 92.9002C122.077 92.9002 121.655 93.3123 121.476 93.6969L120.707 93.4222C121.119 92.4607 122.026 92.186 122.822 92.186C123.495 92.186 124.773 92.3783 124.773 94.054V97.5289H123.962V96.8147H123.921C123.756 97.1581 123.276 97.6525 122.355 97.6525ZM122.479 96.9246C123.44 96.9246 123.962 96.279 123.962 95.6198V94.8781C123.825 95.0429 122.905 95.139 122.561 95.1803C121.93 95.2627 121.366 95.4549 121.366 96.073C121.366 96.6362 121.833 96.9246 122.479 96.9246ZM126.3 97.5289V92.2547H127.083V93.0788H127.152C127.372 92.5157 127.88 92.186 128.566 92.186C129.26 92.186 129.72 92.5157 129.981 93.0788H130.036C130.307 92.5328 130.86 92.186 131.616 92.186C132.556 92.186 133.223 92.7595 133.223 93.999V97.5289H132.412V93.999C132.412 93.2196 131.918 92.914 131.341 92.914C130.599 92.914 130.173 93.4153 130.173 94.0952V97.5289H129.349V93.9166C129.349 93.3157 128.92 92.914 128.305 92.914C127.674 92.914 127.111 93.4599 127.111 94.2325V97.5289H126.3ZM134.753 99.5068V92.2547H135.536V93.0925H135.632C135.81 92.8178 136.126 92.186 137.156 92.186C138.489 92.186 139.409 93.2436 139.409 94.9056C139.409 96.5812 138.489 97.6388 137.17 97.6388C136.154 97.6388 135.81 97.007 135.632 96.7186H135.563V99.5068H134.753ZM135.549 94.8918C135.549 96.0868 136.085 96.9109 137.06 96.9109C138.076 96.9109 138.598 96.0181 138.598 94.8918C138.598 93.7793 138.09 92.914 137.06 92.914C136.071 92.914 135.549 93.7106 135.549 94.8918ZM140.693 90.4966H141.504V96.1554C141.504 96.6671 141.586 96.8525 141.943 96.8422C142.135 96.8353 142.208 96.8113 142.287 96.7872L142.451 97.4877C142.311 97.5289 142.081 97.5701 141.847 97.5701C141.078 97.5701 140.693 97.1272 140.693 96.3752V90.4966ZM145.455 97.6388C143.931 97.6388 142.997 96.5537 142.997 94.933C142.997 93.3123 143.944 92.186 145.373 92.186C146.472 92.186 147.639 92.859 147.639 94.8231V95.1665H143.811C143.848 96.2962 144.504 96.9109 145.455 96.9109C146.091 96.9109 146.568 96.6362 146.774 96.0868L147.557 96.3065C147.31 97.1031 146.527 97.6388 145.455 97.6388ZM143.811 94.466H146.815C146.815 93.5733 146.252 92.914 145.373 92.914C144.446 92.914 143.865 93.6454 143.811 94.466ZM149.511 97.5839C149.171 97.5839 148.893 97.3057 148.893 96.9658C148.893 96.6259 149.171 96.3477 149.511 96.3477C149.851 96.3477 150.129 96.6259 150.129 96.9658C150.129 97.3057 149.851 97.5839 149.511 97.5839ZM153.774 97.6388C152.291 97.6388 151.384 96.4988 151.384 94.9193C151.384 93.3123 152.332 92.186 153.76 92.186C154.873 92.186 155.711 92.8453 155.848 93.8342H155.038C154.914 93.3535 154.488 92.914 153.774 92.914C152.826 92.914 152.195 93.6969 152.195 94.8918C152.195 96.1142 152.813 96.9109 153.774 96.9109C154.406 96.9109 154.887 96.5675 155.038 95.9906H155.848C155.711 96.9246 154.942 97.6388 153.774 97.6388ZM159.224 97.6388C157.795 97.6388 156.834 96.5537 156.834 94.9193C156.834 93.2711 157.795 92.186 159.224 92.186C160.652 92.186 161.614 93.2711 161.614 94.9193C161.614 96.5537 160.652 97.6388 159.224 97.6388ZM159.224 96.9109C160.309 96.9109 160.803 95.9769 160.803 94.9193C160.803 93.8617 160.309 92.914 159.224 92.914C158.139 92.914 157.644 93.8617 157.644 94.9193C157.644 95.9769 158.139 96.9109 159.224 96.9109ZM162.899 97.5289V92.2547H163.682V93.0788H163.751C163.97 92.5157 164.478 92.186 165.165 92.186C165.859 92.186 166.319 92.5157 166.58 93.0788H166.635C166.906 92.5328 167.459 92.186 168.214 92.186C169.155 92.186 169.821 92.7595 169.821 93.999V97.5289H169.011V93.999C169.011 93.2196 168.517 92.914 167.94 92.914C167.198 92.914 166.772 93.4153 166.772 94.0952V97.5289H165.948V93.9166C165.948 93.3157 165.519 92.914 164.904 92.914C164.272 92.914 163.709 93.4599 163.709 94.2325V97.5289H162.899Z" fill="#D3D5DE"/>
<path d="M42.5489 113.18C42.4665 112.487 41.821 112.082 40.9694 112.082C40.0354 112.082 39.4173 112.576 39.4173 113.249C39.4173 114.004 40.2552 114.279 40.7771 114.416L41.4913 114.609C42.2193 114.801 43.4692 115.227 43.4692 116.545C43.4692 117.685 42.5489 118.578 40.9282 118.578C39.4173 118.578 38.4834 117.795 38.401 116.642H39.28C39.3487 117.438 40.0904 117.809 40.9282 117.809C41.9034 117.809 42.6451 117.301 42.6451 116.532C42.6451 115.831 41.9858 115.57 41.2441 115.364L40.3788 115.117C39.28 114.801 38.5933 114.238 38.5933 113.29C38.5933 112.109 39.6508 111.326 40.9969 111.326C42.3566 111.326 43.3353 112.119 43.373 113.18H42.5489ZM44.8077 118.455V113.18H45.6181V118.455H44.8077ZM45.2198 112.301C44.9039 112.301 44.6429 112.054 44.6429 111.752C44.6429 111.45 44.9039 111.202 45.2198 111.202C45.5357 111.202 45.7967 111.45 45.7967 111.752C45.7967 112.054 45.5357 112.301 45.2198 112.301ZM46.9996 118.455V117.836L49.9938 113.991V113.936H47.0957V113.18H51.0377V113.826L48.1259 117.644V117.699H51.1338V118.455H46.9996ZM54.4906 118.564C52.966 118.564 52.032 117.479 52.032 115.859C52.032 114.238 52.9797 113.112 54.4082 113.112C55.507 113.112 56.6745 113.785 56.6745 115.749V116.092H52.8458C52.8836 117.222 53.5394 117.836 54.4906 117.836C55.1258 117.836 55.6031 117.562 55.8091 117.012L56.592 117.232C56.3448 118.029 55.5619 118.564 54.4906 118.564ZM52.8458 115.392H55.8504C55.8504 114.499 55.2872 113.84 54.4082 113.84C53.4811 113.84 52.9008 114.571 52.8458 115.392Z" fill="#8A8FA8"/>
<path d="M112.457 111.422V118.455H111.606V112.315H111.564L109.847 113.455V112.59L111.606 111.422H112.457ZM114.528 118.455V117.836L116.849 115.295C117.663 114.406 118.044 113.925 118.044 113.276C118.044 112.535 117.46 112.068 116.698 112.068C115.884 112.068 115.366 112.6 115.366 113.4H114.555C114.555 112.164 115.493 111.326 116.726 111.326C117.962 111.326 118.841 112.191 118.841 113.276C118.841 114.056 118.484 114.66 117.275 115.955L115.695 117.644V117.699H118.964V118.455H114.528ZM122.628 118.551C121.42 118.551 120.496 117.768 120.445 116.696H121.269C121.334 117.332 121.907 117.795 122.628 117.795C123.494 117.795 124.125 117.133 124.125 116.229C124.125 115.309 123.47 114.629 122.573 114.622C122.141 114.619 121.643 114.77 121.351 114.98L120.554 114.883L120.98 111.422H124.634V112.178H121.694L121.447 114.252H121.488C121.777 114.022 122.237 113.853 122.711 113.853C124.002 113.853 124.95 114.853 124.95 116.216C124.95 117.562 123.968 118.551 122.628 118.551ZM129.253 118.455V111.422H130.105V114.911H130.187L133.347 111.422H134.459L131.506 114.595L134.459 118.455H133.429L130.984 115.186L130.105 116.175V118.455H129.253ZM135.61 118.455V111.422H138.068C139.538 111.422 140.225 112.26 140.225 113.29C140.225 114.197 139.689 114.595 139.085 114.76V114.828C139.73 114.87 140.499 115.474 140.499 116.587C140.499 117.644 139.813 118.455 138.151 118.455H135.61ZM136.461 117.699H138.151C139.263 117.699 139.689 117.205 139.689 116.587C139.689 115.872 139.112 115.254 138.192 115.254H136.461V117.699ZM136.461 114.513H138.041C138.81 114.513 139.414 114.032 139.414 113.29C139.414 112.672 139.002 112.178 138.068 112.178H136.461V114.513Z" fill="#D3D5DE"/>
</g>
</g>
<rect width="180" height="53.6529" transform="translate(20 133.347)" fill="#21222C"/>
<g clip-path="url(#clip4_4060_86683)">
<path d="M43.8018 145.248C43.8018 141.962 46.4658 139.298 49.7522 139.298H96.653C99.9393 139.298 102.603 141.962 102.603 145.248V157.248C102.603 160.534 99.9393 163.198 96.653 163.198H49.7522C46.4658 163.198 43.8018 160.534 43.8018 157.248V145.248Z" fill="#E2E3E9"/>
<path d="M114.504 145.248C114.504 141.962 117.168 139.298 120.454 139.298H167.355C170.641 139.298 173.306 141.962 173.306 145.248V157.248C173.306 160.534 170.641 163.198 167.355 163.198H120.454C117.168 163.198 114.504 160.534 114.504 157.248V145.248Z" fill="#303341"/>
</g>
</g>
</g>
</g>
<rect x="0.5" y="0.5" width="199" height="139" rx="11.5" stroke="#303341"/>
<defs>
<filter id="filter0_d_4060_86683" x="14.0496" y="15.5372" width="191.901" height="178.512" filterUnits="userSpaceOnUse" color-interpolation-filters="sRGB">
<feFlood flood-opacity="0" result="BackgroundImageFix"/>
<feColorMatrix in="SourceAlpha" type="matrix" values="0 0 0 0 0 0 0 0 0 0 0 0 0 0 0 0 0 0 127 0" result="hardAlpha"/>
<feOffset dy="1.4876"/>
<feGaussianBlur stdDeviation="2.97521"/>
<feColorMatrix type="matrix" values="0 0 0 0 0 0 0 0 0 0 0 0 0 0 0 0 0 0 0.16 0"/>
<feBlend mode="normal" in2="BackgroundImageFix" result="effect1_dropShadow_4060_86683"/>
<feBlend mode="normal" in="SourceGraphic" in2="effect1_dropShadow_4060_86683" result="shape"/>
</filter>
<clipPath id="clip0_4060_86683">
<rect width="200" height="140" rx="12" fill="white"/>
</clipPath>
<clipPath id="clip1_4060_86683">
<rect x="20" y="20" width="180" height="166.612" rx="5.95041" fill="white"/>
</clipPath>
<clipPath id="clip2_4060_86683">
<rect width="180" height="119.008" fill="white" transform="translate(20 67.6033)"/>
</clipPath>
<clipPath id="clip3_4060_86683">
<rect width="180" height="119.008" fill="white" transform="translate(20 67.6033)"/>
</clipPath>
<clipPath id="clip4_4060_86683">
<rect width="132.397" height="23.9008" fill="white" transform="translate(43.8018 139.298)"/>
</clipPath>
</defs>
</svg>
