<svg width="200" height="140" viewBox="0 0 200 140" fill="none" xmlns="http://www.w3.org/2000/svg">
<rect x="0.5" y="0.5" width="199" height="139" rx="11.5" fill="#F6F7F9"/>
<rect x="0.5" y="0.5" width="199" height="139" rx="11.5" stroke="#E8E9EE"/>
<rect x="26.8096" y="53.8502" width="145.381" height="33.2995" rx="3.24873" fill="white"/>
<g clip-path="url(#clip0_4060_86307)">
<mask id="path-3-inside-1_4060_86307" fill="white">
<path d="M27.2158 53.8502H171.784V87.1548H27.2158V53.8502Z"/>
</mask>
<mask id="path-5-inside-2_4060_86307" fill="white">
<path d="M33.7129 53.8502H106.809V87.1548H33.7129V53.8502Z"/>
</mask>
<path d="M33.7129 53.8502H106.809V87.1548H33.7129V53.8502Z" fill="white"/>
<path d="M106.809 86.3426H33.7129V87.967H106.809V86.3426Z" fill="#D3D5DE" mask="url(#path-5-inside-2_4060_86307)"/>
<g clip-path="url(#clip1_4060_86307)">
<path d="M41.1398 73.5964V65.9176H42.0697V72.7716H45.6391V73.5964H41.1398ZM49.3514 73.7164C47.7916 73.7164 46.7418 72.5316 46.7418 70.7469C46.7418 68.9472 47.7916 67.7623 49.3514 67.7623C50.9111 67.7623 51.961 68.9472 51.961 70.7469C51.961 72.5316 50.9111 73.7164 49.3514 73.7164ZM49.3514 72.9215C50.5362 72.9215 51.0761 71.9017 51.0761 70.7469C51.0761 69.5921 50.5362 68.5572 49.3514 68.5572C48.1665 68.5572 47.6266 69.5921 47.6266 70.7469C47.6266 71.9017 48.1665 72.9215 49.3514 72.9215ZM55.6891 75.8761C54.4031 75.8761 53.6944 75.3249 53.3345 74.7213L54.0394 74.2263C54.2756 74.545 54.643 75.0962 55.6891 75.0962C56.619 75.0962 57.2939 74.6613 57.2939 73.7014V72.5316H57.2189C57.0239 72.8466 56.664 73.5064 55.5391 73.5064C54.1444 73.5064 53.0945 72.4866 53.0945 70.6869C53.0945 68.9172 54.0994 67.7623 55.5541 67.7623C56.679 67.7623 57.0389 68.4522 57.2339 68.7522H57.3239V67.8373H58.1787V73.7614C58.1787 75.2462 57.0689 75.8761 55.6891 75.8761ZM55.6591 72.7116C56.724 72.7116 57.3089 71.9467 57.3089 70.6719C57.3089 69.4271 56.739 68.5572 55.6591 68.5572C54.5343 68.5572 53.9794 69.5021 53.9794 70.6719C53.9794 71.8717 54.5493 72.7116 55.6591 72.7116ZM59.8513 73.5964V67.8373H60.7361V73.5964H59.8513ZM60.3012 66.8775C59.9563 66.8775 59.6713 66.6075 59.6713 66.2776C59.6713 65.9476 59.9563 65.6777 60.3012 65.6777C60.6462 65.6777 60.9311 65.9476 60.9311 66.2776C60.9311 66.6075 60.6462 66.8775 60.3012 66.8775ZM63.2945 70.132V73.5964H62.4096V67.8373H63.2645V68.7372H63.3395C63.6094 68.1523 64.1494 67.7623 65.0192 67.7623C66.1853 67.7623 66.9689 68.4672 66.9689 69.937V73.5964H66.0841V69.997C66.0841 69.0934 65.5854 68.5572 64.7643 68.5572C63.9169 68.5572 63.2945 69.1271 63.2945 70.132Z" fill="#21222C"/>
<path fill-rule="evenodd" clip-rule="evenodd" d="M74.708 68.4721L77.9567 71.7208L81.2055 68.4721H74.708Z" fill="#21222C"/>
</g>
<mask id="path-9-inside-3_4060_86307" fill="white">
<path d="M106.81 53.8502H165.287V87.1548H106.81V53.8502Z"/>
</mask>
<path d="M106.81 53.8502H165.287V87.1548H106.81V53.8502Z" fill="white"/>
<path d="M165.287 86.3426H106.81V87.967H165.287V86.3426Z" fill="#D3D5DE" mask="url(#path-9-inside-3_4060_86307)"/>
<path d="M114.236 73.5964V65.9176H118.871V66.7425H115.166V69.3371H118.631V70.162H115.166V72.7716H118.931V73.5964H114.236ZM120.48 73.5964V67.8373H121.334V68.7372H121.409C121.649 68.1223 122.204 67.7623 122.954 67.7623C123.712 67.7623 124.214 68.1223 124.499 68.7372H124.559C124.855 68.141 125.459 67.7623 126.284 67.7623C127.311 67.7623 128.038 68.3885 128.038 69.742V73.5964H127.154V69.742C127.154 68.8909 126.614 68.5572 125.984 68.5572C125.174 68.5572 124.709 69.1046 124.709 69.847V73.5964H123.809V69.652C123.809 68.9959 123.34 68.5572 122.669 68.5572C121.979 68.5572 121.364 69.1534 121.364 69.997V73.5964H120.48ZM131.404 73.7314C130.309 73.7314 129.439 73.0865 129.439 71.9617C129.439 70.6419 130.605 70.4057 131.674 70.2669C132.724 70.132 133.159 70.1695 133.159 69.742V69.712C133.159 68.9734 132.757 68.5422 131.944 68.5422C131.1 68.5422 130.639 68.9921 130.444 69.4121L129.604 69.1121C130.054 68.0623 131.044 67.7623 131.914 67.7623C132.649 67.7623 134.043 67.9723 134.043 69.802V73.5964H133.159V72.8166H133.114C132.934 73.1915 132.409 73.7314 131.404 73.7314ZM131.539 72.9365C132.589 72.9365 133.159 72.2316 133.159 71.5118V70.7019C133.009 70.8819 132.004 70.9868 131.629 71.0318C130.939 71.1218 130.324 71.3318 130.324 72.0067C130.324 72.6216 130.834 72.9365 131.539 72.9365ZM135.711 73.5964V67.8373H136.596V73.5964H135.711ZM136.161 66.8775C135.816 66.8775 135.531 66.6075 135.531 66.2776C135.531 65.9476 135.816 65.6777 136.161 65.6777C136.506 65.6777 136.791 65.9476 136.791 66.2776C136.791 66.6075 136.506 66.8775 136.161 66.8775ZM138.27 65.9176H139.154V72.0967C139.154 72.6553 139.244 72.8578 139.634 72.8466C139.844 72.8391 139.923 72.8128 140.009 72.7866L140.189 73.5514C140.036 73.5964 139.784 73.6414 139.529 73.6414C138.69 73.6414 138.27 73.1578 138.27 72.3366V65.9176Z" fill="#6C7393"/>
</g>
<path d="M171.784 86.3426H27.2158V87.967H171.784V86.3426Z" fill="#D3D5DE" mask="url(#path-3-inside-1_4060_86307)"/>
<rect x="91.8809" y="60.1041" width="1.62437" height="19.4924" rx="0.812183" fill="#0066FF"/>
<g clip-path="url(#clip2_4060_86307)">
<path fill-rule="evenodd" clip-rule="evenodd" d="M97.4693 72.5304V79.8473H96.2255V75.6248L88.9414 82.2912L96.2255 88.9442V84.707H97.4693V92.0228H97.4937H102.319V84.7058H103.608V88.9296L110.87 82.262L103.608 75.609V79.8461H102.319V72.5304H97.4693Z" fill="white"/>
<path fill-rule="evenodd" clip-rule="evenodd" d="M108.848 82.263L104.803 78.3365V81.0825H101.124V73.8215H101.101V73.7972H98.7365V81.1068H95.0085V78.3292L90.9639 82.2898L95.0085 86.2175V83.4715H98.7365V90.7811H98.7608H101.101H101.124V83.4715H104.803V86.2236L108.848 82.263Z" fill="black"/>
</g>
<defs>
<clipPath id="clip0_4060_86307">
<path d="M27.2158 53.8502H171.784V87.1548H27.2158V53.8502Z" fill="white"/>
</clipPath>
<clipPath id="clip1_4060_86307">
<rect width="60.1015" height="13" fill="white" transform="translate(40.21 63.5964)"/>
</clipPath>
<clipPath id="clip2_4060_86307">
<rect width="21.9289" height="19.4924" fill="white" transform="translate(88.9414 72.5304)"/>
</clipPath>
</defs>
</svg>
