<svg width="200" height="140" viewBox="0 0 200 140" fill="none" xmlns="http://www.w3.org/2000/svg">
<rect x="0.5" y="0.5" width="199" height="139" rx="11.5" fill="#1E2029"/>
<rect x="0.5" y="0.5" width="199" height="139" rx="11.5" stroke="#303341"/>
<rect x="20" y="22.0001" width="160" height="96.855" rx="7.29" fill="#1A1B23"/>
<mask id="path-3-inside-1_4060_86806" fill="white">
<path d="M27.29 29.29H117.29V57.165H27.29V29.29Z"/>
</mask>
<path d="M117.29 56.49H27.29V57.84H117.29V56.49Z" fill="#363949" mask="url(#path-3-inside-1_4060_86806)"/>
<g clip-path="url(#clip0_4060_86806)">
<path d="M33.4632 46.39V40.0082H37.2898V40.6937H34.236V42.8501H37.0031V43.5356H34.236V46.39H33.4632ZM38.5576 46.39V41.6037H39.293V46.39H38.5576ZM38.9315 40.8059C38.6448 40.8059 38.408 40.5816 38.408 40.3073C38.408 40.0331 38.6448 39.8088 38.9315 39.8088C39.2182 39.8088 39.455 40.0331 39.455 40.3073C39.455 40.5816 39.2182 40.8059 38.9315 40.8059ZM40.6838 40.0082H41.4192V45.1436C41.4192 45.6079 41.494 45.7761 41.8181 45.7668C41.9926 45.7606 42.058 45.7387 42.1297 45.7169L42.2792 46.3526C42.1515 46.39 41.9427 46.4274 41.7308 46.4274C41.0328 46.4274 40.6838 46.0254 40.6838 45.343V40.0082ZM45.0053 46.4897C43.6218 46.4897 42.7742 45.505 42.7742 44.0342C42.7742 42.5634 43.6342 41.5413 44.9305 41.5413C45.9277 41.5413 46.9872 42.1521 46.9872 43.9345V44.2461H43.5127C43.547 45.2713 44.1421 45.8291 45.0053 45.8291C45.5818 45.8291 46.0149 45.5798 46.2019 45.0812L46.9124 45.2807C46.688 46.0036 45.9775 46.4897 45.0053 46.4897ZM43.5127 43.6104H46.2393C46.2393 42.8002 45.7283 42.2019 44.9305 42.2019C44.0892 42.2019 43.5625 42.8657 43.5127 43.6104Z" fill="#8A8FA8"/>
</g>
<mask id="path-6-inside-2_4060_86806" fill="white">
<path d="M117.29 29.29H171.29V57.165H117.29V29.29Z"/>
</mask>
<path d="M171.29 56.49H117.29V57.84H171.29V56.49Z" fill="#363949" mask="url(#path-6-inside-2_4060_86806)"/>
<g clip-path="url(#clip1_4060_86806)">
<path d="M126.953 41.6037C126.878 40.9742 126.293 40.6065 125.52 40.6065C124.672 40.6065 124.111 41.0552 124.111 41.666C124.111 42.3515 124.872 42.6008 125.345 42.7255L125.994 42.9C126.654 43.0745 127.788 43.4609 127.788 44.6575C127.788 45.692 126.953 46.5022 125.482 46.5022C124.111 46.5022 123.264 45.7917 123.189 44.7447H123.987C124.049 45.4676 124.722 45.8042 125.482 45.8042C126.367 45.8042 127.041 45.343 127.041 44.645C127.041 44.0093 126.442 43.7725 125.769 43.5855L124.984 43.3611C123.987 43.0745 123.364 42.5634 123.364 41.7034C123.364 40.6314 124.323 39.9209 125.545 39.9209C126.779 39.9209 127.667 40.6408 127.701 41.6037H126.953ZM129.003 46.39V41.6037H129.739V46.39H129.003ZM129.377 40.8059C129.09 40.8059 128.854 40.5816 128.854 40.3073C128.854 40.0331 129.09 39.8088 129.377 39.8088C129.664 39.8088 129.901 40.0331 129.901 40.3073C129.901 40.5816 129.664 40.8059 129.377 40.8059ZM130.992 46.39V45.8291L133.71 42.3391V42.2892H131.08V41.6037H134.657V42.1895L132.014 45.6546V45.7045H134.744V46.39H130.992ZM137.79 46.4897C136.407 46.4897 135.559 45.505 135.559 44.0342C135.559 42.5634 136.419 41.5413 137.716 41.5413C138.713 41.5413 139.772 42.1521 139.772 43.9345V44.2461H136.298C136.332 45.2713 136.927 45.8291 137.79 45.8291C138.367 45.8291 138.8 45.5798 138.987 45.0812L139.697 45.2807C139.473 46.0036 138.763 46.4897 137.79 46.4897ZM136.298 43.6104H139.024C139.024 42.8002 138.513 42.2019 137.716 42.2019C136.874 42.2019 136.348 42.8657 136.298 43.6104Z" fill="#8A8FA8"/>
</g>
<path d="M35.4326 74.3523C34.0241 74.3523 33.2139 73.1588 33.2139 71.0741C33.2139 69.005 34.0366 67.7959 35.4326 67.7959C36.8286 67.7959 37.6513 69.005 37.6513 71.0741C37.6513 73.1588 36.8411 74.3523 35.4326 74.3523ZM35.4326 73.6667C36.3612 73.6667 36.9034 72.735 36.9034 71.0741C36.9034 69.4163 36.355 68.469 35.4326 68.469C34.5102 68.469 33.9618 69.4163 33.9618 71.0741C33.9618 72.735 34.504 73.6667 35.4326 73.6667ZM40.9609 74.3523C39.5524 74.3523 38.7422 73.1588 38.7422 71.0741C38.7422 69.005 39.5648 67.7959 40.9609 67.7959C42.3569 67.7959 43.1795 69.005 43.1795 71.0741C43.1795 73.1588 42.3694 74.3523 40.9609 74.3523ZM40.9609 73.6667C41.8895 73.6667 42.4317 72.735 42.4317 71.0741C42.4317 69.4163 41.8832 68.469 40.9609 68.469C40.0385 68.469 39.4901 69.4163 39.4901 71.0741C39.4901 72.735 40.0323 73.6667 40.9609 73.6667ZM46.4891 74.3523C45.0806 74.3523 44.2704 73.1588 44.2704 71.0741C44.2704 69.005 45.0931 67.7959 46.4891 67.7959C47.8851 67.7959 48.7078 69.005 48.7078 71.0741C48.7078 73.1588 47.8976 74.3523 46.4891 74.3523ZM46.4891 73.6667C47.4177 73.6667 47.9599 72.735 47.9599 71.0741C47.9599 69.4163 47.4115 68.469 46.4891 68.469C45.5667 68.469 45.0183 69.4163 45.0183 71.0741C45.0183 72.735 45.5605 73.6667 46.4891 73.6667ZM50.2614 74.3149C49.9529 74.3149 49.7005 74.0625 49.7005 73.754C49.7005 73.4455 49.9529 73.1931 50.2614 73.1931C50.5699 73.1931 50.8223 73.4455 50.8223 73.754C50.8223 74.0625 50.5699 74.3149 50.2614 74.3149ZM54.2675 69.4787V70.1019H53.2454V72.8939C53.2454 73.5171 53.557 73.6169 53.8811 73.6169C54.0431 73.6169 54.1428 73.5919 54.2051 73.5795L54.3547 74.2401C54.255 74.2775 54.0805 74.3273 53.8063 74.3273C53.183 74.3273 52.51 73.9285 52.51 73.0934V70.1019H51.787V69.4787H52.51V68.3319H53.2454V69.4787H54.2675ZM55.966 69.4787L57.1127 71.4356L58.2595 69.4787H59.107L57.5614 71.8718L59.107 74.265H58.2595L57.1127 72.4078L55.966 74.265H55.1184L56.6391 71.8718L55.1184 69.4787H55.966ZM62.2818 69.4787V70.1019H61.2598V72.8939C61.2598 73.5171 61.5714 73.6169 61.8954 73.6169C62.0575 73.6169 62.1572 73.5919 62.2195 73.5795L62.3691 74.2401C62.2694 74.2775 62.0949 74.3273 61.8207 74.3273C61.1974 74.3273 60.5243 73.9285 60.5243 73.0934V70.1019H59.8014V69.4787H60.5243V68.3319H61.2598V69.4787H62.2818Z" fill="#D3D5DE"/>
<path d="M125.595 67.8832V74.265H124.822V68.6934H124.784L123.226 69.7279V68.9427L124.822 67.8832H125.595ZM127.673 74.265L130.528 68.6186V68.5687H127.237V67.8832H131.325V68.6061L128.484 74.265H127.673ZM135.155 74.265V67.8832H135.928V71.0492H136.002L138.869 67.8832H139.879L137.199 70.7625L139.879 74.265H138.944L136.725 71.2985L135.928 72.1959V74.265H135.155ZM140.923 74.265V67.8832H143.154C144.488 67.8832 145.111 68.6435 145.111 69.5784C145.111 70.401 144.625 70.7625 144.077 70.9121V70.9744C144.662 71.0118 145.36 71.5602 145.36 72.5698C145.36 73.5296 144.737 74.265 143.229 74.265H140.923ZM141.696 73.5795H143.229C144.239 73.5795 144.625 73.1307 144.625 72.5698C144.625 71.9217 144.102 71.3608 143.266 71.3608H141.696V73.5795ZM141.696 70.6877H143.129C143.827 70.6877 144.376 70.2514 144.376 69.5784C144.376 69.0175 144.002 68.5687 143.154 68.5687H141.696V70.6877Z" fill="#D3D5DE"/>
<path d="M34.772 101.577C33.8621 101.577 33.1392 101.041 33.1392 100.106C33.1392 99.0095 34.1083 98.8132 34.9964 98.6979C35.8689 98.5857 36.2303 98.6169 36.2303 98.2617V98.2367C36.2303 97.6228 35.8969 97.2645 35.2207 97.2645C34.5196 97.2645 34.1363 97.6384 33.9743 97.9874L33.2763 97.7381C33.6502 96.8656 34.4729 96.6163 35.1958 96.6163C35.8066 96.6163 36.9657 96.7908 36.9657 98.3115V101.465H36.2303V100.817H36.193C36.0434 101.128 35.6071 101.577 34.772 101.577ZM34.8842 100.917C35.7567 100.917 36.2303 100.331 36.2303 99.7325V99.0594C36.1057 99.209 35.2706 99.2962 34.959 99.3336C34.3856 99.4084 33.8746 99.5829 33.8746 100.144C33.8746 100.655 34.2983 100.917 34.8842 100.917ZM38.3519 101.465V96.6787H39.0624V97.4016H39.1122C39.2867 96.928 39.7853 96.6039 40.3587 96.6039C40.4677 96.6039 40.6609 96.6101 40.7451 96.6163V97.3642C40.6952 97.3517 40.4927 97.3144 40.2964 97.3144C39.5983 97.3144 39.0873 97.788 39.0873 98.4362V101.465H38.3519ZM43.4595 101.565C42.1133 101.565 41.2906 100.53 41.2906 99.0968C41.2906 97.6384 42.1507 96.6163 43.447 96.6163C44.4566 96.6163 45.217 97.2146 45.3416 98.1121H44.6062C44.494 97.6758 44.1076 97.277 43.4595 97.277C42.5994 97.277 42.0261 97.9874 42.0261 99.0718C42.0261 100.181 42.587 100.904 43.4595 100.904C44.0328 100.904 44.4691 100.593 44.6062 100.069H45.3416C45.217 100.917 44.5189 101.565 43.4595 101.565ZM47.1959 98.5857V101.465H46.4605V95.0832H47.1959V97.4265H47.2583C47.4826 96.9311 47.9127 96.6163 48.6668 96.6163C49.6452 96.6163 50.2996 97.1928 50.2996 98.4237V101.465H49.5642V98.4735C49.5642 97.7132 49.1466 97.277 48.4549 97.277C47.7288 97.277 47.1959 97.7506 47.1959 98.5857ZM51.6889 101.465V96.6787H52.4243V101.465H51.6889ZM52.0628 95.8809C51.7761 95.8809 51.5393 95.6566 51.5393 95.3824C51.5393 95.1081 51.7761 94.8838 52.0628 94.8838C52.3495 94.8838 52.5863 95.1081 52.5863 95.3824C52.5863 95.6566 52.3495 95.8809 52.0628 95.8809ZM57.7289 96.6787L55.959 101.465H55.2111L53.4412 96.6787H54.2389L55.5601 100.493H55.61L56.9312 96.6787H57.7289ZM60.5789 101.565C59.1953 101.565 58.3477 100.58 58.3477 99.1092C58.3477 97.6384 59.2078 96.6163 60.5041 96.6163C61.5013 96.6163 62.5607 97.2271 62.5607 99.0095V99.3211H59.0863C59.1205 100.346 59.7157 100.904 60.5789 100.904C61.1554 100.904 61.5885 100.655 61.7755 100.156L62.4859 100.356C62.2616 101.079 61.5511 101.565 60.5789 101.565ZM59.0863 98.6854H61.8129C61.8129 97.8753 61.3018 97.277 60.5041 97.277C59.6627 97.277 59.1361 97.9407 59.0863 98.6854ZM64.2593 101.515C63.9508 101.515 63.6984 101.262 63.6984 100.954C63.6984 100.645 63.9508 100.393 64.2593 100.393C64.5678 100.393 64.8202 100.645 64.8202 100.954C64.8202 101.262 64.5678 101.515 64.2593 101.515ZM66.0466 101.465V100.904L68.7639 97.4141V97.3642H66.1339V96.6787H69.7112V97.2645L67.0687 100.73V100.779H69.7984V101.465H66.0466ZM70.975 101.465V96.6787H71.7104V101.465H70.975ZM71.3489 95.8809C71.0623 95.8809 70.8254 95.6566 70.8254 95.3824C70.8254 95.1081 71.0623 94.8838 71.3489 94.8838C71.6356 94.8838 71.8725 95.1081 71.8725 95.3824C71.8725 95.6566 71.6356 95.8809 71.3489 95.8809ZM73.1012 103.26V96.6787H73.8117V97.439H73.899C74.061 97.1897 74.3477 96.6163 75.2825 96.6163C76.4916 96.6163 77.3267 97.5761 77.3267 99.0843C77.3267 100.605 76.4916 101.565 75.295 101.565C74.3726 101.565 74.061 100.991 73.899 100.73H73.8366V103.26H73.1012ZM73.8242 99.0718C73.8242 100.156 74.3103 100.904 75.1953 100.904C76.1176 100.904 76.5913 100.094 76.5913 99.0718C76.5913 98.0622 76.1301 97.277 75.1953 97.277C74.2978 97.277 73.8242 97.9999 73.8242 99.0718Z" fill="#D3D5DE"/>
<path d="M125.595 95.0832V101.465H124.822V95.8934H124.784L123.226 96.928V96.1427L124.822 95.0832H125.595ZM128.206 100.593L128.156 100.929C128.05 101.64 127.733 102.599 127.583 103.023H127.022C127.103 102.627 127.281 101.786 127.371 100.942L127.408 100.593H128.206ZM129.6 101.465V100.904L131.707 98.5982C132.445 97.7911 132.791 97.3549 132.791 96.7659C132.791 96.0928 132.261 95.669 131.57 95.669C130.831 95.669 130.36 96.152 130.36 96.8781H129.625C129.625 95.7563 130.476 94.996 131.594 94.996C132.716 94.996 133.514 95.7812 133.514 96.7659C133.514 97.4733 133.19 98.0217 132.093 99.1965L130.66 100.73V100.779H133.626V101.465H129.6ZM137.581 95.0832H138.503L140.672 100.381H140.747L142.916 95.0832H143.838V101.465H143.115V96.6163H143.053L141.059 101.465H140.361L138.366 96.6163H138.304V101.465H137.581V95.0832ZM145.432 101.465V95.0832H147.663C148.996 95.0832 149.62 95.8435 149.62 96.7784C149.62 97.601 149.134 97.9625 148.585 98.1121V98.1744C149.171 98.2118 149.869 98.7602 149.869 99.7699C149.869 100.73 149.246 101.465 147.738 101.465H145.432ZM146.204 100.779H147.738C148.747 100.779 149.134 100.331 149.134 99.7699C149.134 99.1217 148.61 98.5608 147.775 98.5608H146.204V100.779ZM146.204 97.8877H147.638C148.336 97.8877 148.884 97.4515 148.884 96.7784C148.884 96.2175 148.51 95.7688 147.663 95.7688H146.204V97.8877Z" fill="#D3D5DE"/>
<defs>
<clipPath id="clip0_4060_86806">
<rect width="79.2" height="11" fill="white" transform="translate(32.6904 37.39)"/>
</clipPath>
<clipPath id="clip1_4060_86806">
<rect width="43.2" height="11" fill="white" transform="translate(122.69 37.39)"/>
</clipPath>
</defs>
</svg>
