<svg width="200" height="140" viewBox="0 0 200 140" fill="none" xmlns="http://www.w3.org/2000/svg">
<rect x="0.5" y="0.5" width="199" height="139" rx="11.5" fill="#F6F7F9"/>
<rect x="0.5" y="0.5" width="199" height="139" rx="11.5" stroke="#E8E9EE"/>
<g clip-path="url(#clip0_4060_86273)">
<rect x="16" y="54" width="176" height="32" rx="8" fill="#F6F7F9"/>
<path d="M16 62C16 57.5817 19.5817 54 24 54H59C63.4183 54 67 57.5817 67 62V78C67 82.4183 63.4183 86 59 86H24C19.5817 86 16 82.4183 16 78V62Z" fill="#6C7393" fill-opacity="0.16"/>
<path d="M28.5724 66.7734V65.5455H33.3459V66.7734H31.6747V73.772H33.3459V75H28.5724V73.772H30.2482V66.7734H28.5724ZM36.2893 70.7898V75H34.9089V67.9091H36.2339V69.0632H36.3216C36.6493 68.3107 37.3464 67.8168 38.4128 67.8168C39.8624 67.8168 40.8273 68.7354 40.8273 70.4897V75H39.4469V70.6559C39.4469 69.6264 38.8791 69.0124 37.942 69.0124C36.9817 69.0124 36.2893 69.6587 36.2893 70.7898ZM46.1181 67.9091V69.017H44.59V75H43.2051V69.017H42.111V67.9091H43.2051V67.0874C43.2051 65.7578 44.1884 65.1023 45.3102 65.1023C45.8688 65.1023 46.2704 65.2177 46.4643 65.2915L46.1412 66.4087C46.0119 66.3672 45.8088 66.3026 45.5226 66.3026C44.8486 66.3026 44.59 66.6442 44.59 67.272V67.9091H46.1181ZM50.3149 75.1431C48.3159 75.1431 47.0095 73.6797 47.0095 71.4869C47.0095 69.2802 48.3159 67.8168 50.3149 67.8168C52.3138 67.8168 53.6202 69.2802 53.6202 71.4869C53.6202 73.6797 52.3138 75.1431 50.3149 75.1431ZM50.3195 73.9844C51.6167 73.9844 52.2261 72.8441 52.2261 71.4822C52.2261 70.125 51.6167 68.9709 50.3195 68.9709C49.013 68.9709 48.4036 70.125 48.4036 71.4822C48.4036 72.8441 49.013 73.9844 50.3195 73.9844Z" fill="#21222C"/>
<path d="M80.0387 75V65.5455H81.4652V73.772H85.7493V75H80.0387ZM90.3177 75.1431C88.3187 75.1431 87.0123 73.6797 87.0123 71.4869C87.0123 69.2802 88.3187 67.8168 90.3177 67.8168C92.3166 67.8168 93.6231 69.2802 93.6231 71.4869C93.6231 73.6797 92.3166 75.1431 90.3177 75.1431ZM90.3223 73.9844C91.6195 73.9844 92.2289 72.8441 92.2289 71.4822C92.2289 70.125 91.6195 68.9709 90.3223 68.9709C89.0158 68.9709 88.4064 70.125 88.4064 71.4822C88.4064 72.8441 89.0158 73.9844 90.3223 73.9844ZM98.2018 77.8068C96.5076 77.8068 95.5612 77.0682 95.1873 76.2003L96.3737 75.7109C96.6184 76.1172 97.0662 76.6942 98.2157 76.6942C99.2636 76.6942 100.025 76.2141 100.025 75.1016V73.7074H99.9376C99.6883 74.1598 99.1851 74.8938 97.8833 74.8938C96.2075 74.8938 94.9195 73.6889 94.9195 71.4268C94.9195 69.1694 96.1798 67.8168 97.8925 67.8168C99.2128 67.8168 99.7022 68.62 99.9469 69.0586H100.048V67.9091H101.401V75.157C101.401 76.9805 100.007 77.8068 98.2018 77.8068ZM98.188 73.7489C99.379 73.7489 100.039 72.8718 100.039 71.4084C100.039 69.9727 99.3929 68.9893 98.188 68.9893C96.9415 68.9893 96.3137 70.0465 96.3137 71.4084C96.3137 72.8026 96.9554 73.7489 98.188 73.7489ZM108.631 69.6403L107.38 69.8619C107.218 69.3864 106.821 68.9109 105.962 68.9109C105.178 68.9109 104.587 69.2987 104.591 69.8434C104.587 70.3235 104.924 70.5866 105.704 70.7713L106.83 71.0298C108.132 71.3299 108.769 71.9485 108.769 72.9503C108.769 74.2337 107.583 75.1431 105.87 75.1431C104.277 75.1431 103.234 74.4368 103.003 73.1811L104.337 72.978C104.504 73.6751 105.035 74.0305 105.861 74.0305C106.766 74.0305 107.352 73.6012 107.352 73.0518C107.352 72.6087 107.034 72.304 106.35 72.1516L105.15 71.8885C103.82 71.593 103.211 70.9237 103.211 69.9173C103.211 68.6616 104.347 67.8168 105.949 67.8168C107.481 67.8168 108.345 68.5369 108.631 69.6403Z" fill="#21222C"/>
<path d="M131.039 75V65.5455H134.409C136.602 65.5455 137.682 66.7688 137.682 68.5092C137.682 69.7788 137.105 70.7436 135.946 71.1729L138.042 75H136.417L134.496 71.4222C134.464 71.4222 134.436 71.4222 134.404 71.4222H132.465V75H131.039ZM132.465 70.1942H134.275C135.664 70.1942 136.246 69.5756 136.246 68.5092C136.246 67.4382 135.664 66.7688 134.256 66.7688H132.465V70.1942ZM142.339 75.1431C140.248 75.1431 138.964 73.7028 138.964 71.5007C138.964 69.3217 140.266 67.8168 142.242 67.8168C143.849 67.8168 145.381 68.8185 145.381 71.3807V71.87H140.34C140.377 73.2365 141.171 74.0028 142.353 74.0028C143.138 74.0028 143.738 73.6612 143.987 72.9918L145.294 73.2273C144.98 74.3814 143.886 75.1431 142.339 75.1431ZM140.345 70.8359H144.029C144.024 69.7511 143.322 68.957 142.251 68.957C141.13 68.957 140.4 69.8295 140.345 70.8359ZM146.978 77.6591V67.9091H148.326V69.0586H148.441C148.686 68.62 149.161 67.8168 150.477 67.8168C152.19 67.8168 153.455 69.1694 153.455 71.4684C153.455 73.7628 152.208 75.1385 150.491 75.1385C149.198 75.1385 148.691 74.3491 148.441 73.8967H148.358V77.6591H146.978ZM148.33 71.4545C148.33 72.9457 148.995 73.9613 150.182 73.9613C151.414 73.9613 152.061 72.8764 152.061 71.4545C152.061 70.0465 151.433 68.9893 150.182 68.9893C148.977 68.9893 148.33 69.9727 148.33 71.4545ZM158.053 75.1431C156.054 75.1431 154.748 73.6797 154.748 71.4869C154.748 69.2802 156.054 67.8168 158.053 67.8168C160.052 67.8168 161.359 69.2802 161.359 71.4869C161.359 73.6797 160.052 75.1431 158.053 75.1431ZM158.058 73.9844C159.355 73.9844 159.964 72.8441 159.964 71.4822C159.964 70.125 159.355 68.9709 158.058 68.9709C156.751 68.9709 156.142 70.125 156.142 71.4822C156.142 72.8441 156.751 73.9844 158.058 73.9844ZM162.964 75V67.9091H164.298V69.0355H164.372C164.631 68.2738 165.342 67.8029 166.173 67.8029C166.348 67.8029 166.621 67.8168 166.759 67.8352V69.1555C166.648 69.1232 166.325 69.0724 166.039 69.0724C165.06 69.0724 164.345 69.7418 164.345 70.6697V75H162.964ZM171.747 67.9091V69.017H170.293V72.918C170.293 73.7166 170.695 73.8643 171.143 73.8643C171.364 73.8643 171.535 73.8228 171.627 73.8043L171.877 74.9446C171.715 75.0046 171.42 75.0877 170.981 75.0923C169.892 75.1154 168.908 74.4922 168.913 73.2042V69.017H167.874V67.9091H168.913V66.2102H170.293V67.9091H171.747ZM178.539 69.6403L177.288 69.8619C177.126 69.3864 176.729 68.9109 175.87 68.9109C175.086 68.9109 174.495 69.2987 174.499 69.8434C174.495 70.3235 174.832 70.5866 175.612 70.7713L176.738 71.0298C178.04 71.3299 178.677 71.9485 178.677 72.9503C178.677 74.2337 177.491 75.1431 175.778 75.1431C174.185 75.1431 173.142 74.4368 172.911 73.1811L174.245 72.978C174.412 73.6751 174.942 74.0305 175.769 74.0305C176.674 74.0305 177.26 73.6012 177.26 73.0518C177.26 72.6087 176.941 72.304 176.258 72.1516L175.058 71.8885C173.728 71.593 173.119 70.9237 173.119 69.9173C173.119 68.6616 174.255 67.8168 175.857 67.8168C177.389 67.8168 178.252 68.5369 178.539 69.6403Z" fill="#21222C"/>
<mask id="mask0_4060_86273" style="mask-type:alpha" maskUnits="userSpaceOnUse" x="136" y="54" width="56" height="32">
<rect x="192" y="86" width="56" height="32" transform="rotate(-180 192 86)" fill="url(#paint0_linear_4060_86273)"/>
</mask>
<g mask="url(#mask0_4060_86273)">
<rect x="192" y="86" width="56" height="32" transform="rotate(-180 192 86)" fill="#F6F7F9"/>
</g>
<path fill-rule="evenodd" clip-rule="evenodd" d="M173 65.5L174 64.5L179 69.5L174 74.5L173 73.5L177 69.5L173 65.5Z" fill="#21222C"/>
</g>
<defs>
<linearGradient id="paint0_linear_4060_86273" x1="192" y1="86" x2="248" y2="86" gradientUnits="userSpaceOnUse">
<stop offset="0.569887" stop-color="white"/>
<stop offset="1" stop-color="white" stop-opacity="0"/>
</linearGradient>
<clipPath id="clip0_4060_86273">
<rect x="16" y="54" width="176" height="32" rx="8" fill="white"/>
</clipPath>
</defs>
</svg>
