<svg width="200" height="140" viewBox="0 0 200 140" fill="none" xmlns="http://www.w3.org/2000/svg">
<rect x="0.5" y="0.5" width="199" height="139" rx="11.5" fill="#1E2029"/>
<rect x="0.5" y="0.5" width="199" height="139" rx="11.5" stroke="#303341"/>
<path d="M19 66.0796C19 64.3211 20.4256 62.8955 22.1841 62.8955H66.6965C68.455 62.8955 69.8806 64.3211 69.8806 66.0796V78.8159C69.8806 80.5744 68.455 82 66.6965 82H22.1841C20.4256 82 19 80.5744 19 78.8159V66.0796Z" fill="#303341"/>
<path d="M24.2311 69.3992V68.4217H30.0556V69.3992H27.7074V75.9478H26.5756V69.3992H24.2311ZM32.1809 76.0727C31.1078 76.0727 30.2737 75.4627 30.2737 74.3529C30.2737 73.0704 31.3688 72.7911 32.4381 72.6662C33.4524 72.5486 33.864 72.5559 33.864 72.1554V72.1296C33.864 71.4902 33.5001 71.1191 32.7909 71.1191C32.0523 71.1191 31.6407 71.5049 31.479 71.9055L30.4464 71.6703C30.8139 70.6413 31.7546 70.2298 32.7762 70.2298C33.6729 70.2298 34.9664 70.5568 34.9664 72.1994V75.9478H33.8933V75.176H33.8493C33.6398 75.5986 33.1143 76.0727 32.1809 76.0727ZM32.4198 75.1907C33.3348 75.1907 33.8676 74.5807 33.8676 73.9119V73.1843C33.7096 73.3423 32.8644 73.4379 32.5079 73.4856C31.8722 73.5702 31.3504 73.7796 31.3504 74.3676C31.3504 74.9115 31.7987 75.1907 32.4198 75.1907ZM38.8482 78.182C37.4995 78.182 36.7462 77.5941 36.4486 76.9032L37.393 76.5137C37.5877 76.8371 37.9442 77.2964 38.8592 77.2964C39.6934 77.2964 40.2998 76.9142 40.2998 76.0286V74.9188H40.2299C40.0315 75.2789 39.6309 75.8632 38.5946 75.8632C37.2607 75.8632 36.2354 74.9041 36.2354 73.1035C36.2354 71.3065 37.2386 70.2298 38.602 70.2298C39.653 70.2298 40.0425 70.8692 40.2373 71.2183H40.3181V70.3032H41.3948V76.0727C41.3948 77.5242 40.2851 78.182 38.8482 78.182ZM38.8372 74.9519C39.7853 74.9519 40.3108 74.2537 40.3108 73.0888C40.3108 71.9459 39.7963 71.1632 38.8372 71.1632C37.845 71.1632 37.3452 72.0047 37.3452 73.0888C37.3452 74.1985 37.856 74.9519 38.8372 74.9519ZM48.5512 68.4217V75.9478H47.412V69.5609H47.3679L45.5673 70.7369V69.6491L47.4451 68.4217H48.5512Z" fill="#D3D5DE"/>
<path d="M58.7362 71.322L57.0476 69.6334L55.9219 70.7592L57.6105 72.4478L55.9219 74.1364L57.0476 75.2621L58.7362 73.5735L60.4248 75.2621L61.5506 74.1364L59.862 72.4478L61.5506 70.7592L60.4248 69.6334L58.7362 71.322Z" fill="#626784"/>
<path d="M73.0645 66.0796C73.0645 64.3211 74.49 62.8955 76.2485 62.8955H121.761C123.519 62.8955 124.945 64.3211 124.945 66.0796V78.8159C124.945 80.5744 123.519 82 121.761 82H76.2485C74.49 82 73.0645 80.5744 73.0645 78.8159V66.0796Z" fill="#303341"/>
<path d="M78.2955 69.3992V68.4217H84.1201V69.3992H81.7719V75.9478H80.64V69.3992H78.2955ZM86.2453 76.0727C85.1723 76.0727 84.3381 75.4627 84.3381 74.3529C84.3381 73.0704 85.4332 72.7911 86.5026 72.6662C87.5168 72.5486 87.9284 72.5559 87.9284 72.1554V72.1296C87.9284 71.4902 87.5646 71.1191 86.8554 71.1191C86.1167 71.1191 85.7051 71.5049 85.5435 71.9055L84.5108 71.6703C84.8783 70.6413 85.8191 70.2298 86.8407 70.2298C87.7373 70.2298 89.0308 70.5568 89.0308 72.1994V75.9478H87.9578V75.176H87.9137C87.7042 75.5986 87.1787 76.0727 86.2453 76.0727ZM86.4842 75.1907C87.3992 75.1907 87.9321 74.5807 87.9321 73.9119V73.1843C87.7741 73.3423 86.9289 73.4379 86.5724 73.4856C85.9367 73.5702 85.4148 73.7796 85.4148 74.3676C85.4148 74.9115 85.8632 75.1907 86.4842 75.1907ZM92.9127 78.182C91.564 78.182 90.8107 77.5941 90.513 76.9032L91.4574 76.5137C91.6522 76.8371 92.0087 77.2964 92.9237 77.2964C93.7579 77.2964 94.3642 76.9142 94.3642 76.0286V74.9188H94.2944C94.0959 75.2789 93.6954 75.8632 92.6591 75.8632C91.3251 75.8632 90.2999 74.9041 90.2999 73.1035C90.2999 71.3065 91.3031 70.2298 92.6664 70.2298C93.7174 70.2298 94.107 70.8692 94.3017 71.2183H94.3826V70.3032H95.4593V76.0727C95.4593 77.5242 94.3495 78.182 92.9127 78.182ZM92.9016 74.9519C93.8497 74.9519 94.3752 74.2537 94.3752 73.0888C94.3752 71.9459 93.8608 71.1632 92.9016 71.1632C91.9094 71.1632 91.4097 72.0047 91.4097 73.0888C91.4097 74.1985 91.9205 74.9519 92.9016 74.9519ZM99.7603 75.9478V75.1246L102.307 72.4861C103.115 71.6299 103.512 71.1521 103.512 70.487C103.512 69.7373 102.932 69.267 102.167 69.267C101.355 69.267 100.833 69.7961 100.837 70.6046H99.753C99.753 69.2302 100.782 68.3189 102.189 68.3189C103.608 68.3189 104.593 69.2449 104.593 70.4539C104.593 71.2954 104.199 71.9606 102.821 73.3533L101.326 74.9188V74.9739H104.714V75.9478H99.7603Z" fill="#D3D5DE"/>
<path d="M113.801 71.322L112.112 69.6334L110.986 70.7592L112.675 72.4478L110.986 74.1364L112.112 75.2621L113.801 73.5735L115.489 75.2621L116.615 74.1364L114.926 72.4478L116.615 70.7592L115.489 69.6334L113.801 71.322Z" fill="#626784"/>
<path d="M128.129 66.0796C128.129 64.3211 129.554 62.8955 131.313 62.8955H176.825C178.584 62.8955 180.01 64.3211 180.01 66.0796V78.8159C180.01 80.5744 178.584 82 176.825 82H131.313C129.554 82 128.129 80.5744 128.129 78.8159V66.0796Z" fill="#303341"/>
<path d="M133.36 69.3992V68.4217H139.185V69.3992H136.836V75.9478H135.705V69.3992H133.36ZM141.31 76.0727C140.237 76.0727 139.403 75.4627 139.403 74.3529C139.403 73.0704 140.498 72.7911 141.567 72.6662C142.581 72.5486 142.993 72.5559 142.993 72.1554V72.1296C142.993 71.4902 142.629 71.1191 141.92 71.1191C141.181 71.1191 140.77 71.5049 140.608 71.9055L139.575 71.6703C139.943 70.6413 140.884 70.2298 141.905 70.2298C142.802 70.2298 144.095 70.5568 144.095 72.1994V75.9478H143.022V75.176H142.978C142.769 75.5986 142.243 76.0727 141.31 76.0727ZM141.549 75.1907C142.464 75.1907 142.997 74.5807 142.997 73.9119V73.1843C142.839 73.3423 141.993 73.4379 141.637 73.4856C141.001 73.5702 140.479 73.7796 140.479 74.3676C140.479 74.9115 140.928 75.1907 141.549 75.1907ZM147.977 78.182C146.628 78.182 145.875 77.5941 145.577 76.9032L146.522 76.5137C146.717 76.8371 147.073 77.2964 147.988 77.2964C148.822 77.2964 149.429 76.9142 149.429 76.0286V74.9188H149.359C149.16 75.2789 148.76 75.8632 147.724 75.8632C146.39 75.8632 145.364 74.9041 145.364 73.1035C145.364 71.3065 146.368 70.2298 147.731 70.2298C148.782 70.2298 149.171 70.8692 149.366 71.2183H149.447V70.3032H150.524V76.0727C150.524 77.5242 149.414 78.182 147.977 78.182ZM147.966 74.9519C148.914 74.9519 149.44 74.2537 149.44 73.0888C149.44 71.9459 148.925 71.1632 147.966 71.1632C146.974 71.1632 146.474 72.0047 146.474 73.0888C146.474 74.1985 146.985 74.9519 147.966 74.9519ZM154.707 73.9854H155.857C155.927 74.6836 156.559 75.0731 157.368 75.0731C158.235 75.0731 158.885 74.6248 158.885 73.787C158.885 73.0373 158.371 72.3979 157.133 72.3979H156.46V71.538L158.268 69.4507V69.3956H155.078V68.4217H159.753V69.2449L157.739 71.5527V71.6115C159.132 71.7034 160.036 72.6515 160.036 73.8237C160.036 75.1246 158.915 76.0506 157.357 76.0506C155.909 76.0506 154.781 75.2642 154.707 73.9854Z" fill="#D3D5DE"/>
<path d="M168.865 71.322L167.177 69.6334L166.051 70.7592L167.739 72.4478L166.051 74.1364L167.177 75.2621L168.865 73.5735L170.554 75.2621L171.679 74.1364L169.991 72.4478L171.679 70.7592L170.554 69.6334L168.865 71.322Z" fill="#626784"/>
</svg>
