<svg width="200" height="140" viewBox="0 0 200 140" fill="none" xmlns="http://www.w3.org/2000/svg">
<rect x="0.5" y="0.5" width="199" height="139" rx="11.5" fill="#1E2029"/>
<rect x="0.5" y="0.5" width="199" height="139" rx="11.5" stroke="#303341"/>
<rect x="12.4961" y="51.6831" width="175.008" height="30.8837" rx="7.44186" fill="#1A1B23"/>
<rect x="12.4961" y="51.6831" width="175.008" height="30.8837" rx="7.44186" stroke="#363949" stroke-width="0.992248"/>
<path d="M15.9688 59.187C15.9688 56.995 17.7457 55.218 19.9377 55.218H70.7982C72.9902 55.218 74.7672 56.995 74.7672 59.187V75.063C74.7672 77.255 72.9902 79.032 70.7982 79.032H19.9377C17.7457 79.032 15.9688 77.255 15.9688 75.063V59.187Z" fill="#303341"/>
<path d="M20.5055 63.9622V62.7437H27.7659V63.9622H24.8388V72.125H23.428V63.9622H20.5055ZM30.4151 72.2807C29.0775 72.2807 28.0377 71.5203 28.0377 70.137C28.0377 68.5383 29.4027 68.1902 30.7357 68.0344C32 67.8879 32.513 67.897 32.513 67.3977V67.3657C32.513 66.5686 32.0595 66.106 31.1754 66.106C30.2547 66.106 29.7417 66.5869 29.5401 67.0862L28.253 66.7931C28.711 65.5105 29.8837 64.9974 31.1571 64.9974C32.2748 64.9974 33.8872 65.4051 33.8872 67.4527V72.125H32.5497V71.1631H32.4947C32.2336 71.6898 31.5785 72.2807 30.4151 72.2807ZM30.7128 71.1814C31.8534 71.1814 32.5176 70.421 32.5176 69.5873V68.6803C32.3206 68.8773 31.2671 68.9964 30.8227 69.0559C30.0303 69.1613 29.3798 69.4224 29.3798 70.1553C29.3798 70.8332 29.9387 71.1814 30.7128 71.1814ZM38.7259 74.9101C37.0448 74.9101 36.1058 74.1771 35.7347 73.316L36.912 72.8304C37.1548 73.2335 37.5991 73.8061 38.7397 73.8061C39.7795 73.8061 40.5353 73.3297 40.5353 72.2258V70.8424H40.4483C40.2009 71.2913 39.7016 72.0196 38.4099 72.0196C36.7471 72.0196 35.4691 70.8241 35.4691 68.5795C35.4691 66.3396 36.7196 64.9974 38.419 64.9974C39.7291 64.9974 40.2147 65.7945 40.4574 66.2297H40.5582V65.0891H41.9004V72.2807C41.9004 74.0901 40.517 74.9101 38.7259 74.9101ZM38.7122 70.8836C39.894 70.8836 40.5491 70.0133 40.5491 68.5612C40.5491 67.1366 39.9078 66.1609 38.7122 66.1609C37.4754 66.1609 36.8524 67.2099 36.8524 68.5612C36.8524 69.9446 37.4891 70.8836 38.7122 70.8836ZM50.8208 62.7437V72.125H49.4008V64.1638H49.3459L47.1013 65.6296V64.2737L49.4421 62.7437H50.8208Z" fill="#D3D5DE"/>
<path d="M62.8607 65.7218L60.7558 63.6169L59.3525 65.0201L61.4574 67.125L59.3525 69.2299L60.7558 70.6331L62.8607 68.5283L64.9655 70.6331L66.3688 69.2299L64.2639 67.125L66.3688 65.0201L64.9655 63.6169L62.8607 65.7218Z" fill="#626784"/>
<path d="M78.7363 59.187C78.7363 56.995 80.5133 55.218 82.7053 55.218H135.566C137.758 55.218 139.535 56.995 139.535 59.187V75.063C139.535 77.255 137.758 79.032 135.566 79.032H82.7053C80.5133 79.032 78.7363 77.255 78.7363 75.063V59.187Z" fill="#303341"/>
<path d="M83.2731 63.9622V62.7437H90.5335V63.9622H87.6064V72.125H86.1956V63.9622H83.2731ZM93.1826 72.2807C91.8451 72.2807 90.8053 71.5203 90.8053 70.137C90.8053 68.5383 92.1703 68.1902 93.5033 68.0344C94.7675 67.8879 95.2806 67.897 95.2806 67.3977V67.3657C95.2806 66.5686 94.8271 66.106 93.943 66.106C93.0223 66.106 92.5093 66.5869 92.3077 67.0862L91.0205 66.7931C91.4786 65.5105 92.6513 64.9974 93.9247 64.9974C95.0424 64.9974 96.6548 65.4051 96.6548 67.4527V72.125H95.3172V71.1631H95.2623C95.0012 71.6898 94.3461 72.2807 93.1826 72.2807ZM93.4804 71.1814C94.621 71.1814 95.2852 70.421 95.2852 69.5873V68.6803C95.0882 68.8773 94.0346 68.9964 93.5903 69.0559C92.7979 69.1613 92.1474 69.4224 92.1474 70.1553C92.1474 70.8332 92.7062 71.1814 93.4804 71.1814ZM101.494 74.9101C99.8124 74.9101 98.8734 74.1771 98.5023 73.316L99.6796 72.8304C99.9223 73.2335 100.367 73.8061 101.507 73.8061C102.547 73.8061 103.303 73.3297 103.303 72.2258V70.8424H103.216C102.968 71.2913 102.469 72.0196 101.177 72.0196C99.5147 72.0196 98.2366 70.8241 98.2366 68.5795C98.2366 66.3396 99.4872 64.9974 101.187 64.9974C102.497 64.9974 102.982 65.7945 103.225 66.2297H103.326V65.0891H104.668V72.2807C104.668 74.0901 103.285 74.9101 101.494 74.9101ZM101.48 70.8836C102.662 70.8836 103.317 70.0133 103.317 68.5612C103.317 67.1366 102.675 66.1609 101.48 66.1609C100.243 66.1609 99.62 67.2099 99.62 68.5612C99.62 69.9446 100.257 70.8836 101.48 70.8836ZM110.029 72.125V71.0989L113.204 67.81C114.211 66.7427 114.706 66.1472 114.706 65.3181C114.706 64.3836 113.982 63.7973 113.03 63.7973C112.017 63.7973 111.367 64.4569 111.371 65.4647H110.02C110.02 63.7515 111.303 62.6155 113.057 62.6155C114.825 62.6155 116.053 63.7698 116.053 65.2769C116.053 66.3258 115.563 67.155 113.845 68.891L111.981 70.8424V70.9111H116.204V72.125H110.029Z" fill="#D3D5DE"/>
<path d="M127.628 65.7218L125.523 63.6169L124.12 65.0201L126.225 67.125L124.12 69.2299L125.523 70.6331L127.628 68.5283L129.733 70.6331L131.136 69.2299L129.031 67.125L131.136 65.0201L129.733 63.6169L127.628 65.7218Z" fill="#626784"/>
<path d="M152.109 62.7437V72.125H151.01L145.898 64.7592H145.806V72.125H144.67V62.7437H145.77L150.9 70.1278H150.992V62.7437H152.109ZM157.25 72.2716C155.216 72.2716 153.971 70.8241 153.971 68.662C153.971 66.4999 155.235 64.9974 157.14 64.9974C158.606 64.9974 160.164 65.8953 160.164 68.5154V68.9735H155.056C155.107 70.4805 155.981 71.3005 157.25 71.3005C158.098 71.3005 158.734 70.934 159.009 70.2011L160.054 70.4943C159.724 71.557 158.679 72.2716 157.25 72.2716ZM155.056 68.039H159.064C159.064 66.848 158.313 65.9686 157.14 65.9686C155.904 65.9686 155.129 66.9442 155.056 68.039ZM163.467 72.125L161.323 65.0891H162.459L163.98 70.476H164.053L165.555 65.0891H166.71L168.194 70.4576H168.267L169.788 65.0891H170.924L168.78 72.125H167.718L166.178 66.7198H166.068L164.529 72.125H163.467ZM172.248 72.1983C171.795 72.1983 171.424 71.8273 171.424 71.3738C171.424 70.9203 171.795 70.5492 172.248 70.5492C172.702 70.5492 173.073 70.9203 173.073 71.3738C173.073 71.8273 172.702 72.1983 172.248 72.1983ZM175.865 72.1983C175.412 72.1983 175.04 71.8273 175.04 71.3738C175.04 70.9203 175.412 70.5492 175.865 70.5492C176.319 70.5492 176.69 70.9203 176.69 71.3738C176.69 71.8273 176.319 72.1983 175.865 72.1983ZM179.482 72.1983C179.028 72.1983 178.657 71.8273 178.657 71.3738C178.657 70.9203 179.028 70.5492 179.482 70.5492C179.935 70.5492 180.306 70.9203 180.306 71.3738C180.306 71.8273 179.935 72.1983 179.482 72.1983Z" fill="#626784"/>
</svg>
