<svg width="200" height="140" viewBox="0 0 200 140" fill="none" xmlns="http://www.w3.org/2000/svg">
<rect x="0.5" y="0.5" width="199" height="139" rx="11.5" fill="#F6F7F9"/>
<rect x="0.5" y="0.5" width="199" height="139" rx="11.5" stroke="#E8E9EE"/>
<rect x="20" y="17.5555" width="160" height="32" rx="8" fill="white"/>
<rect x="20" y="17.5555" width="160" height="32" rx="8" stroke="#3385FF" stroke-width="2"/>
<path d="M24 25.5555C24 23.3464 25.7909 21.5555 28 21.5555H83C85.2091 21.5555 87 23.3464 87 25.5555V41.5555C87 43.7647 85.2091 45.5555 83 45.5555H28C25.7909 45.5555 24 43.7647 24 41.5555V25.5555Z" fill="#E8E9EE"/>
<path d="M30.5724 30.329V29.101H37.8896V30.329H34.9396V38.5555H33.5178V30.329H30.5724ZM40.5594 38.7125C39.2114 38.7125 38.1635 37.9462 38.1635 36.552C38.1635 34.9408 39.5392 34.59 40.8826 34.433C42.1567 34.2853 42.6738 34.2945 42.6738 33.7913V33.759C42.6738 32.9558 42.2167 32.4895 41.3257 32.4895C40.3978 32.4895 39.8808 32.9742 39.6777 33.4774L38.3804 33.182C38.8421 31.8893 40.0239 31.3723 41.3073 31.3723C42.4337 31.3723 44.0587 31.7832 44.0587 33.8467V38.5555H42.7107V37.5861H42.6553C42.3921 38.117 41.732 38.7125 40.5594 38.7125ZM40.8595 37.6045C42.009 37.6045 42.6784 36.8382 42.6784 35.998V35.084C42.4799 35.2825 41.4181 35.4025 40.9703 35.4625C40.1716 35.5687 39.5161 35.8318 39.5161 36.5705C39.5161 37.2537 40.0793 37.6045 40.8595 37.6045ZM48.9352 41.3624C47.241 41.3624 46.2946 40.6237 45.9207 39.7558L47.1071 39.2665C47.3518 39.6727 47.7996 40.2498 48.9491 40.2498C49.997 40.2498 50.7587 39.7697 50.7587 38.6571V37.2629H50.671C50.4217 37.7153 49.9185 38.4494 48.6167 38.4494C46.9409 38.4494 45.6529 37.2445 45.6529 34.9824C45.6529 32.7249 46.9132 31.3723 48.6259 31.3723C49.9462 31.3723 50.4356 32.1756 50.6802 32.6141H50.7818V31.4646H52.1344V38.7125C52.1344 40.536 50.7403 41.3624 48.9352 41.3624ZM48.9214 37.3045C50.1124 37.3045 50.7726 36.4273 50.7726 34.9639C50.7726 33.5282 50.1263 32.5449 48.9214 32.5449C47.6749 32.5449 47.0471 33.6021 47.0471 34.9639C47.0471 36.3581 47.6888 37.3045 48.9214 37.3045ZM61.1246 29.101V38.5555H59.6935V30.5321H59.6381L57.376 32.0094V30.6429L59.7351 29.101H61.1246Z" fill="#21222C"/>
<path d="M73.0004 32.1413L70.8791 30.02L69.4648 31.4342L71.5862 33.5556L69.4648 35.6769L70.8791 37.0911L73.0004 34.9698L75.1217 37.0911L76.5359 35.6769L74.4146 33.5556L76.5359 31.4342L75.1217 30.02L73.0004 32.1413Z" fill="#8A8FA8"/>
<path d="M91 25.5555C91 23.3464 92.7909 21.5555 95 21.5555H152C154.209 21.5555 156 23.3464 156 25.5555V41.5555C156 43.7647 154.209 45.5555 152 45.5555H95C92.7909 45.5555 91 43.7647 91 41.5555V25.5555Z" fill="#E8E9EE"/>
<path d="M97.5724 30.329V29.101H104.89V30.329H101.94V38.5555H100.518V30.329H97.5724ZM107.559 38.7125C106.211 38.7125 105.163 37.9462 105.163 36.552C105.163 34.9408 106.539 34.59 107.883 34.433C109.157 34.2853 109.674 34.2945 109.674 33.7913V33.759C109.674 32.9558 109.217 32.4895 108.326 32.4895C107.398 32.4895 106.881 32.9742 106.678 33.4774L105.38 33.182C105.842 31.8893 107.024 31.3723 108.307 31.3723C109.434 31.3723 111.059 31.7832 111.059 33.8467V38.5555H109.711V37.5861H109.655C109.392 38.117 108.732 38.7125 107.559 38.7125ZM107.859 37.6045C109.009 37.6045 109.678 36.8382 109.678 35.998V35.084C109.48 35.2825 108.418 35.4025 107.97 35.4625C107.172 35.5687 106.516 35.8318 106.516 36.5705C106.516 37.2537 107.079 37.6045 107.859 37.6045ZM115.935 41.3624C114.241 41.3624 113.295 40.6237 112.921 39.7558L114.107 39.2665C114.352 39.6727 114.8 40.2498 115.949 40.2498C116.997 40.2498 117.759 39.7697 117.759 38.6571V37.2629H117.671C117.422 37.7153 116.919 38.4494 115.617 38.4494C113.941 38.4494 112.653 37.2445 112.653 34.9824C112.653 32.7249 113.913 31.3723 115.626 31.3723C116.946 31.3723 117.436 32.1756 117.68 32.6141H117.782V31.4646H119.134V38.7125C119.134 40.536 117.74 41.3624 115.935 41.3624ZM115.921 37.3045C117.112 37.3045 117.773 36.4273 117.773 34.9639C117.773 33.5282 117.126 32.5449 115.921 32.5449C114.675 32.5449 114.047 33.6021 114.047 34.9639C114.047 36.3581 114.689 37.3045 115.921 37.3045ZM124.538 38.5555V37.5215L127.737 34.2068C128.752 33.1312 129.251 32.531 129.251 31.6955C129.251 30.7537 128.522 30.1628 127.561 30.1628C126.541 30.1628 125.886 30.8276 125.89 31.8432H124.528C124.528 30.1166 125.821 28.9717 127.589 28.9717C129.371 28.9717 130.608 30.1351 130.608 31.6539C130.608 32.7111 130.114 33.5467 128.383 35.2963L126.504 37.2629V37.3322H130.761V38.5555H124.538Z" fill="#21222C"/>
<path d="M142 32.1413L139.879 30.02L138.465 31.4342L140.586 33.5556L138.465 35.6769L139.879 37.0911L142 34.9698L144.122 37.0911L145.536 35.6769L143.415 33.5556L145.536 31.4342L144.122 30.02L142 32.1413Z" fill="#8A8FA8"/>
<g filter="url(#filter0_d_4060_86405)">
<path d="M20 50.4445H180V114.444C180 118.863 176.418 122.444 172 122.444H28C23.5817 122.444 20 118.863 20 114.444V50.4445Z" fill="white"/>
<path d="M32.6278 67.0055V65.9899H39.7188V67.0055H36.7457V75.4445H35.6009V67.0055H32.6278ZM42.5248 75.6107C41.1768 75.6107 40.1057 74.8166 40.1057 73.4317C40.1057 71.8067 41.5415 71.5158 42.8572 71.345C44.1498 71.1788 44.6853 71.225 44.6853 70.6987V70.6618C44.6853 69.7523 44.1913 69.2214 43.1896 69.2214C42.1508 69.2214 41.583 69.7754 41.343 70.2925L40.3089 69.9232C40.8629 68.6305 42.0816 68.2612 43.1526 68.2612C44.0575 68.2612 45.7748 68.5197 45.7748 70.7726V75.4445H44.6853V74.4842H44.6299C44.4083 74.9459 43.762 75.6107 42.5248 75.6107ZM42.691 74.632C43.9836 74.632 44.6853 73.7641 44.6853 72.8777V71.8805C44.5006 72.1021 43.2634 72.2314 42.8018 72.2868C41.9523 72.3976 41.1952 72.6561 41.1952 73.4871C41.1952 74.2442 41.8231 74.632 42.691 74.632ZM50.6905 78.2513C49.1071 78.2513 48.2346 77.5727 47.7914 76.8294L48.6593 76.22C48.9501 76.6124 49.4025 77.291 50.6905 77.291C51.8354 77.291 52.6664 76.7555 52.6664 75.5737V74.1334H52.5741C52.334 74.5212 51.8908 75.3337 50.5059 75.3337C48.7886 75.3337 47.4959 74.078 47.4959 71.8621C47.4959 69.6831 48.7332 68.2612 50.5244 68.2612C51.9093 68.2612 52.3525 69.1107 52.5925 69.48H52.7033V68.3535H53.7559V75.6476C53.7559 77.4757 52.3894 78.2513 50.6905 78.2513ZM50.6536 74.355C51.9647 74.355 52.6849 73.4132 52.6849 71.8436C52.6849 70.3109 51.9832 69.2399 50.6536 69.2399C49.2687 69.2399 48.5854 70.4033 48.5854 71.8436C48.5854 73.3209 49.2871 74.355 50.6536 74.355ZM59.3703 73.0808H60.5336C60.6352 74.041 61.4892 74.5581 62.5833 74.5581C63.7605 74.5581 64.67 73.958 64.67 72.7854C64.67 71.7651 64.0006 70.8464 62.2509 70.8464H61.4938V69.9232L63.8575 67.0794V67.0055H59.8319V65.9899H65.4271V66.8209L62.8973 69.8862V69.9601C64.5269 70.0339 65.7964 71.2111 65.7964 72.7854C65.7964 74.4011 64.4622 75.5737 62.5649 75.5737C60.8799 75.5737 59.4811 74.655 59.3703 73.0808Z" fill="#21222C"/>
<path d="M32.6278 99.0055V97.9899H39.7188V99.0055H36.7457V107.444H35.6009V99.0055H32.6278ZM42.5248 107.611C41.1768 107.611 40.1057 106.817 40.1057 105.432C40.1057 103.807 41.5415 103.516 42.8572 103.345C44.1498 103.179 44.6853 103.225 44.6853 102.699V102.662C44.6853 101.752 44.1913 101.221 43.1896 101.221C42.1508 101.221 41.583 101.775 41.343 102.292L40.3089 101.923C40.8629 100.631 42.0816 100.261 43.1526 100.261C44.0575 100.261 45.7748 100.52 45.7748 102.773V107.444H44.6853V106.484H44.6299C44.4083 106.946 43.762 107.611 42.5248 107.611ZM42.691 106.632C43.9836 106.632 44.6853 105.764 44.6853 104.878V103.881C44.5006 104.102 43.2634 104.231 42.8018 104.287C41.9523 104.398 41.1952 104.656 41.1952 105.487C41.1952 106.244 41.8231 106.632 42.691 106.632ZM50.6905 110.251C49.1071 110.251 48.2346 109.573 47.7914 108.829L48.6593 108.22C48.9501 108.612 49.4025 109.291 50.6905 109.291C51.8354 109.291 52.6664 108.756 52.6664 107.574V106.133H52.5741C52.334 106.521 51.8908 107.334 50.5059 107.334C48.7886 107.334 47.4959 106.078 47.4959 103.862C47.4959 101.683 48.7332 100.261 50.5244 100.261C51.9093 100.261 52.3525 101.111 52.5925 101.48H52.7033V100.354H53.7559V107.648C53.7559 109.476 52.3894 110.251 50.6905 110.251ZM50.6536 106.355C51.9647 106.355 52.6849 105.413 52.6849 103.844C52.6849 102.311 51.9832 101.24 50.6536 101.24C49.2687 101.24 48.5854 102.403 48.5854 103.844C48.5854 105.321 49.2871 106.355 50.6536 106.355ZM59.2964 105.506V104.564L63.0819 97.9899H64.2083L60.5151 104.416V104.49H63.7467V101.535H64.8362V104.49H66.1288V105.506H64.8362V107.444H63.7467V105.506H59.2964Z" fill="#21222C"/>
</g>
<defs>
<filter id="filter0_d_4060_86405" x="12" y="45.4445" width="176" height="88" filterUnits="userSpaceOnUse" color-interpolation-filters="sRGB">
<feFlood flood-opacity="0" result="BackgroundImageFix"/>
<feColorMatrix in="SourceAlpha" type="matrix" values="0 0 0 0 0 0 0 0 0 0 0 0 0 0 0 0 0 0 127 0" result="hardAlpha"/>
<feOffset dy="3"/>
<feGaussianBlur stdDeviation="4"/>
<feColorMatrix type="matrix" values="0 0 0 0 0.152941 0 0 0 0 0.2 0 0 0 0 0.243137 0 0 0 0.2 0"/>
<feBlend mode="normal" in2="BackgroundImageFix" result="effect1_dropShadow_4060_86405"/>
<feBlend mode="normal" in="SourceGraphic" in2="effect1_dropShadow_4060_86405" result="shape"/>
</filter>
</defs>
</svg>
