<svg width="200" height="140" viewBox="0 0 200 140" fill="none" xmlns="http://www.w3.org/2000/svg">
<rect x="0.5" y="0.5" width="199" height="139" rx="11.5" fill="#F6F7F9"/>
<rect x="0.5" y="0.5" width="199" height="139" rx="11.5" stroke="#E8E9EE"/>
<path d="M24 46C24 43.7909 25.7909 42 28 42H83C85.2091 42 87 43.7909 87 46V62C87 64.2091 85.2091 66 83 66H28C25.7909 66 24 64.2091 24 62V46Z" fill="#D6E7FF"/>
<path d="M30.5724 50.7734V49.5455H37.8896V50.7734H34.9396V59H33.5178V50.7734H30.5724ZM40.5594 59.157C39.2114 59.157 38.1635 58.3906 38.1635 56.9964C38.1635 55.3853 39.5392 55.0344 40.8826 54.8775C42.1567 54.7298 42.6738 54.739 42.6738 54.2358V54.2035C42.6738 53.4002 42.2167 52.9339 41.3257 52.9339C40.3978 52.9339 39.8808 53.4187 39.6777 53.9219L38.3804 53.6264C38.8421 52.3338 40.0239 51.8168 41.3073 51.8168C42.4337 51.8168 44.0587 52.2276 44.0587 54.2912V59H42.7107V58.0305H42.6553C42.3921 58.5614 41.732 59.157 40.5594 59.157ZM40.8595 58.049C42.009 58.049 42.6784 57.2827 42.6784 56.4425V55.5284C42.4799 55.7269 41.4181 55.8469 40.9703 55.907C40.1716 56.0131 39.5161 56.2763 39.5161 57.0149C39.5161 57.6982 40.0793 58.049 40.8595 58.049ZM48.9352 61.8068C47.241 61.8068 46.2946 61.0682 45.9207 60.2003L47.1071 59.7109C47.3518 60.1172 47.7996 60.6942 48.9491 60.6942C49.997 60.6942 50.7587 60.2141 50.7587 59.1016V57.7074H50.671C50.4217 58.1598 49.9185 58.8938 48.6167 58.8938C46.9409 58.8938 45.6529 57.6889 45.6529 55.4268C45.6529 53.1694 46.9132 51.8168 48.6259 51.8168C49.9462 51.8168 50.4356 52.62 50.6802 53.0586H50.7818V51.9091H52.1344V59.157C52.1344 60.9805 50.7403 61.8068 48.9352 61.8068ZM48.9214 57.7489C50.1124 57.7489 50.7726 56.8718 50.7726 55.4084C50.7726 53.9727 50.1263 52.9893 48.9214 52.9893C47.6749 52.9893 47.0471 54.0465 47.0471 55.4084C47.0471 56.8026 47.6888 57.7489 48.9214 57.7489ZM61.1246 49.5455V59H59.6935V50.9766H59.6381L57.376 52.4538V51.0874L59.7351 49.5455H61.1246Z" fill="#0066FF"/>
<path d="M73.0004 52.5858L70.8791 50.4645L69.4648 51.8787L71.5862 54L69.4648 56.1213L70.8791 57.5355L73.0004 55.4142L75.1217 57.5355L76.5359 56.1213L74.4146 54L76.5359 51.8787L75.1217 50.4645L73.0004 52.5858Z" fill="#0066FF"/>
<path d="M95 46C95 43.7909 96.7909 42 99 42H156C158.209 42 160 43.7909 160 46V62C160 64.2091 158.209 66 156 66H99C96.7909 66 95 64.2091 95 62V46Z" fill="#E8E9EE"/>
<path d="M101.572 50.7734V49.5455H108.89V50.7734H105.94V59H104.518V50.7734H101.572ZM111.559 59.157C110.211 59.157 109.163 58.3906 109.163 56.9964C109.163 55.3853 110.539 55.0344 111.883 54.8775C113.157 54.7298 113.674 54.739 113.674 54.2358V54.2035C113.674 53.4002 113.217 52.9339 112.326 52.9339C111.398 52.9339 110.881 53.4187 110.678 53.9219L109.38 53.6264C109.842 52.3338 111.024 51.8168 112.307 51.8168C113.434 51.8168 115.059 52.2276 115.059 54.2912V59H113.711V58.0305H113.655C113.392 58.5614 112.732 59.157 111.559 59.157ZM111.859 58.049C113.009 58.049 113.678 57.2827 113.678 56.4425V55.5284C113.48 55.7269 112.418 55.8469 111.97 55.907C111.172 56.0131 110.516 56.2763 110.516 57.0149C110.516 57.6982 111.079 58.049 111.859 58.049ZM119.935 61.8068C118.241 61.8068 117.295 61.0682 116.921 60.2003L118.107 59.7109C118.352 60.1172 118.8 60.6942 119.949 60.6942C120.997 60.6942 121.759 60.2141 121.759 59.1016V57.7074H121.671C121.422 58.1598 120.919 58.8938 119.617 58.8938C117.941 58.8938 116.653 57.6889 116.653 55.4268C116.653 53.1694 117.913 51.8168 119.626 51.8168C120.946 51.8168 121.436 52.62 121.68 53.0586H121.782V51.9091H123.134V59.157C123.134 60.9805 121.74 61.8068 119.935 61.8068ZM119.921 57.7489C121.112 57.7489 121.773 56.8718 121.773 55.4084C121.773 53.9727 121.126 52.9893 119.921 52.9893C118.675 52.9893 118.047 54.0465 118.047 55.4084C118.047 56.8026 118.689 57.7489 119.921 57.7489ZM128.538 59V57.9659L131.737 54.6513C132.752 53.5756 133.251 52.9755 133.251 52.1399C133.251 51.1982 132.522 50.6072 131.561 50.6072C130.541 50.6072 129.886 51.272 129.89 52.2876H128.528C128.528 50.5611 129.821 49.4162 131.589 49.4162C133.371 49.4162 134.608 50.5795 134.608 52.0984C134.608 53.1555 134.114 53.9911 132.383 55.7408L130.504 57.7074V57.7766H134.761V59H128.538Z" fill="#21222C"/>
<path d="M146 52.5858L143.879 50.4645L142.465 51.8787L144.586 54L142.465 56.1213L143.879 57.5355L146 55.4142L148.122 57.5355L149.536 56.1213L147.415 54L149.536 51.8787L148.122 50.4645L146 52.5858Z" fill="#8A8FA8"/>
<path d="M24 78C24 75.7909 25.7909 74 28 74H102C104.209 74 106 75.7909 106 78V94C106 96.2091 104.209 98 102 98H28C25.7909 98 24 96.2091 24 94V78Z" fill="#FFECCC"/>
<path d="M36.8316 79.2096C37.3482 78.2635 38.6518 78.2635 39.1684 79.2096L45.8207 91.393C46.3333 92.3318 45.6856 93.5 44.6523 93.5H31.3477C30.3144 93.5 29.6667 92.3318 30.1793 91.393L36.8316 79.2096ZM38.787 83.5H37.3329C37.2175 83.5 37.1261 83.5973 37.1332 83.7125L37.4421 88.6638C37.4487 88.7692 37.5361 88.8514 37.6417 88.8514H38.4759C38.5815 88.8514 38.6689 88.7693 38.6755 88.6639L38.9866 83.7125C38.9939 83.5974 38.9024 83.5 38.787 83.5ZM38.0599 91.3038C38.5497 91.3038 38.9467 90.9067 38.9467 90.417C38.9467 89.9272 38.5497 89.5302 38.0599 89.5302C37.5702 89.5302 37.1731 89.9272 37.1731 90.417C37.1731 90.9067 37.5702 91.3038 38.0599 91.3038Z" fill="#F59B00"/>
<path d="M50.8899 91L48.2678 81.5455H49.7681L51.6101 88.8672H51.6978L53.6136 81.5455H55.1001L57.016 88.8718H57.1037L58.9411 81.5455H60.446L57.8192 91H56.3835L54.3938 83.9183H54.32L52.3303 91H50.8899ZM63.0662 91.157C61.7182 91.157 60.6703 90.3906 60.6703 88.9964C60.6703 87.3853 62.046 87.0344 63.3894 86.8775C64.6635 86.7298 65.1806 86.739 65.1806 86.2358V86.2035C65.1806 85.4002 64.7236 84.9339 63.8326 84.9339C62.9047 84.9339 62.3876 85.4187 62.1845 85.9219L60.8873 85.6264C61.3489 84.3338 62.5307 83.8168 63.8141 83.8168C64.9405 83.8168 66.5655 84.2276 66.5655 86.2912V91H65.2175V90.0305H65.1621C64.899 90.5614 64.2388 91.157 63.0662 91.157ZM63.3663 90.049C64.5158 90.049 65.1852 89.2827 65.1852 88.4425V87.5284C64.9867 87.7269 63.9249 87.8469 63.4771 87.907C62.6785 88.0131 62.0229 88.2763 62.0229 89.0149C62.0229 89.6982 62.5861 90.049 63.3663 90.049ZM68.469 91V83.9091H69.8032V85.0355H69.8771C70.1356 84.2738 70.8465 83.8029 71.6775 83.8029C71.8529 83.8029 72.1253 83.8168 72.2638 83.8352V85.1555C72.153 85.1232 71.8298 85.0724 71.5436 85.0724C70.5649 85.0724 69.8494 85.7418 69.8494 86.6697V91H68.469ZM74.9036 86.7898V91H73.5233V83.9091H74.8482V85.0632H74.9359C75.2637 84.3107 75.9608 83.8168 77.0272 83.8168C78.4768 83.8168 79.4416 84.7354 79.4416 86.4897V91H78.0613V86.6559C78.0613 85.6264 77.4935 85.0124 76.5563 85.0124C75.5961 85.0124 74.9036 85.6587 74.9036 86.7898ZM81.3578 91V83.9091H82.7382V91H81.3578ZM82.0549 82.815C81.5748 82.815 81.1824 82.4457 81.1824 81.9933C81.1824 81.5408 81.5748 81.1669 82.0549 81.1669C82.5304 81.1669 82.9274 81.5408 82.9274 81.9933C82.9274 82.4457 82.5304 82.815 82.0549 82.815ZM86.0405 86.7898V91H84.6601V83.9091H85.9851V85.0632H86.0728C86.4006 84.3107 87.0976 83.8168 88.164 83.8168C89.6136 83.8168 90.5785 84.7354 90.5785 86.4897V91H89.1981V86.6559C89.1981 85.6264 88.6303 85.0124 87.6932 85.0124C86.7329 85.0124 86.0405 85.6587 86.0405 86.7898ZM95.4677 93.8068C93.7734 93.8068 92.8271 93.0682 92.4531 92.2003L93.6396 91.7109C93.8842 92.1172 94.332 92.6942 95.4815 92.6942C96.5295 92.6942 97.2912 92.2141 97.2912 91.1016V89.7074H97.2035C96.9542 90.1598 96.451 90.8938 95.1491 90.8938C93.4734 90.8938 92.1854 89.6889 92.1854 87.4268C92.1854 85.1694 93.4457 83.8168 95.1584 83.8168C96.4787 83.8168 96.968 84.62 97.2127 85.0586H97.3143V83.9091H98.6669V91.157C98.6669 92.9805 97.2727 93.8068 95.4677 93.8068ZM95.4538 89.7489C96.6449 89.7489 97.305 88.8718 97.305 87.4084C97.305 85.9727 96.6587 84.9893 95.4538 84.9893C94.2074 84.9893 93.5795 86.0465 93.5795 87.4084C93.5795 88.8026 94.2212 89.7489 95.4538 89.7489Z" fill="#CC8100"/>
<path d="M114 78C114 75.7909 115.791 74 118 74H171C173.209 74 175 75.7909 175 78V94C175 96.2091 173.209 98 171 98H118C115.791 98 114 96.2091 114 94V78Z" fill="#FFE4E1"/>
<path d="M126.832 79.2096C127.348 78.2635 128.652 78.2635 129.168 79.2096L135.821 91.393C136.333 92.3318 135.686 93.5 134.652 93.5H121.348C120.314 93.5 119.667 92.3318 120.179 91.393L126.832 79.2096ZM128.787 83.5H127.333C127.218 83.5 127.126 83.5973 127.133 83.7125L127.442 88.6638C127.449 88.7692 127.536 88.8514 127.642 88.8514H128.476C128.581 88.8514 128.669 88.7693 128.675 88.6639L128.987 83.7125C128.994 83.5974 128.902 83.5 128.787 83.5ZM128.06 91.3038C128.55 91.3038 128.947 90.9067 128.947 90.417C128.947 89.9272 128.55 89.5302 128.06 89.5302C127.57 89.5302 127.173 89.9272 127.173 90.417C127.173 90.9067 127.57 91.3038 128.06 91.3038Z" fill="#FB2104"/>
<path d="M139.039 91V81.5455H144.966V82.7734H140.465V85.6541H144.657V86.8775H140.465V89.772H145.022V91H139.039ZM146.826 91V83.9091H148.16V85.0355H148.234C148.492 84.2738 149.203 83.8029 150.034 83.8029C150.21 83.8029 150.482 83.8168 150.621 83.8352V85.1555C150.51 85.1232 150.187 85.0724 149.9 85.0724C148.922 85.0724 148.206 85.7418 148.206 86.6697V91H146.826ZM151.88 91V83.9091H153.214V85.0355H153.288C153.547 84.2738 154.258 83.8029 155.089 83.8029C155.264 83.8029 155.536 83.8168 155.675 83.8352V85.1555C155.564 85.1232 155.241 85.0724 154.955 85.0724C153.976 85.0724 153.261 85.7418 153.261 86.6697V91H151.88ZM159.667 91.1431C157.668 91.1431 156.362 89.6797 156.362 87.4869C156.362 85.2802 157.668 83.8168 159.667 83.8168C161.666 83.8168 162.973 85.2802 162.973 87.4869C162.973 89.6797 161.666 91.1431 159.667 91.1431ZM159.672 89.9844C160.969 89.9844 161.579 88.8441 161.579 87.4822C161.579 86.125 160.969 84.9709 159.672 84.9709C158.366 84.9709 157.756 86.125 157.756 87.4822C157.756 88.8441 158.366 89.9844 159.672 89.9844ZM164.579 91V83.9091H165.913V85.0355H165.987C166.245 84.2738 166.956 83.8029 167.787 83.8029C167.962 83.8029 168.235 83.8168 168.373 83.8352V85.1555C168.262 85.1232 167.939 85.0724 167.653 85.0724C166.674 85.0724 165.959 85.7418 165.959 86.6697V91H164.579Z" fill="#E21D03"/>
</svg>
