<svg width="200" height="140" viewBox="0 0 200 140" fill="none" xmlns="http://www.w3.org/2000/svg">
<rect x="0.5" y="0.5" width="199" height="139" rx="11.5" fill="#1E2029"/>
<rect x="0.5" y="0.5" width="199" height="139" rx="11.5" stroke="#303341"/>
<g clip-path="url(#clip0_4060_86699)">
<rect x="20" y="22" width="160" height="96" rx="6.4" fill="#1A1B23"/>
<g clip-path="url(#clip1_4060_86699)">
<path d="M30.8257 38.4H29.8655L32.6428 30.8364H33.5882L36.3655 38.4H35.4053L34.6445 36.258H31.5865L30.8257 38.4ZM31.8746 35.4455H34.3564L33.1451 32.033H33.086L31.8746 35.4455ZM41.7397 38.4L40.0113 32.7273H40.9272L42.1533 37.0705H42.2124L43.4238 32.7273H44.3545L45.5511 37.0557H45.6101L46.8363 32.7273H47.7522L46.0238 38.4H45.167L43.9261 34.0421H43.8374L42.5965 38.4H41.7397ZM51.1419 38.5182C49.5021 38.5182 48.4976 37.3512 48.4976 35.608C48.4976 33.8648 49.5169 32.6534 51.0533 32.6534C52.2351 32.6534 53.4908 33.3773 53.4908 35.4898V35.8591H49.3729C49.4135 37.0742 50.1189 37.7353 51.1419 37.7353C51.8251 37.7353 52.3385 37.4398 52.5601 36.8489L53.4021 37.0853C53.1362 37.9421 52.2942 38.5182 51.1419 38.5182ZM49.3729 35.1057H52.6044C52.6044 34.1455 51.9987 33.4364 51.0533 33.4364C50.0561 33.4364 49.432 34.223 49.3729 35.1057ZM54.9868 38.4V30.8364H55.8584V33.6284H55.9323C56.1243 33.333 56.4641 32.6534 57.572 32.6534C59.005 32.6534 59.9948 33.7909 59.9948 35.5784C59.9948 37.3807 59.005 38.5182 57.5868 38.5182C56.4936 38.5182 56.1243 37.8387 55.9323 37.5284H55.8288V38.4H54.9868ZM55.8436 35.5637C55.8436 36.8489 56.4198 37.7353 57.4686 37.7353C58.5618 37.7353 59.1232 36.775 59.1232 35.5637C59.1232 34.3671 58.5766 33.4364 57.4686 33.4364C56.405 33.4364 55.8436 34.2932 55.8436 35.5637ZM66.0263 38.533C64.9479 38.533 64.0911 37.8978 64.0911 36.7898C64.0911 35.4898 65.2397 35.2571 66.2922 35.1205C67.3263 34.9875 67.7547 35.0245 67.7547 34.6034V34.5739C67.7547 33.8463 67.3596 33.4216 66.5581 33.4216C65.7272 33.4216 65.2729 33.8648 65.0809 34.2784L64.2536 33.983C64.6968 32.9489 65.6718 32.6534 66.5286 32.6534C67.2525 32.6534 68.6263 32.8603 68.6263 34.6625V38.4H67.7547V37.6318H67.7104C67.5331 38.0012 67.0161 38.533 66.0263 38.533ZM66.1593 37.75C67.1934 37.75 67.7547 37.0557 67.7547 36.3466V35.5489C67.607 35.7262 66.6172 35.8296 66.2479 35.8739C65.5684 35.9625 64.9627 36.1693 64.9627 36.8341C64.9627 37.4398 65.465 37.75 66.1593 37.75ZM70.2692 40.5273V32.7273H71.1112V33.6284H71.2146C71.4067 33.333 71.7464 32.6534 72.8544 32.6534C74.2873 32.6534 75.2771 33.7909 75.2771 35.5784C75.2771 37.3807 74.2873 38.5182 72.8692 38.5182C71.776 38.5182 71.4067 37.8387 71.2146 37.5284H71.1407V40.5273H70.2692ZM71.126 35.5637C71.126 36.8489 71.7021 37.7353 72.751 37.7353C73.8442 37.7353 74.4055 36.775 74.4055 35.5637C74.4055 34.3671 73.8589 33.4364 72.751 33.4364C71.6873 33.4364 71.126 34.2932 71.126 35.5637ZM76.6587 40.5273V32.7273H77.5007V33.6284H77.6041C77.7962 33.333 78.1359 32.6534 79.2439 32.6534C80.6768 32.6534 81.6666 33.7909 81.6666 35.5784C81.6666 37.3807 80.6768 38.5182 79.2587 38.5182C78.1655 38.5182 77.7962 37.8387 77.6041 37.5284H77.5302V40.5273H76.6587ZM77.5155 35.5637C77.5155 36.8489 78.0916 37.7353 79.1405 37.7353C80.2337 37.7353 80.795 36.775 80.795 35.5637C80.795 34.3671 80.2484 33.4364 79.1405 33.4364C78.0768 33.4364 77.5155 34.2932 77.5155 35.5637ZM83.0482 30.8364H83.9197V36.9228C83.9197 37.473 84.0084 37.6725 84.3925 37.6614C84.5993 37.654 84.6768 37.6281 84.7618 37.6023L84.9391 38.3557C84.7876 38.4 84.5402 38.4443 84.2891 38.4443C83.4618 38.4443 83.0482 37.9679 83.0482 37.1591V30.8364ZM85.7916 38.4V32.7273H86.6632V38.4H85.7916ZM86.2347 31.7818C85.895 31.7818 85.6143 31.5159 85.6143 31.1909C85.6143 30.8659 85.895 30.6 86.2347 30.6C86.5745 30.6 86.8552 30.8659 86.8552 31.1909C86.8552 31.5159 86.5745 31.7818 86.2347 31.7818ZM90.6161 38.5182C89.0206 38.5182 88.0456 37.2921 88.0456 35.5932C88.0456 33.8648 89.0649 32.6534 90.6013 32.6534C91.7979 32.6534 92.699 33.3625 92.8468 34.4262H91.9752C91.8422 33.9091 91.3843 33.4364 90.6161 33.4364C89.5968 33.4364 88.9172 34.2784 88.9172 35.5637C88.9172 36.8784 89.582 37.7353 90.6161 37.7353C91.2956 37.7353 91.8127 37.3659 91.9752 36.7455H92.8468C92.699 37.75 91.8718 38.5182 90.6161 38.5182ZM95.8422 38.533C94.7638 38.533 93.907 37.8978 93.907 36.7898C93.907 35.4898 95.0556 35.2571 96.1081 35.1205C97.1422 34.9875 97.5706 35.0245 97.5706 34.6034V34.5739C97.5706 33.8463 97.1755 33.4216 96.374 33.4216C95.5431 33.4216 95.0888 33.8648 94.8968 34.2784L94.0695 33.983C94.5127 32.9489 95.4877 32.6534 96.3445 32.6534C97.0684 32.6534 98.4422 32.8603 98.4422 34.6625V38.4H97.5706V37.6318H97.5263C97.349 38.0012 96.832 38.533 95.8422 38.533ZM95.9752 37.75C97.0093 37.75 97.5706 37.0557 97.5706 36.3466V35.5489C97.4229 35.7262 96.4331 35.8296 96.0638 35.8739C95.3843 35.9625 94.7786 36.1693 94.7786 36.8341C94.7786 37.4398 95.2809 37.75 95.9752 37.75ZM102.552 32.7273V33.4659H101.341V36.775C101.341 37.5137 101.71 37.6318 102.094 37.6318C102.286 37.6318 102.404 37.6023 102.478 37.5875L102.656 38.3705C102.537 38.4148 102.331 38.4739 102.006 38.4739C101.267 38.4739 100.469 38.0012 100.469 37.0114V33.4659H99.6123V32.7273H100.469V31.3682H101.341V32.7273H102.552ZM103.915 38.4V32.7273H104.787V38.4H103.915ZM104.358 31.7818C104.019 31.7818 103.738 31.5159 103.738 31.1909C103.738 30.8659 104.019 30.6 104.358 30.6C104.698 30.6 104.979 30.8659 104.979 31.1909C104.979 31.5159 104.698 31.7818 104.358 31.7818ZM108.74 38.5182C107.203 38.5182 106.169 37.3512 106.169 35.5932C106.169 33.8205 107.203 32.6534 108.74 32.6534C110.276 32.6534 111.31 33.8205 111.31 35.5932C111.31 37.3512 110.276 38.5182 108.74 38.5182ZM108.74 37.7353C109.907 37.7353 110.439 36.7307 110.439 35.5932C110.439 34.4557 109.907 33.4364 108.74 33.4364C107.573 33.4364 107.041 34.4557 107.041 35.5932C107.041 36.7307 107.573 37.7353 108.74 37.7353ZM113.564 34.9875V38.4H112.693V32.7273H113.535V33.6137H113.609C113.874 33.0375 114.406 32.6534 115.263 32.6534C116.412 32.6534 117.184 33.3478 117.184 34.7955V38.4H116.312V34.8546C116.312 33.9645 115.821 33.4364 115.012 33.4364C114.177 33.4364 113.564 33.9978 113.564 34.9875ZM121.805 38.4V32.7273H122.677V38.4H121.805ZM122.248 31.7818C121.909 31.7818 121.628 31.5159 121.628 31.1909C121.628 30.8659 121.909 30.6 122.248 30.6C122.588 30.6 122.869 30.8659 122.869 31.1909C122.869 31.5159 122.588 31.7818 122.248 31.7818ZM128.343 33.9978L127.56 34.2193C127.409 33.8279 127.095 33.4068 126.334 33.4068C125.64 33.4068 125.123 33.7614 125.123 34.2489C125.123 34.6847 125.426 34.91 126.098 35.0762L126.94 35.283C127.952 35.5304 128.447 36.029 128.447 36.8193C128.447 37.798 127.549 38.5182 126.231 38.5182C125.071 38.5182 124.277 38.0049 124.074 37.0409L124.901 36.8341C125.056 37.4435 125.503 37.75 126.216 37.75C127.029 37.75 127.546 37.3512 127.546 36.8637C127.546 36.4722 127.276 36.1989 126.704 36.0659L125.758 35.8443C124.717 35.6006 124.251 35.0762 124.251 34.2932C124.251 33.333 125.138 32.6534 126.334 32.6534C127.457 32.6534 128.07 33.1926 128.343 33.9978ZM35.036 45.7273L32.9382 51.4H32.0519L29.9542 45.7273H30.8996L32.4655 50.2478H32.5246L34.0905 45.7273H35.036ZM39.8134 49.0807V45.7273H40.685V51.4H39.8134V50.4398H39.7543C39.4884 51.0159 38.927 51.4739 38.0702 51.4739C37.0066 51.4739 36.2384 50.7796 36.2384 49.3318V45.7273H37.11V49.2728C37.11 50.1 37.627 50.6318 38.3509 50.6318C39.0009 50.6318 39.8134 50.1443 39.8134 49.0807ZM42.3334 43.8364H43.205V49.9228C43.205 50.473 43.2936 50.6725 43.6777 50.6614C43.8845 50.654 43.9621 50.6281 44.047 50.6023L44.2243 51.3557C44.0729 51.4 43.8254 51.4443 43.5743 51.4443C42.747 51.4443 42.3334 50.9679 42.3334 50.1591V43.8364ZM45.9484 47.9875V51.4H45.0768V45.7273H45.9188V46.6137H45.9927C46.2586 46.0375 46.7904 45.6534 47.6472 45.6534C48.7958 45.6534 49.5677 46.3478 49.5677 47.7955V51.4H48.6961V47.8546C48.6961 46.9645 48.2049 46.4364 47.3961 46.4364C46.5614 46.4364 45.9484 46.9978 45.9484 47.9875ZM53.5908 51.5182C51.951 51.5182 50.9465 50.3512 50.9465 48.608C50.9465 46.8648 51.9658 45.6534 53.5021 45.6534C54.684 45.6534 55.9396 46.3773 55.9396 48.4898V48.8591H51.8217C51.8624 50.0742 52.5678 50.7353 53.5908 50.7353C54.274 50.7353 54.7874 50.4398 55.009 49.8489L55.851 50.0853C55.5851 50.9421 54.7431 51.5182 53.5908 51.5182ZM51.8217 48.1057H55.0533C55.0533 47.1455 54.4476 46.4364 53.5021 46.4364C52.505 46.4364 51.8808 47.223 51.8217 48.1057ZM57.3175 51.4V45.7273H58.1595V46.5841H58.2186C58.4254 46.0228 59.0164 45.6387 59.6959 45.6387C59.8252 45.6387 60.0541 45.646 60.1539 45.6534V46.5398C60.0948 46.525 59.8547 46.4807 59.622 46.4807C58.7948 46.4807 58.1891 47.0421 58.1891 47.8103V51.4H57.3175ZM62.9083 51.533C61.8299 51.533 60.9731 50.8978 60.9731 49.7898C60.9731 48.4898 62.1217 48.2571 63.1743 48.1205C64.2083 47.9875 64.6368 48.0245 64.6368 47.6034V47.5739C64.6368 46.8463 64.2416 46.4216 63.4402 46.4216C62.6092 46.4216 62.1549 46.8648 61.9629 47.2784L61.1356 46.983C61.5788 45.9489 62.5538 45.6534 63.4106 45.6534C64.1345 45.6534 65.5083 45.8603 65.5083 47.6625V51.4H64.6368V50.6318H64.5924C64.4152 51.0012 63.8981 51.533 62.9083 51.533ZM63.0413 50.75C64.0754 50.75 64.6368 50.0557 64.6368 49.3466V48.5489C64.489 48.7262 63.4993 48.8296 63.1299 48.8739C62.4504 48.9625 61.8447 49.1693 61.8447 49.8341C61.8447 50.4398 62.347 50.75 63.0413 50.75ZM67.2694 51.4V43.8364H68.141V46.6284H68.2148C68.4069 46.333 68.7466 45.6534 69.8546 45.6534C71.2875 45.6534 72.2773 46.7909 72.2773 48.5784C72.2773 50.3807 71.2875 51.5182 69.8694 51.5182C68.7762 51.5182 68.4069 50.8387 68.2148 50.5284H68.1114V51.4H67.2694ZM68.1262 48.5637C68.1262 49.8489 68.7023 50.7353 69.7512 50.7353C70.8444 50.7353 71.4057 49.775 71.4057 48.5637C71.4057 47.3671 70.8591 46.4364 69.7512 46.4364C68.6875 46.4364 68.1262 47.2932 68.1262 48.5637ZM73.6626 43.8364H74.5341V49.9228C74.5341 50.473 74.6228 50.6725 75.0069 50.6614C75.2137 50.654 75.2913 50.6281 75.3762 50.6023L75.5535 51.3557C75.402 51.4 75.1546 51.4443 74.9035 51.4443C74.0762 51.4443 73.6626 50.9679 73.6626 50.1591V43.8364ZM78.7844 51.5182C77.1446 51.5182 76.1401 50.3512 76.1401 48.608C76.1401 46.8648 77.1594 45.6534 78.6957 45.6534C79.8776 45.6534 81.1332 46.3773 81.1332 48.4898V48.8591H77.0153C77.056 50.0742 77.7614 50.7353 78.7844 50.7353C79.4676 50.7353 79.981 50.4398 80.2026 49.8489L81.0446 50.0853C80.7787 50.9421 79.9366 51.5182 78.7844 51.5182ZM77.0153 48.1057H80.2469C80.2469 47.1455 79.6412 46.4364 78.6957 46.4364C77.6986 46.4364 77.0744 47.223 77.0153 48.1057ZM85.4881 51.4V45.7273H86.3597V51.4H85.4881ZM85.9313 44.7818C85.5915 44.7818 85.3108 44.5159 85.3108 44.1909C85.3108 43.8659 85.5915 43.6 85.9313 43.6C86.271 43.6 86.5517 43.8659 86.5517 44.1909C86.5517 44.5159 86.271 44.7818 85.9313 44.7818ZM90.5342 45.7273V46.4659H89.2637V51.4H88.3921V46.4659H87.4762V45.7273H88.3921V44.9443C88.3921 43.9693 89.1751 43.4818 89.9876 43.4818C90.416 43.4818 90.6819 43.5705 90.8149 43.6296L90.5637 44.383C90.4751 44.3534 90.3274 44.2943 90.0762 44.2943C89.5001 44.2943 89.2637 44.5898 89.2637 45.1512V45.7273H90.5342ZM94.7847 51.4V45.7273H95.6563V51.4H94.7847ZM95.2279 44.7818C94.8881 44.7818 94.6074 44.5159 94.6074 44.1909C94.6074 43.8659 94.8881 43.6 95.2279 43.6C95.5677 43.6 95.8484 43.8659 95.8484 44.1909C95.8484 44.5159 95.5677 44.7818 95.2279 44.7818ZM99.7717 45.7273V46.4659H98.5604V49.775C98.5604 50.5137 98.9297 50.6318 99.3138 50.6318C99.5058 50.6318 99.624 50.6023 99.6979 50.5875L99.8751 51.3705C99.757 51.4148 99.5501 51.4739 99.2251 51.4739C98.4865 51.4739 97.6888 51.0012 97.6888 50.0114V46.4659H96.832V45.7273H97.6888V44.3682H98.5604V45.7273H99.7717ZM104.112 53.5273V45.7273H104.954V46.6284H105.057C105.249 46.333 105.589 45.6534 106.697 45.6534C108.13 45.6534 109.12 46.7909 109.12 48.5784C109.12 50.3807 108.13 51.5182 106.712 51.5182C105.619 51.5182 105.249 50.8387 105.057 50.5284H104.983V53.5273H104.112ZM104.969 48.5637C104.969 49.8489 105.545 50.7353 106.594 50.7353C107.687 50.7353 108.248 49.775 108.248 48.5637C108.248 47.3671 107.702 46.4364 106.594 46.4364C105.53 46.4364 104.969 47.2932 104.969 48.5637ZM110.501 43.8364H111.373V49.9228C111.373 50.473 111.462 50.6725 111.846 50.6614C112.052 50.654 112.13 50.6281 112.215 50.6023L112.392 51.3557C112.241 51.4 111.993 51.4443 111.742 51.4443C110.915 51.4443 110.501 50.9679 110.501 50.1591V43.8364ZM114.914 51.533C113.836 51.533 112.979 50.8978 112.979 49.7898C112.979 48.4898 114.127 48.2571 115.18 48.1205C116.214 47.9875 116.642 48.0245 116.642 47.6034V47.5739C116.642 46.8463 116.247 46.4216 115.446 46.4216C114.615 46.4216 114.161 46.8648 113.969 47.2784L113.141 46.983C113.584 45.9489 114.559 45.6534 115.416 45.6534C116.14 45.6534 117.514 45.8603 117.514 47.6625V51.4H116.642V50.6318H116.598C116.421 51.0012 115.904 51.533 114.914 51.533ZM115.047 50.75C116.081 50.75 116.642 50.0557 116.642 49.3466V48.5489C116.495 48.7262 115.505 48.8296 115.136 48.8739C114.456 48.9625 113.85 49.1693 113.85 49.8341C113.85 50.4398 114.353 50.75 115.047 50.75ZM121.461 51.5182C119.866 51.5182 118.891 50.2921 118.891 48.5932C118.891 46.8648 119.91 45.6534 121.447 45.6534C122.643 45.6534 123.544 46.3625 123.692 47.4262H122.821C122.688 46.9091 122.23 46.4364 121.461 46.4364C120.442 46.4364 119.763 47.2784 119.763 48.5637C119.763 49.8784 120.427 50.7353 121.461 50.7353C122.141 50.7353 122.658 50.3659 122.821 49.7455H123.692C123.544 50.75 122.717 51.5182 121.461 51.5182ZM127.397 51.5182C125.757 51.5182 124.752 50.3512 124.752 48.608C124.752 46.8648 125.772 45.6534 127.308 45.6534C128.49 45.6534 129.746 46.3773 129.746 48.4898V48.8591H125.628C125.668 50.0742 126.374 50.7353 127.397 50.7353C128.08 50.7353 128.593 50.4398 128.815 49.8489L129.657 50.0853C129.391 50.9421 128.549 51.5182 127.397 51.5182ZM125.628 48.1057H128.859C128.859 47.1455 128.253 46.4364 127.308 46.4364C126.311 46.4364 125.687 47.223 125.628 48.1057ZM135.142 46.9978L134.359 47.2193C134.207 46.8279 133.893 46.4068 133.132 46.4068C132.438 46.4068 131.921 46.7614 131.921 47.2489C131.921 47.6847 132.224 47.91 132.896 48.0762L133.738 48.283C134.75 48.5304 135.245 49.029 135.245 49.8193C135.245 50.798 134.348 51.5182 133.029 51.5182C131.869 51.5182 131.075 51.0049 130.872 50.0409L131.7 49.8341C131.855 50.4435 132.301 50.75 133.014 50.75C133.827 50.75 134.344 50.3512 134.344 49.8637C134.344 49.4722 134.074 49.1989 133.502 49.0659L132.556 48.8443C131.515 48.6006 131.05 48.0762 131.05 47.2932C131.05 46.333 131.936 45.6534 133.132 45.6534C134.255 45.6534 134.868 46.1926 135.142 46.9978ZM141.728 51.5182C140.31 51.5182 139.32 50.3807 139.32 48.5784C139.32 46.7909 140.31 45.6534 141.743 45.6534C142.851 45.6534 143.191 46.333 143.383 46.6284H143.456V43.8364H144.328V51.4H143.486V50.5284H143.383C143.191 50.8387 142.821 51.5182 141.728 51.5182ZM141.846 50.7353C142.895 50.7353 143.471 49.8489 143.471 48.5637C143.471 47.2932 142.91 46.4364 141.846 46.4364C140.738 46.4364 140.192 47.3671 140.192 48.5637C140.192 49.775 140.753 50.7353 141.846 50.7353ZM147.767 51.533C146.688 51.533 145.831 50.8978 145.831 49.7898C145.831 48.4898 146.98 48.2571 148.033 48.1205C149.067 47.9875 149.495 48.0245 149.495 47.6034V47.5739C149.495 46.8463 149.1 46.4216 148.298 46.4216C147.468 46.4216 147.013 46.8648 146.821 47.2784L145.994 46.983C146.437 45.9489 147.412 45.6534 148.269 45.6534C148.993 45.6534 150.367 45.8603 150.367 47.6625V51.4H149.495V50.6318H149.451C149.273 51.0012 148.756 51.533 147.767 51.533ZM147.9 50.75C148.934 50.75 149.495 50.0557 149.495 49.3466V48.5489C149.347 48.7262 148.358 48.8296 147.988 48.8739C147.309 48.9625 146.703 49.1693 146.703 49.8341C146.703 50.4398 147.205 50.75 147.9 50.75ZM154.477 45.7273V46.4659H153.265V49.775C153.265 50.5137 153.635 50.6318 154.019 50.6318C154.211 50.6318 154.329 50.6023 154.403 50.5875L154.58 51.3705C154.462 51.4148 154.255 51.4739 153.93 51.4739C153.191 51.4739 152.394 51.0012 152.394 50.0114V46.4659H151.537V45.7273H152.394V44.3682H153.265V45.7273H154.477ZM157.509 51.533C156.431 51.533 155.574 50.8978 155.574 49.7898C155.574 48.4898 156.722 48.2571 157.775 48.1205C158.809 47.9875 159.237 48.0245 159.237 47.6034V47.5739C159.237 46.8463 158.842 46.4216 158.041 46.4216C157.21 46.4216 156.756 46.8648 156.563 47.2784L155.736 46.983C156.179 45.9489 157.154 45.6534 158.011 45.6534C158.735 45.6534 160.109 45.8603 160.109 47.6625V51.4H159.237V50.6318H159.193C159.016 51.0012 158.499 51.533 157.509 51.533ZM157.642 50.75C158.676 50.75 159.237 50.0557 159.237 49.3466V48.5489C159.09 48.7262 158.1 48.8296 157.731 48.8739C157.051 48.9625 156.445 49.1693 156.445 49.8341C156.445 50.4398 156.948 50.75 157.642 50.75ZM32.9235 58.7273V59.4659H31.653V64.4H30.7814V59.4659H29.8655V58.7273H30.7814V57.9443C30.7814 56.9693 31.5644 56.4818 32.3769 56.4818C32.8053 56.4818 33.0712 56.5705 33.2042 56.6296L32.953 57.383C32.8644 57.3534 32.7167 57.2943 32.4655 57.2943C31.8894 57.2943 31.653 57.5898 31.653 58.1512V58.7273H32.9235ZM34.197 64.4V58.7273H35.039V59.5841H35.0981C35.3049 59.0228 35.8959 58.6387 36.5754 58.6387C36.7047 58.6387 36.9336 58.646 37.0334 58.6534V59.5398C36.9743 59.525 36.7342 59.4807 36.5015 59.4807C35.6743 59.4807 35.0686 60.0421 35.0686 60.8103V64.4H34.197ZM40.2504 64.5182C38.7141 64.5182 37.68 63.3512 37.68 61.5932C37.68 59.8205 38.7141 58.6534 40.2504 58.6534C41.7868 58.6534 42.8209 59.8205 42.8209 61.5932C42.8209 63.3512 41.7868 64.5182 40.2504 64.5182ZM40.2504 63.7353C41.4175 63.7353 41.9493 62.7307 41.9493 61.5932C41.9493 60.4557 41.4175 59.4364 40.2504 59.4364C39.0834 59.4364 38.5516 60.4557 38.5516 61.5932C38.5516 62.7307 39.0834 63.7353 40.2504 63.7353ZM44.2033 64.4V58.7273H45.0454V59.6137H45.1192C45.3556 59.008 45.9022 58.6534 46.6408 58.6534C47.3869 58.6534 47.8817 59.008 48.1624 59.6137H48.2215C48.5133 59.0264 49.1079 58.6534 49.9204 58.6534C50.9323 58.6534 51.6488 59.2702 51.6488 60.6034V64.4H50.7772V60.6034C50.7772 59.7651 50.2454 59.4364 49.6249 59.4364C48.8272 59.4364 48.3692 59.9756 48.3692 60.7068V64.4H47.4829V60.5148C47.4829 59.8685 47.0212 59.4364 46.3602 59.4364C45.6806 59.4364 45.0749 60.0236 45.0749 60.8546V64.4H44.2033ZM57.9407 64.533C56.8623 64.533 56.0055 63.8978 56.0055 62.7898C56.0055 61.4898 57.1541 61.2571 58.2066 61.1205C59.2407 60.9875 59.6691 61.0245 59.6691 60.6034V60.5739C59.6691 59.8463 59.274 59.4216 58.4725 59.4216C57.6416 59.4216 57.1873 59.8648 56.9953 60.2784L56.168 59.983C56.6112 58.9489 57.5862 58.6534 58.443 58.6534C59.1669 58.6534 60.5407 58.8603 60.5407 60.6625V64.4H59.6691V63.6318H59.6248C59.4475 64.0012 58.9305 64.533 57.9407 64.533ZM58.0737 63.75C59.1078 63.75 59.6691 63.0557 59.6691 62.3466V61.5489C59.5214 61.7262 58.5316 61.8296 58.1623 61.8739C57.4828 61.9625 56.8771 62.1693 56.8771 62.8341C56.8771 63.4398 57.3794 63.75 58.0737 63.75ZM63.0551 60.9875V64.4H62.1836V58.7273H63.0256V59.6137H63.0995C63.3654 59.0375 63.8972 58.6534 64.754 58.6534C65.9026 58.6534 66.6745 59.3478 66.6745 60.7955V64.4H65.8029V60.8546C65.8029 59.9645 65.3117 59.4364 64.5029 59.4364C63.6682 59.4364 63.0551 59.9978 63.0551 60.9875ZM74.8712 62.0807V58.7273H75.7427V64.4H74.8712V63.4398H74.8121C74.5462 64.0159 73.9848 64.4739 73.128 64.4739C72.0643 64.4739 71.2962 63.7796 71.2962 62.3318V58.7273H72.1677V62.2728C72.1677 63.1 72.6848 63.6318 73.4087 63.6318C74.0587 63.6318 74.8712 63.1443 74.8712 62.0807ZM78.2627 60.9875V64.4H77.3911V58.7273H78.2332V59.6137H78.307C78.5729 59.0375 79.1048 58.6534 79.9616 58.6534C81.1102 58.6534 81.882 59.3478 81.882 60.7955V64.4H81.0104V60.8546C81.0104 59.9645 80.5192 59.4364 79.7104 59.4364C78.8758 59.4364 78.2627 59.9978 78.2627 60.9875ZM85.9938 58.7273V59.4659H84.7824V62.775C84.7824 63.5137 85.1517 63.6318 85.5358 63.6318C85.7279 63.6318 85.846 63.6023 85.9199 63.5875L86.0972 64.3705C85.979 64.4148 85.7722 64.4739 85.4472 64.4739C84.7085 64.4739 83.9108 64.0012 83.9108 63.0114V59.4659H83.054V58.7273H83.9108V57.3682H84.7824V58.7273H85.9938ZM87.3568 64.4V58.7273H88.1989V59.5841H88.258C88.4648 59.0228 89.0557 58.6387 89.7352 58.6387C89.8645 58.6387 90.0935 58.646 90.1932 58.6534V59.5398C90.1341 59.525 89.8941 59.4807 89.6614 59.4807C88.8341 59.4807 88.2284 60.0421 88.2284 60.8103V64.4H87.3568ZM94.8534 62.0807V58.7273H95.725V64.4H94.8534V63.4398H94.7943C94.5284 64.0159 93.967 64.4739 93.1102 64.4739C92.0466 64.4739 91.2784 63.7796 91.2784 62.3318V58.7273H92.15V62.2728C92.15 63.1 92.667 63.6318 93.3909 63.6318C94.0409 63.6318 94.8534 63.1443 94.8534 62.0807ZM101.392 59.9978L100.609 60.2193C100.457 59.8279 100.143 59.4068 99.3824 59.4068C98.6881 59.4068 98.1711 59.7614 98.1711 60.2489C98.1711 60.6847 98.4739 60.91 99.1461 61.0762L99.9881 61.283C101 61.5304 101.495 62.029 101.495 62.8193C101.495 63.798 100.597 64.5182 99.279 64.5182C98.1194 64.5182 97.3253 64.0049 97.1222 63.0409L97.9495 62.8341C98.1046 63.4435 98.5515 63.75 99.2643 63.75C100.077 63.75 100.594 63.3512 100.594 62.8637C100.594 62.4722 100.324 62.1989 99.7518 62.0659L98.8063 61.8443C97.7648 61.6006 97.2995 61.0762 97.2995 60.2932C97.2995 59.333 98.1858 58.6534 99.3824 58.6534C100.505 58.6534 101.118 59.1926 101.392 59.9978ZM105.326 58.7273V59.4659H104.115V62.775C104.115 63.5137 104.484 63.6318 104.868 63.6318C105.06 63.6318 105.178 63.6023 105.252 63.5875L105.429 64.3705C105.311 64.4148 105.104 64.4739 104.779 64.4739C104.041 64.4739 103.243 64.0012 103.243 63.0114V59.4659H102.386V58.7273H103.243V57.3682H104.115V58.7273H105.326ZM109.007 64.5182C107.367 64.5182 106.362 63.3512 106.362 61.608C106.362 59.8648 107.382 58.6534 108.918 58.6534C110.1 58.6534 111.355 59.3773 111.355 61.4898V61.8591H107.238C107.278 63.0742 107.984 63.7353 109.007 63.7353C109.69 63.7353 110.203 63.4398 110.425 62.8489L111.267 63.0853C111.001 63.9421 110.159 64.5182 109.007 64.5182ZM107.238 61.1057H110.469C110.469 60.1455 109.863 59.4364 108.918 59.4364C107.921 59.4364 107.297 60.223 107.238 61.1057ZM114.875 64.5182C113.457 64.5182 112.467 63.3807 112.467 61.5784C112.467 59.7909 113.457 58.6534 114.89 58.6534C115.998 58.6534 116.338 59.333 116.53 59.6284H116.604V56.8364H117.475V64.4H116.633V63.5284H116.53C116.338 63.8387 115.968 64.5182 114.875 64.5182ZM114.993 63.7353C116.042 63.7353 116.618 62.8489 116.618 61.5637C116.618 60.2932 116.057 59.4364 114.993 59.4364C113.886 59.4364 113.339 60.3671 113.339 61.5637C113.339 62.775 113.9 63.7353 114.993 63.7353ZM126.24 59.9978L125.457 60.2193C125.305 59.8279 124.992 59.4068 124.231 59.4068C123.536 59.4068 123.019 59.7614 123.019 60.2489C123.019 60.6847 123.322 60.91 123.994 61.0762L124.836 61.283C125.848 61.5304 126.343 62.029 126.343 62.8193C126.343 63.798 125.446 64.5182 124.127 64.5182C122.968 64.5182 122.174 64.0049 121.97 63.0409L122.798 62.8341C122.953 63.4435 123.4 63.75 124.113 63.75C124.925 63.75 125.442 63.3512 125.442 62.8637C125.442 62.4722 125.172 62.1989 124.6 62.0659L123.655 61.8443C122.613 61.6006 122.148 61.0762 122.148 60.2932C122.148 59.333 123.034 58.6534 124.231 58.6534C125.353 58.6534 125.967 59.1926 126.24 59.9978ZM130.012 64.5182C128.475 64.5182 127.441 63.3512 127.441 61.5932C127.441 59.8205 128.475 58.6534 130.012 58.6534C131.548 58.6534 132.582 59.8205 132.582 61.5932C132.582 63.3512 131.548 64.5182 130.012 64.5182ZM130.012 63.7353C131.179 63.7353 131.711 62.7307 131.711 61.5932C131.711 60.4557 131.179 59.4364 130.012 59.4364C128.845 59.4364 128.313 60.4557 128.313 61.5932C128.313 62.7307 128.845 63.7353 130.012 63.7353ZM137.54 62.0807V58.7273H138.411V64.4H137.54V63.4398H137.481C137.215 64.0159 136.653 64.4739 135.797 64.4739C134.733 64.4739 133.965 63.7796 133.965 62.3318V58.7273H134.836V62.2728C134.836 63.1 135.353 63.6318 136.077 63.6318C136.727 63.6318 137.54 63.1443 137.54 62.0807ZM140.06 64.4V58.7273H140.902V59.5841H140.961C141.168 59.0228 141.759 58.6387 142.438 58.6387C142.567 58.6387 142.796 58.646 142.896 58.6534V59.5398C142.837 59.525 142.597 59.4807 142.364 59.4807C141.537 59.4807 140.931 60.0421 140.931 60.8103V64.4H140.06ZM146.113 64.5182C144.518 64.5182 143.543 63.2921 143.543 61.5932C143.543 59.8648 144.562 58.6534 146.098 58.6534C147.295 58.6534 148.196 59.3625 148.344 60.4262H147.472C147.339 59.9091 146.881 59.4364 146.113 59.4364C145.094 59.4364 144.414 60.2784 144.414 61.5637C144.414 62.8784 145.079 63.7353 146.113 63.7353C146.793 63.7353 147.31 63.3659 147.472 62.7455H148.344C148.196 63.75 147.369 64.5182 146.113 64.5182ZM152.048 64.5182C150.409 64.5182 149.404 63.3512 149.404 61.608C149.404 59.8648 150.423 58.6534 151.96 58.6534C153.141 58.6534 154.397 59.3773 154.397 61.4898V61.8591H150.279C150.32 63.0742 151.025 63.7353 152.048 63.7353C152.732 63.7353 153.245 63.4398 153.466 62.8489L154.309 63.0853C154.043 63.9421 153.201 64.5182 152.048 64.5182ZM150.279 61.1057H153.511C153.511 60.1455 152.905 59.4364 151.96 59.4364C150.963 59.4364 150.338 60.223 150.279 61.1057ZM31.6826 77.4L29.9542 71.7273H30.8701L32.0962 76.0705H32.1553L33.3667 71.7273H34.2973L35.4939 76.0557H35.553L36.7792 71.7273H37.6951L35.9667 77.4H35.1098L33.8689 73.0421H33.7803L32.5394 77.4H31.6826ZM38.8993 77.4V71.7273H39.7709V77.4H38.8993ZM39.3425 70.7818C39.0027 70.7818 38.7221 70.5159 38.7221 70.1909C38.7221 69.8659 39.0027 69.6 39.3425 69.6C39.6823 69.6 39.963 69.8659 39.963 70.1909C39.963 70.5159 39.6823 70.7818 39.3425 70.7818ZM43.8864 71.7273V72.4659H42.675V75.775C42.675 76.5137 43.0443 76.6318 43.4284 76.6318C43.6204 76.6318 43.7386 76.6023 43.8125 76.5875L43.9898 77.3705C43.8716 77.4148 43.6648 77.4739 43.3398 77.4739C42.6011 77.4739 41.8034 77.0012 41.8034 76.0114V72.4659H40.9466V71.7273H41.8034V70.3682H42.675V71.7273H43.8864ZM46.2429 73.9875V77.4H45.3713V69.8364H46.2429V72.6137H46.3168C46.5827 72.0264 47.0923 71.6534 47.9861 71.6534C49.1457 71.6534 49.9213 72.3367 49.9213 73.7955V77.4H49.0497V73.8546C49.0497 72.9534 48.5548 72.4364 47.7349 72.4364C46.8744 72.4364 46.2429 72.9978 46.2429 73.9875ZM53.8724 77.5182C52.336 77.5182 51.3019 76.3512 51.3019 74.5932C51.3019 72.8205 52.336 71.6534 53.8724 71.6534C55.4087 71.6534 56.4428 72.8205 56.4428 74.5932C56.4428 76.3512 55.4087 77.5182 53.8724 77.5182ZM53.8724 76.7353C55.0394 76.7353 55.5712 75.7307 55.5712 74.5932C55.5712 73.4557 55.0394 72.4364 53.8724 72.4364C52.7053 72.4364 52.1735 73.4557 52.1735 74.5932C52.1735 75.7307 52.7053 76.7353 53.8724 76.7353ZM61.4003 75.0807V71.7273H62.2719V77.4H61.4003V76.4398H61.3412C61.0753 77.0159 60.5139 77.4739 59.6571 77.4739C58.5935 77.4739 57.8253 76.7796 57.8253 75.3318V71.7273H58.6969V75.2728C58.6969 76.1 59.2139 76.6318 59.9378 76.6318C60.5878 76.6318 61.4003 76.1443 61.4003 75.0807ZM66.3873 71.7273V72.4659H65.176V75.775C65.176 76.5137 65.5453 76.6318 65.9294 76.6318C66.1214 76.6318 66.2396 76.6023 66.3135 76.5875L66.4907 77.3705C66.3726 77.4148 66.1657 77.4739 65.8407 77.4739C65.1021 77.4739 64.3044 77.0012 64.3044 76.0114V72.4659H63.4476V71.7273H64.3044V70.3682H65.176V71.7273H66.3873ZM74.7456 72.9978L73.9626 73.2193C73.8112 72.8279 73.4973 72.4068 72.7365 72.4068C72.0422 72.4068 71.5251 72.7614 71.5251 73.2489C71.5251 73.6847 71.828 73.91 72.5001 74.0762L73.3422 74.283C74.3541 74.5304 74.849 75.029 74.849 75.8193C74.849 76.798 73.9516 77.5182 72.6331 77.5182C71.4734 77.5182 70.6794 77.0049 70.4763 76.0409L71.3035 75.8341C71.4587 76.4435 71.9055 76.75 72.6183 76.75C73.4308 76.75 73.9479 76.3512 73.9479 75.8637C73.9479 75.4722 73.6783 75.1989 73.1058 75.0659L72.1604 74.8443C71.1189 74.6006 70.6535 74.0762 70.6535 73.2932C70.6535 72.333 71.5399 71.6534 72.7365 71.6534C73.8592 71.6534 74.4723 72.1926 74.7456 72.9978ZM79.788 75.0807V71.7273H80.6596V77.4H79.788V76.4398H79.7289C79.463 77.0159 78.9016 77.4739 78.0448 77.4739C76.9812 77.4739 76.213 76.7796 76.213 75.3318V71.7273H77.0846V75.2728C77.0846 76.1 77.6016 76.6318 78.3255 76.6318C78.9755 76.6318 79.788 76.1443 79.788 75.0807ZM84.8341 71.7273V72.4659H83.5636V77.4H82.6921V72.4659H81.7761V71.7273H82.6921V70.9443C82.6921 69.9693 83.475 69.4818 84.2875 69.4818C84.7159 69.4818 84.9818 69.5705 85.1148 69.6296L84.8636 70.383C84.775 70.3534 84.6273 70.2943 84.3761 70.2943C83.8 70.2943 83.5636 70.5898 83.5636 71.1512V71.7273H84.8341ZM88.6338 71.7273V72.4659H87.3633V77.4H86.4917V72.4659H85.5758V71.7273H86.4917V70.9443C86.4917 69.9693 87.2747 69.4818 88.0872 69.4818C88.5156 69.4818 88.7815 69.5705 88.9144 69.6296L88.6633 70.383C88.5747 70.3534 88.4269 70.2943 88.1758 70.2943C87.5997 70.2943 87.3633 70.5898 87.3633 71.1512V71.7273H88.6338ZM89.9073 77.4V71.7273H90.7789V77.4H89.9073ZM90.3505 70.7818C90.0107 70.7818 89.73 70.5159 89.73 70.1909C89.73 69.8659 90.0107 69.6 90.3505 69.6C90.6902 69.6 90.9709 69.8659 90.9709 70.1909C90.9709 70.5159 90.6902 70.7818 90.3505 70.7818ZM94.7318 77.5182C93.1363 77.5182 92.1613 76.2921 92.1613 74.5932C92.1613 72.8648 93.1807 71.6534 94.717 71.6534C95.9136 71.6534 96.8147 72.3625 96.9625 73.4262H96.0909C95.9579 72.9091 95.5 72.4364 94.7318 72.4364C93.7125 72.4364 93.0329 73.2784 93.0329 74.5637C93.0329 75.8784 93.6977 76.7353 94.7318 76.7353C95.4113 76.7353 95.9284 76.3659 96.0909 75.7455H96.9625C96.8147 76.75 95.9875 77.5182 94.7318 77.5182ZM98.2886 77.4V71.7273H99.1602V77.4H98.2886ZM98.7318 70.7818C98.392 70.7818 98.1114 70.5159 98.1114 70.1909C98.1114 69.8659 98.392 69.6 98.7318 69.6C99.0716 69.6 99.3523 69.8659 99.3523 70.1909C99.3523 70.5159 99.0716 70.7818 98.7318 70.7818ZM103.187 77.5182C101.547 77.5182 100.543 76.3512 100.543 74.608C100.543 72.8648 101.562 71.6534 103.098 71.6534C104.28 71.6534 105.536 72.3773 105.536 74.4898V74.8591H101.418C101.459 76.0742 102.164 76.7353 103.187 76.7353C103.87 76.7353 104.384 76.4398 104.605 75.8489L105.447 76.0853C105.181 76.9421 104.339 77.5182 103.187 77.5182ZM101.418 74.1057H104.65C104.65 73.1455 104.044 72.4364 103.098 72.4364C102.101 72.4364 101.477 73.223 101.418 74.1057ZM107.785 73.9875V77.4H106.914V71.7273H107.756V72.6137H107.83C108.096 72.0375 108.627 71.6534 109.484 71.6534C110.633 71.6534 111.405 72.3478 111.405 73.7955V77.4H110.533V73.8546C110.533 72.9645 110.042 72.4364 109.233 72.4364C108.398 72.4364 107.785 72.9978 107.785 73.9875ZM115.516 71.7273V72.4659H114.305V75.775C114.305 76.5137 114.674 76.6318 115.058 76.6318C115.25 76.6318 115.369 76.6023 115.442 76.5875L115.62 77.3705C115.502 77.4148 115.295 77.4739 114.97 77.4739C114.231 77.4739 113.433 77.0012 113.433 76.0114V72.4659H112.577V71.7273H113.433V70.3682H114.305V71.7273H115.516ZM30.3973 91.5273V83.7273H31.2394V84.6284H31.3428C31.5348 84.333 31.8746 83.6534 32.9826 83.6534C34.4155 83.6534 35.4053 84.7909 35.4053 86.5784C35.4053 88.3807 34.4155 89.5182 32.9973 89.5182C31.9042 89.5182 31.5348 88.8387 31.3428 88.5284H31.2689V91.5273H30.3973ZM31.2542 86.5637C31.2542 87.8489 31.8303 88.7353 32.8792 88.7353C33.9723 88.7353 34.5337 87.775 34.5337 86.5637C34.5337 85.3671 33.9871 84.4364 32.8792 84.4364C31.8155 84.4364 31.2542 85.2932 31.2542 86.5637ZM36.7868 89.4V83.7273H37.6289V84.5841H37.688C37.8948 84.0228 38.4857 83.6387 39.1652 83.6387C39.2945 83.6387 39.5235 83.646 39.6232 83.6534V84.5398C39.5641 84.525 39.3241 84.4807 39.0914 84.4807C38.2641 84.4807 37.6584 85.0421 37.6584 85.8103V89.4H36.7868ZM42.8403 89.5182C41.3039 89.5182 40.2698 88.3512 40.2698 86.5932C40.2698 84.8205 41.3039 83.6534 42.8403 83.6534C44.3766 83.6534 45.4107 84.8205 45.4107 86.5932C45.4107 88.3512 44.3766 89.5182 42.8403 89.5182ZM42.8403 88.7353C44.0073 88.7353 44.5391 87.7307 44.5391 86.5932C44.5391 85.4557 44.0073 84.4364 42.8403 84.4364C41.6732 84.4364 41.1414 85.4557 41.1414 86.5932C41.1414 87.7307 41.6732 88.7353 42.8403 88.7353ZM49.0977 89.5182C47.5023 89.5182 46.5273 88.2921 46.5273 86.5932C46.5273 84.8648 47.5466 83.6534 49.083 83.6534C50.2795 83.6534 51.1807 84.3625 51.3284 85.4262H50.4568C50.3239 84.9091 49.8659 84.4364 49.0977 84.4364C48.0784 84.4364 47.3989 85.2784 47.3989 86.5637C47.3989 87.8784 48.0636 88.7353 49.0977 88.7353C49.7773 88.7353 50.2943 88.3659 50.4568 87.7455H51.3284C51.1807 88.75 50.3534 89.5182 49.0977 89.5182ZM55.033 89.5182C53.3932 89.5182 52.3886 88.3512 52.3886 86.608C52.3886 84.8648 53.408 83.6534 54.9443 83.6534C56.1261 83.6534 57.3818 84.3773 57.3818 86.4898V86.8591H53.2639C53.3046 88.0742 54.01 88.7353 55.033 88.7353C55.7162 88.7353 56.2296 88.4398 56.4511 87.8489L57.2932 88.0853C57.0273 88.9421 56.1852 89.5182 55.033 89.5182ZM53.2639 86.1057H56.4955C56.4955 85.1455 55.8898 84.4364 54.9443 84.4364C53.9472 84.4364 53.323 85.223 53.2639 86.1057ZM62.7779 84.9978L61.9949 85.2193C61.8435 84.8279 61.5296 84.4068 60.7688 84.4068C60.0745 84.4068 59.5574 84.7614 59.5574 85.2489C59.5574 85.6847 59.8602 85.91 60.5324 86.0762L61.3745 86.283C62.3864 86.5304 62.8813 87.029 62.8813 87.8193C62.8813 88.798 61.9838 89.5182 60.6654 89.5182C59.5057 89.5182 58.7117 89.0049 58.5085 88.0409L59.3358 87.8341C59.4909 88.4435 59.9378 88.75 60.6506 88.75C61.4631 88.75 61.9801 88.3512 61.9801 87.8637C61.9801 87.4722 61.7105 87.1989 61.1381 87.0659L60.1926 86.8443C59.1512 86.6006 58.6858 86.0762 58.6858 85.2932C58.6858 84.333 59.5722 83.6534 60.7688 83.6534C61.8915 83.6534 62.5046 84.1926 62.7779 84.9978ZM68.2635 84.9978L67.4805 85.2193C67.3291 84.8279 67.0152 84.4068 66.2544 84.4068C65.56 84.4068 65.043 84.7614 65.043 85.2489C65.043 85.6847 65.3458 85.91 66.018 86.0762L66.86 86.283C67.872 86.5304 68.3669 87.029 68.3669 87.8193C68.3669 88.798 67.4694 89.5182 66.151 89.5182C64.9913 89.5182 64.1973 89.0049 63.9941 88.0409L64.8214 87.8341C64.9765 88.4435 65.4234 88.75 66.1362 88.75C66.9487 88.75 67.4657 88.3512 67.4657 87.8637C67.4657 87.4722 67.1961 87.1989 66.6237 87.0659L65.6782 86.8443C64.6368 86.6006 64.1714 86.0762 64.1714 85.2932C64.1714 84.333 65.0578 83.6534 66.2544 83.6534C67.3771 83.6534 67.9902 84.1926 68.2635 84.9978ZM69.7309 89.4V83.7273H70.6025V89.4H69.7309ZM70.1741 82.7818C69.8343 82.7818 69.5536 82.5159 69.5536 82.1909C69.5536 81.8659 69.8343 81.6 70.1741 81.6C70.5138 81.6 70.7945 81.8659 70.7945 82.1909C70.7945 82.5159 70.5138 82.7818 70.1741 82.7818ZM73.1224 85.9875V89.4H72.2508V83.7273H73.0929V84.6137H73.1668C73.4327 84.0375 73.9645 83.6534 74.8213 83.6534C75.9699 83.6534 76.7418 84.3478 76.7418 85.7955V89.4H75.8702V85.8546C75.8702 84.9645 75.379 84.4364 74.5702 84.4364C73.7355 84.4364 73.1224 84.9978 73.1224 85.9875ZM80.6762 91.6455C79.4094 91.6455 78.7114 91.1026 78.3569 90.508L79.0512 90.0205C79.2839 90.3344 79.6458 90.8773 80.6762 90.8773C81.5921 90.8773 82.2569 90.4489 82.2569 89.5034V88.3512H82.183C81.991 88.6614 81.6364 89.3114 80.5285 89.3114C79.1546 89.3114 78.1205 88.3068 78.1205 86.5341C78.1205 84.7909 79.1103 83.6534 80.5433 83.6534C81.6512 83.6534 82.0058 84.333 82.1978 84.6284H82.2864V83.7273H83.1285V89.5625C83.1285 91.025 82.0353 91.6455 80.6762 91.6455ZM80.6467 88.5284C81.6955 88.5284 82.2717 87.775 82.2717 86.5193C82.2717 85.2932 81.7103 84.4364 80.6467 84.4364C79.5387 84.4364 78.9921 85.3671 78.9921 86.5193C78.9921 87.7012 79.5535 88.5284 80.6467 88.5284ZM87.7529 89.4V83.7273H88.6245V89.4H87.7529ZM88.1961 82.7818C87.8563 82.7818 87.5757 82.5159 87.5757 82.1909C87.5757 81.8659 87.8563 81.6 88.1961 81.6C88.5359 81.6 88.8166 81.8659 88.8166 82.1909C88.8166 82.5159 88.5359 82.7818 88.1961 82.7818ZM91.1445 85.9875V89.4H90.2729V83.7273H91.115V84.6137H91.1888C91.4547 84.0375 91.9865 83.6534 92.8434 83.6534C93.9919 83.6534 94.7638 84.3478 94.7638 85.7955V89.4H93.8922V85.8546C93.8922 84.9645 93.401 84.4364 92.5922 84.4364C91.7576 84.4364 91.1445 84.9978 91.1445 85.9875ZM98.8755 83.7273V84.4659H97.6642V87.775C97.6642 88.5137 98.0335 88.6318 98.4176 88.6318C98.6096 88.6318 98.7278 88.6023 98.8017 88.5875L98.979 89.3705C98.8608 89.4148 98.654 89.4739 98.329 89.4739C97.5903 89.4739 96.7926 89.0012 96.7926 88.0114V84.4659H95.9358V83.7273H96.7926V82.3682H97.6642V83.7273H98.8755ZM102.482 89.5182C100.946 89.5182 99.9118 88.3512 99.9118 86.5932C99.9118 84.8205 100.946 83.6534 102.482 83.6534C104.019 83.6534 105.053 84.8205 105.053 86.5932C105.053 88.3512 104.019 89.5182 102.482 89.5182ZM102.482 88.7353C103.649 88.7353 104.181 87.7307 104.181 86.5932C104.181 85.4557 103.649 84.4364 102.482 84.4364C101.315 84.4364 100.783 85.4557 100.783 86.5932C100.783 87.7307 101.315 88.7353 102.482 88.7353ZM111.081 89.533C110.003 89.533 109.146 88.8978 109.146 87.7898C109.146 86.4898 110.295 86.2571 111.347 86.1205C112.381 85.9875 112.81 86.0245 112.81 85.6034V85.5739C112.81 84.8463 112.415 84.4216 111.613 84.4216C110.782 84.4216 110.328 84.8648 110.136 85.2784L109.309 84.983C109.752 83.9489 110.727 83.6534 111.584 83.6534C112.308 83.6534 113.681 83.8603 113.681 85.6625V89.4H112.81V88.6318H112.766C112.588 89.0012 112.071 89.533 111.081 89.533ZM111.214 88.75C112.249 88.75 112.81 88.0557 112.81 87.3466V86.5489C112.662 86.7262 111.672 86.8296 111.303 86.8739C110.624 86.9625 110.018 87.1693 110.018 87.8341C110.018 88.4398 110.52 88.75 111.214 88.75ZM119.587 89.4L117.858 83.7273H118.774L120 88.0705H120.059L121.271 83.7273H122.201L123.398 88.0557H123.457L124.683 83.7273H125.599L123.871 89.4H123.014L121.773 85.0421H121.684L120.443 89.4H119.587ZM128.989 89.5182C127.349 89.5182 126.344 88.3512 126.344 86.608C126.344 84.8648 127.364 83.6534 128.9 83.6534C130.082 83.6534 131.338 84.3773 131.338 86.4898V86.8591H127.22C127.26 88.0742 127.966 88.7353 128.989 88.7353C129.672 88.7353 130.185 88.4398 130.407 87.8489L131.249 88.0853C130.983 88.9421 130.141 89.5182 128.989 89.5182ZM127.22 86.1057H130.451C130.451 85.1455 129.846 84.4364 128.9 84.4364C127.903 84.4364 127.279 85.223 127.22 86.1057ZM132.834 89.4V81.8364H133.705V84.6284H133.779C133.971 84.333 134.311 83.6534 135.419 83.6534C136.852 83.6534 137.842 84.7909 137.842 86.5784C137.842 88.3807 136.852 89.5182 135.434 89.5182C134.34 89.5182 133.971 88.8387 133.779 88.5284H133.676V89.4H132.834ZM133.69 86.5637C133.69 87.8489 134.267 88.7353 135.315 88.7353C136.409 88.7353 136.97 87.775 136.97 86.5637C136.97 85.3671 136.423 84.4364 135.315 84.4364C134.252 84.4364 133.69 85.2932 133.69 86.5637ZM34.4155 97.9978L33.6326 98.2193C33.4811 97.8279 33.1672 97.4068 32.4064 97.4068C31.7121 97.4068 31.1951 97.7614 31.1951 98.2489C31.1951 98.6847 31.4979 98.91 32.1701 99.0762L33.0121 99.283C34.024 99.5304 34.5189 100.029 34.5189 100.819C34.5189 101.798 33.6215 102.518 32.303 102.518C31.1434 102.518 30.3493 102.005 30.1462 101.041L30.9735 100.834C31.1286 101.443 31.5755 101.75 32.2882 101.75C33.1007 101.75 33.6178 101.351 33.6178 100.864C33.6178 100.472 33.3482 100.199 32.7757 100.066L31.8303 99.8443C30.7888 99.6006 30.3235 99.0762 30.3235 98.2932C30.3235 97.333 31.2098 96.6534 32.4064 96.6534C33.5292 96.6534 34.1422 97.1926 34.4155 97.9978ZM38.2613 102.518C36.6216 102.518 35.617 101.351 35.617 99.608C35.617 97.8648 36.6363 96.6534 38.1727 96.6534C39.3545 96.6534 40.6102 97.3773 40.6102 99.4898V99.8591H36.4923C36.5329 101.074 37.2383 101.735 38.2613 101.735C38.9446 101.735 39.4579 101.44 39.6795 100.849L40.5216 101.085C40.2557 101.942 39.4136 102.518 38.2613 102.518ZM36.4923 99.1057H39.7238C39.7238 98.1455 39.1182 97.4364 38.1727 97.4364C37.1755 97.4364 36.5514 98.223 36.4923 99.1057ZM41.9881 102.4V96.7273H42.8301V97.5841H42.8892C43.096 97.0228 43.6869 96.6387 44.3665 96.6387C44.4957 96.6387 44.7247 96.646 44.8244 96.6534V97.5398C44.7653 97.525 44.5253 97.4807 44.2926 97.4807C43.4653 97.4807 42.8596 98.0421 42.8596 98.8103V102.4H41.9881ZM50.7209 96.7273L48.6232 102.4H47.7368L45.6391 96.7273H46.5845L48.1504 101.248H48.2095L49.7754 96.7273H50.7209ZM54.0986 102.518C52.4588 102.518 51.4543 101.351 51.4543 99.608C51.4543 97.8648 52.4736 96.6534 54.01 96.6534C55.1918 96.6534 56.4475 97.3773 56.4475 99.4898V99.8591H52.3296C52.3702 101.074 53.0756 101.735 54.0986 101.735C54.7818 101.735 55.2952 101.44 55.5168 100.849L56.3588 101.085C56.0929 101.942 55.2509 102.518 54.0986 102.518ZM52.3296 99.1057H55.5611C55.5611 98.1455 54.9554 97.4364 54.01 97.4364C53.0128 97.4364 52.3886 98.223 52.3296 99.1057ZM57.8253 102.4V96.7273H58.6674V97.5841H58.7264C58.9333 97.0228 59.5242 96.6387 60.2037 96.6387C60.333 96.6387 60.562 96.646 60.6617 96.6534V97.5398C60.6026 97.525 60.3625 97.4807 60.1299 97.4807C59.3026 97.4807 58.6969 98.0421 58.6969 98.8103V102.4H57.8253ZM64.7238 102.4V96.7273H65.5659V97.5841H65.625C65.8318 97.0228 66.4227 96.6387 67.1022 96.6387C67.2315 96.6387 67.4605 96.646 67.5602 96.6534V97.5398C67.5011 97.525 67.2611 97.4807 67.0284 97.4807C66.2011 97.4807 65.5954 98.0421 65.5954 98.8103V102.4H64.7238ZM70.8511 102.518C69.2114 102.518 68.2068 101.351 68.2068 99.608C68.2068 97.8648 69.2261 96.6534 70.7625 96.6534C71.9443 96.6534 73.2 97.3773 73.2 99.4898V99.8591H69.0821C69.1227 101.074 69.8281 101.735 70.8511 101.735C71.5344 101.735 72.0477 101.44 72.2693 100.849L73.1114 101.085C72.8454 101.942 72.0034 102.518 70.8511 102.518ZM69.0821 99.1057H72.3136C72.3136 98.1455 71.7079 97.4364 70.7625 97.4364C69.7653 97.4364 69.1412 98.223 69.0821 99.1057ZM78.596 97.9978L77.8131 98.2193C77.6616 97.8279 77.3477 97.4068 76.5869 97.4068C75.8926 97.4068 75.3756 97.7614 75.3756 98.2489C75.3756 98.6847 75.6784 98.91 76.3506 99.0762L77.1926 99.283C78.2045 99.5304 78.6994 100.029 78.6994 100.819C78.6994 101.798 77.802 102.518 76.4835 102.518C75.3239 102.518 74.5298 102.005 74.3267 101.041L75.154 100.834C75.3091 101.443 75.756 101.75 76.4687 101.75C77.2813 101.75 77.7983 101.351 77.7983 100.864C77.7983 100.472 77.5287 100.199 76.9562 100.066L76.0108 99.8443C74.9693 99.6006 74.504 99.0762 74.504 98.2932C74.504 97.333 75.3903 96.6534 76.5869 96.6534C77.7097 96.6534 78.3227 97.1926 78.596 97.9978ZM80.0634 104.527V96.7273H80.9055V97.6284H81.0089C81.2009 97.333 81.5407 96.6534 82.6487 96.6534C84.0816 96.6534 85.0714 97.7909 85.0714 99.5784C85.0714 101.381 84.0816 102.518 82.6634 102.518C81.5703 102.518 81.2009 101.839 81.0089 101.528H80.935V104.527H80.0634ZM80.9203 99.5637C80.9203 100.849 81.4964 101.735 82.5453 101.735C83.6384 101.735 84.1998 100.775 84.1998 99.5637C84.1998 98.3671 83.6532 97.4364 82.5453 97.4364C81.4816 97.4364 80.9203 98.2932 80.9203 99.5637ZM88.7575 102.518C87.2211 102.518 86.187 101.351 86.187 99.5932C86.187 97.8205 87.2211 96.6534 88.7575 96.6534C90.2938 96.6534 91.3279 97.8205 91.3279 99.5932C91.3279 101.351 90.2938 102.518 88.7575 102.518ZM88.7575 101.735C89.9245 101.735 90.4563 100.731 90.4563 99.5932C90.4563 98.4557 89.9245 97.4364 88.7575 97.4364C87.5904 97.4364 87.0586 98.4557 87.0586 99.5932C87.0586 100.731 87.5904 101.735 88.7575 101.735ZM93.582 98.9875V102.4H92.7104V96.7273H93.5525V97.6137H93.6263C93.8922 97.0375 94.424 96.6534 95.2809 96.6534C96.4294 96.6534 97.2013 97.3478 97.2013 98.7955V102.4H96.3297V98.8546C96.3297 97.9645 95.8385 97.4364 95.0297 97.4364C94.1951 97.4364 93.582 97.9978 93.582 98.9875ZM102.864 97.9978L102.081 98.2193C101.93 97.8279 101.616 97.4068 100.855 97.4068C100.161 97.4068 99.6437 97.7614 99.6437 98.2489C99.6437 98.6847 99.9466 98.91 100.619 99.0762L101.461 99.283C102.473 99.5304 102.968 100.029 102.968 100.819C102.968 101.798 102.07 102.518 100.752 102.518C99.592 102.518 98.798 102.005 98.5949 101.041L99.4221 100.834C99.5772 101.443 100.024 101.75 100.737 101.75C101.549 101.75 102.066 101.351 102.066 100.864C102.066 100.472 101.797 100.199 101.224 100.066L100.279 99.8443C99.2375 99.6006 98.7721 99.0762 98.7721 98.2932C98.7721 97.333 99.6585 96.6534 100.855 96.6534C101.978 96.6534 102.591 97.1926 102.864 97.9978ZM106.71 102.518C105.07 102.518 104.066 101.351 104.066 99.608C104.066 97.8648 105.085 96.6534 106.621 96.6534C107.803 96.6534 109.059 97.3773 109.059 99.4898V99.8591H104.941C104.982 101.074 105.687 101.735 106.71 101.735C107.393 101.735 107.907 101.44 108.128 100.849L108.97 101.085C108.704 101.942 107.862 102.518 106.71 102.518ZM104.941 99.1057H108.173C108.173 98.1455 107.567 97.4364 106.621 97.4364C105.624 97.4364 105 98.223 104.941 99.1057ZM111.072 102.459C110.706 102.459 110.407 102.16 110.407 101.794C110.407 101.429 110.706 101.13 111.072 101.13C111.438 101.13 111.737 101.429 111.737 101.794C111.737 102.16 111.438 102.459 111.072 102.459Z" fill="#D3D5DE"/>
</g>
<path fill-rule="evenodd" clip-rule="evenodd" d="M171.118 115.517L171.684 116.083L178.084 109.683L177.518 109.117L171.118 115.517ZM177.518 112.317L174.318 115.517L174.884 116.083L178.084 112.883L177.518 112.317Z" fill="#626784"/>
</g>
<rect x="20" y="22" width="160" height="96" rx="6.4" stroke="#3385FF" stroke-width="1.6"/>
<defs>
<clipPath id="clip0_4060_86699">
<rect x="20" y="22" width="160" height="96" rx="6.4" fill="white"/>
</clipPath>
<clipPath id="clip1_4060_86699">
<rect width="150.4" height="96" fill="white" transform="translate(29.5996 22)"/>
</clipPath>
</defs>
</svg>
