<svg width="200" height="140" viewBox="0 0 200 140" fill="none" xmlns="http://www.w3.org/2000/svg">
<g clip-path="url(#clip0_4060_86928)">
<rect width="200" height="140" rx="12" fill="#1E2029"/>
<g clip-path="url(#clip1_4060_86928)">
<rect x="0.319489" y="0.319489" width="24.9201" height="24.9201" stroke="#36394A" stroke-width="0.638978"/>
<rect x="25.2394" y="0.319489" width="24.9201" height="24.9201" stroke="#36394A" stroke-width="0.638978"/>
<rect x="50.1593" y="0.319489" width="24.9201" height="24.9201" stroke="#36394A" stroke-width="0.638978"/>
<rect x="75.0802" y="0.319489" width="24.9201" height="24.9201" stroke="#36394A" stroke-width="0.638978"/>
<rect x="100" y="0.319489" width="24.9201" height="24.9201" stroke="#36394A" stroke-width="0.638978"/>
<rect x="124.92" y="0.319489" width="24.9201" height="24.9201" stroke="#36394A" stroke-width="0.638978"/>
<rect x="149.84" y="0.319489" width="24.9201" height="24.9201" stroke="#36394A" stroke-width="0.638978"/>
<rect x="174.76" y="0.319489" width="24.9201" height="24.9201" stroke="#36394A" stroke-width="0.638978"/>
<rect x="0.319489" y="25.2396" width="24.9201" height="24.9201" stroke="#36394A" stroke-width="0.638978"/>
<rect x="25.2394" y="25.2396" width="24.9201" height="24.9201" stroke="#36394A" stroke-width="0.638978"/>
<rect x="50.1593" y="25.2396" width="24.9201" height="24.9201" stroke="#36394A" stroke-width="0.638978"/>
<rect x="75.0802" y="25.2396" width="24.9201" height="24.9201" stroke="#36394A" stroke-width="0.638978"/>
<rect x="100" y="25.2396" width="24.9201" height="24.9201" stroke="#36394A" stroke-width="0.638978"/>
<rect x="124.92" y="25.2396" width="24.9201" height="24.9201" stroke="#36394A" stroke-width="0.638978"/>
<rect x="149.84" y="25.2396" width="24.9201" height="24.9201" stroke="#36394A" stroke-width="0.638978"/>
<rect x="174.76" y="25.2396" width="24.9201" height="24.9201" stroke="#36394A" stroke-width="0.638978"/>
<rect x="0.319489" y="50.1598" width="24.9201" height="24.9201" stroke="#36394A" stroke-width="0.638978"/>
<rect x="25.2394" y="50.1598" width="24.9201" height="24.9201" stroke="#36394A" stroke-width="0.638978"/>
<rect x="50.1593" y="50.1598" width="24.9201" height="24.9201" stroke="#36394A" stroke-width="0.638978"/>
<rect x="75.0802" y="50.1598" width="24.9201" height="24.9201" stroke="#36394A" stroke-width="0.638978"/>
<rect x="100" y="50.1598" width="24.9201" height="24.9201" stroke="#36394A" stroke-width="0.638978"/>
<rect x="124.92" y="50.1598" width="24.9201" height="24.9201" stroke="#36394A" stroke-width="0.638978"/>
<rect x="149.84" y="50.1598" width="24.9201" height="24.9201" stroke="#36394A" stroke-width="0.638978"/>
<rect x="174.76" y="50.1598" width="24.9201" height="24.9201" stroke="#36394A" stroke-width="0.638978"/>
<rect x="0.319489" y="75.0799" width="24.9201" height="24.9201" stroke="#36394A" stroke-width="0.638978"/>
<rect x="25.2394" y="75.0799" width="24.9201" height="24.9201" stroke="#36394A" stroke-width="0.638978"/>
<rect x="50.1593" y="75.0799" width="24.9201" height="24.9201" stroke="#36394A" stroke-width="0.638978"/>
<rect x="75.0802" y="75.0799" width="24.9201" height="24.9201" stroke="#36394A" stroke-width="0.638978"/>
<rect x="100" y="75.0799" width="24.9201" height="24.9201" stroke="#36394A" stroke-width="0.638978"/>
<rect x="124.92" y="75.0799" width="24.9201" height="24.9201" stroke="#36394A" stroke-width="0.638978"/>
<rect x="149.84" y="75.0799" width="24.9201" height="24.9201" stroke="#36394A" stroke-width="0.638978"/>
<rect x="174.76" y="75.0799" width="24.9201" height="24.9201" stroke="#36394A" stroke-width="0.638978"/>
<rect x="0.319489" y="100" width="24.9201" height="24.9201" stroke="#36394A" stroke-width="0.638978"/>
<rect x="25.2394" y="100" width="24.9201" height="24.9201" stroke="#36394A" stroke-width="0.638978"/>
<rect x="50.1593" y="100" width="24.9201" height="24.9201" stroke="#36394A" stroke-width="0.638978"/>
<rect x="75.0802" y="100" width="24.9201" height="24.9201" stroke="#36394A" stroke-width="0.638978"/>
<rect x="100" y="100" width="24.9201" height="24.9201" stroke="#36394A" stroke-width="0.638978"/>
<rect x="124.92" y="100" width="24.9201" height="24.9201" stroke="#36394A" stroke-width="0.638978"/>
<rect x="149.84" y="100" width="24.9201" height="24.9201" stroke="#36394A" stroke-width="0.638978"/>
<rect x="174.76" y="100" width="24.9201" height="24.9201" stroke="#36394A" stroke-width="0.638978"/>
<rect x="0.319489" y="124.92" width="24.9201" height="24.9201" stroke="#36394A" stroke-width="0.638978"/>
<rect x="25.2394" y="124.92" width="24.9201" height="24.9201" stroke="#36394A" stroke-width="0.638978"/>
<rect x="50.1593" y="124.92" width="24.9201" height="24.9201" stroke="#36394A" stroke-width="0.638978"/>
<rect x="75.0802" y="124.92" width="24.9201" height="24.9201" stroke="#36394A" stroke-width="0.638978"/>
<rect x="100" y="124.92" width="24.9201" height="24.9201" stroke="#36394A" stroke-width="0.638978"/>
<rect x="124.92" y="124.92" width="24.9201" height="24.9201" stroke="#36394A" stroke-width="0.638978"/>
<rect x="149.84" y="124.92" width="24.9201" height="24.9201" stroke="#36394A" stroke-width="0.638978"/>
<rect x="174.76" y="124.92" width="24.9201" height="24.9201" stroke="#36394A" stroke-width="0.638978"/>
<mask id="mask0_4060_86928" style="mask-type:alpha" maskUnits="userSpaceOnUse" x="0" y="0" width="200" height="140">
<rect x="200" y="140" width="200" height="140" transform="rotate(-180 200 140)" fill="url(#paint0_radial_4060_86928)"/>
</mask>
<g mask="url(#mask0_4060_86928)">
<rect width="200" height="140" fill="#1E2029"/>
</g>
</g>
<circle cx="100" cy="70" r="11" fill="#1E2029"/>
<path d="M103.396 53.9238C104.653 56.228 107.347 57.3438 109.865 56.6032L114.378 55.2757C114.59 55.2134 114.787 55.4101 114.724 55.6218L113.397 60.1355C112.656 62.6536 113.772 65.3472 116.076 66.604L121.854 69.7552C122.048 69.8609 122.048 70.1391 121.854 70.2448L116.076 73.396C113.772 74.6528 112.656 77.3464 113.397 79.8644L114.724 84.3782C114.787 84.5899 114.59 84.7866 114.378 84.7244L109.864 83.397C107.346 82.6567 104.653 83.7724 103.396 86.0765L100.245 91.8547C100.139 92.0484 99.8607 92.0484 99.7551 91.8547L96.6032 86.0761C95.3464 83.772 92.6529 82.6562 90.1349 83.3968L85.6213 84.7243C85.4096 84.7866 85.2129 84.5899 85.2752 84.3782L86.6027 79.8644C87.3433 77.3464 86.2275 74.6528 83.9232 73.396L78.1453 70.2447C77.9516 70.1391 77.9516 69.8609 78.1453 69.7552L83.9232 66.604C86.2275 65.3472 87.3433 62.6536 86.6027 60.1356L85.2752 55.6218C85.2129 55.4101 85.4096 55.2134 85.6213 55.2757L90.135 56.6032C92.653 57.3438 95.3466 56.228 96.6033 53.9238L99.7551 48.1453C99.8607 47.9516 100.139 47.9516 100.245 48.1453L103.396 53.9238ZM107.798 77.798C112.09 73.5061 112.064 66.5216 107.74 62.1976C106.129 60.5865 104.148 59.572 102.075 59.1554C101.799 59.0999 101.647 59.4601 101.853 59.6511C101.938 59.729 102.021 59.8089 102.103 59.8908C105.5 63.2882 105.52 68.776 102.148 72.1482C98.776 75.5204 93.2882 75.5 89.8908 72.1026C89.8089 72.0208 89.729 71.9377 89.6511 71.8535C89.4601 71.647 89.1 71.7995 89.1554 72.0753C89.5721 74.1483 90.5865 76.1288 92.1976 77.7399C96.5216 82.0639 103.506 82.0899 107.798 77.798Z" fill="#626784"/>
</g>
<rect x="0.5" y="0.5" width="199" height="139" rx="11.5" stroke="#303341"/>
<defs>
<radialGradient id="paint0_radial_4060_86928" cx="0" cy="0" r="1" gradientUnits="userSpaceOnUse" gradientTransform="translate(300 204.5) rotate(90) scale(109.5 122.053)">
<stop stop-color="white" stop-opacity="0"/>
<stop offset="1" stop-color="white"/>
</radialGradient>
<clipPath id="clip0_4060_86928">
<rect width="200" height="140" rx="12" fill="white"/>
</clipPath>
<clipPath id="clip1_4060_86928">
<rect width="200" height="150.16" fill="white"/>
</clipPath>
</defs>
</svg>
