<svg width="200" height="140" viewBox="0 0 200 140" fill="none" xmlns="http://www.w3.org/2000/svg">
<rect x="0.5" y="0.5" width="199" height="139" rx="11.5" fill="#F6F7F9"/>
<rect x="0.5" y="0.5" width="199" height="139" rx="11.5" stroke="#E8E9EE"/>
<rect x="16.5" y="54.5" width="165" height="31" rx="7.5" fill="white"/>
<rect x="16.5" y="54.5" width="165" height="31" rx="7.5" stroke="#D3D5DE"/>
<path d="M35.3494 65.5455H36.4943V71.8054C36.4943 73.7443 35.0447 75.1662 32.8196 75.1662C30.5945 75.1662 29.1449 73.7443 29.1449 71.8054V65.5455H30.2898V71.7131C30.2898 73.098 31.2408 74.0952 32.8196 74.0952C34.3984 74.0952 35.3494 73.098 35.3494 71.7131V65.5455ZM38.3286 66.5611V65.5455H45.4195V66.5611H42.4465V75H41.3016V66.5611H38.3286ZM54.4658 68.5H53.321C53.044 67.1889 51.9176 66.4872 50.6619 66.4872C48.9445 66.4872 47.5965 67.8168 47.5965 70.2727C47.5965 72.7287 48.9445 74.0582 50.6619 74.0582C51.9176 74.0582 53.044 73.3565 53.321 72.0455H54.4658C54.115 73.9844 52.5639 75.1293 50.6619 75.1293C48.2428 75.1293 46.4886 73.2642 46.4886 70.2727C46.4886 67.2812 48.2428 65.4162 50.6619 65.4162C52.5639 65.4162 54.115 66.5611 54.4658 68.5ZM62.7243 73.3381V70.8082H60.1945V69.7741H62.7243V67.2443H63.7584V69.7741H66.2882V70.8082H63.7584V73.3381H62.7243ZM71.8018 75.1293C69.7152 75.1293 68.5149 73.3612 68.5149 70.2727C68.5149 67.2074 69.7336 65.4162 71.8018 65.4162C73.87 65.4162 75.0888 67.2074 75.0888 70.2727C75.0888 73.3612 73.8885 75.1293 71.8018 75.1293ZM71.8018 74.1136C73.1775 74.1136 73.9808 72.7333 73.9808 70.2727C73.9808 67.8168 73.1683 66.4134 71.8018 66.4134C70.4354 66.4134 69.6229 67.8168 69.6229 70.2727C69.6229 72.7333 70.4261 74.1136 71.8018 74.1136ZM76.8676 73.0611V72.1193L80.6531 65.5455H81.7796L78.0864 71.9716V72.0455H81.3179V69.0909H82.4074V72.0455H83.7V73.0611H82.4074V75H81.3179V73.0611H76.8676ZM86.3468 73.7905C85.8897 73.7905 85.5158 73.4165 85.5158 72.9595C85.5158 72.5025 85.8897 72.1286 86.3468 72.1286C86.8038 72.1286 87.1777 72.5025 87.1777 72.9595C87.1777 73.4165 86.8038 73.7905 86.3468 73.7905ZM86.3468 69.0078C85.8897 69.0078 85.5158 68.6339 85.5158 68.1768C85.5158 67.7198 85.8897 67.3459 86.3468 67.3459C86.8038 67.3459 87.1777 67.7198 87.1777 68.1768C87.1777 68.6339 86.8038 69.0078 86.3468 69.0078ZM92.4109 75.1293C90.3242 75.1293 89.124 73.3612 89.124 70.2727C89.124 67.2074 90.3427 65.4162 92.4109 65.4162C94.4791 65.4162 95.6978 67.2074 95.6978 70.2727C95.6978 73.3612 94.4975 75.1293 92.4109 75.1293ZM92.4109 74.1136C93.7866 74.1136 94.5899 72.7333 94.5899 70.2727C94.5899 67.8168 93.7774 66.4134 92.4109 66.4134C91.0444 66.4134 90.2319 67.8168 90.2319 70.2727C90.2319 72.7333 91.0352 74.1136 92.4109 74.1136ZM100.893 75.1293C98.8062 75.1293 97.606 73.3612 97.606 70.2727C97.606 67.2074 98.8247 65.4162 100.893 65.4162C102.961 65.4162 104.18 67.2074 104.18 70.2727C104.18 73.3612 102.98 75.1293 100.893 75.1293ZM100.893 74.1136C102.269 74.1136 103.072 72.7333 103.072 70.2727C103.072 67.8168 102.259 66.4134 100.893 66.4134C99.5264 66.4134 98.7139 67.8168 98.7139 70.2727C98.7139 72.7333 99.5172 74.1136 100.893 74.1136ZM115.201 67.9091C115.09 66.9766 114.223 66.4318 113.078 66.4318C111.822 66.4318 110.991 67.0966 110.991 68.0014C110.991 69.017 112.117 69.3864 112.819 69.571L113.779 69.8295C114.758 70.0881 116.438 70.6605 116.438 72.4332C116.438 73.9659 115.201 75.1662 113.022 75.1662C110.991 75.1662 109.735 74.1136 109.625 72.5625H110.806C110.899 73.6335 111.896 74.1321 113.022 74.1321C114.333 74.1321 115.33 73.4489 115.33 72.4148C115.33 71.473 114.444 71.1222 113.447 70.8452L112.284 70.5128C110.806 70.0881 109.883 69.331 109.883 68.0568C109.883 66.4688 111.305 65.4162 113.115 65.4162C114.943 65.4162 116.258 66.4826 116.309 67.9091H115.201ZM120.325 75.1662C118.977 75.1662 117.906 74.3722 117.906 72.9872C117.906 71.3622 119.341 71.0714 120.657 70.9006C121.95 70.7344 122.485 70.7805 122.485 70.2543V70.2173C122.485 69.3079 121.991 68.777 120.99 68.777C119.951 68.777 119.383 69.331 119.143 69.848L118.109 69.4787C118.663 68.1861 119.882 67.8168 120.953 67.8168C121.857 67.8168 123.575 68.0753 123.575 70.3281V75H122.485V74.0398H122.43C122.208 74.5014 121.562 75.1662 120.325 75.1662ZM120.491 74.1875C121.784 74.1875 122.485 73.3196 122.485 72.4332V71.4361C122.301 71.6577 121.063 71.7869 120.602 71.8423C119.752 71.9531 118.995 72.2116 118.995 73.0426C118.995 73.7997 119.623 74.1875 120.491 74.1875ZM125.628 75V67.9091H126.681V69.017H126.773C127.069 68.2599 127.752 67.8168 128.675 67.8168C129.608 67.8168 130.226 68.2599 130.577 69.017H130.651C131.016 68.283 131.759 67.8168 132.775 67.8168C134.04 67.8168 134.935 68.5877 134.935 70.2543V75H133.846V70.2543C133.846 69.2063 133.181 68.7955 132.405 68.7955C131.408 68.7955 130.836 69.4695 130.836 70.3835V75H129.728V70.1435C129.728 69.3356 129.151 68.7955 128.324 68.7955C127.475 68.7955 126.718 69.5295 126.718 70.5682V75H125.628ZM139.079 75.1662C137.731 75.1662 136.66 74.3722 136.66 72.9872C136.66 71.3622 138.095 71.0714 139.411 70.9006C140.704 70.7344 141.239 70.7805 141.239 70.2543V70.2173C141.239 69.3079 140.745 68.777 139.744 68.777C138.705 68.777 138.137 69.331 137.897 69.848L136.863 69.4787C137.417 68.1861 138.636 67.8168 139.707 67.8168C140.611 67.8168 142.329 68.0753 142.329 70.3281V75H141.239V74.0398H141.184C140.962 74.5014 140.316 75.1662 139.079 75.1662ZM139.245 74.1875C140.538 74.1875 141.239 73.3196 141.239 72.4332V71.4361C141.055 71.6577 139.817 71.7869 139.356 71.8423C138.506 71.9531 137.749 72.2116 137.749 73.0426C137.749 73.7997 138.377 74.1875 139.245 74.1875ZM144.382 75V67.9091H145.435V68.9801H145.509C145.767 68.2784 146.506 67.7983 147.355 67.7983C147.517 67.7983 147.803 67.8075 147.928 67.8168V68.9247C147.854 68.9062 147.554 68.8509 147.263 68.8509C146.229 68.8509 145.472 69.5526 145.472 70.5128V75H144.382ZM151.371 75.1662C150.023 75.1662 148.952 74.3722 148.952 72.9872C148.952 71.3622 150.388 71.0714 151.703 70.9006C152.996 70.7344 153.531 70.7805 153.531 70.2543V70.2173C153.531 69.3079 153.037 68.777 152.036 68.777C150.997 68.777 150.429 69.331 150.189 69.848L149.155 69.4787C149.709 68.1861 150.928 67.8168 151.999 67.8168C152.904 67.8168 154.621 68.0753 154.621 70.3281V75H153.531V74.0398H153.476C153.254 74.5014 152.608 75.1662 151.371 75.1662ZM151.537 74.1875C152.83 74.1875 153.531 73.3196 153.531 72.4332V71.4361C153.347 71.6577 152.11 71.7869 151.648 71.8423C150.798 71.9531 150.041 72.2116 150.041 73.0426C150.041 73.7997 150.669 74.1875 151.537 74.1875Z" fill="#21222C"/>
<path fill-rule="evenodd" clip-rule="evenodd" d="M163 68.5L162 69.5L166 73.5L170 69.5L169 68.5L166 71.5L163 68.5Z" fill="#8A8FA8"/>
</svg>
