<svg width="200" height="140" viewBox="0 0 200 140" fill="none" xmlns="http://www.w3.org/2000/svg">
<rect x="0.5" y="0.5" width="199" height="139" rx="11.5" fill="#1E2029"/>
<rect x="0.5" y="0.5" width="199" height="139" rx="11.5" stroke="#303341"/>
<rect x="46.5" y="54.5" width="107" height="31" rx="7.5" fill="#1A1B23"/>
<rect x="46.5" y="54.5" width="107" height="31" rx="7.5" stroke="#363949"/>
<path d="M62.6 70.8C62.7105 70.8 62.8 70.7105 62.8 70.6V65.4C62.8 65.2896 62.7105 65.2 62.6 65.2H61.4C61.2895 65.2 61.2 65.2896 61.2 65.4V69.2H58.4667C58.3562 69.2 58.2667 69.2896 58.2667 69.4V70.6C58.2667 70.7105 58.3562 70.8 58.4667 70.8H62.6Z" fill="#626784"/>
<path d="M70 70C70 74.4183 66.4183 78 62 78C57.5817 78 54 74.4183 54 70C54 65.5817 57.5817 62 62 62C66.4183 62 70 65.5817 70 70ZM68.4 70C68.4 66.4654 65.5346 63.6 62 63.6C58.4654 63.6 55.6 66.4654 55.6 70C55.6 73.5346 58.4654 76.4 62 76.4C65.5346 76.4 68.4 73.5346 68.4 70Z" fill="#626784"/>
<path d="M82.3026 65.5455V75H81.1577V66.7457H81.1023L78.794 68.2784V67.1151L81.1577 65.5455H82.3026ZM85.0867 75V74.169L88.2074 70.7528C89.3015 69.5572 89.8139 68.9109 89.8139 68.0384C89.8139 67.0412 89.0291 66.4134 88.0043 66.4134C86.9102 66.4134 86.2131 67.1289 86.2131 68.2045H85.1236C85.1236 66.5426 86.3839 65.4162 88.0412 65.4162C89.7031 65.4162 90.885 66.5795 90.885 68.0384C90.885 69.0863 90.4048 69.8988 88.7798 71.6392L86.6563 73.9105V73.9844H91.0512V75H85.0867ZM93.8353 73.7905C93.3782 73.7905 93.0043 73.4165 93.0043 72.9595C93.0043 72.5025 93.3782 72.1286 93.8353 72.1286C94.2923 72.1286 94.6662 72.5025 94.6662 72.9595C94.6662 73.4165 94.2923 73.7905 93.8353 73.7905ZM93.8353 69.0078C93.3782 69.0078 93.0043 68.6339 93.0043 68.1768C93.0043 67.7198 93.3782 67.3459 93.8353 67.3459C94.2923 67.3459 94.6662 67.7198 94.6662 68.1768C94.6662 68.6339 94.2923 69.0078 93.8353 69.0078ZM96.5201 72.6364H97.6835C97.785 73.5966 98.6391 74.1136 99.7332 74.1136C100.91 74.1136 101.82 73.5135 101.82 72.3409C101.82 71.3207 101.15 70.402 99.4008 70.402H98.6437V69.4787L101.007 66.6349V66.5611H96.9818V65.5455H102.577V66.3764L100.047 69.4418V69.5156C101.677 69.5895 102.946 70.7667 102.946 72.3409C102.946 73.9567 101.612 75.1293 99.7147 75.1293C98.0297 75.1293 96.6309 74.2106 96.5201 72.6364ZM107.98 75.1293C105.893 75.1293 104.693 73.3612 104.693 70.2727C104.693 67.2074 105.912 65.4162 107.98 65.4162C110.048 65.4162 111.267 67.2074 111.267 70.2727C111.267 73.3612 110.066 75.1293 107.98 75.1293ZM107.98 74.1136C109.355 74.1136 110.159 72.7333 110.159 70.2727C110.159 67.8168 109.346 66.4134 107.98 66.4134C106.613 66.4134 105.801 67.8168 105.801 70.2727C105.801 72.7333 106.604 74.1136 107.98 74.1136ZM113.898 73.7905C113.441 73.7905 113.067 73.4165 113.067 72.9595C113.067 72.5025 113.441 72.1286 113.898 72.1286C114.355 72.1286 114.729 72.5025 114.729 72.9595C114.729 73.4165 114.355 73.7905 113.898 73.7905ZM113.898 69.0078C113.441 69.0078 113.067 68.6339 113.067 68.1768C113.067 67.7198 113.441 67.3459 113.898 67.3459C114.355 67.3459 114.729 67.7198 114.729 68.1768C114.729 68.6339 114.355 69.0078 113.898 69.0078ZM119.815 75.1293C117.728 75.1293 116.528 73.3612 116.528 70.2727C116.528 67.2074 117.747 65.4162 119.815 65.4162C121.883 65.4162 123.102 67.2074 123.102 70.2727C123.102 73.3612 121.901 75.1293 119.815 75.1293ZM119.815 74.1136C121.191 74.1136 121.994 72.7333 121.994 70.2727C121.994 67.8168 121.181 66.4134 119.815 66.4134C118.448 66.4134 117.636 67.8168 117.636 70.2727C117.636 72.7333 118.439 74.1136 119.815 74.1136ZM128.245 65.5455V75H127.1V66.7457H127.045L124.736 68.2784V67.1151L127.1 65.5455H128.245Z" fill="#D3D5DE"/>
</svg>
