<svg width="200" height="140" viewBox="0 0 200 140" fill="none" xmlns="http://www.w3.org/2000/svg">
<rect x="0.5" y="0.5" width="199" height="139" rx="11.5" fill="#1E2029"/>
<rect x="0.5" y="0.5" width="199" height="139" rx="11.5" stroke="#303341"/>
<g filter="url(#filter0_d_4060_86703)">
<g clip-path="url(#clip0_4060_86703)">
<rect x="28" y="12" width="160" height="62.6383" rx="10.2128" fill="#303341"/>
<path d="M50.8356 28.3486C51.2753 27.5434 52.3847 27.5434 52.8244 28.3486L58.4859 38.7174C58.9222 39.5165 58.3709 40.5106 57.4916 40.5106H46.1684C45.2891 40.5106 44.7378 39.5165 45.1741 38.7174L50.8356 28.3486ZM52.4998 32H51.2622C51.164 32 51.0862 32.0828 51.0923 32.1808L51.3552 36.3947C51.3608 36.4845 51.4352 36.5544 51.5251 36.5544H52.235C52.3249 36.5544 52.3992 36.4845 52.4049 36.3948L52.6697 32.1809C52.6758 32.0829 52.598 32 52.4998 32ZM51.881 38.6415C52.2978 38.6415 52.6357 38.3036 52.6357 37.8868C52.6357 37.47 52.2978 37.1321 51.881 37.1321C51.4642 37.1321 51.1263 37.47 51.1263 37.8868C51.1263 38.3036 51.4642 38.6415 51.881 38.6415Z" fill="#FC634F"/>
<path d="M71.8021 39.617H69.9212V29.4893H72.4097L76.1136 36.5642H76.4029V29.4893H78.2838V39.617H75.7808L72.0914 32.5421H71.8021V39.617ZM83.602 39.7617C81.4897 39.7617 79.8837 38.1557 79.8837 35.9566C79.8837 33.743 81.4897 32.1515 83.602 32.1515C85.642 32.1515 87.2046 33.6996 87.2046 35.7974C87.2046 36.1447 87.1612 36.434 87.1323 36.5353H81.6489C81.7791 37.5481 82.5893 38.2715 83.602 38.2715C84.3978 38.2715 84.962 37.8664 85.1935 37.4757H87.002C86.6548 38.5174 85.5697 39.7617 83.602 39.7617ZM81.6489 35.3345H85.4395C85.3382 34.3651 84.6148 33.6127 83.602 33.6127C82.5169 33.6127 81.7935 34.3651 81.6489 35.3345ZM92.0129 39.617H89.6256L87.7158 32.2962H89.5533L90.812 37.1719H91.1014L92.3601 32.2962H94.3712L95.6443 37.1719H95.9337L97.178 32.2962H99.0299L97.1201 39.617H94.7329L93.5175 34.8425H93.2282L92.0129 39.617ZM106.802 39.7617C104.69 39.7617 103.084 38.1557 103.084 35.9566C103.084 33.743 104.69 32.1515 106.802 32.1515C108.842 32.1515 110.404 33.6996 110.404 35.7974C110.404 36.1447 110.361 36.434 110.332 36.5353H104.849C104.979 37.5481 105.789 38.2715 106.802 38.2715C107.598 38.2715 108.162 37.8664 108.393 37.4757H110.202C109.855 38.5174 108.77 39.7617 106.802 39.7617ZM104.849 35.3345H108.639C108.538 34.3651 107.815 33.6127 106.802 33.6127C105.717 33.6127 104.993 34.3651 104.849 35.3345ZM115.82 39.617H113.361L110.843 32.2962H112.681L114.446 37.5336H114.735L116.5 32.2962H118.352L115.82 39.617ZM122.527 39.7617C120.415 39.7617 118.809 38.1557 118.809 35.9566C118.809 33.743 120.415 32.1515 122.527 32.1515C124.567 32.1515 126.13 33.6996 126.13 35.7974C126.13 36.1447 126.087 36.434 126.058 36.5353H120.574C120.704 37.5481 121.515 38.2715 122.527 38.2715C123.323 38.2715 123.887 37.8664 124.119 37.4757H125.927C125.58 38.5174 124.495 39.7617 122.527 39.7617ZM120.574 35.3345H124.365C124.264 34.3651 123.54 33.6127 122.527 33.6127C121.442 33.6127 120.719 34.3651 120.574 35.3345ZM129.343 39.617H127.578V32.2962H129.097L129.242 32.9906H129.314C129.604 32.6579 130.327 32.1515 131.427 32.1515C133.105 32.1515 134.32 33.3668 134.32 35.2187V39.617H132.555V35.4502C132.555 34.5098 131.89 33.8298 130.978 33.8298C130.038 33.8298 129.343 34.5387 129.343 35.4502V39.617ZM140.022 39.617H138.416C137.229 39.617 136.578 38.9659 136.578 37.8953V33.96H135.421V32.2962H136.578V30.097H138.358V32.2962H140.022V33.96H138.358V37.5336C138.358 37.8664 138.502 38.011 138.835 38.011H140.022V39.617Z" fill="#D3D5DE"/>
<path d="M72.308 58.0213H69.825V49.9749H72.418C74.7597 49.9749 76.1427 51.4836 76.1427 53.9824C76.1427 56.4969 74.7597 58.0213 72.308 58.0213ZM70.7993 57.1569H72.2452C74.2411 57.1569 75.1997 55.9468 75.1997 53.9824C75.1997 52.0336 74.2411 50.8392 72.3552 50.8392H70.7993V57.1569ZM80.2369 58.147C78.4925 58.147 77.4238 56.9055 77.4238 55.051C77.4238 53.1966 78.5082 51.9079 80.1426 51.9079C81.3999 51.9079 82.7357 52.678 82.7357 54.9253V55.3182H78.355C78.3982 56.6108 79.1486 57.3141 80.2369 57.3141C80.9638 57.3141 81.5099 56.9998 81.7456 56.3712L82.6414 56.6226C82.3585 57.5341 81.4627 58.147 80.2369 58.147ZM78.355 54.5167H81.7928C81.7928 53.4952 81.1484 52.7408 80.1426 52.7408C79.0818 52.7408 78.4178 53.5777 78.355 54.5167ZM88.4762 53.338L87.6432 53.5738C87.4821 53.1573 87.1482 52.7094 86.3388 52.7094C85.6002 52.7094 85.0501 53.0866 85.0501 53.6052C85.0501 54.0688 85.3723 54.3085 86.0874 54.4853L86.9832 54.7053C88.0597 54.9685 88.5862 55.4989 88.5862 56.3397C88.5862 57.3809 87.6314 58.147 86.2288 58.147C84.9951 58.147 84.1504 57.6009 83.9343 56.5755L84.8144 56.3554C84.9794 57.0037 85.4548 57.3298 86.2131 57.3298C87.0775 57.3298 87.6275 56.9055 87.6275 56.3869C87.6275 55.9704 87.3407 55.6797 86.7317 55.5382L85.7259 55.3025C84.618 55.0432 84.1229 54.4853 84.1229 53.6523C84.1229 52.6308 85.0659 51.9079 86.3388 51.9079C87.5332 51.9079 88.1854 52.4815 88.4762 53.338ZM92.4889 58.147C90.7916 58.147 89.7543 56.8426 89.7543 55.0353C89.7543 53.1966 90.8387 51.9079 92.4732 51.9079C93.7461 51.9079 94.7048 52.6623 94.8619 53.7938H93.9347C93.7933 53.2437 93.3061 52.7408 92.4889 52.7408C91.4045 52.7408 90.6816 53.6366 90.6816 55.0039C90.6816 56.4026 91.3888 57.3141 92.4889 57.3141C93.2118 57.3141 93.7618 56.9212 93.9347 56.2611H94.8619C94.7048 57.3298 93.8247 58.147 92.4889 58.147ZM96.2727 58.0213V51.9865H97.1685V52.898H97.2314C97.4514 52.3008 98.08 51.8922 98.803 51.8922C98.9405 51.8922 99.1841 51.9 99.2901 51.9079V52.8508C99.2273 52.8351 98.9719 52.788 98.7244 52.788C97.8443 52.788 97.2 53.3852 97.2 54.2024V58.0213H96.2727ZM100.445 58.0213V51.9865H101.372V58.0213H100.445ZM100.916 50.9807C100.555 50.9807 100.256 50.6978 100.256 50.3521C100.256 50.0063 100.555 49.7234 100.916 49.7234C101.278 49.7234 101.576 50.0063 101.576 50.3521C101.576 50.6978 101.278 50.9807 100.916 50.9807ZM103.125 60.2844V51.9865H104.021V52.9451H104.131C104.336 52.6308 104.697 51.9079 105.876 51.9079C107.4 51.9079 108.453 53.118 108.453 55.0196C108.453 56.9369 107.4 58.147 105.891 58.147C104.728 58.147 104.336 57.4241 104.131 57.0941H104.053V60.2844H103.125ZM104.037 55.0039C104.037 56.3712 104.65 57.3141 105.766 57.3141C106.929 57.3141 107.526 56.2926 107.526 55.0039C107.526 53.7309 106.944 52.7408 105.766 52.7408C104.634 52.7408 104.037 53.6523 104.037 55.0039ZM112.547 51.9865V52.7723H111.259V56.2926C111.259 57.0784 111.651 57.2041 112.06 57.2041C112.264 57.2041 112.39 57.1727 112.469 57.1569L112.657 57.9899C112.532 58.037 112.312 58.0999 111.966 58.0999C111.18 58.0999 110.331 57.597 110.331 56.544V52.7723H109.42V51.9865H110.331V50.5406H111.259V51.9865H112.547ZM113.997 58.0213V51.9865H114.925V58.0213H113.997ZM114.469 50.9807C114.107 50.9807 113.809 50.6978 113.809 50.3521C113.809 50.0063 114.107 49.7234 114.469 49.7234C114.83 49.7234 115.129 50.0063 115.129 50.3521C115.129 50.6978 114.83 50.9807 114.469 50.9807ZM119.13 58.147C117.495 58.147 116.395 56.9055 116.395 55.0353C116.395 53.1494 117.495 51.9079 119.13 51.9079C120.764 51.9079 121.864 53.1494 121.864 55.0353C121.864 56.9055 120.764 58.147 119.13 58.147ZM119.13 57.3141C120.371 57.3141 120.937 56.2454 120.937 55.0353C120.937 53.8252 120.371 52.7408 119.13 52.7408C117.888 52.7408 117.322 53.8252 117.322 55.0353C117.322 56.2454 117.888 57.3141 119.13 57.3141ZM124.262 54.391V58.0213H123.335V51.9865H124.231V52.9294H124.309C124.592 52.3165 125.158 51.9079 126.07 51.9079C127.291 51.9079 128.113 52.6465 128.113 54.1867V58.0213H127.185V54.2495C127.185 53.3027 126.663 52.7408 125.802 52.7408C124.914 52.7408 124.262 53.338 124.262 54.391Z" fill="#D3D5DE"/>
<path d="M175.61 25.3563C175.676 25.2897 175.676 25.1816 175.61 25.1149L174.885 24.3905C174.818 24.3238 174.71 24.3238 174.644 24.3905L170.979 28.0554L167.314 24.3905C167.247 24.3238 167.139 24.3238 167.072 24.3905L166.348 25.1149C166.281 25.1816 166.281 25.2897 166.348 25.3563L170.013 29.0213L166.348 32.6863C166.281 32.7529 166.281 32.8611 166.348 32.9277L167.072 33.6521C167.139 33.7188 167.247 33.7188 167.314 33.6521L170.979 29.9872L174.644 33.6521C174.71 33.7188 174.818 33.7188 174.885 33.6521L175.61 32.9277C175.676 32.8611 175.676 32.7529 175.61 32.6863L171.945 29.0213L175.61 25.3563Z" fill="#626784"/>
</g>
</g>
<defs>
<filter id="filter0_d_4060_86703" x="21.1915" y="6.89362" width="173.617" height="76.2553" filterUnits="userSpaceOnUse" color-interpolation-filters="sRGB">
<feFlood flood-opacity="0" result="BackgroundImageFix"/>
<feColorMatrix in="SourceAlpha" type="matrix" values="0 0 0 0 0 0 0 0 0 0 0 0 0 0 0 0 0 0 127 0" result="hardAlpha"/>
<feOffset dy="1.70213"/>
<feGaussianBlur stdDeviation="3.40426"/>
<feColorMatrix type="matrix" values="0 0 0 0 0 0 0 0 0 0 0 0 0 0 0 0 0 0 0.16 0"/>
<feBlend mode="normal" in2="BackgroundImageFix" result="effect1_dropShadow_4060_86703"/>
<feBlend mode="normal" in="SourceGraphic" in2="effect1_dropShadow_4060_86703" result="shape"/>
</filter>
<clipPath id="clip0_4060_86703">
<rect x="28" y="12" width="160" height="62.6383" rx="10.2128" fill="white"/>
</clipPath>
</defs>
</svg>
