<svg width="200" height="140" viewBox="0 0 200 140" fill="none" xmlns="http://www.w3.org/2000/svg">
<rect x="0.5" y="0.5" width="199" height="139" rx="11.5" fill="#1E2029"/>
<rect x="0.5" y="0.5" width="199" height="139" rx="11.5" stroke="#303341"/>
<rect x="54.3203" y="41.68" width="40.32" height="23.04" rx="11.52" fill="#0066FF"/>
<path d="M89.5999 53.2C89.5999 56.7788 86.6987 59.68 83.1199 59.68C79.5411 59.68 76.6399 56.7788 76.6399 53.2C76.6399 49.6212 79.5411 46.72 83.1199 46.72C86.6987 46.72 89.5999 49.6212 89.5999 53.2Z" fill="white" stroke="white" stroke-width="1.44"/>
<rect x="106.88" y="42.4" width="38.88" height="21.6" rx="10.8" fill="#1A1B23" stroke="#363949" stroke-width="1.44"/>
<path d="M124.16 53.2C124.16 56.7788 121.259 59.68 117.68 59.68C114.102 59.68 111.2 56.7788 111.2 53.2C111.2 49.6212 114.102 46.72 117.68 46.72C121.259 46.72 124.16 49.6212 124.16 53.2Z" fill="#D3D5DE" stroke="#D3D5DE" stroke-width="1.44"/>
<path d="M65.8403 76.48H83.1203C89.085 76.48 93.9203 81.3153 93.9203 87.28C93.9203 93.2447 89.085 98.08 83.1203 98.08H65.8403C59.8756 98.08 55.0403 93.2447 55.0403 87.28C55.0403 81.3153 59.8756 76.48 65.8403 76.48Z" fill="#C91A03" stroke="#B01703" stroke-width="1.44"/>
<path fill-rule="evenodd" clip-rule="evenodd" d="M82.7996 94.48C86.7761 94.48 89.9996 91.2565 89.9996 87.28C89.9996 83.3036 86.7761 80.08 82.7996 80.08C78.8232 80.08 75.5996 83.3036 75.5996 87.28C75.5996 91.2565 78.8232 94.48 82.7996 94.48Z" fill="white"/>
<rect x="106.16" y="76.24" width="40.32" height="23.04" rx="11.52" fill="#6C7393" fill-opacity="0.16"/>
<rect x="106.88" y="76.96" width="38.88" height="21.6" rx="10.8" stroke="#6C7393" stroke-opacity="0.32" stroke-width="1.44"/>
<path d="M124.16 87.76C124.16 91.3388 121.259 94.24 117.68 94.24C114.102 94.24 111.2 91.3388 111.2 87.76C111.2 84.1812 114.102 81.28 117.68 81.28C121.259 81.28 124.16 84.1812 124.16 87.76Z" fill="#414558" stroke="#414558" stroke-width="1.44"/>
</svg>
