<svg width="200" height="140" viewBox="0 0 200 140" fill="none" xmlns="http://www.w3.org/2000/svg">
<rect x="0.5" y="0.5" width="199" height="139" rx="11.5" fill="#1E2029"/>
<rect x="0.5" y="0.5" width="199" height="139" rx="11.5" stroke="#303341"/>
<g filter="url(#filter0_d_4060_86713)">
<rect x="48" y="51" width="103" height="32" rx="8" fill="#363949"/>
<path d="M64.6278 63.5611V62.5455H71.7188V63.5611H68.7457V72H67.6009V63.5611H64.6278ZM75.2553 72.1477C73.3349 72.1477 72.0423 70.6889 72.0423 68.4915C72.0423 66.2756 73.3349 64.8168 75.2553 64.8168C77.1758 64.8168 78.4684 66.2756 78.4684 68.4915C78.4684 70.6889 77.1758 72.1477 75.2553 72.1477ZM75.2553 71.169C76.7141 71.169 77.3789 69.9134 77.3789 68.4915C77.3789 67.0696 76.7141 65.7955 75.2553 65.7955C73.7965 65.7955 73.1318 67.0696 73.1318 68.4915C73.1318 69.9134 73.7965 71.169 75.2553 71.169ZM83.0772 72.1477C81.1567 72.1477 79.8641 70.6889 79.8641 68.4915C79.8641 66.2756 81.1567 64.8168 83.0772 64.8168C84.9976 64.8168 86.2902 66.2756 86.2902 68.4915C86.2902 70.6889 84.9976 72.1477 83.0772 72.1477ZM83.0772 71.169C84.536 71.169 85.2008 69.9134 85.2008 68.4915C85.2008 67.0696 84.536 65.7955 83.0772 65.7955C81.6184 65.7955 80.9536 67.0696 80.9536 68.4915C80.9536 69.9134 81.6184 71.169 83.0772 71.169ZM88.0183 62.5455H89.1078V70.1534C89.1078 70.8413 89.2186 71.0906 89.6987 71.0767C89.9573 71.0675 90.0542 71.0352 90.1604 71.0028L90.382 71.9446C90.1927 72 89.8834 72.0554 89.5695 72.0554C88.5354 72.0554 88.0183 71.4599 88.0183 70.4489V62.5455ZM94.5314 64.9091V65.8324H93.0172V69.9688C93.0172 70.892 93.4788 71.0398 93.959 71.0398C94.199 71.0398 94.3467 71.0028 94.4391 70.9844L94.6607 71.9631C94.5129 72.0185 94.2544 72.0923 93.8482 72.0923C92.9249 72.0923 91.9277 71.5014 91.9277 70.2642V65.8324H90.8567V64.9091H91.9277V63.2102H93.0172V64.9091H94.5314ZM96.2352 72V64.9091H97.3247V72H96.2352ZM96.7892 63.7273C96.3645 63.7273 96.0137 63.3949 96.0137 62.9886C96.0137 62.5824 96.3645 62.25 96.7892 62.25C97.2139 62.25 97.5648 62.5824 97.5648 62.9886C97.5648 63.3949 97.2139 63.7273 96.7892 63.7273ZM99.3852 74.6591V64.9091H100.438V66.0355H100.567C100.807 65.6662 101.232 64.8168 102.617 64.8168C104.408 64.8168 105.645 66.2386 105.645 68.473C105.645 70.7259 104.408 72.1477 102.635 72.1477C101.269 72.1477 100.807 71.2983 100.567 70.9105H100.475V74.6591H99.3852ZM100.456 68.4545C100.456 70.0611 101.176 71.169 102.487 71.169C103.854 71.169 104.556 69.9688 104.556 68.4545C104.556 66.9588 103.872 65.7955 102.487 65.7955C101.158 65.7955 100.456 66.8665 100.456 68.4545ZM114.177 64.9091V65.8324H112.663V69.9688C112.663 70.892 113.125 71.0398 113.605 71.0398C113.845 71.0398 113.992 71.0028 114.085 70.9844L114.306 71.9631C114.159 72.0185 113.9 72.0923 113.494 72.0923C112.571 72.0923 111.573 71.5014 111.573 70.2642V65.8324H110.502V64.9091H111.573V63.2102H112.663V64.9091H114.177ZM118.778 72.1477C116.728 72.1477 115.472 70.6889 115.472 68.5099C115.472 66.331 116.747 64.8168 118.667 64.8168C120.144 64.8168 121.714 65.7216 121.714 68.3622V68.8239H116.567C116.617 70.3427 117.499 71.169 118.778 71.169C119.632 71.169 120.274 70.7997 120.551 70.0611L121.603 70.3565C121.271 71.4276 120.218 72.1477 118.778 72.1477ZM116.567 67.8821H120.606C120.606 66.6818 119.849 65.7955 118.667 65.7955C117.421 65.7955 116.64 66.7788 116.567 67.8821ZM124.058 64.9091L125.757 67.8082L127.456 64.9091H128.712L126.422 68.4545L128.712 72H127.456L125.757 69.2486L124.058 72H122.803L125.055 68.4545L122.803 64.9091H124.058ZM133.415 64.9091V65.8324H131.901V69.9688C131.901 70.892 132.363 71.0398 132.843 71.0398C133.083 71.0398 133.23 71.0028 133.323 70.9844L133.544 71.9631C133.397 72.0185 133.138 72.0923 132.732 72.0923C131.809 72.0923 130.811 71.5014 130.811 70.2642V65.8324H129.74V64.9091H130.811V63.2102H131.901V64.9091H133.415Z" fill="white"/>
<g clip-path="url(#clip0_4060_86713)">
<path d="M91.5 82H107.5L99.5 90L91.5 82Z" fill="#363949"/>
</g>
</g>
<defs>
<filter id="filter0_d_4060_86713" x="44" y="49" width="111" height="47" filterUnits="userSpaceOnUse" color-interpolation-filters="sRGB">
<feFlood flood-opacity="0" result="BackgroundImageFix"/>
<feColorMatrix in="SourceAlpha" type="matrix" values="0 0 0 0 0 0 0 0 0 0 0 0 0 0 0 0 0 0 127 0" result="hardAlpha"/>
<feOffset dy="2"/>
<feGaussianBlur stdDeviation="2"/>
<feColorMatrix type="matrix" values="0 0 0 0 0.152941 0 0 0 0 0.2 0 0 0 0 0.243137 0 0 0 0.2 0"/>
<feBlend mode="normal" in2="BackgroundImageFix" result="effect1_dropShadow_4060_86713"/>
<feBlend mode="normal" in="SourceGraphic" in2="effect1_dropShadow_4060_86713" result="shape"/>
</filter>
<clipPath id="clip0_4060_86713">
<rect width="16" height="7" fill="white" transform="translate(91.5 83)"/>
</clipPath>
</defs>
</svg>
