<svg width="200" height="140" viewBox="0 0 200 140" fill="none" xmlns="http://www.w3.org/2000/svg">
<g clip-path="url(#clip0_4060_86826)">
<rect width="200" height="140" rx="12" fill="#1E2029"/>
<path fill-rule="evenodd" clip-rule="evenodd" d="M49 26.5L48 27.5L52 31.5L56 27.5L55 26.5L52 29.5L49 26.5Z" fill="#626784"/>
<path d="M71.6747 33.1477C69.902 33.1477 68.6648 31.7259 68.6648 29.473C68.6648 27.2386 69.902 25.8168 71.6932 25.8168C73.0781 25.8168 73.5028 26.6662 73.7429 27.0355H73.8352V23.5455H74.9247V33H73.8722V31.9105H73.7429C73.5028 32.2983 73.0412 33.1477 71.6747 33.1477ZM71.8224 32.169C73.1335 32.169 73.8537 31.0611 73.8537 29.4545C73.8537 27.8665 73.152 26.7955 71.8224 26.7955C70.4375 26.7955 69.7543 27.9588 69.7543 29.4545C69.7543 30.9688 70.456 32.169 71.8224 32.169ZM80.0171 33.1477C78.0966 33.1477 76.804 31.6889 76.804 29.4915C76.804 27.2756 78.0966 25.8168 80.0171 25.8168C81.9375 25.8168 83.2301 27.2756 83.2301 29.4915C83.2301 31.6889 81.9375 33.1477 80.0171 33.1477ZM80.0171 32.169C81.4759 32.169 82.1406 30.9134 82.1406 29.4915C82.1406 28.0696 81.4759 26.7955 80.0171 26.7955C78.5583 26.7955 77.8935 28.0696 77.8935 29.4915C77.8935 30.9134 78.5583 32.169 80.0171 32.169ZM87.8389 33.1477C85.8446 33.1477 84.6258 31.6151 84.6258 29.4915C84.6258 27.331 85.9 25.8168 87.8204 25.8168C89.3162 25.8168 90.4426 26.7031 90.6272 28.0327H89.5378C89.3716 27.3864 88.7991 26.7955 87.8389 26.7955C86.5647 26.7955 85.7153 27.848 85.7153 29.4545C85.7153 31.098 86.5463 32.169 87.8389 32.169C88.6883 32.169 89.3346 31.7074 89.5378 30.9318H90.6272C90.4426 32.1875 89.4085 33.1477 87.8389 33.1477ZM96.7537 30.1009V25.9091H97.8432V33H96.7537V31.7997H96.6798C96.3474 32.5199 95.6457 33.0923 94.5747 33.0923C93.2452 33.0923 92.2849 32.2244 92.2849 30.4148V25.9091H93.3744V30.3409C93.3744 31.375 94.0207 32.0398 94.9256 32.0398C95.7381 32.0398 96.7537 31.4304 96.7537 30.1009ZM99.9036 33V25.9091H100.956V27.017H101.049C101.344 26.2599 102.027 25.8168 102.951 25.8168C103.883 25.8168 104.502 26.2599 104.853 27.017H104.926C105.291 26.283 106.034 25.8168 107.05 25.8168C108.315 25.8168 109.21 26.5877 109.21 28.2543V33H108.121V28.2543C108.121 27.2063 107.456 26.7955 106.681 26.7955C105.683 26.7955 105.111 27.4695 105.111 28.3835V33H104.003V28.1435C104.003 27.3356 103.426 26.7955 102.6 26.7955C101.75 26.7955 100.993 27.5295 100.993 28.5682V33H99.9036ZM114.24 33.1477C112.191 33.1477 110.935 31.6889 110.935 29.5099C110.935 27.331 112.209 25.8168 114.13 25.8168C115.607 25.8168 117.177 26.7216 117.177 29.3622V29.8239H112.029C112.08 31.3427 112.962 32.169 114.24 32.169C115.095 32.169 115.736 31.7997 116.013 31.0611L117.066 31.3565C116.733 32.4276 115.681 33.1477 114.24 33.1477ZM112.029 28.8821H116.069C116.069 27.6818 115.312 26.7955 114.13 26.7955C112.883 26.7955 112.103 27.7788 112.029 28.8821ZM119.988 28.7344V33H118.899V25.9091H119.951V27.017H120.044C120.376 26.2969 121.041 25.8168 122.112 25.8168C123.548 25.8168 124.513 26.6847 124.513 28.4943V33H123.423V28.5682C123.423 27.4556 122.809 26.7955 121.798 26.7955C120.755 26.7955 119.988 27.4972 119.988 28.7344ZM129.652 25.9091V26.8324H128.138V30.9688C128.138 31.892 128.6 32.0398 129.08 32.0398C129.32 32.0398 129.468 32.0028 129.56 31.9844L129.781 32.9631C129.634 33.0185 129.375 33.0923 128.969 33.0923C128.046 33.0923 127.048 32.5014 127.048 31.2642V26.8324H125.977V25.9091H127.048V24.2102H128.138V25.9091H129.652ZM133.443 33.1662C132.095 33.1662 131.024 32.3722 131.024 30.9872C131.024 29.3622 132.459 29.0714 133.775 28.9006C135.068 28.7344 135.603 28.7805 135.603 28.2543V28.2173C135.603 27.3079 135.109 26.777 134.107 26.777C133.069 26.777 132.501 27.331 132.261 27.848L131.227 27.4787C131.781 26.1861 132.999 25.8168 134.071 25.8168C134.975 25.8168 136.693 26.0753 136.693 28.3281V33H135.603V32.0398H135.548C135.326 32.5014 134.68 33.1662 133.443 33.1662ZM133.609 32.1875C134.901 32.1875 135.603 31.3196 135.603 30.4332V29.4361C135.419 29.6577 134.181 29.7869 133.72 29.8423C132.87 29.9531 132.113 30.2116 132.113 31.0426C132.113 31.7997 132.741 32.1875 133.609 32.1875ZM141.83 25.9091V26.8324H140.316V30.9688C140.316 31.892 140.777 32.0398 141.258 32.0398C141.498 32.0398 141.645 32.0028 141.738 31.9844L141.959 32.9631C141.812 33.0185 141.553 33.0923 141.147 33.0923C140.223 33.0923 139.226 32.5014 139.226 31.2642V26.8324H138.155V25.9091H139.226V24.2102H140.316V25.9091H141.83ZM143.534 33V25.9091H144.623V33H143.534ZM144.088 24.7273C143.663 24.7273 143.312 24.3949 143.312 23.9886C143.312 23.5824 143.663 23.25 144.088 23.25C144.513 23.25 144.863 23.5824 144.863 23.9886C144.863 24.3949 144.513 24.7273 144.088 24.7273ZM149.565 33.1477C147.644 33.1477 146.351 31.6889 146.351 29.4915C146.351 27.2756 147.644 25.8168 149.565 25.8168C151.485 25.8168 152.778 27.2756 152.778 29.4915C152.778 31.6889 151.485 33.1477 149.565 33.1477ZM149.565 32.169C151.023 32.169 151.688 30.9134 151.688 29.4915C151.688 28.0696 151.023 26.7955 149.565 26.7955C148.106 26.7955 147.441 28.0696 147.441 29.4915C147.441 30.9134 148.106 32.169 149.565 32.169ZM155.595 28.7344V33H154.506V25.9091H155.558V27.017H155.651C155.983 26.2969 156.648 25.8168 157.719 25.8168C159.154 25.8168 160.119 26.6847 160.119 28.4943V33H159.03V28.5682C159.03 27.4556 158.416 26.7955 157.405 26.7955C156.361 26.7955 155.595 27.4972 155.595 28.7344Z" fill="#D3D5DE"/>
<path d="M98.0199 55.4972L97.0412 55.7741C96.8519 55.2848 96.4595 54.7585 95.5085 54.7585C94.6406 54.7585 93.9943 55.2017 93.9943 55.8111C93.9943 56.3558 94.3729 56.6374 95.2131 56.8452L96.2656 57.1037C97.5305 57.413 98.1491 58.0362 98.1491 59.0241C98.1491 60.2475 97.0273 61.1477 95.3793 61.1477C93.9297 61.1477 92.9371 60.506 92.6832 59.3011L93.7173 59.0426C93.9112 59.8043 94.4698 60.1875 95.3608 60.1875C96.3764 60.1875 97.0227 59.6889 97.0227 59.0795C97.0227 58.5902 96.6857 58.2486 95.9702 58.0824L94.7884 57.8054C93.4865 57.5007 92.9048 56.8452 92.9048 55.8665C92.9048 54.6662 94.0128 53.8168 95.5085 53.8168C96.9119 53.8168 97.6783 54.4908 98.0199 55.4972ZM102.735 61.1477C100.814 61.1477 99.5218 59.6889 99.5218 57.4915C99.5218 55.2756 100.814 53.8168 102.735 53.8168C104.655 53.8168 105.948 55.2756 105.948 57.4915C105.948 59.6889 104.655 61.1477 102.735 61.1477ZM102.735 60.169C104.194 60.169 104.858 58.9134 104.858 57.4915C104.858 56.0696 104.194 54.7955 102.735 54.7955C101.276 54.7955 100.611 56.0696 100.611 57.4915C100.611 58.9134 101.276 60.169 102.735 60.169ZM112.145 58.1009V53.9091H113.234V61H112.145V59.7997H112.071C111.738 60.5199 111.037 61.0923 109.966 61.0923C108.636 61.0923 107.676 60.2244 107.676 58.4148V53.9091H108.765V58.3409C108.765 59.375 109.412 60.0398 110.317 60.0398C111.129 60.0398 112.145 59.4304 112.145 58.1009ZM115.295 61V53.9091H116.347V54.9801H116.421C116.68 54.2784 117.418 53.7983 118.268 53.7983C118.429 53.7983 118.716 53.8075 118.84 53.8168V54.9247C118.766 54.9062 118.466 54.8509 118.175 54.8509C117.141 54.8509 116.384 55.5526 116.384 56.5128V61H115.295ZM122.861 61.1477C120.867 61.1477 119.648 59.6151 119.648 57.4915C119.648 55.331 120.923 53.8168 122.843 53.8168C124.339 53.8168 125.465 54.7031 125.65 56.0327H124.56C124.394 55.3864 123.822 54.7955 122.861 54.7955C121.587 54.7955 120.738 55.848 120.738 57.4545C120.738 59.098 121.569 60.169 122.861 60.169C123.711 60.169 124.357 59.7074 124.56 58.9318H125.65C125.465 60.1875 124.431 61.1477 122.861 61.1477ZM130.281 61.1477C128.231 61.1477 126.975 59.6889 126.975 57.5099C126.975 55.331 128.249 53.8168 130.17 53.8168C131.647 53.8168 133.217 54.7216 133.217 57.3622V57.8239H128.069C128.12 59.3427 129.002 60.169 130.281 60.169C131.135 60.169 131.776 59.7997 132.053 59.0611L133.106 59.3565C132.773 60.4276 131.721 61.1477 130.281 61.1477ZM128.069 56.8821H132.109C132.109 55.6818 131.352 54.7955 130.17 54.7955C128.923 54.7955 128.143 55.7788 128.069 56.8821Z" fill="#D3D5DE"/>
<path d="M96.081 81.9091V82.8324H94.5668V86.9688C94.5668 87.892 95.0284 88.0398 95.5085 88.0398C95.7486 88.0398 95.8963 88.0028 95.9886 87.9844L96.2102 88.9631C96.0625 89.0185 95.804 89.0923 95.3977 89.0923C94.4744 89.0923 93.4773 88.5014 93.4773 87.2642V82.8324H92.4062V81.9091H93.4773V80.2102H94.5668V81.9091H96.081ZM100.589 89.1477C98.6689 89.1477 97.3763 87.6889 97.3763 85.4915C97.3763 83.2756 98.6689 81.8168 100.589 81.8168C102.51 81.8168 103.802 83.2756 103.802 85.4915C103.802 87.6889 102.51 89.1477 100.589 89.1477ZM100.589 88.169C102.048 88.169 102.713 86.9134 102.713 85.4915C102.713 84.0696 102.048 82.7955 100.589 82.7955C99.1305 82.7955 98.4657 84.0696 98.4657 85.4915C98.4657 86.9134 99.1305 88.169 100.589 88.169ZM108.411 89.1477C106.491 89.1477 105.198 87.6889 105.198 85.4915C105.198 83.2756 106.491 81.8168 108.411 81.8168C110.332 81.8168 111.624 83.2756 111.624 85.4915C111.624 87.6889 110.332 89.1477 108.411 89.1477ZM108.411 88.169C109.87 88.169 110.535 86.9134 110.535 85.4915C110.535 84.0696 109.87 82.7955 108.411 82.7955C106.952 82.7955 106.288 84.0696 106.288 85.4915C106.288 86.9134 106.952 88.169 108.411 88.169ZM113.352 79.5455H114.442V87.1534C114.442 87.8413 114.553 88.0906 115.033 88.0767C115.291 88.0675 115.388 88.0352 115.494 88.0028L115.716 88.9446C115.527 89 115.217 89.0554 114.903 89.0554C113.869 89.0554 113.352 88.4599 113.352 87.4489V79.5455ZM121.804 83.4972L120.826 83.7741C120.636 83.2848 120.244 82.7585 119.293 82.7585C118.425 82.7585 117.779 83.2017 117.779 83.8111C117.779 84.3558 118.157 84.6374 118.997 84.8452L120.05 85.1037C121.315 85.413 121.934 86.0362 121.934 87.0241C121.934 88.2475 120.812 89.1477 119.164 89.1477C117.714 89.1477 116.722 88.506 116.468 87.3011L117.502 87.0426C117.696 87.8043 118.254 88.1875 119.145 88.1875C120.161 88.1875 120.807 87.6889 120.807 87.0795C120.807 86.5902 120.47 86.2486 119.755 86.0824L118.573 85.8054C117.271 85.5007 116.689 84.8452 116.689 83.8665C116.689 82.6662 117.797 81.8168 119.293 81.8168C120.696 81.8168 121.463 82.4908 121.804 83.4972Z" fill="#D3D5DE"/>
<path fill-rule="evenodd" clip-rule="evenodd" d="M49.5 115L52.5 112L49.5 109L50.5 108L54.5 112L50.5 116L49.5 115Z" fill="#626784"/>
<path d="M74.0199 111.497L73.0412 111.774C72.8519 111.285 72.4595 110.759 71.5085 110.759C70.6406 110.759 69.9943 111.202 69.9943 111.811C69.9943 112.356 70.3729 112.637 71.2131 112.845L72.2656 113.104C73.5305 113.413 74.1491 114.036 74.1491 115.024C74.1491 116.248 73.0273 117.148 71.3793 117.148C69.9297 117.148 68.9371 116.506 68.6832 115.301L69.7173 115.043C69.9112 115.804 70.4698 116.188 71.3608 116.188C72.3764 116.188 73.0227 115.689 73.0227 115.08C73.0227 114.59 72.6857 114.249 71.9702 114.082L70.7884 113.805C69.4865 113.501 68.9048 112.845 68.9048 111.866C68.9048 110.666 70.0128 109.817 71.5085 109.817C72.9119 109.817 73.6783 110.491 74.0199 111.497ZM78.7348 117.148C76.7405 117.148 75.5218 115.615 75.5218 113.491C75.5218 111.331 76.7959 109.817 78.7164 109.817C80.2121 109.817 81.3385 110.703 81.5232 112.033H80.4337C80.2675 111.386 79.6951 110.795 78.7348 110.795C77.4607 110.795 76.6113 111.848 76.6113 113.455C76.6113 115.098 77.4422 116.169 78.7348 116.169C79.5843 116.169 80.2306 115.707 80.4337 114.932H81.5232C81.3385 116.188 80.3044 117.148 78.7348 117.148ZM83.1809 117V109.909H84.2334V110.98H84.3073C84.5658 110.278 85.3044 109.798 86.1539 109.798C86.3155 109.798 86.6017 109.808 86.7263 109.817V110.925C86.6525 110.906 86.3524 110.851 86.0616 110.851C85.0275 110.851 84.2704 111.553 84.2704 112.513V117H83.1809ZM88.0828 117V109.909H89.1723V117H88.0828ZM88.6368 108.727C88.212 108.727 87.8612 108.395 87.8612 107.989C87.8612 107.582 88.212 107.25 88.6368 107.25C89.0615 107.25 89.4123 107.582 89.4123 107.989C89.4123 108.395 89.0615 108.727 88.6368 108.727ZM91.2327 119.659V109.909H92.2853V111.036H92.4146C92.6546 110.666 93.0793 109.817 94.4643 109.817C96.2555 109.817 97.4927 111.239 97.4927 113.473C97.4927 115.726 96.2555 117.148 94.4827 117.148C93.1163 117.148 92.6546 116.298 92.4146 115.911H92.3222V119.659H91.2327ZM92.3038 113.455C92.3038 115.061 93.0239 116.169 94.335 116.169C95.7015 116.169 96.4032 114.969 96.4032 113.455C96.4032 111.959 95.72 110.795 94.335 110.795C93.0055 110.795 92.3038 111.866 92.3038 113.455ZM102.303 109.909V110.832H100.789V114.969C100.789 115.892 101.251 116.04 101.731 116.04C101.971 116.04 102.119 116.003 102.211 115.984L102.433 116.963C102.285 117.018 102.026 117.092 101.62 117.092C100.697 117.092 99.6997 116.501 99.6997 115.264V110.832H98.6287V109.909H99.6997V108.21H100.789V109.909H102.303ZM108.903 111.497L107.924 111.774C107.735 111.285 107.343 110.759 106.392 110.759C105.524 110.759 104.877 111.202 104.877 111.811C104.877 112.356 105.256 112.637 106.096 112.845L107.149 113.104C108.414 113.413 109.032 114.036 109.032 115.024C109.032 116.248 107.911 117.148 106.262 117.148C104.813 117.148 103.82 116.506 103.566 115.301L104.6 115.043C104.794 115.804 105.353 116.188 106.244 116.188C107.26 116.188 107.906 115.689 107.906 115.08C107.906 114.59 107.569 114.249 106.853 114.082L105.672 113.805C104.37 113.501 103.788 112.845 103.788 111.866C103.788 110.666 104.896 109.817 106.392 109.817C107.795 109.817 108.561 110.491 108.903 111.497Z" fill="#D3D5DE"/>
</g>
<rect x="0.5" y="0.5" width="199" height="139" rx="11.5" stroke="#303341"/>
<defs>
<clipPath id="clip0_4060_86826">
<rect width="200" height="140" rx="12" fill="white"/>
</clipPath>
</defs>
</svg>
