<svg width="200" height="140" viewBox="0 0 200 140" fill="none" xmlns="http://www.w3.org/2000/svg">
<rect x="0.5" y="0.5" width="199" height="139" rx="11.5" fill="#F6F7F9"/>
<rect x="0.5" y="0.5" width="199" height="139" rx="11.5" stroke="#E8E9EE"/>
<path d="M36 21.8217C36 18.0542 39.0542 15 42.8217 15H157.645C161.413 15 164.467 18.0542 164.467 21.8217V33.8717C164.467 37.6392 161.413 40.6934 157.645 40.6934H42.8217C39.0542 40.6934 36 37.6392 36 33.8717V21.8217Z" fill="white"/>
<path d="M36 21.8217C36 18.0542 39.0542 15 42.8217 15H157.645C161.413 15 164.467 18.0542 164.467 21.8217V33.8717C164.467 37.6392 161.413 40.6934 157.645 40.6934H42.8217C39.0542 40.6934 36 37.6392 36 33.8717V21.8217Z" stroke="#3385FF" stroke-width="1.60584"/>
<path d="M48.7484 31.4654C47.1471 31.4654 46.1685 30.2347 46.1685 28.5297C46.1685 26.795 47.1916 25.5792 48.7335 25.5792C49.9345 25.5792 50.8389 26.2909 50.9872 27.3584H50.1124C49.979 26.8394 49.5193 26.365 48.7484 26.365C47.7253 26.365 47.0433 27.2101 47.0433 28.5C47.0433 29.8196 47.7105 30.6795 48.7484 30.6795C49.4304 30.6795 49.9493 30.3089 50.1124 29.6862H50.9872C50.8389 30.6944 50.0086 31.4654 48.7484 31.4654ZM54.468 31.4654C53.0447 31.4654 52.0513 30.3237 52.0513 28.5149C52.0513 26.7208 53.0447 25.5792 54.4829 25.5792C55.5949 25.5792 55.9359 26.2612 56.1286 26.5577H56.2028V23.7555H57.0775V31.3467H56.2324V30.472H56.1286C55.9359 30.7833 55.5652 31.4654 54.468 31.4654ZM54.5866 30.6795C55.6393 30.6795 56.2176 29.7899 56.2176 28.5C56.2176 27.2249 55.6542 26.365 54.5866 26.365C53.4746 26.365 52.9261 27.2991 52.9261 28.5C52.9261 29.7158 53.4895 30.6795 54.5866 30.6795ZM58.8533 31.3467V23.7555H59.7281V28.1887H59.8319L62.3227 25.6533H63.4051L60.9995 28.0849L63.583 31.3467H62.471L60.3397 28.6483L59.7281 29.2154V31.3467H58.8533Z" fill="#21222C"/>
<path fill-rule="evenodd" clip-rule="evenodd" d="M149.212 26.6423L148.409 27.4453L151.621 30.6569L154.833 27.4453L154.03 26.6423L151.621 29.0511L149.212 26.6423Z" fill="#8A8FA8"/>
<g filter="url(#filter0_d_4060_86420)">
<g clip-path="url(#clip0_4060_86420)">
<path d="M36 47.9196C36 44.3721 38.8758 41.4962 42.4234 41.4962H159.577C163.124 41.4962 166 44.3721 166 47.9196V119.036C166 122.584 163.124 125.46 159.577 125.46H42.4234C38.8758 125.46 36 122.584 36 119.036V47.9196Z" fill="white"/>
<path fill-rule="evenodd" clip-rule="evenodd" d="M49.6506 56.3502L48.8477 57.1531L52.0593 60.3648L55.271 57.1531L54.4681 56.3502L52.0593 58.759L49.6506 56.3502Z" fill="#8A8FA8"/>
<path d="M69.7388 56.7129L68.9529 56.9353C68.801 56.5424 68.4859 56.1198 67.7223 56.1198C67.0255 56.1198 66.5066 56.4757 66.5066 56.9649C66.5066 57.4023 66.8105 57.6284 67.4851 57.7952L68.3302 58.0028C69.3459 58.2512 69.8425 58.7515 69.8425 59.5448C69.8425 60.527 68.9418 61.2498 67.6185 61.2498C66.4547 61.2498 65.6577 60.7346 65.4539 59.7672L66.2842 59.5596C66.4398 60.1712 66.8883 60.4789 67.6037 60.4789C68.4192 60.4789 68.9381 60.0785 68.9381 59.5893C68.9381 59.1963 68.6675 58.9221 68.093 58.7886L67.1441 58.5662C66.0988 58.3216 65.6318 57.7952 65.6318 57.0094C65.6318 56.0457 66.5214 55.3637 67.7223 55.3637C68.8492 55.3637 69.4645 55.9048 69.7388 56.7129ZM71.2115 61.1312V55.4378H72.0566V56.2977H72.116C72.3235 55.7343 72.9166 55.3488 73.5986 55.3488C73.7283 55.3488 73.9582 55.3562 74.0582 55.3637V56.2533C73.9989 56.2384 73.758 56.194 73.5245 56.194C72.6942 56.194 72.0863 56.7574 72.0863 57.5284V61.1312H71.2115ZM77.287 61.2498C75.6858 61.2498 74.7072 60.0192 74.7072 58.3142C74.7072 56.5794 75.7302 55.3637 77.2722 55.3637C78.4732 55.3637 79.3776 56.0753 79.5259 57.1429H78.6511C78.5176 56.6239 78.058 56.1495 77.287 56.1495C76.264 56.1495 75.582 56.9946 75.582 58.2845C75.582 59.6041 76.2492 60.464 77.287 60.464C77.9691 60.464 78.488 60.0934 78.6511 59.4706H79.5259C79.3776 60.4789 78.5473 61.2498 77.287 61.2498Z" fill="#21222C"/>
<rect width="130" height="25.8467" transform="translate(36 70.5546)" fill="#D6E7FF"/>
<path fill-rule="evenodd" clip-rule="evenodd" d="M69.3213 85.8101L71.73 83.4013L69.3213 80.9926L70.1242 80.1896L73.3359 83.4013L70.1242 86.613L69.3213 85.8101Z" fill="#8A8FA8"/>
<path d="M87.2884 87.0966C85.6871 87.0966 84.7086 85.866 84.7086 84.1609C84.7086 82.4262 85.7316 81.2104 87.2736 81.2104C88.4745 81.2104 89.379 81.9221 89.5272 82.9896H88.6525C88.519 82.4707 88.0594 81.9962 87.2884 81.9962C86.2654 81.9962 85.5833 82.8413 85.5833 84.1313C85.5833 85.4508 86.2505 86.3108 87.2884 86.3108C87.9704 86.3108 88.4894 85.9401 88.6525 85.3174H89.5272C89.379 86.3256 88.5487 87.0966 87.2884 87.0966ZM93.0081 87.0966C91.5847 87.0966 90.5913 85.9549 90.5913 84.1461C90.5913 82.3521 91.5847 81.2104 93.0229 81.2104C94.1349 81.2104 94.4759 81.8924 94.6687 82.189H94.7428V79.3867H95.6176V86.978H94.7724V86.1032H94.6687C94.4759 86.4146 94.1052 87.0966 93.0081 87.0966ZM93.1267 86.3108C94.1794 86.3108 94.7576 85.4212 94.7576 84.1313C94.7576 82.8562 94.1942 81.9962 93.1267 81.9962C92.0147 81.9962 91.4661 82.9303 91.4661 84.1313C91.4661 85.347 92.0295 86.3108 93.1267 86.3108ZM97.3933 86.978V79.3867H98.2681V83.8199H98.3719L100.863 81.2845H101.945L99.5395 83.7161L102.123 86.978H101.011L98.8797 84.2795L98.2681 84.8466V86.978H97.3933Z" fill="#21222C"/>
<path fill-rule="evenodd" clip-rule="evenodd" d="M69.3213 111.657L71.73 109.248L69.3213 106.839L70.1242 106.036L73.3359 109.248L70.1242 112.46L69.3213 111.657Z" fill="#8A8FA8"/>
<path d="M87.3625 112.943C85.7168 112.943 84.7086 111.772 84.7086 110.022C84.7086 108.273 85.7316 107.057 87.2736 107.057C88.4597 107.057 89.72 107.784 89.72 109.904V110.274H85.587C85.6278 111.494 86.3358 112.157 87.3625 112.157C88.0483 112.157 88.5635 111.861 88.7859 111.268L89.631 111.505C89.3641 112.365 88.519 112.943 87.3625 112.943ZM85.587 109.518H88.8304C88.8304 108.555 88.2225 107.843 87.2736 107.843C86.2728 107.843 85.6463 108.632 85.587 109.518ZM91.6023 107.131L92.9664 109.459L94.3304 107.131H95.3386L93.5001 109.978L95.3386 112.825H94.3304L92.9664 110.615L91.6023 112.825H90.5941L92.403 109.978L90.5941 107.131H91.6023ZM98.3145 112.958C97.2321 112.958 96.3722 112.321 96.3722 111.209C96.3722 109.904 97.5249 109.67 98.5813 109.533C99.6192 109.4 100.049 109.437 100.049 109.014V108.985C100.049 108.254 99.6526 107.828 98.8482 107.828C98.0142 107.828 97.5583 108.273 97.3655 108.688L96.5353 108.391C96.9801 107.354 97.9586 107.057 98.8186 107.057C99.5451 107.057 100.924 107.265 100.924 109.074V112.825H100.049V112.054H100.005C99.8268 112.424 99.3078 112.958 98.3145 112.958ZM98.4479 112.172C99.4858 112.172 100.049 111.475 100.049 110.764V109.963C99.9009 110.141 98.9075 110.245 98.5369 110.289C97.8548 110.378 97.2469 110.586 97.2469 111.253C97.2469 111.861 97.751 112.172 98.4479 112.172ZM102.573 112.825V107.131H103.418V108.021H103.492C103.729 107.413 104.278 107.057 105.019 107.057C105.768 107.057 106.265 107.413 106.546 108.021H106.606C106.898 107.431 107.495 107.057 108.311 107.057C109.326 107.057 110.045 107.676 110.045 109.014V112.825H109.171V109.014C109.171 108.173 108.637 107.843 108.014 107.843C107.214 107.843 106.754 108.384 106.754 109.118V112.825H105.864V108.925C105.864 108.277 105.401 107.843 104.737 107.843C104.055 107.843 103.448 108.432 103.448 109.266V112.825H102.573ZM111.697 114.96V107.131H112.542V108.036H112.646C112.839 107.739 113.18 107.057 114.292 107.057C115.73 107.057 116.723 108.199 116.723 109.993C116.723 111.802 115.73 112.943 114.307 112.943C113.209 112.943 112.839 112.261 112.646 111.95H112.572V114.96H111.697ZM112.557 109.978C112.557 111.268 113.135 112.157 114.188 112.157C115.285 112.157 115.848 111.194 115.848 109.978C115.848 108.777 115.3 107.843 114.188 107.843C113.12 107.843 112.557 108.703 112.557 109.978ZM118.11 105.233H118.985V111.342C118.985 111.894 119.074 112.094 119.459 112.083C119.667 112.076 119.744 112.05 119.83 112.024L120.008 112.78C119.856 112.825 119.607 112.869 119.355 112.869C118.525 112.869 118.11 112.391 118.11 111.579V105.233ZM123.25 112.943C121.605 112.943 120.596 111.772 120.596 110.022C120.596 108.273 121.619 107.057 123.161 107.057C124.348 107.057 125.608 107.784 125.608 109.904V110.274H121.475C121.516 111.494 122.224 112.157 123.25 112.157C123.936 112.157 124.451 111.861 124.674 111.268L125.519 111.505C125.252 112.365 124.407 112.943 123.25 112.943ZM121.475 109.518H124.718C124.718 108.555 124.11 107.843 123.161 107.843C122.161 107.843 121.534 108.632 121.475 109.518ZM131.024 108.406L130.238 108.629C130.086 108.236 129.771 107.813 129.007 107.813C128.31 107.813 127.791 108.169 127.791 108.658C127.791 109.096 128.095 109.322 128.77 109.489L129.615 109.696C130.631 109.945 131.127 110.445 131.127 111.238C131.127 112.22 130.227 112.943 128.903 112.943C127.739 112.943 126.942 112.428 126.739 111.461L127.569 111.253C127.725 111.865 128.173 112.172 128.888 112.172C129.704 112.172 130.223 111.772 130.223 111.283C130.223 110.89 129.952 110.615 129.378 110.482L128.429 110.26C127.384 110.015 126.917 109.489 126.917 108.703C126.917 107.739 127.806 107.057 129.007 107.057C130.134 107.057 130.749 107.598 131.024 108.406Z" fill="#21222C"/>
</g>
</g>
<defs>
<filter id="filter0_d_4060_86420" x="29.5766" y="37.4816" width="142.847" height="96.8102" filterUnits="userSpaceOnUse" color-interpolation-filters="sRGB">
<feFlood flood-opacity="0" result="BackgroundImageFix"/>
<feColorMatrix in="SourceAlpha" type="matrix" values="0 0 0 0 0 0 0 0 0 0 0 0 0 0 0 0 0 0 127 0" result="hardAlpha"/>
<feOffset dy="2.40876"/>
<feGaussianBlur stdDeviation="3.21168"/>
<feColorMatrix type="matrix" values="0 0 0 0 0.152941 0 0 0 0 0.2 0 0 0 0 0.243137 0 0 0 0.2 0"/>
<feBlend mode="normal" in2="BackgroundImageFix" result="effect1_dropShadow_4060_86420"/>
<feBlend mode="normal" in="SourceGraphic" in2="effect1_dropShadow_4060_86420" result="shape"/>
</filter>
<clipPath id="clip0_4060_86420">
<path d="M36 47.9196C36 44.3721 38.8758 41.4962 42.4234 41.4962H159.577C163.124 41.4962 166 44.3721 166 47.9196V119.036C166 122.584 163.124 125.46 159.577 125.46H42.4234C38.8758 125.46 36 122.584 36 119.036V47.9196Z" fill="white"/>
</clipPath>
</defs>
</svg>
