<svg width="200" height="140" viewBox="0 0 200 140" fill="none" xmlns="http://www.w3.org/2000/svg">
<g clip-path="url(#clip0_4060_86944)">
<rect width="200" height="140" rx="12" fill="#1E2029"/>
<g clip-path="url(#clip1_4060_86944)">
<rect x="0.319489" y="0.319489" width="24.9201" height="24.9201" stroke="#36394A" stroke-width="0.638978"/>
<rect x="25.2394" y="0.319489" width="24.9201" height="24.9201" stroke="#36394A" stroke-width="0.638978"/>
<rect x="50.1593" y="0.319489" width="24.9201" height="24.9201" stroke="#36394A" stroke-width="0.638978"/>
<rect x="75.0802" y="0.319489" width="24.9201" height="24.9201" stroke="#36394A" stroke-width="0.638978"/>
<rect x="100" y="0.319489" width="24.9201" height="24.9201" stroke="#36394A" stroke-width="0.638978"/>
<rect x="124.92" y="0.319489" width="24.9201" height="24.9201" stroke="#36394A" stroke-width="0.638978"/>
<rect x="149.84" y="0.319489" width="24.9201" height="24.9201" stroke="#36394A" stroke-width="0.638978"/>
<rect x="174.76" y="0.319489" width="24.9201" height="24.9201" stroke="#36394A" stroke-width="0.638978"/>
<rect x="0.319489" y="25.2396" width="24.9201" height="24.9201" stroke="#36394A" stroke-width="0.638978"/>
<rect x="25.2394" y="25.2396" width="24.9201" height="24.9201" stroke="#36394A" stroke-width="0.638978"/>
<rect x="50.1593" y="25.2396" width="24.9201" height="24.9201" stroke="#36394A" stroke-width="0.638978"/>
<rect x="75.0802" y="25.2396" width="24.9201" height="24.9201" stroke="#36394A" stroke-width="0.638978"/>
<rect x="100" y="25.2396" width="24.9201" height="24.9201" stroke="#36394A" stroke-width="0.638978"/>
<rect x="124.92" y="25.2396" width="24.9201" height="24.9201" stroke="#36394A" stroke-width="0.638978"/>
<rect x="149.84" y="25.2396" width="24.9201" height="24.9201" stroke="#36394A" stroke-width="0.638978"/>
<rect x="174.76" y="25.2396" width="24.9201" height="24.9201" stroke="#36394A" stroke-width="0.638978"/>
<rect x="0.319489" y="50.1598" width="24.9201" height="24.9201" stroke="#36394A" stroke-width="0.638978"/>
<rect x="25.2394" y="50.1598" width="24.9201" height="24.9201" stroke="#36394A" stroke-width="0.638978"/>
<rect x="50.1593" y="50.1598" width="24.9201" height="24.9201" stroke="#36394A" stroke-width="0.638978"/>
<rect x="75.0802" y="50.1598" width="24.9201" height="24.9201" stroke="#36394A" stroke-width="0.638978"/>
<rect x="100" y="50.1598" width="24.9201" height="24.9201" stroke="#36394A" stroke-width="0.638978"/>
<rect x="124.92" y="50.1598" width="24.9201" height="24.9201" stroke="#36394A" stroke-width="0.638978"/>
<rect x="149.84" y="50.1598" width="24.9201" height="24.9201" stroke="#36394A" stroke-width="0.638978"/>
<rect x="174.76" y="50.1598" width="24.9201" height="24.9201" stroke="#36394A" stroke-width="0.638978"/>
<rect x="0.319489" y="75.0799" width="24.9201" height="24.9201" stroke="#36394A" stroke-width="0.638978"/>
<rect x="25.2394" y="75.0799" width="24.9201" height="24.9201" stroke="#36394A" stroke-width="0.638978"/>
<rect x="50.1593" y="75.0799" width="24.9201" height="24.9201" stroke="#36394A" stroke-width="0.638978"/>
<rect x="75.0802" y="75.0799" width="24.9201" height="24.9201" stroke="#36394A" stroke-width="0.638978"/>
<rect x="100" y="75.0799" width="24.9201" height="24.9201" stroke="#36394A" stroke-width="0.638978"/>
<rect x="124.92" y="75.0799" width="24.9201" height="24.9201" stroke="#36394A" stroke-width="0.638978"/>
<rect x="149.84" y="75.0799" width="24.9201" height="24.9201" stroke="#36394A" stroke-width="0.638978"/>
<rect x="174.76" y="75.0799" width="24.9201" height="24.9201" stroke="#36394A" stroke-width="0.638978"/>
<rect x="0.319489" y="100" width="24.9201" height="24.9201" stroke="#36394A" stroke-width="0.638978"/>
<rect x="25.2394" y="100" width="24.9201" height="24.9201" stroke="#36394A" stroke-width="0.638978"/>
<rect x="50.1593" y="100" width="24.9201" height="24.9201" stroke="#36394A" stroke-width="0.638978"/>
<rect x="75.0802" y="100" width="24.9201" height="24.9201" stroke="#36394A" stroke-width="0.638978"/>
<rect x="100" y="100" width="24.9201" height="24.9201" stroke="#36394A" stroke-width="0.638978"/>
<rect x="124.92" y="100" width="24.9201" height="24.9201" stroke="#36394A" stroke-width="0.638978"/>
<rect x="149.84" y="100" width="24.9201" height="24.9201" stroke="#36394A" stroke-width="0.638978"/>
<rect x="174.76" y="100" width="24.9201" height="24.9201" stroke="#36394A" stroke-width="0.638978"/>
<rect x="0.319489" y="124.92" width="24.9201" height="24.9201" stroke="#36394A" stroke-width="0.638978"/>
<rect x="25.2394" y="124.92" width="24.9201" height="24.9201" stroke="#36394A" stroke-width="0.638978"/>
<rect x="50.1593" y="124.92" width="24.9201" height="24.9201" stroke="#36394A" stroke-width="0.638978"/>
<rect x="75.0802" y="124.92" width="24.9201" height="24.9201" stroke="#36394A" stroke-width="0.638978"/>
<rect x="100" y="124.92" width="24.9201" height="24.9201" stroke="#36394A" stroke-width="0.638978"/>
<rect x="124.92" y="124.92" width="24.9201" height="24.9201" stroke="#36394A" stroke-width="0.638978"/>
<rect x="149.84" y="124.92" width="24.9201" height="24.9201" stroke="#36394A" stroke-width="0.638978"/>
<rect x="174.76" y="124.92" width="24.9201" height="24.9201" stroke="#36394A" stroke-width="0.638978"/>
<mask id="mask0_4060_86944" style="mask-type:alpha" maskUnits="userSpaceOnUse" x="0" y="0" width="200" height="140">
<rect x="200" y="140" width="200" height="140" transform="rotate(-180 200 140)" fill="url(#paint0_radial_4060_86944)"/>
</mask>
<g mask="url(#mask0_4060_86944)">
<rect width="200" height="140" fill="#1E2029"/>
</g>
</g>
<path d="M102.792 87H94.9174L92.8924 80.7H80.7424L78.7174 87H70.8424L81.6424 55.5H91.9924L102.792 87ZM86.3674 63.15L82.7674 74.4H90.8674L87.2674 63.15H86.3674Z" fill="#8A8FA8"/>
<path d="M112.566 87.45C107.301 87.45 104.151 84.3 104.151 80.385C104.151 76.02 107.301 72.825 113.601 72.825H118.641V72.42C118.641 70.485 117.201 69 115.176 69C113.106 69 112.161 70.17 111.801 71.025H105.141C105.591 67.38 108.921 63.6 115.176 63.6C121.521 63.6 125.436 67.515 125.436 72.42V87H119.541L119.091 85.02H118.866C118.011 86.055 115.761 87.45 112.566 87.45ZM114.051 82.185C116.931 82.185 118.641 80.52 118.641 77.865V77.325H114.501C112.071 77.325 110.991 78.315 110.991 79.755C110.991 81.24 112.071 82.185 114.051 82.185Z" fill="#626784"/>
</g>
<rect x="0.5" y="0.5" width="199" height="139" rx="11.5" stroke="#303341"/>
<defs>
<radialGradient id="paint0_radial_4060_86944" cx="0" cy="0" r="1" gradientUnits="userSpaceOnUse" gradientTransform="translate(300 204.5) rotate(90) scale(109.5 122.053)">
<stop stop-color="white" stop-opacity="0"/>
<stop offset="1" stop-color="white"/>
</radialGradient>
<clipPath id="clip0_4060_86944">
<rect width="200" height="140" rx="12" fill="white"/>
</clipPath>
<clipPath id="clip1_4060_86944">
<rect width="200" height="150.16" fill="white"/>
</clipPath>
</defs>
</svg>
