<svg width="200" height="140" viewBox="0 0 200 140" fill="none" xmlns="http://www.w3.org/2000/svg">
<g clip-path="url(#clip0_4060_86959)">
<rect width="200" height="140" rx="12" fill="#1E2029"/>
<g clip-path="url(#clip1_4060_86959)">
<rect x="0.319489" y="0.319489" width="24.9201" height="24.9201" stroke="#36394A" stroke-width="0.638978"/>
<rect x="25.2394" y="0.319489" width="24.9201" height="24.9201" stroke="#36394A" stroke-width="0.638978"/>
<rect x="50.1593" y="0.319489" width="24.9201" height="24.9201" stroke="#36394A" stroke-width="0.638978"/>
<rect x="75.0802" y="0.319489" width="24.9201" height="24.9201" stroke="#36394A" stroke-width="0.638978"/>
<rect x="100" y="0.319489" width="24.9201" height="24.9201" stroke="#36394A" stroke-width="0.638978"/>
<rect x="124.92" y="0.319489" width="24.9201" height="24.9201" stroke="#36394A" stroke-width="0.638978"/>
<rect x="149.84" y="0.319489" width="24.9201" height="24.9201" stroke="#36394A" stroke-width="0.638978"/>
<rect x="174.76" y="0.319489" width="24.9201" height="24.9201" stroke="#36394A" stroke-width="0.638978"/>
<rect x="0.319489" y="25.2397" width="24.9201" height="24.9201" stroke="#36394A" stroke-width="0.638978"/>
<rect x="25.2394" y="25.2397" width="24.9201" height="24.9201" stroke="#36394A" stroke-width="0.638978"/>
<rect x="50.1593" y="25.2397" width="24.9201" height="24.9201" stroke="#36394A" stroke-width="0.638978"/>
<rect x="75.0802" y="25.2397" width="24.9201" height="24.9201" stroke="#36394A" stroke-width="0.638978"/>
<rect x="100" y="25.2397" width="24.9201" height="24.9201" stroke="#36394A" stroke-width="0.638978"/>
<rect x="124.92" y="25.2397" width="24.9201" height="24.9201" stroke="#36394A" stroke-width="0.638978"/>
<rect x="149.84" y="25.2397" width="24.9201" height="24.9201" stroke="#36394A" stroke-width="0.638978"/>
<rect x="174.76" y="25.2397" width="24.9201" height="24.9201" stroke="#36394A" stroke-width="0.638978"/>
<rect x="0.319489" y="50.1597" width="24.9201" height="24.9201" stroke="#36394A" stroke-width="0.638978"/>
<rect x="25.2394" y="50.1597" width="24.9201" height="24.9201" stroke="#36394A" stroke-width="0.638978"/>
<rect x="50.1593" y="50.1597" width="24.9201" height="24.9201" stroke="#36394A" stroke-width="0.638978"/>
<rect x="75.0802" y="50.1597" width="24.9201" height="24.9201" stroke="#36394A" stroke-width="0.638978"/>
<rect x="100" y="50.1597" width="24.9201" height="24.9201" stroke="#36394A" stroke-width="0.638978"/>
<rect x="124.92" y="50.1597" width="24.9201" height="24.9201" stroke="#36394A" stroke-width="0.638978"/>
<rect x="149.84" y="50.1597" width="24.9201" height="24.9201" stroke="#36394A" stroke-width="0.638978"/>
<rect x="174.76" y="50.1597" width="24.9201" height="24.9201" stroke="#36394A" stroke-width="0.638978"/>
<rect x="0.319489" y="75.0799" width="24.9201" height="24.9201" stroke="#36394A" stroke-width="0.638978"/>
<rect x="25.2394" y="75.0799" width="24.9201" height="24.9201" stroke="#36394A" stroke-width="0.638978"/>
<rect x="50.1593" y="75.0799" width="24.9201" height="24.9201" stroke="#36394A" stroke-width="0.638978"/>
<rect x="75.0802" y="75.0799" width="24.9201" height="24.9201" stroke="#36394A" stroke-width="0.638978"/>
<rect x="100" y="75.0799" width="24.9201" height="24.9201" stroke="#36394A" stroke-width="0.638978"/>
<rect x="124.92" y="75.0799" width="24.9201" height="24.9201" stroke="#36394A" stroke-width="0.638978"/>
<rect x="149.84" y="75.0799" width="24.9201" height="24.9201" stroke="#36394A" stroke-width="0.638978"/>
<rect x="174.76" y="75.0799" width="24.9201" height="24.9201" stroke="#36394A" stroke-width="0.638978"/>
<rect x="0.319489" y="100" width="24.9201" height="24.9201" stroke="#36394A" stroke-width="0.638978"/>
<rect x="25.2394" y="100" width="24.9201" height="24.9201" stroke="#36394A" stroke-width="0.638978"/>
<rect x="50.1593" y="100" width="24.9201" height="24.9201" stroke="#36394A" stroke-width="0.638978"/>
<rect x="75.0802" y="100" width="24.9201" height="24.9201" stroke="#36394A" stroke-width="0.638978"/>
<rect x="100" y="100" width="24.9201" height="24.9201" stroke="#36394A" stroke-width="0.638978"/>
<rect x="124.92" y="100" width="24.9201" height="24.9201" stroke="#36394A" stroke-width="0.638978"/>
<rect x="149.84" y="100" width="24.9201" height="24.9201" stroke="#36394A" stroke-width="0.638978"/>
<rect x="174.76" y="100" width="24.9201" height="24.9201" stroke="#36394A" stroke-width="0.638978"/>
<rect x="0.319489" y="124.92" width="24.9201" height="24.9201" stroke="#36394A" stroke-width="0.638978"/>
<rect x="25.2394" y="124.92" width="24.9201" height="24.9201" stroke="#36394A" stroke-width="0.638978"/>
<rect x="50.1593" y="124.92" width="24.9201" height="24.9201" stroke="#36394A" stroke-width="0.638978"/>
<rect x="75.0802" y="124.92" width="24.9201" height="24.9201" stroke="#36394A" stroke-width="0.638978"/>
<rect x="100" y="124.92" width="24.9201" height="24.9201" stroke="#36394A" stroke-width="0.638978"/>
<rect x="124.92" y="124.92" width="24.9201" height="24.9201" stroke="#36394A" stroke-width="0.638978"/>
<rect x="149.84" y="124.92" width="24.9201" height="24.9201" stroke="#36394A" stroke-width="0.638978"/>
<rect x="174.76" y="124.92" width="24.9201" height="24.9201" stroke="#36394A" stroke-width="0.638978"/>
<mask id="mask0_4060_86959" style="mask-type:alpha" maskUnits="userSpaceOnUse" x="0" y="0" width="200" height="140">
<rect x="200" y="140" width="200" height="140" transform="rotate(-180 200 140)" fill="url(#paint0_radial_4060_86959)"/>
</mask>
<g mask="url(#mask0_4060_86959)">
<rect width="200" height="140" fill="#1E2029"/>
</g>
</g>
<path d="M96.001 59C96.001 61.2019 94.5777 63.0714 92.6009 63.7386V70.4134C93.174 70.4223 93.7331 70.4345 94.2831 70.4466C95.655 70.4765 96.9712 70.5053 98.3127 70.4784C100.604 70.4326 102.578 70.2176 104.2 69.6228C105.771 69.047 107.01 68.1171 107.892 66.568C108.34 65.7795 108.714 64.7985 108.978 63.5738C107.224 62.797 106.001 61.0414 106.001 59C106.001 56.2386 108.24 54 111.001 54C113.762 54 116.001 56.2386 116.001 59C116.001 61.3534 114.375 63.327 112.185 63.8589C111.865 65.5215 111.36 66.9434 110.673 68.1508C109.367 70.4454 107.481 71.828 105.302 72.6272C103.174 73.4074 100.773 73.6299 98.3767 73.6778C97.0263 73.7048 95.5433 73.674 94.0771 73.6435C93.5812 73.6332 93.0871 73.623 92.6009 73.615V76.2614C94.5777 76.9286 96.001 78.7981 96.001 81C96.001 83.7614 93.7624 86 91.001 86C88.2396 86 86.001 83.7614 86.001 81C86.001 78.7982 87.4242 76.9288 89.4009 76.2615V63.7385C87.4242 63.0712 86.001 61.2018 86.001 59C86.001 56.2386 88.2396 54 91.001 54C93.7624 54 96.001 56.2386 96.001 59Z" fill="#626784"/>
</g>
<rect x="0.5" y="0.5" width="199" height="139" rx="11.5" stroke="#303341"/>
<defs>
<radialGradient id="paint0_radial_4060_86959" cx="0" cy="0" r="1" gradientUnits="userSpaceOnUse" gradientTransform="translate(300 204.5) rotate(90) scale(109.5 122.053)">
<stop stop-color="white" stop-opacity="0"/>
<stop offset="1" stop-color="white"/>
</radialGradient>
<clipPath id="clip0_4060_86959">
<rect width="200" height="140" rx="12" fill="white"/>
</clipPath>
<clipPath id="clip1_4060_86959">
<rect width="200" height="150.16" fill="white"/>
</clipPath>
</defs>
</svg>
