<svg width="512" height="512" viewBox="0 0 512 512" fill="none" xmlns="http://www.w3.org/2000/svg">
<path d="M441.25 295H304.75C299.365 295 295 299.365 295 304.75V441.25C295 446.635 299.365 451 304.75 451H441.25C446.635 451 451 446.635 451 441.25V304.75C451 299.365 446.635 295 441.25 295Z" fill="#FF2222"/>
<path fill-rule="evenodd" clip-rule="evenodd" d="M207.25 61H70.75C65.3875 61 61 65.3875 61 70.75V207.25C61 212.613 65.3875 217 70.75 217H129.25C134.613 217 139 212.613 139 207.25V148.75C139 143.387 143.387 139 148.75 139H207.25C212.613 139 217 134.613 217 129.25V70.75C217 65.3875 212.613 61 207.25 61Z" fill="#FF2222"/>
<path fill-rule="evenodd" clip-rule="evenodd" d="M207.25 295H70.75C65.3875 295 61 299.387 61 304.75V363.25C61 368.613 65.3875 373 70.75 373H129.25C134.613 373 139 377.387 139 382.75V441.25C139 446.613 143.387 451 148.75 451H207.25C212.613 451 217 446.613 217 441.25V304.75C217 299.387 212.613 295 207.25 295Z" fill="#FF2222"/>
<path fill-rule="evenodd" clip-rule="evenodd" d="M441.25 61H382.75C377.387 61 373 65.3875 373 70.75V129.25C373 134.612 368.612 139 363.25 139H304.75C299.387 139 295 143.387 295 148.75V207.25C295 212.612 299.387 217 304.75 217H441.25C446.612 217 451 212.612 451 207.25V70.75C451 65.3875 446.612 61 441.25 61Z" fill="#FF2222"/>
</svg>
